<svg xmlns="http://www.w3.org/2000/svg" width="392.998" height="438.959" viewBox="0 0 392.998 438.959">
  <g id="Group_3968" data-name="Group 3968" transform="translate(-2.488 -3874.369)">
    <path id="Path_168718" data-name="Path 168718" d="M311.248,3961.978s-54.852-76.642-26.3-70.631,31.559,21.791,63.869,4.509,39.824-33.061,45.835-9.768,0,31.558,24.8,27.05,30.056,2.254-9.016,41.326C368.354,3954.464,311.248,3961.978,311.248,3961.978Z" transform="translate(-176.264 0)" fill="#5ce1e6"/>
    <path id="Path_168719" data-name="Path 168719" d="M130.976,4137.263s-169.315,146.876-119.222,268.1c0,0,26.049,76.944,167.311,76.944s151.281-51.8,166.309-78.849c12.022-39.073,46.586-89.709-111.206-266.2Z" transform="translate(0 -168.981)" fill="#5ce1e6"/>
    <rect id="Rectangle_1367" data-name="Rectangle 1367" width="120.944" height="15.671" rx="7.835" transform="translate(122.424 3953.778)" fill="#5ce1e6"/>
    <g id="Group_3963" data-name="Group 3963" transform="translate(27.423 4110.802)" style="mix-blend-mode: soft-light;isolation: isolate">
      <path id="Path_168720" data-name="Path 168720" d="M150.029,4712.875a.726.726,0,0,1-.157-.018c-31.874-7.391-54.262-23.34-66.544-47.408-14.111-27.651-12.137-61.21-8-84.494A231.674,231.674,0,0,1,87.8,4536.647a.691.691,0,0,1,1.274.537,230.256,230.256,0,0,0-12.392,44.045c-4.1,23.066-6.06,56.294,7.875,83.6,12.089,23.684,34.167,39.391,65.623,46.685a.691.691,0,0,1-.156,1.365Z" transform="translate(-72.29 -4536.225)" fill="#fff"/>
    </g>
    <g id="Group_3964" data-name="Group 3964" transform="translate(136.639 3908.748)" style="mix-blend-mode: soft-light;isolation: isolate">
      <path id="Path_168721" data-name="Path 168721" d="M396.28,3982.289c-10.446,0-17.767-8.054-18.075-8.39a.812.812,0,0,1,.043-1.072c.281-.258.719-.408.976-.127.071.078,7.232,7.58,17.058,7.58h.089c6.389,0,12.523-3.137,18.233-9.474a.692.692,0,0,1,.976.01.989.989,0,0,1,.051,1.2c-5.985,6.642-12.468,10.275-19.267,10.275Z" transform="translate(-378.023 -3970.609)" fill="#fff"/>
    </g>
    <g id="Group_3965" data-name="Group 3965" transform="translate(216.353 3917.482)" style="mix-blend-mode: soft-light;isolation: isolate">
      <path id="Path_168722" data-name="Path 168722" d="M610.616,4005.291c-3.815,0-6.523-.987-8.063-2.943-2.252-2.86-1.09-6.649-1.04-6.808a.691.691,0,0,1,1.319.416c-.016.053-.983,3.274.813,5.545,1.467,1.855,4.366,2.645,8.617,2.348a.691.691,0,0,1,.1,1.379Q611.452,4005.291,610.616,4005.291Z" transform="translate(-601.169 -3995.057)" fill="#fff"/>
    </g>
    <circle id="Ellipse_912" data-name="Ellipse 912" cx="51.216" cy="51.216" r="51.216" transform="translate(256.39 3978.724) rotate(-73.226)" fill="#5ce1e6"/>
    <path id="Path_168723" data-name="Path 168723" d="M771.661,3964.536a.551.551,0,0,1-.255-.056.563.563,0,0,1-.262-.752,47.64,47.64,0,0,1,42.277-27.042,48.3,48.3,0,0,1,8.642.628.563.563,0,1,1-.183,1.112,47.113,47.113,0,0,0-8.44-.613,46.52,46.52,0,0,0-41.282,26.4A.561.561,0,0,1,771.661,3964.536Z" transform="translate(-494.035 -40.052)" fill="#fff" opacity="0.61"/>
    <circle id="Ellipse_913" data-name="Ellipse 913" cx="43.348" cy="43.348" r="43.348" transform="translate(260.039 3945.566) rotate(-45)" fill="#fff" opacity="0.61"/>
    <circle id="Ellipse_914" data-name="Ellipse 914" cx="35.991" cy="35.991" r="35.991" transform="translate(223.043 4035.971) rotate(-45)" fill="#5ce1e6"/>
    <path id="Path_168724" data-name="Path 168724" d="M677.891,4252.211a.39.39,0,0,1-.179-.04.4.4,0,0,1-.184-.528,33.478,33.478,0,0,1,29.71-19,33.919,33.919,0,0,1,6.073.441.4.4,0,1,1-.129.782,33.149,33.149,0,0,0-5.931-.431,32.691,32.691,0,0,0-29.01,18.556A.4.4,0,0,1,677.891,4252.211Z" transform="translate(-433.872 -230.284)" fill="#fff" opacity="0.61"/>
    <circle id="Ellipse_915" data-name="Ellipse 915" cx="30.462" cy="30.462" r="30.462" transform="translate(231.66 4036.742) rotate(-45)" fill="#fff" opacity="0.61"/>
    <g id="Group_3966" data-name="Group 3966" transform="translate(261.271 4015.168)">
      <path id="Path_168725" data-name="Path 168725" d="M737.778,4312.782l-.057-3.314a27.019,27.019,0,0,1-9.332-1.856,1.917,1.917,0,0,1-1.1-2.246l.789-3.1a1.933,1.933,0,0,1,2.6-1.309,22.427,22.427,0,0,0,8.616,1.66c3.327-.057,5.789-1.228,5.749-3.54-.036-2.086-1.974-3.293-6.62-4.455-6.629-1.691-11.416-4.487-11.515-10.295-.09-5.245,3.676-9.314,10.312-10.5l-.057-3.314a1.931,1.931,0,0,1,1.9-1.964l1.947-.033a1.931,1.931,0,0,1,1.964,1.9l.051,2.976a24.627,24.627,0,0,1,7.392,1.2,1.921,1.921,0,0,1,1.24,2.3l-.725,2.868a1.925,1.925,0,0,1-2.519,1.344,20.1,20.1,0,0,0-7.251-1.188c-3.948.067-5.047,1.722-5.022,3.188.031,1.8,2.421,3,7.579,4.5,7.369,2.073,10.466,5.066,10.56,10.536.086,5.019-3.558,9.594-10.757,10.846l.064,3.708a1.931,1.931,0,0,1-1.9,1.964l-1.947.034A1.931,1.931,0,0,1,737.778,4312.782Z" transform="translate(-726.909 -4268.514)" fill="#fff"/>
    </g>
    <circle id="Ellipse_916" data-name="Ellipse 916" cx="31.287" cy="31.287" r="31.287" transform="translate(312.33 4065.532) rotate(-65.002)" fill="#5ce1e6"/>
    <path id="Path_168726" data-name="Path 168726" d="M912.784,4302.337a.332.332,0,0,1-.155-.034.345.345,0,0,1-.16-.46,29.1,29.1,0,0,1,25.827-16.52,29.439,29.439,0,0,1,5.279.384.344.344,0,1,1-.112.679,28.787,28.787,0,0,0-5.156-.375,28.418,28.418,0,0,0-25.218,16.131A.344.344,0,0,1,912.784,4302.337Z" transform="translate(-584.889 -264.148)" fill="#fff" opacity="0.61"/>
    <circle id="Ellipse_917" data-name="Ellipse 917" cx="26.481" cy="26.481" r="26.481" transform="translate(324.783 4028.41) rotate(-7.771)" fill="#fff" opacity="0.61"/>
    <g id="Group_3967" data-name="Group 3967" transform="translate(342.892 4032.314)">
      <path id="Path_168727" data-name="Path 168727" d="M964.844,4354.991l-.05-2.88a23.5,23.5,0,0,1-8.113-1.613,1.667,1.667,0,0,1-.954-1.953l.685-2.7a1.68,1.68,0,0,1,2.261-1.139,19.514,19.514,0,0,0,7.489,1.443c2.893-.05,5.033-1.067,5-3.077-.031-1.814-1.716-2.864-5.755-3.873-5.763-1.47-9.923-3.9-10.01-8.949-.078-4.559,3.2-8.1,8.964-9.127l-.049-2.881a1.679,1.679,0,0,1,1.649-1.708l1.693-.029a1.678,1.678,0,0,1,1.707,1.649l.045,2.586a21.428,21.428,0,0,1,6.426,1.041,1.67,1.67,0,0,1,1.078,2l-.63,2.493a1.674,1.674,0,0,1-2.19,1.168,17.482,17.482,0,0,0-6.3-1.032c-3.432.059-4.387,1.5-4.365,2.771.027,1.569,2.1,2.611,6.589,3.908,6.406,1.8,9.1,4.4,9.18,9.159.075,4.363-3.093,8.34-9.351,9.429l.055,3.224a1.679,1.679,0,0,1-1.65,1.707l-1.693.029A1.679,1.679,0,0,1,964.844,4354.991Z" transform="translate(-955.395 -4316.51)" fill="#fff"/>
    </g>
    <circle id="Ellipse_918" data-name="Ellipse 918" cx="24.237" cy="24.237" r="24.237" transform="translate(284.063 4127.726) rotate(-82.731)" fill="#5ce1e6"/>
    <path id="Path_168728" data-name="Path 168728" d="M809.7,4474.69a.252.252,0,0,1-.12-.026.267.267,0,0,1-.124-.356,22.546,22.546,0,0,1,20.007-12.8,22.813,22.813,0,0,1,4.09.3.266.266,0,1,1-.086.526,22.292,22.292,0,0,0-3.994-.29,22.015,22.015,0,0,0-19.536,12.5A.266.266,0,0,1,809.7,4474.69Z" transform="translate(-518.681 -377.397)" fill="#fff" opacity="0.61"/>
    <circle id="Ellipse_919" data-name="Ellipse 919" cx="20.514" cy="20.514" r="20.514" transform="translate(284.796 4096.44) rotate(-23.08)" fill="#fff" opacity="0.61"/>
    <path id="Path_95933" data-name="Path 95933" d="M430.483,4439c2.339.48,4.721.8,7,1.461a35.705,35.705,0,0,1,25.769,33.919c.018,1.4,0,2.8,0,4.279H447.476c-.111-2.256-.083-4.491-.35-6.69a19.83,19.83,0,0,0-39.277.025,20.815,20.815,0,0,0-.207,2.594q-.023,13.534,0,27.067v.873h23.763v15.914h-24.6a103.186,103.186,0,0,1-9.323,31.808h57.777v15.906H384.313a7.874,7.874,0,0,1-7.486-4.2,7.76,7.76,0,0,1,.539-8.447,86.259,86.259,0,0,0,13.255-33.925c.04-.245.078-.49.108-.735a1.953,1.953,0,0,0-.035-.362H367.983v-15.849h23.768V4501.2c0-8.734-.018-17.468,0-26.2a35.646,35.646,0,0,1,24.708-34.208,68.612,68.612,0,0,1,7.128-1.564c.318-.067.63-.152.943-.229Z" transform="translate(-234.93 -362.93)" fill="#fff"/>
    <path id="Path_95933-2" data-name="Path 95933" d="M864.671,4001c.88.181,1.777.3,2.637.55a13.44,13.44,0,0,1,9.7,12.768c.007.528,0,1.054,0,1.611h-5.94c-.041-.849-.031-1.691-.132-2.518a7.464,7.464,0,0,0-14.785.01,7.83,7.83,0,0,0-.078.976q-.009,5.095,0,10.189v.328h8.945v5.991h-9.26a38.851,38.851,0,0,1-3.509,11.973H874v5.988H847.291a2.964,2.964,0,0,1-2.818-1.581,2.921,2.921,0,0,1,.2-3.179,32.471,32.471,0,0,0,4.99-12.77c.015-.093.029-.185.041-.277a.72.72,0,0,0-.013-.136h-8.549v-5.967h8.947v-.543c0-3.288-.007-6.576,0-9.862a13.418,13.418,0,0,1,9.3-12.877,25.642,25.642,0,0,1,2.683-.589c.12-.025.237-.057.355-.086Z" transform="translate(-539.065 -81.395)" fill="#fff"/>
    <path id="Path_95933-3" data-name="Path 95933" d="M853.4,4492c.394.081.8.135,1.181.246a6.02,6.02,0,0,1,4.344,5.718c0,.236,0,.471,0,.721h-2.66c-.019-.38-.014-.757-.059-1.128a3.343,3.343,0,0,0-6.621,0,3.537,3.537,0,0,0-.035.438q0,2.281,0,4.563v.147h4.006v2.684h-4.147a17.4,17.4,0,0,1-1.572,5.361h9.74v2.681h-11.96a1.327,1.327,0,0,1-1.262-.708,1.308,1.308,0,0,1,.091-1.424,14.545,14.545,0,0,0,2.234-5.719c.007-.041.013-.082.018-.123a.311.311,0,0,0-.006-.061h-3.829v-2.672h4.007v-.243c0-1.472,0-2.944,0-4.417a6.01,6.01,0,0,1,4.165-5.767,11.586,11.586,0,0,1,1.2-.263c.054-.012.106-.026.159-.039Z" transform="translate(-540.171 -396.997)" fill="#fff"/>
  </g>
</svg>
