<svg xmlns="http://www.w3.org/2000/svg" width="110.979" height="52.506" viewBox="0 0 110.979 52.506">
  <path id="Path_84804" data-name="Path 84804" d="M10850.172,5945.923c-.38.375-.731.785-1.145,1.121q-5.754,4.685-11.526,9.348c-.2.159-.365.352-.561.511a1.628,1.628,0,0,1-2.339.025,1.576,1.576,0,0,1,.162-2.4c1.524-1.439,3.084-2.84,4.657-4.227.883-.778,1.82-1.5,2.91-2.386-1.125,0-2.006-.048-2.88.008a130.391,130.391,0,0,1-28.53-1.466c-3.11-.488-6.022.34-8.895,1.382-1.153.418-2.275.92-3.416,1.372a10.425,10.425,0,0,1-7.924.011c-1.478-.581-2.946-1.183-4.431-1.749-3.524-1.343-7.1-1.219-10.78-.644a119.093,119.093,0,0,1-25.3,1.117c-.988-.057-1.982-.008-3.113-.008.329.3.567.548.835.758a75.653,75.653,0,0,1,11.752,11.513,25.426,25.426,0,0,0,10.646,8.123,26.154,26.154,0,0,0,10.133,1.438c4.442-.144,8.877-.545,13.32-.652,2.665-.064,5.336.289,8.007.336,4.187.074,8.4.333,12.556-.008,5.585-.459,10.029-3.424,13.78-7.474.442-.477.851-.989,1.318-1.438a1.605,1.605,0,1,1,2.379,2.155,30.328,30.328,0,0,1-9.508,7.76,28.136,28.136,0,0,1-13.6,2.568c-4.371-.123-8.733-.538-13.1-.643-2.665-.063-5.338.2-8.006.348a68.506,68.506,0,0,1-13.206-.032,24.951,24.951,0,0,1-14.712-7.648c-1.162-1.186-2.257-2.445-3.312-3.728a76.259,76.259,0,0,0-14.424-13.073,14.166,14.166,0,0,1-2.007-1.468,2.273,2.273,0,0,1-.7-1.642,2.009,2.009,0,0,1,1.246-1.28,42.336,42.336,0,0,0,9.808-3.976c1.457-.795,2.858-1.693,4.282-2.547.31-.186.605-.4.917-.579,1.036-.6,1.948-.448,2.459.4a1.59,1.59,0,0,1-.71,2.3c-2.536,1.525-5.111,2.985-7.674,4.465a3.306,3.306,0,0,0-.954.663c1.372.082,2.742.2,4.115.241a132.857,132.857,0,0,0,25.178-1.561c3.856-.62,7.451.41,11,1.716.711.262,1.41.561,2.1.881a9,9,0,0,0,7.336.036,42.466,42.466,0,0,1,8.458-2.537,26.8,26.8,0,0,1,7.413.329,133.593,133.593,0,0,0,26.4.9c.021,0,.039-.043.059-.066-.024-.058-.034-.15-.077-.17-6.312-2.94-11.776-7.143-17.2-11.43a55.807,55.807,0,0,0-12.132-7.716c-2.332-1.018-4.732-1.769-7.35-1.221a8.236,8.236,0,0,0-4.382,2.628c-.64.686-1.2,1.45-1.821,2.152a3.994,3.994,0,0,1-6.232-.123,22.79,22.79,0,0,0-3.562-3.6c-2.24-1.631-4.818-1.5-7.374-.727a37.445,37.445,0,0,0-10.385,5.516c-1.956,1.364-3.834,2.838-5.748,4.261a8.128,8.128,0,0,1-.79.569,1.553,1.553,0,0,1-2.145-.3,1.507,1.507,0,0,1,.219-2.222c1.042-.893,2.139-1.723,3.241-2.542,4.006-2.979,8.076-5.866,12.757-7.718,3.4-1.346,6.876-1.99,10.423-.465a12.475,12.475,0,0,1,4.874,3.873c1.723,2.189,1.587,2.253,3.4-.016a11.643,11.643,0,0,1,7.582-4.62,15.053,15.053,0,0,1,7.924,1.3,59.31,59.31,0,0,1,13.481,8.4c4.457,3.457,8.866,6.97,13.862,9.647a42.544,42.544,0,0,0,9.414,3.8,5.743,5.743,0,0,1,1.552,1.042Z" transform="translate(-10739.193 -5920.53)" fill="#fff"/>
</svg>
