<svg xmlns="http://www.w3.org/2000/svg" width="86.459" height="95.628" viewBox="0 0 86.459 95.628">
  <path id="Path_84816" data-name="Path 84816" d="M9909.519,5994.6a26.843,26.843,0,0,1-1.5-9.323,20.783,20.783,0,0,1,6.194-14.971,26.854,26.854,0,0,1,8.831-5.681,88.35,88.35,0,0,0,12.534-5.8,35.812,35.812,0,0,0,10.717-9.2,12.8,12.8,0,0,0,2.649-6c.189-1.512-.356-2.768-1.577-3.133a10.389,10.389,0,0,1-6.35-5.841,23.06,23.06,0,0,1,1.041-23.442c5.625-9.228,14.27-12.765,24.718-12.175,9.373.528,16.3,5.3,21.132,13.211,3.543,5.8,5.18,12.228,6.018,18.9a59.78,59.78,0,0,1,.021,15.944,39.643,39.643,0,0,1-10.672,22.1,58.689,58.689,0,0,1-11.053,9.184,42.205,42.205,0,0,1-15.021,5.692c-7.308,1.413-14.692,1.443-22.092,1.186-2.931-.1-5.862-.178-8.794-.207-7.054-.068-12.352,3.109-16.234,8.861-.1.155-.2.318-.3.472A2.063,2.063,0,0,1,9909.519,5994.6Zm27.938-30.328a5.138,5.138,0,0,0,.522-.179c2.8-1.36,5.706-2.532,8.365-4.122a43.5,43.5,0,0,0,15.95-16.077c4.729-8.373,1.762-17.364-2.271-22.43a6.135,6.135,0,0,0-3.821-2.506c-2.269-.355-3.666,1.043-4.967,2.572a4.168,4.168,0,0,0-.586,4.559,8.042,8.042,0,0,0,.753,1.5c1.177,1.762,2.42,3.48,3.581,5.251,1.67,2.546,2.671,5.274,2.09,8.394a25.984,25.984,0,0,1-2.806,7.981,31.311,31.311,0,0,1-9.314,10.093C9942.556,5961.03,9940.029,5962.574,9937.456,5964.269Z" transform="translate(-9908.01 -5898.969)" fill="#fff"/>
</svg>
