<svg xmlns="http://www.w3.org/2000/svg" width="79.557" height="89.156" viewBox="0 0 79.557 89.156">
  <path id="Path_84805" data-name="Path 84805" d="M10390.322,5902.205c2.013.394,4.055.679,6.034,1.2a19.405,19.405,0,0,1,11.928,9.135c6.129,10.229,5.667,20.617.252,30.964-1.328,2.538-3,4.893-4.375,7.41a37.521,37.521,0,0,0-3.915,12.816c-.7,4.846-1.083,9.746-2.441,14.478a34.569,34.569,0,0,1-4.458,10.047,9.924,9.924,0,0,1-1.749,1.918,4.2,4.2,0,0,1-6.14-.315,17.508,17.508,0,0,1-3.341-5.555c-1.671-3.861-2.419-7.972-3.292-12.051-.722-3.368-1.219-6.8-2.6-9.989a11.42,11.42,0,0,0-1.051-1.894c-1.222-1.787-3.41-1.841-4.5.031a19.81,19.81,0,0,0-2.1,4.918c-1,3.9-1.737,7.863-2.642,11.788a32.821,32.821,0,0,1-4.648,11.63,5.683,5.683,0,0,1-3.166,2.452c-1.968.529-3.44-.374-4.708-1.734a22.835,22.835,0,0,1-3.967-7,49.864,49.864,0,0,1-3.19-13.226c-.591-4.625-1.012-9.28-2.586-13.726a42.687,42.687,0,0,0-4.8-9.327,31.981,31.981,0,0,1-5.571-15.456c-.675-9.188,1.711-17.311,8.889-23.545,3.526-3.061,7.824-4.3,12.372-4.813.313-.035.623-.106.935-.16h4.006a3.333,3.333,0,0,0,.5.124,32.391,32.391,0,0,1,12.371,3.788,1.6,1.6,0,0,0,1.163-.05c2.289-.885,4.517-1.952,6.85-2.691a52.205,52.205,0,0,1,5.762-1.171Zm-53.606,25.636c0,.812-.067,1.63.011,2.434a30.364,30.364,0,0,0,5.094,14.074,45.092,45.092,0,0,1,5.166,10.111c1.646,4.7,2.143,9.6,2.739,14.49a42.575,42.575,0,0,0,4.706,15.9,18.484,18.484,0,0,0,1.886,2.587.883.883,0,0,0,1.489-.006,11.5,11.5,0,0,0,1.26-1.654,34.085,34.085,0,0,0,3.568-9.844c.914-4.1,1.779-8.211,2.774-12.29a14.131,14.131,0,0,1,2.642-5.623,5.96,5.96,0,0,1,9.706.03,11.315,11.315,0,0,1,1.9,3.484c.942,3.128,1.729,6.307,2.462,9.491.915,3.978,1.51,8.043,3.184,11.807a27.107,27.107,0,0,0,2.188,4.036c.878,1.315,1.48,1.276,2.494.084a9.212,9.212,0,0,0,.862-1.2,38.185,38.185,0,0,0,4.873-14.571c.452-3.156.835-6.322,1.32-9.473a42.526,42.526,0,0,1,7.031-17.52,28.679,28.679,0,0,0,3.6-7.4c2.439-7.67,2.072-15.113-2.126-22.117a16.988,16.988,0,0,0-10.16-7.951,26.053,26.053,0,0,0-20.623,2.713,3.3,3.3,0,0,1-3.74-.01,26.334,26.334,0,0,0-17.576-3.4,17.772,17.772,0,0,0-10.3,4.991C10338.568,5915.687,10336.734,5921.43,10336.716,5927.841Z" transform="translate(-10333.183 -5902.205)" fill="#fff"/>
</svg>
