<svg xmlns="http://www.w3.org/2000/svg" width="107.649" height="107.703" viewBox="0 0 107.649 107.703">
  <g id="Group_2110" data-name="Group 2110" transform="translate(-10108.275 -5892.505)">
    <path id="Path_84808" data-name="Path 84808" d="M10158.938,5892.5h6.308c.375.067.748.14,1.124.2,2.93.476,5.909.757,8.783,1.461a54,54,0,0,1,39.955,43.014c.338,1.919.548,3.861.816,5.792v6.519a5.531,5.531,0,0,0-.18.812,52.451,52.451,0,0,1-7.586,23.776,53.3,53.3,0,0,1-28.464,23.073,51.876,51.876,0,0,1-28.562,1.874,52.48,52.48,0,0,1-31.667-19.929c-9.354-12.215-12.8-26.062-10.5-41.247a51.738,51.738,0,0,1,13.059-27.379,52.9,52.9,0,0,1,30.795-17.128C10154.843,5892.984,10156.9,5892.781,10158.938,5892.5Zm40.09,78.535v4.811l.346.052,3.373-4.855-.168-.3-3.572.322c.029-.418.083-.836.084-1.254.007-3.363,0-6.727.006-10.091,0-.367.032-.735.054-1.2h8.906a46.9,46.9,0,0,0,1.561-12.211h-10.529v-12.18h8.82a2.363,2.363,0,0,0,0-.522,47.283,47.283,0,0,0-4.785-11.241,1.037,1.037,0,0,0-.7-.489c-1.11-.014-2.222.056-3.333.1,0-1.539.052-3.081-.015-4.618a2.474,2.474,0,0,0-.543-1.484c-1.8-1.909-3.676-3.739-5.5-5.622a2.285,2.285,0,0,0-1.877-.688c-1.452.047-2.906.014-4.428.014,0-1.183.055-2.2-.027-3.2a1.479,1.479,0,0,0-.608-1.03c-1.745-.956-3.492-1.932-5.32-2.709-2.042-.867-4.17-1.53-6.473-2.358v9.268h-12.2c0-3.344-.025-6.562.017-9.779.013-.982-.268-1.432-1.315-1.313-2.433.276-4.9.339-7.3.781-13.351,2.46-23.948,9.323-31.354,20.659-8.912,13.641-10.436,28.336-4.58,43.53,4.979,12.914,14.277,21.788,27.02,27.1,5.713,2.38,11.75,3.1,17.854,3.336a41.853,41.853,0,0,0,11.842-1.559v-9.172h12.374v4.008l5.314-3.776-.133-.293h-4.893v-12.19c4,0,7.916,0,11.837.007C10198.856,5970.885,10198.94,5970.989,10199.028,5971.04Z" fill="#fff"/>
    <path id="Path_84809" data-name="Path 84809" d="M10174.274,5934.13h12.286V5946.3h12.226v12.213h-12.342l.052.035a4.335,4.335,0,0,0,.088-.618q.007-5.463,0-10.926a6.018,6.018,0,0,0-.083-.682h-12.229l.028.027Q10174.287,5940.24,10174.274,5934.13Z" fill="#fff"/>
    <path id="Path_84810" data-name="Path 84810" d="M10174.269,5909.519l10.926.053c.416,0,.833,0,1.329,0v12.161a3.509,3.509,0,0,1-.594.1q-5.518.01-11.035,0a4.04,4.04,0,0,1-.617-.094Q10174.273,5915.63,10174.269,5909.519Z" fill="#fff"/>
    <path id="Path_84811" data-name="Path 84811" d="M10186.444,5958.514a4.312,4.312,0,0,1,.151.8q.016,5.393,0,10.787c0,.2-.041.4-.076.732h-1.473q-4.764,0-9.529,0c-.415,0-.829-.062-1.244-.1q.01-6.111.021-12.222l-.025.029,12.223,0Z" fill="#fff"/>
    <path id="Path_84812" data-name="Path 84812" d="M10174.3,5921.72l0,12.436h-12.123v-12.318h2.393c2.865,0,5.73,0,8.6,0C10173.543,5921.832,10173.92,5921.759,10174.3,5921.72Z" fill="#fff"/>
    <path id="Path_84813" data-name="Path 84813" d="M10174.3,5970.716l0,12.436h-12.123v-12.317h2.393c2.865,0,5.73,0,8.6-.006A11.359,11.359,0,0,0,10174.3,5970.716Z" fill="#fff"/>
    <path id="Path_84814" data-name="Path 84814" d="M10174.3,5958.516h-12.136V5946.35h12.137l-.028-.027,0,12.222Z" fill="#fff"/>
    <path id="Path_84815" data-name="Path 84815" d="M10199.116,5921.936q0,6.111,0,12.222l-10.918-.051c-.41,0-.819,0-1.284,0v-12.269c.887,0,1.721-.006,2.554,0Q10194.292,5921.884,10199.116,5921.936Z" fill="#fff"/>
  </g>
</svg>
