<svg xmlns="http://www.w3.org/2000/svg" width="60.045" height="61.011" viewBox="0 0 60.045 61.011">
  <g id="Group_2843" data-name="Group 2843" transform="translate(-1293.872 -2540.676)">
    <path id="Path_95785" data-name="Path 95785" d="M1346.892,2601.687a42.651,42.651,0,0,0-4.135-1.391c-6.287-2.026-12.585-4.014-18.872-6.041a10.262,10.262,0,0,0-2.887-.181,3.074,3.074,0,0,1-1.254-.29q-9.5-4.533-19.01-9.062a1.879,1.879,0,0,0-.851-.193c-1.548.008-3.1-.019-4.643.015a1.463,1.463,0,0,1-1.368-.607v-.715a1.454,1.454,0,0,1,1.368-.607c1.588.034,3.177.023,4.765.005a3.118,3.118,0,0,1,1.425.321q9.481,4.527,18.971,9.036a1.475,1.475,0,0,0,.8.18c.019,0,.039,0,.059,0,1.68-.065,3.418.311,5.028-.154a40.943,40.943,0,0,0,4.613-2.024c6.3-2.709,12.224-6.167,18.291-9.339.084-.044.161-.1.3-.191a4.749,4.749,0,0,0-4.678-.748c-.168.058-.327.142-.495.2a.939.939,0,0,1-1.238-.489.925.925,0,0,1,.434-1.215,6.729,6.729,0,0,1,8.313,1.953.955.955,0,0,1-.445,1.478c-1.372.749-2.757,1.475-4.137,2.211-3.109,1.659-6.2,3.356-9.331,4.965s-6.4,2.943-9.589,4.426c-.14.066-.278.136-.548.268l18.819,6.022a2.621,2.621,0,0,0-1.776-3.041c-.856-.307-1.731-.561-2.587-.871a.934.934,0,0,1-.421-1.569.9.9,0,0,1,.982-.236c1.012.344,2.05.624,3.031,1.039a4.629,4.629,0,0,1,2.461,5.916,2.241,2.241,0,0,1-.674.927Z" fill="#f9f9f9"/>
    <path id="Path_95786" data-name="Path 95786" d="M1293.872,2572.739a2.1,2.1,0,0,1,1.048-.691,38.759,38.759,0,0,1,9.12-2.124,1.136,1.136,0,0,1,1.166.4.932.932,0,0,1-.748,1.473,32.042,32.042,0,0,0-5.78,1.07c-1.063.313-2.112.669-3.167,1.01-.877.284-1.065.239-1.639-.422Z" fill="#f9f9f9"/>
    <path id="Path_95787" data-name="Path 95787" d="M1335.812,2571.19a11.487,11.487,0,0,1-11.426-11.807,11.834,11.834,0,0,1,1.358-4.645.907.907,0,0,1,1.229-.4.937.937,0,0,1,.446,1.266,14.135,14.135,0,0,0-.881,2.393,8.732,8.732,0,0,0,2.632,8.516,8.92,8.92,0,0,0,9.765,2.2,9.271,9.271,0,0,0,6.313-7.738,9.438,9.438,0,0,0-1.3-5.871,66.012,66.012,0,0,0-7.9-11.709c-.258-.324-.354-.13-.514.067q-2.1,2.586-4.026,5.311c-.091.129-.177.264-.279.385a.941.941,0,0,1-1.316.24.907.907,0,0,1-.208-1.357c.715-1.023,1.438-2.044,2.2-3.033,1-1.305,2.04-2.586,3.081-3.862a.946.946,0,0,1,1.614-.049,72.24,72.24,0,0,1,8.79,12.616,14.9,14.9,0,0,1,1.733,4.715,10.792,10.792,0,0,1-2.157,8.117A11.3,11.3,0,0,1,1335.812,2571.19Z" fill="#ff3096"/>
    <path id="Path_95788" data-name="Path 95788" d="M1309.582,2575.011a20.139,20.139,0,0,1,4.682,1.15,79.421,79.421,0,0,1,9.725,4.251,1.621,1.621,0,0,0,1.07.19c1.463-.257,2.931-.494,4.4-.73a1.591,1.591,0,0,0,.678-.351c2.177-1.589,4.4-3.108,6.555-4.735a4.952,4.952,0,0,1,6.3.338,1,1,0,0,1,.044,1.636,127.7,127.7,0,0,1-10.3,9.362,2.209,2.209,0,0,1-1.035.412q-3.913.872-7.831,1.728c-.729.161-1.229-.077-1.373-.653-.14-.561.218-1.025.941-1.187,2.473-.555,4.946-1.11,7.422-1.647a2.676,2.676,0,0,0,1.248-.621c2.877-2.525,5.9-4.888,8.526-7.691.417-.445.419-.465-.179-.625a3.067,3.067,0,0,0-2.795.6c-2.26,1.745-4.629,3.34-6.944,5.008a4.206,4.206,0,0,1-1.83.444c-1.383.259-2.776.46-4.161.709a1.721,1.721,0,0,1-1.129-.252,77.359,77.359,0,0,0-10.718-4.639,13.947,13.947,0,0,0-3.763-.8.932.932,0,0,1-.934-1.015C1308.219,2575.3,1308.663,2574.984,1309.582,2575.011Z" fill="#f9f9f9"/>
    <path id="Path_95789" data-name="Path 95789" d="M1351.375,2588.662a4.515,4.515,0,0,0-3.552-1.44c-.237.008-.473.051-.71.074a.949.949,0,1,1-.282-1.868,6.367,6.367,0,0,1,5.481,1.49,6.139,6.139,0,0,1,1.346,1.653c.507.9.271,1.469-.733,1.708q-5.487,1.306-10.978,2.591-2.4.565-4.8,1.126a.989.989,0,0,1-1.318-.662c-.136-.55.211-1.026.875-1.183q7.11-1.674,14.22-3.344C1351.057,2588.776,1351.182,2588.725,1351.375,2588.662Z" fill="#f9f9f9"/>
    <path id="Path_95790" data-name="Path 95790" d="M1324.371,2577.991a.889.889,0,0,1-.509.755.952.952,0,0,1-1.061-.11c-1.292-.986-2.6-1.954-3.875-2.962a17.693,17.693,0,0,0-6.723-3.286c-.038-.009-.078-.011-.117-.021-.783-.2-1.149-.639-1.015-1.208.147-.62.676-.856,1.475-.654a19.678,19.678,0,0,1,7.529,3.65c1.227.973,2.486,1.906,3.734,2.853A1.136,1.136,0,0,1,1324.371,2577.991Z" fill="#f9f9f9"/>
    <path id="Path_95791" data-name="Path 95791" d="M1343.427,2560.177a7.665,7.665,0,0,1-3.129,5.711.956.956,0,1,1-1.169-1.5,5.907,5.907,0,0,0,2.405-4.693.961.961,0,0,1,1.013-1C1343.131,2558.738,1343.449,2559.185,1343.427,2560.177Z" fill="#ff3096"/>
    <path id="Path_95792" data-name="Path 95792" d="M1335.815,2565.474a.951.951,0,1,1-.954.932A.957.957,0,0,1,1335.815,2565.474Z" fill="#ff3096"/>
    <path id="Path_95793" data-name="Path 95793" d="M1309.21,2570.787a1,1,0,0,1-.928.985.959.959,0,0,1-.984-.911.931.931,0,0,1,.941-1A.957.957,0,0,1,1309.21,2570.787Z" fill="#f9f9f9"/>
    <path id="Path_95794" data-name="Path 95794" d="M1328.375,2550.889a.943.943,0,1,1-.009,1.886.943.943,0,0,1,.009-1.886Z" fill="#ff3096"/>
  </g>
</svg>
