<svg xmlns="http://www.w3.org/2000/svg" width="102.438" height="89.537" viewBox="0 0 102.438 89.537">
  <g id="Group_2616" data-name="Group 2616" transform="translate(-10485.546 -3862.193)">
    <path id="Path_95653" data-name="Path 95653" d="M10485.71,3893.36a1.1,1.1,0,0,1-.164,1.046v-1Z" fill="#4c4c4c"/>
    <path id="Path_95654" data-name="Path 95654" d="M10504.817,3884.274c-8.552-5.634-18.138-.217-19.107,9.086-.168.331.071.725-.164,1.046v2.8c.2.076.171.255.2.414a15.957,15.957,0,0,0,7.7,11.442,11.819,11.819,0,0,0,16.671-4.539C10513.73,3897.781,10511.346,3888.576,10504.817,3884.274Zm-1.05,18.819c-1.926,1.98-4.7,2.251-7.339.8a10.089,10.089,0,0,1-4.178-12.143,5.848,5.848,0,0,1,8.626-2.837,9.74,9.74,0,0,1,4.914,8.068C10505.77,3899.762,10505.207,3901.613,10503.768,3903.093Z" fill="#5ce1e6"/>
    <path id="Path_95655" data-name="Path 95655" d="M10587.826,3906.88a11.761,11.761,0,0,0-14.736-10.1A15.866,15.866,0,0,0,10561,3913.4c.611,7.294,6.592,12.014,13.607,10.916,6.689-1.047,10.851-5.231,12.845-11.643a5.986,5.986,0,0,1,.53-1.86v-2.2a.885.885,0,0,1,0-1.2v-.2A1.165,1.165,0,0,1,10587.826,3906.88Zm-13.165,11.367a5.956,5.956,0,0,1-7.715-6.233,10.075,10.075,0,0,1,7.545-9.419,5.9,5.9,0,0,1,7.478,5.632A10.19,10.19,0,0,1,10574.661,3918.247Z" fill="#5ce1e6"/>
    <path id="Path_95656" data-name="Path 95656" d="M10565.129,3927.388q-5.461-8.769-11.164-17.387c-4.625-6.966-11.207-10.912-19.541-11.317-9.564-.465-17.117,3.539-22.428,11.516-3.742,5.621-7.307,11.362-10.953,17.047a15.779,15.779,0,0,0,19.178,23.271,31.784,31.784,0,0,1,26.16.175,14.616,14.616,0,0,0,9.024.595A15.738,15.738,0,0,0,10565.129,3927.388Zm-3.516,8.609a9.733,9.733,0,0,1-12.874,9.166,68.231,68.231,0,0,0-6.891-2.308,37.047,37.047,0,0,0-14.872-.551,43.287,43.287,0,0,0-8.88,2.586,9.7,9.7,0,0,1-13.267-6.332,9.133,9.133,0,0,1,1.063-7.679c3.97-6.266,7.753-12.662,12.079-18.685,7.273-10.122,22.9-10.121,30.152,0,4.32,6.028,8.1,12.425,12.079,18.684A8.915,8.915,0,0,1,10561.613,3936Z"/>
    <path id="Path_95657" data-name="Path 95657" d="M10536.082,3867.188c-5.556-6.188-14.133-6.7-20.074-1.129a17.853,17.853,0,0,0-5.567,13.136,18.874,18.874,0,0,0,3.278,10.8c5.353,7.871,15.688,8.668,22.16,1.71C10541.968,3885.162,10542.062,3873.847,10536.082,3867.188Zm-5.382,21.213a7.813,7.813,0,0,1-11.784-1.465c-1.569-2.211-2.168-3.927-2.452-7.583a11.239,11.239,0,0,1,4.859-9.834,7.452,7.452,0,0,1,9.451.82A12.681,12.681,0,0,1,10530.7,3888.4Z" fill="#5ce1e6"/>
    <path id="Path_95658" data-name="Path 95658" d="M10569.395,3878.825a12.653,12.653,0,0,0-17.087-7.471c-7.684,3.235-11.855,12.915-9.01,20.907,3.069,8.615,12.089,11.68,19.666,6.582,4.981-3.351,7.214-8.258,7.488-14.145A16.521,16.521,0,0,0,10569.395,3878.825Zm-10.437,15.471c-4.033,2.254-8.24.621-9.916-3.69-1.9-4.885.6-11.312,5.276-13.563a6.688,6.688,0,0,1,9.466,3.942,10.344,10.344,0,0,1,.644,3.728C10564.171,3888.8,10562.657,3892.228,10558.958,3894.3Z" fill="#5ce1e6"/>
  </g>
</svg>
