<svg xmlns="http://www.w3.org/2000/svg" xmlns:xlink="http://www.w3.org/1999/xlink" width="105.593" height="106.799" viewBox="0 0 105.593 106.799">
  <defs>
    <linearGradient id="linear-gradient" x1="16.861" y1="-14.5" x2="17.006" y2="-15.091" gradientUnits="objectBoundingBox">
      <stop offset="0" stop-color="#ff0025"/>
      <stop offset="1" stop-color="#ff0025" stop-opacity="0"/>
    </linearGradient>
    <linearGradient id="linear-gradient-2" x1="20.256" y1="-38.36" x2="20.216" y2="-37.831" gradientUnits="objectBoundingBox">
      <stop offset="0" stop-color="#ff526b"/>
      <stop offset="1" stop-color="#ff526b" stop-opacity="0"/>
    </linearGradient>
  </defs>
  <g id="Group_2497" data-name="Group 2497" transform="translate(-9876.618 -3854.395)">
    <g id="Group_2496" data-name="Group 2496">
      <g id="Group_2486" data-name="Group 2486">
        <path id="Path_95436" data-name="Path 95436" d="M9891.163,3943.625s-31.169-23.35-2.251-55.581a1.086,1.086,0,0,1,1.753.177l1.682,2.925s16.217-29.929,46.54-36.607a6.233,6.233,0,0,1,4.7.844,70.255,70.255,0,0,1,25.19,29.876,28.676,28.676,0,0,0,2.133-4.309,1,1,0,0,1,1.729-.24c1.56,2.066,4.426,6.783,7,16,3.839,13.733,5.639,31.336-11.375,39.8C9939.105,3951.015,9891.163,3943.625,9891.163,3943.625Z" fill="#f7dc2d"/>
        <path id="Path_95437" data-name="Path 95437" d="M9960.812,3932.532c-24.051,9.427-58.609,5.809-66.833,4.762-2.817-2.564-9.794-9.847-10.623-19.765-.479-5.724,1.148-11.61,4.85-17.584a.894.894,0,0,1,1.535.018l2.777,4.832,5.68-10.48c.114-.21,12.395-22.291,34.491-30.951a51.378,51.378,0,0,1,5.754-1.875,3.753,3.753,0,0,1,3.115.559,64.848,64.848,0,0,1,21.16,25.969l5.113,11.223,3.069-4.872a.609.609,0,0,1,1.092.123c.411,1.207.826,2.539,1.236,4.007,6.114,21.869-1.026,28.616-7.931,32.052C9963.89,3931.25,9962.38,3931.917,9960.812,3932.532Z" fill="#fd6e47" opacity="0.31"/>
      </g>
      <g id="Group_2495" data-name="Group 2495">
        <path id="Path_95438" data-name="Path 95438" d="M9960.464,3916.367s5.629-17.318,15.886-11.039.271,23.09-9.548,23.185S9960.464,3916.367,9960.464,3916.367Z" fill="#ff5e6e"/>
        <path id="Path_95439" data-name="Path 95439" d="M9897.817,3917.628s-6.253-10.062-13.622-3.324,3.276,23.1,10.672,19.126S9897.817,3917.628,9897.817,3917.628Z" fill="#ff5e6e"/>
        <g id="Group_2494" data-name="Group 2494">
          <g id="Group_2492" data-name="Group 2492">
            <g id="Group_2487" data-name="Group 2487">
              <path id="Path_95440" data-name="Path 95440" d="M9925.555,3961.138s37.6-4.437,45.118-21.918c5.976-13.892.952-63.149-38.952-60.58-45.251,2.913-38.4,46.428-38.4,46.428s-10.206,7.851-4.519,17.942S9902.784,3961.978,9925.555,3961.138Z" fill="#ff9ba5"/>
              <path id="Path_95441" data-name="Path 95441" d="M9925.555,3961.138s37.6-4.437,45.118-21.918c5.976-13.892.952-63.149-38.952-60.58-45.251,2.913-38.4,46.428-38.4,46.428s-10.206,7.851-4.519,17.942S9902.784,3961.978,9925.555,3961.138Z" opacity="0.47" fill="url(#linear-gradient)"/>
              <path id="Path_95442" data-name="Path 95442" d="M9887.085,3936.917a12.559,12.559,0,0,0,1.719,6.093c5.688,10.091,13.98,18.968,36.751,18.128,0,0,37.6-4.437,45.118-21.918a31.043,31.043,0,0,0,1.986-9.885C9929.554,3957.415,9901.677,3947.717,9887.085,3936.917Z" fill="#ffa8b1"/>
              <path id="Path_95443" data-name="Path 95443" d="M9916.669,3884.207a50.677,50.677,0,0,1,15.207-3.152c12.619-.813,22.509,3.725,29.4,13.485,4.5,6.378,7.574,15.011,8.657,24.31.89,7.637.309,15.258-1.479,19.414-2.4,5.589-8.677,10.4-18.645,14.311a114.021,114.021,0,0,1-24.443,6.149c-9.927.354-17.563-1.16-23.346-4.626-5.57-3.341-8.739-8.081-11.1-12.276-4.57-8.109,3.544-14.569,3.885-14.836l1.139-.876-.224-1.418a48.866,48.866,0,0,1,.866-16.588c2.69-11.687,9.451-19.727,20.091-23.9m-.883-2.253c-27.558,10.8-22.464,43.114-22.464,43.114s-10.206,7.851-4.519,17.942,13.98,18.968,36.751,18.128a115.636,115.636,0,0,0,25.135-6.31c8.615-3.377,16.872-8.375,19.983-15.608,5.976-13.892.952-63.149-38.952-60.58a52.775,52.775,0,0,0-15.935,3.314Z" fill="#ff6e7c"/>
              <path id="Path_95444" data-name="Path 95444" d="M9931.721,3878.64a50.743,50.743,0,0,0-17.9,4.152l0,0c-14.66,6.672-19.221,19.772-20.456,29.632,8.975-1.13,23.679-5.294,31.165-20.094,10.7,7.743,25.2,13.1,41.119,4.643C9959.476,3885.931,9948.793,3877.541,9931.721,3878.64Z" fill="#535397"/>
              <path id="Path_95445" data-name="Path 95445" d="M9931.721,3878.64a50.743,50.743,0,0,0-17.9,4.152l0,0c-14.66,6.672-19.221,19.772-20.456,29.632,8.975-1.13,23.679-5.294,31.165-20.094,10.7,7.743,25.2,13.1,41.119,4.643C9959.476,3885.931,9948.793,3877.541,9931.721,3878.64Z" opacity="0.47" fill="url(#linear-gradient-2)"/>
            </g>
            <g id="Group_2491" data-name="Group 2491">
              <g id="Group_2488" data-name="Group 2488">
                <path id="Path_95446" data-name="Path 95446" d="M9913.07,3918.282a2.993,2.993,0,1,1-3.879-1.7A2.993,2.993,0,0,1,9913.07,3918.282Z" fill="#535397"/>
                <path id="Path_95447" data-name="Path 95447" d="M9947.084,3914.432a2.994,2.994,0,1,1-3.879-1.695A2.992,2.992,0,0,1,9947.084,3914.432Z" fill="#535397"/>
                <path id="Path_95448" data-name="Path 95448" d="M9931.4,3923.727a18,18,0,0,1-3.713,1.008,12,12,0,0,1-9.681-3.125,1.512,1.512,0,0,1,2.12-2.156,9.078,9.078,0,0,0,7.077,2.3,12.749,12.749,0,0,0,7.747-3.959,1.512,1.512,0,1,1,2.39,1.853A14.554,14.554,0,0,1,9931.4,3923.727Z" fill="#535397"/>
              </g>
              <g id="Group_2490" data-name="Group 2490">
                <g id="Group_2489" data-name="Group 2489">
                  <path id="Path_95449" data-name="Path 95449" d="M9908.144,3925.492c.261,1.987-1.932,3.912-4.9,4.3s-5.576-.91-5.836-2.9,1.932-3.913,4.9-4.3S9907.885,3923.5,9908.144,3925.492Z" fill="#ff7a88"/>
                  <path id="Path_95450" data-name="Path 95450" d="M9958.045,3921.614c.259,1.988-1.932,3.913-4.9,4.3s-5.577-.91-5.836-2.9,1.932-3.913,4.895-4.3S9957.785,3919.627,9958.045,3921.614Z" fill="#ff7a88"/>
                </g>
              </g>
            </g>
          </g>
          <g id="Group_2493" data-name="Group 2493">
            <path id="Path_95451" data-name="Path 95451" d="M9964.355,3903.939c1.666,4.252.229,8.792-3.211,10.14s-7.578-1.007-9.244-5.259c-1.256-3.2-.354-11.291.167-15.095a1.173,1.173,0,0,1,1.906-.748C9956.942,3895.414,9963.1,3900.737,9964.355,3903.939Z" fill="#90bfff"/>
            <path id="Path_95452" data-name="Path 95452" d="M9964.589,3904.617a3.9,3.9,0,1,0-.865,7.4A8.533,8.533,0,0,0,9964.589,3904.617Z" fill="#fffeff"/>
          </g>
        </g>
      </g>
    </g>
  </g>
</svg>
