<svg xmlns="http://www.w3.org/2000/svg" width="80.644" height="87.817" viewBox="0 0 80.644 87.817">
  <g id="Group_2617" data-name="Group 2617" transform="translate(-10290.121 -3865.913)">
    <path id="Path_95659" data-name="Path 95659" d="M10370.765,3890.977a3.47,3.47,0,0,0-1.993-3.474q-18.949-10.731-37.822-21.59h-1.03c-.263.158-.522.32-.789.473q-18.768,10.723-37.544,21.431a2.628,2.628,0,0,0-1.465,2.559q.031,19.482,0,38.964a2.626,2.626,0,0,0,1.458,2.562q18.75,10.668,37.46,21.407a2.518,2.518,0,0,0,2.789,0q18.675-10.712,37.388-21.359a2.747,2.747,0,0,0,1.532-2.7Q10370.71,3910.116,10370.765,3890.977Zm-3.7,37.16a1.247,1.247,0,0,1-.746,1.253q-17.591,10.017-35.151,20.084a1.262,1.262,0,0,1-1.455,0q-17.561-10.067-35.153-20.08a1.3,1.3,0,0,1-.747-1.341c.024-6.063.015-12.127.015-18.191s.01-12.128-.014-18.192a1.3,1.3,0,0,1,.742-1.342q17.6-10.01,35.153-20.08a1.261,1.261,0,0,1,1.455,0q17.562,10.068,35.15,20.085a1.244,1.244,0,0,1,.751,1.25Q10367.028,3909.86,10367.061,3928.137Z" fill="#5ce1e6"/>
    <path id="Path_95660" data-name="Path 95660" d="M10301.319,3892.913v34l29.445,17,29.445-17v-34l-29.445-17Z"/>
  </g>
</svg>
