<svg xmlns="http://www.w3.org/2000/svg" width="56.081" height="56.021" viewBox="0 0 56.081 56.021">
  <g id="Group_1517" data-name="Group 1517" transform="translate(-8669.89 -7317.164)">
    <path id="Path_68386" data-name="Path 68386" d="M8725.971,7327.82c-.115-.207-.029-.432-.057-.647a4.017,4.017,0,0,0-.3-1.6,6.7,6.7,0,0,0-5.038-4.034,16.676,16.676,0,0,0-2.895-.117c-.708-.016-.742-.041-.747-.741-.006-.966.013-1.931-.009-2.9-.012-.576-.068-.62-.632-.621h-3.286c-.754,0-.783.025-.789.8q-.012,1.448,0,2.9c0,.389-.147.579-.548.558-.182-.009-.365,0-.547,0h-26.616c-.87,0-.87,0-.872-.889s.008-1.749,0-2.624c-.009-.709-.05-.745-.735-.745h-3.231c-.7,0-.735.025-.743.734-.012.965,0,1.931-.007,2.9-.006.563-.062.615-.638.624-.6.01-1.205,0-1.808,0a6.5,6.5,0,0,0-4.031,1.347,5.635,5.635,0,0,0-2.5,4.4c-.027.215.059.438-.058.644v39.134c.115.177.031.373.058.558a3.949,3.949,0,0,0,.439,1.946,6.4,6.4,0,0,0,5.09,3.727h44.688a7.08,7.08,0,0,0,1.951-.428,6.829,6.829,0,0,0,2.521-1.96,4.951,4.951,0,0,0,1.276-3.286c.026-.185-.058-.381.057-.557Zm-4.382,38.473a2.24,2.24,0,0,1-2.525,2.519h-42.271a2.241,2.241,0,0,1-2.52-2.524q0-13.991-.013-27.979c0-.466.123-.553.566-.552q11.555.023,23.106.011t23.107-.012c.453,0,.561.1.561.558Q8721.577,7352.3,8721.589,7366.293Zm-.5-32.889q-11.58-.018-23.159-.009-11.552,0-23.1.011c-.451,0-.573-.1-.563-.556.033-1.493.009-2.987.015-4.48a2.213,2.213,0,0,1,2.417-2.407c.675,0,1.351.017,2.024-.009.325-.012.387.1.382.4-.015,1.183,0,2.368-.012,3.551,0,.3.027.448.4.44,1.2-.028,2.408-.023,3.612,0,.323.006.387-.1.382-.4-.016-1.183,0-2.367-.013-3.551,0-.3.028-.439.4-.439q14.07.019,28.141,0c.311,0,.395.084.391.391-.019,1.2,0,2.4-.016,3.606,0,.311.085.394.394.39q1.8-.026,3.612,0c.312,0,.395-.085.391-.392-.018-1.2,0-2.4-.015-3.606,0-.311.084-.4.393-.389.748.022,1.5-.008,2.245.012a2.167,2.167,0,0,1,2.183,2.194c.021,1.584-.013,3.169.019,4.753C8721.611,7333.348,8721.469,7333.4,8721.084,7333.4Z" fill="#7c7c7c"/>
    <path id="Path_68387" data-name="Path 68387" d="M8682.6,7344.551c0,.6-.007,1.2,0,1.8,0,.248-.01.392-.339.386-1.24-.022-2.48-.017-3.722,0-.273,0-.331-.088-.329-.341.012-1.239.014-2.477,0-3.716,0-.272.088-.33.342-.327,1.241.011,2.482.013,3.724,0,.271,0,.335.087.327.341C8682.585,7343.313,8682.6,7343.932,8682.6,7344.551Z" fill="#ff3096"/>
    <path id="Path_68388" data-name="Path 68388" d="M8691.358,7344.587c0,.583-.015,1.166.007,1.748.01.291-.047.41-.378.405-1.2-.021-2.409-.017-3.613,0-.291,0-.411-.047-.405-.377.021-1.2.018-2.4,0-3.606,0-.29.047-.41.377-.4,1.2.021,2.41.025,3.613,0,.366-.008.416.123.4.435C8691.343,7343.384,8691.358,7343.986,8691.358,7344.587Z" fill="#ff3096"/>
    <path id="Path_68389" data-name="Path 68389" d="M8700.121,7344.594c0,.6-.011,1.2,0,1.8.008.254-.056.344-.328.341-1.241-.015-2.481-.013-3.723,0-.254,0-.345-.056-.342-.328.015-1.238.013-2.477,0-3.715,0-.254.056-.345.329-.341,1.24.014,2.481.019,3.722,0,.329-.006.344.138.34.386C8700.114,7343.355,8700.121,7343.974,8700.121,7344.594Z" fill="#ff3096"/>
    <path id="Path_68390" data-name="Path 68390" d="M8706.638,7346.731c-.6,0-1.205-.012-1.806.006-.264.008-.338-.072-.336-.334q.021-1.858,0-3.715c0-.263.072-.338.336-.335q1.86.02,3.722,0c.264,0,.338.072.335.335q-.019,1.857,0,3.715c0,.262-.07.342-.335.334C8707.916,7346.719,8707.277,7346.731,8706.638,7346.731Z" fill="#ff3096"/>
    <path id="Path_68391" data-name="Path 68391" d="M8717.646,7344.592c0,.6-.012,1.2,0,1.8.007.251-.052.346-.326.343-1.241-.015-2.482-.013-3.724,0-.251,0-.347-.052-.344-.326.016-1.239.014-2.477,0-3.716,0-.251.051-.346.326-.343,1.241.015,2.482.02,3.723,0,.325-.006.347.133.342.384C8717.638,7343.353,8717.646,7343.973,8717.646,7344.592Z" fill="#ff3096"/>
    <path id="Path_68392" data-name="Path 68392" d="M8680.379,7355.476c-.621,0-1.241-.01-1.861.006-.238.006-.311-.065-.309-.306q.018-1.884,0-3.77c0-.238.064-.31.306-.307q1.89.016,3.777,0c.239,0,.31.064.308.3q-.016,1.886,0,3.77c0,.238-.063.314-.306.308C8681.657,7355.466,8681.018,7355.476,8680.379,7355.476Z" fill="#ff3096"/>
    <path id="Path_68393" data-name="Path 68393" d="M8689.141,7355.476c-.619,0-1.24-.01-1.86.006-.239.006-.311-.065-.309-.306q.018-1.884,0-3.77c0-.238.065-.31.307-.307q1.888.016,3.777,0c.238,0,.311.064.309.3q-.019,1.886,0,3.77c0,.238-.064.314-.307.308C8690.419,7355.466,8689.78,7355.476,8689.141,7355.476Z" fill="#ff3096"/>
    <path id="Path_68394" data-name="Path 68394" d="M8697.972,7351.1c.584,0,1.169.014,1.752-.006.291-.01.411.047.405.376-.021,1.2-.017,2.4,0,3.606,0,.29-.047.41-.377.4-1.2-.021-2.409-.017-3.613,0-.291,0-.411-.047-.405-.377.021-1.2.025-2.4,0-3.606-.01-.364.123-.414.436-.4C8696.767,7351.12,8697.37,7351.1,8697.972,7351.1Z" fill="#ff3096"/>
    <path id="Path_68395" data-name="Path 68395" d="M8706.664,7355.476c-.62,0-1.241-.01-1.861.006-.243.006-.308-.071-.306-.308q.016-1.885,0-3.77c0-.242.071-.307.309-.3q1.89.016,3.777,0c.242,0,.308.07.306.308q-.016,1.884,0,3.77c0,.242-.069.31-.309.305C8707.942,7355.466,8707.3,7355.476,8706.664,7355.476Z" fill="#ff3096"/>
    <path id="Path_68396" data-name="Path 68396" d="M8717.646,7353.292c0,.619-.014,1.239.006,1.857.008.266-.076.336-.337.333q-1.862-.019-3.723,0c-.266,0-.337-.075-.334-.336q.021-1.857,0-3.715c0-.265.076-.336.337-.333q1.86.019,3.723,0c.266,0,.341.075.334.336C8717.634,7352.053,8717.646,7352.673,8717.646,7353.292Z" fill="#ff3096"/>
    <path id="Path_68397" data-name="Path 68397" d="M8682.6,7361.993c0,.6-.016,1.2.006,1.8.013.312-.037.444-.4.436-1.2-.027-2.409-.023-3.613,0-.33,0-.381-.115-.378-.4.015-1.2.019-2.4,0-3.606,0-.329.115-.38.406-.376,1.2.015,2.409.019,3.612,0,.33-.006.388.114.377.4C8682.582,7360.827,8682.6,7361.411,8682.6,7361.993Z" fill="#ff3096"/>
    <path id="Path_68398" data-name="Path 68398" d="M8686.977,7362.087c0-.638.014-1.276-.006-1.913-.008-.268.081-.333.339-.331q1.862.02,3.723,0c.269,0,.335.08.332.338q-.019,1.857,0,3.715c0,.268-.081.334-.339.331q-1.862-.018-3.724,0c-.268,0-.339-.08-.331-.339C8686.989,7363.289,8686.977,7362.688,8686.977,7362.087Z" fill="#ff3096"/>
    <path id="Path_68399" data-name="Path 68399" d="M8697.929,7364.221c-.62,0-1.24-.012-1.86.006-.266.008-.337-.074-.334-.335q.019-1.857,0-3.715c0-.264.073-.337.336-.334q1.86.02,3.723,0c.264,0,.337.074.334.335q-.019,1.858,0,3.716c0,.264-.074.341-.336.333C8699.171,7364.209,8698.55,7364.221,8697.929,7364.221Z" fill="#ff3096"/>
    <path id="Path_68400" data-name="Path 68400" d="M8704.5,7362.085c0-.637.013-1.275-.006-1.912-.008-.27.083-.332.34-.33q1.862.02,3.723,0c.27,0,.333.083.33.339q-.018,1.857,0,3.715c0,.269-.084.333-.34.33q-1.862-.018-3.723,0c-.271,0-.338-.083-.33-.34C8704.514,7363.288,8704.5,7362.686,8704.5,7362.085Z" fill="#ff3096"/>
  </g>
</svg>
