<svg xmlns="http://www.w3.org/2000/svg" width="137.055" height="86.458" viewBox="0 0 137.055 86.458">
  <path id="Path_167134" data-name="Path 167134" d="M-570.866,503.649q0-14.314,0-28.63c0-2.9-2.129-4.163-4.7-2.827-.277.144-.551.293-.824.443l-28.733,15.68c-.412.225-.833.433-1.4.729-.029-.636-.065-1.068-.066-1.5-.006-2.809.037-5.619-.012-8.428-.151-8.6-6.239-14.785-14.826-14.808q-35.781-.095-71.562-.015a14.5,14.5,0,0,0-11.833,5.725,17.251,17.251,0,0,0-3.032,7.033V538.07c.056.067.152.128.162.2.924,6.954,7.468,12.543,15.775,12.457,22.6-.233,45.211-.08,67.816-.081,1.249,0,2.5.024,3.745-.027a14.449,14.449,0,0,0,13.673-13.444c.157-3.159.066-6.33.094-9.495,0-.469.04-.938.069-1.592.663.346,1.133.583,1.594.834,9.616,5.248,19.279,10.416,28.819,15.8,2.779,1.568,5.348.337,5.308-3.085C-570.953,527.642-570.866,515.645-570.866,503.649Zm-41.516,31.716c0,4.774-2.475,8.157-6.772,9.2a13.078,13.078,0,0,1-3.05.243q-17.525.024-35.049.01-17.724,0-35.45-.005c-4.732-.005-8.03-2.44-9.074-6.713a11.93,11.93,0,0,1-.251-2.784q-.021-27.829-.007-55.659c0-6,3.578-9.554,9.581-9.555q35.248-.006,70.5,0c5.89,0,9.57,3.626,9.573,9.468Q-612.363,507.469-612.382,535.365Zm35.613.32c-5.94-3.24-11.681-6.371-17.421-9.5-3.791-2.07-7.566-4.169-11.38-6.2a1.706,1.706,0,0,1-1.052-1.76q.053-10.7.006-21.4a1.535,1.535,0,0,1,.888-1.586q14.09-7.644,28.15-15.342c.224-.122.464-.214.809-.372Z" transform="translate(707.865 -464.271)" fill="#fff"/>
</svg>
