<svg xmlns="http://www.w3.org/2000/svg" width="102.269" height="102.345" viewBox="0 0 102.269 102.345">
  <g id="Group_3178" data-name="Group 3178" transform="translate(-7086.488 -1539.926)">
    <path id="Path_103581" data-name="Path 103581" d="M7188.757,1587.025c-.177-1.009-.1-2.041-.231-3.049a49.93,49.93,0,0,0-5.307-16.727,51.293,51.293,0,0,0-12.7-15.69,50.58,50.58,0,0,0-21.881-10.73,52.066,52.066,0,0,0-6.976-.9h-.4c-.131.14-.3.092-.461.1h-.87c-.16-.011-.334.038-.466-.1h-3.592c-.128.139-.3.093-.455.1h-.487c-.157-.01-.327.036-.455-.1h-1c-1.006.209-2.038.125-3.049.261a49.817,49.817,0,0,0-18.808,6.551,51.612,51.612,0,0,0-11.655,9.445,49.056,49.056,0,0,0-8.629,12.635,46.581,46.581,0,0,0-4.777,18.707,67.029,67.029,0,0,0,.373,11.432,49.49,49.49,0,0,0,5.149,15.765,51.269,51.269,0,0,0,10.473,13.726,52.552,52.552,0,0,0,15.286,9.974c8.082,3.495,16.558,4.3,25.209,3.639a47.1,47.1,0,0,0,17.09-4.829,51.389,51.389,0,0,0,17.031-13.411,50.748,50.748,0,0,0,10.685-21.829,54.968,54.968,0,0,0,.9-6.785v-.8c-.13-.119-.095-.278-.1-.426,0-.115,0-.229,0-.344.008-.149-.028-.308.1-.427v-.6a1.53,1.53,0,0,1,0-1.2v-2.4c-.169-.169-.079-.385-.1-.58,0-.121,0-.243,0-.365.01-.156-.034-.325.1-.452Zm-86.02,1.221a2.978,2.978,0,0,1-3.189,2.763,3.012,3.012,0,0,1-2.778-3.118,40.231,40.231,0,0,1,7.577-20.727,40.682,40.682,0,0,1,26.471-16.588c1.076-.2,2.171-.3,3.259-.422a3.008,3.008,0,1,1,.622,5.958q-20.544,2.4-29.231,21.18A33.432,33.432,0,0,0,7102.737,1588.246Zm9.986,2.74a24.944,24.944,0,1,1,24.966,24.976A24.983,24.983,0,0,1,7112.723,1590.986Zm65.824,3.391a38.579,38.579,0,0,1-3.085,12.5q-9.117,20.337-31.028,24.594c-.585.114-1.182.177-1.775.248-.627.075-1.256.131-1.813.188a3.041,3.041,0,0,1-3.171-2.761,2.989,2.989,0,0,1,2.846-3.212,35.148,35.148,0,0,0,31.913-30.861c.055-.429.1-.858.157-1.286a2.993,2.993,0,1,1,5.956.586Z" fill="#fff"/>
    <circle id="Ellipse_819" data-name="Ellipse 819" cx="11.335" cy="11.335" r="11.335" transform="translate(7126.288 1579.764)" fill="#fff"/>
    <path id="Path_103582" data-name="Path 103582" d="M7104.541,1596.387a1,1,0,0,1,.752.858,2.971,2.971,0,0,0,.541,1.015,7.462,7.462,0,0,0,2.093,2.026,23.008,23.008,0,0,1,2.129,1.531,5.684,5.684,0,0,1,2.071,5.109,8.69,8.69,0,0,1-1.816,4.588.866.866,0,0,1-1.248.219.832.832,0,0,1-.115-1.253.969.969,0,0,0,.193-1.029,6.221,6.221,0,0,0-3.809-4.115.217.217,0,0,0-.061,0v.237c0,3.095-.054,6.192.018,9.285a3.6,3.6,0,0,1-2.645,3.673,4.986,4.986,0,0,1-4.352-.466,3.211,3.211,0,0,1-1.59-2.176,2.82,2.82,0,0,1,.746-2.522,4.49,4.49,0,0,1,3.1-1.433,5.011,5.011,0,0,1,3,.683v-.273q0-7.4-.007-14.8a1.073,1.073,0,0,1,.658-1.153Z" fill="#ff3096"/>
    <path id="Path_103583" data-name="Path 103583" d="M7170.419,1562.248a1,1,0,0,1,.752.858,2.971,2.971,0,0,0,.541,1.015,7.461,7.461,0,0,0,2.093,2.025,23.077,23.077,0,0,1,2.129,1.532,5.682,5.682,0,0,1,2.071,5.108,8.693,8.693,0,0,1-1.815,4.588.866.866,0,0,1-1.249.219.831.831,0,0,1-.115-1.252.971.971,0,0,0,.193-1.03,6.225,6.225,0,0,0-3.809-4.115.232.232,0,0,0-.061,0v.237c0,3.095-.054,6.191.019,9.285a3.6,3.6,0,0,1-2.646,3.673,4.99,4.99,0,0,1-4.352-.466,3.214,3.214,0,0,1-1.59-2.176,2.82,2.82,0,0,1,.746-2.522,4.487,4.487,0,0,1,3.1-1.433,5,5,0,0,1,3,.683v-.273q0-7.4-.006-14.8a1.072,1.072,0,0,1,.657-1.152Z" fill="#ff3096"/>
    <path id="Path_103584" data-name="Path 103584" d="M7143.681,1561.094a3.965,3.965,0,0,1,.253-.663,2.754,2.754,0,0,1,1.908-1.281,3.331,3.331,0,0,1,2.283.315c.037.02.075.038.112.056,0,0,.01,0,.04,0v-.173q0-4.965,0-9.932a.6.6,0,0,1,.615-.7c.109-.014.219-.024.328-.036q1.958-.219,3.917-.436,2.052-.228,4.1-.452.912-.1,1.825-.208a.586.586,0,0,1,.708.615q0,6,0,11.991a2.087,2.087,0,0,1-.96,1.743,3.394,3.394,0,0,1-4.043-.171,1.981,1.981,0,0,1,.137-3.192,3.231,3.231,0,0,1,2.212-.634,3.334,3.334,0,0,1,1.376.39.193.193,0,0,0,.128.041v-.153q0-3.189,0-6.38c0-.143-.028-.166-.172-.149q-2.675.307-5.352.6-1.762.2-3.527.386c-.119.013-.149.055-.149.173,0,2.761-.018,5.521.012,8.282a2.374,2.374,0,0,1-1.565,2.286,2.869,2.869,0,0,1-.939.231c-.022,0-.041,0-.049.028h-.723a2.981,2.981,0,0,1-1.065-.275,2.494,2.494,0,0,1-1.349-1.388c-.043-.114-.031-.235-.069-.349Z" fill="#ff3096"/>
    <path id="Path_103585" data-name="Path 103585" d="M7112.209,1629.373a3.976,3.976,0,0,1,.253-.664,2.76,2.76,0,0,1,1.908-1.281,3.335,3.335,0,0,1,2.283.316l.112.056s.01,0,.039,0v-.173q0-4.967,0-9.932a.6.6,0,0,1,.615-.7l.328-.036,3.917-.436q2.052-.227,4.1-.452.913-.1,1.826-.208a.587.587,0,0,1,.708.616q0,5.994,0,11.99a2.091,2.091,0,0,1-.96,1.744,3.394,3.394,0,0,1-4.043-.172,1.979,1.979,0,0,1,.137-3.191,3.227,3.227,0,0,1,2.212-.634,3.33,3.33,0,0,1,1.376.39.187.187,0,0,0,.128.04v-.152q0-3.191,0-6.38c0-.143-.028-.166-.172-.15-1.783.206-3.567.4-5.352.6q-1.762.2-3.527.385c-.119.013-.149.056-.149.174,0,2.76-.018,5.521.012,8.281a2.374,2.374,0,0,1-1.565,2.286,2.826,2.826,0,0,1-.94.231c-.021,0-.04.005-.048.029h-.723a2.988,2.988,0,0,1-1.065-.276,2.5,2.5,0,0,1-1.349-1.387c-.044-.114-.032-.236-.069-.349Z" fill="#ff3096"/>
  </g>
</svg>
