<svg xmlns="http://www.w3.org/2000/svg" width="72.794" height="72.794" viewBox="0 0 72.794 72.794">
  <g id="Group_4754" data-name="Group 4754" transform="translate(-674.125 -493.876)">
    <circle id="Ellipse_650" data-name="Ellipse 650" cx="36.397" cy="36.397" r="36.397" transform="translate(674.125 493.876)" fill="#f1f1f2"/>
    <g id="Group_4753" data-name="Group 4753">
      <path id="Path_334780" data-name="Path 334780" d="M740.757,527.864c-.105-.6-.059-1.207-.137-1.8a29.529,29.529,0,0,0-3.138-9.89,30.334,30.334,0,0,0-7.511-9.277,29.88,29.88,0,0,0-12.938-6.344,30.655,30.655,0,0,0-4.124-.534h-.236c-.077.082-.179.054-.273.061-.073,0-.147,0-.22,0-.1,0-.2,0-.294,0s-.2.022-.276-.061h-2.124c-.075.082-.176.054-.268.061s-.192,0-.289,0-.193.02-.269-.061h-.59c-.6.123-1.205.073-1.8.154a29.472,29.472,0,0,0-11.12,3.873,30.52,30.52,0,0,0-6.891,5.585,29.017,29.017,0,0,0-5.1,7.47,27.559,27.559,0,0,0-2.824,11.062,39.647,39.647,0,0,0,.22,6.759,29.289,29.289,0,0,0,3.045,9.322,30.33,30.33,0,0,0,6.192,8.116,29.984,29.984,0,0,0,23.944,8.048,27.838,27.838,0,0,0,10.105-2.855,30.383,30.383,0,0,0,10.07-7.93,30.021,30.021,0,0,0,6.318-12.906,32.929,32.929,0,0,0,.534-4.012v-.472c-.078-.07-.057-.164-.061-.252v-.2c0-.088-.017-.183.061-.253v-.354a.9.9,0,0,1,0-.708v-1.416c-.1-.1-.047-.227-.061-.343v-.216c.006-.092-.02-.192.061-.267Zm-50.862.722a1.759,1.759,0,0,1-1.885,1.633,1.78,1.78,0,0,1-1.643-1.843,23.792,23.792,0,0,1,4.48-12.255,24.059,24.059,0,0,1,15.652-9.809c.636-.116,1.283-.177,1.927-.249a1.778,1.778,0,1,1,.367,3.523q-12.147,1.419-17.283,12.523A19.757,19.757,0,0,0,689.9,528.586Zm5.9,1.62a14.749,14.749,0,1,1,14.762,14.768A14.772,14.772,0,0,1,695.8,530.206Zm38.921,2.005A22.831,22.831,0,0,1,732.9,539.6a24.1,24.1,0,0,1-18.346,14.542c-.347.068-.7.1-1.05.146-.371.045-.742.078-1.072.112a1.8,1.8,0,0,1-1.875-1.633,1.767,1.767,0,0,1,1.683-1.9A20.783,20.783,0,0,0,731.1,532.625c.033-.254.062-.507.093-.761a1.77,1.77,0,1,1,3.522.347Z" fill="#fff"/>
      <circle id="Ellipse_651" data-name="Ellipse 651" cx="6.702" cy="6.702" r="6.702" transform="translate(703.82 523.57)" fill="#fff"/>
      <path id="Path_334781" data-name="Path 334781" d="M690.962,533.4a.588.588,0,0,1,.444.507,1.768,1.768,0,0,0,.32.6,4.414,4.414,0,0,0,1.238,1.2,13.448,13.448,0,0,1,1.259.9,3.362,3.362,0,0,1,1.224,3.021,5.142,5.142,0,0,1-1.073,2.712.513.513,0,0,1-.739.13.493.493,0,0,1-.068-.741.573.573,0,0,0,.115-.608,3.682,3.682,0,0,0-2.253-2.434.2.2,0,0,0-.036,0v.14c0,1.83-.031,3.661.011,5.49a2.127,2.127,0,0,1-1.564,2.172,2.949,2.949,0,0,1-2.573-.275,1.9,1.9,0,0,1-.94-1.287,1.666,1.666,0,0,1,.441-1.491,2.655,2.655,0,0,1,1.83-.848,2.967,2.967,0,0,1,1.772.4v-.161q0-4.377,0-8.753a.633.633,0,0,1,.389-.681Z" fill="#ff3096"/>
      <path id="Path_334782" data-name="Path 334782" d="M729.914,513.214a.589.589,0,0,1,.444.507,1.769,1.769,0,0,0,.32.6,4.413,4.413,0,0,0,1.238,1.2,13.65,13.65,0,0,1,1.259.906,3.36,3.36,0,0,1,1.224,3.02,5.14,5.14,0,0,1-1.073,2.713.511.511,0,0,1-.738.129.492.492,0,0,1-.069-.74.575.575,0,0,0,.115-.609,3.679,3.679,0,0,0-2.252-2.433.131.131,0,0,0-.037,0v.141c0,1.83-.031,3.661.011,5.49a2.126,2.126,0,0,1-1.564,2.171,2.946,2.946,0,0,1-2.573-.275,1.9,1.9,0,0,1-.94-1.287,1.666,1.666,0,0,1,.441-1.491,2.654,2.654,0,0,1,1.83-.847,2.958,2.958,0,0,1,1.772.4v-.162q0-4.375,0-8.753a.634.634,0,0,1,.389-.681Z" fill="#ff3096"/>
      <path id="Path_334783" data-name="Path 334783" d="M714.1,512.532a2.429,2.429,0,0,1,.15-.393,1.633,1.633,0,0,1,1.128-.757,1.968,1.968,0,0,1,1.35.187l.066.033.023,0v-.1q0-2.937,0-5.873a.357.357,0,0,1,.363-.412l.194-.021,2.316-.258,2.427-.267q.54-.06,1.079-.123a.347.347,0,0,1,.419.364q0,3.545,0,7.089a1.233,1.233,0,0,1-.567,1.031,2.006,2.006,0,0,1-2.391-.1,1.171,1.171,0,0,1,.081-1.887,1.915,1.915,0,0,1,1.308-.375,1.957,1.957,0,0,1,.813.23.114.114,0,0,0,.076.025v-.09q0-1.887,0-3.773c0-.084-.017-.1-.1-.088q-1.582.182-3.165.355-1.043.115-2.086.228c-.07.007-.088.033-.088.1,0,1.632-.01,3.265.008,4.9a1.406,1.406,0,0,1-.926,1.352,1.713,1.713,0,0,1-.555.136c-.013,0-.025,0-.029.017h-.427a1.77,1.77,0,0,1-.63-.163,1.473,1.473,0,0,1-.8-.82c-.026-.068-.019-.14-.041-.207Z" fill="#ff3096"/>
      <path id="Path_334784" data-name="Path 334784" d="M695.495,552.9a2.381,2.381,0,0,1,.15-.392,1.631,1.631,0,0,1,1.128-.758,1.973,1.973,0,0,1,1.35.187l.066.033.024,0V546a.356.356,0,0,1,.364-.411c.064-.009.129-.015.194-.022l2.316-.258,2.427-.267,1.079-.123a.348.348,0,0,1,.419.364q0,3.545,0,7.09a1.234,1.234,0,0,1-.567,1.031,2.006,2.006,0,0,1-2.39-.1,1.171,1.171,0,0,1,.081-1.887,1.91,1.91,0,0,1,1.307-.375,1.98,1.98,0,0,1,.814.231.112.112,0,0,0,.076.024v-.09q0-1.887,0-3.773c0-.084-.016-.1-.1-.088q-1.582.181-3.165.355-1.043.115-2.085.228c-.071.008-.088.033-.088.1,0,1.632-.011,3.264.007,4.9a1.4,1.4,0,0,1-.926,1.352,1.688,1.688,0,0,1-.555.137c-.013,0-.024,0-.029.016h-.427a1.727,1.727,0,0,1-.63-.163,1.47,1.47,0,0,1-.8-.82c-.025-.067-.018-.139-.041-.206Z" fill="#ff3096"/>
    </g>
  </g>
</svg>
