<svg xmlns="http://www.w3.org/2000/svg" xmlns:xlink="http://www.w3.org/1999/xlink" width="122.532" height="142.563" viewBox="0 0 122.532 142.563">
  <defs>
    <clipPath id="clip-path">
      <rect id="Rectangle_259" data-name="Rectangle 259" width="122.533" height="142.563" transform="translate(2556.421 10030.941)" fill="none"/>
    </clipPath>
  </defs>
  <g id="Group_1000" data-name="Group 1000" transform="translate(-2556.421 -10030.941)">
    <g id="Group_999" data-name="Group 999" clip-path="url(#clip-path)">
      <path id="Path_50950" data-name="Path 50950" d="M2666.093,10123.577s-2.908-11.452-2.26-13.843,3.6-16.856,3.955-21.227a91.44,91.44,0,0,1,2.183-13.326,25.388,25.388,0,0,1,2.646-5.507c1.086-1.637-5.111-6.6-10.614-2.482-4.812,3.594-6.98,11.527-7.234,13.614s-4.739,7.022-4.739,7.022-12.114-9.947-15.514-12.932c-8-7.026-19.551-19.551-22.606-22.675-3.9-3.983-9.68.185-6.842,3.339,3.345,3.723,9.449,11.693,17.063,20.085a82.182,82.182,0,0,1,7.811,9.819s-5.434-5.058-10.092-10.175c-5.88-6.462-15.152-17.393-19.959-22.013-3.767-3.615-10.082,1.283-6.954,5,4.652,5.531,11,12.536,18.242,19.958,4.593,4.709,11.858,12.72,11.858,12.72s-9.491-7.765-14.312-12.393c-12.258-11.758-14.01-13.552-16.759-16.7s-7.1,1.179-4.837,5.251c2.57,4.623,6.926,8.923,14.688,16.806,7.044,7.152,14.535,13.405,14.535,13.405s-11.646-8.271-15.979-11.811c-6.185-5.053-8.485-6.271-12.469-10.021-2.409-2.266-5.826,1.794-2.186,5.712,6.782,7.3,17.685,16.961,28,25.542,6.739,5.613,21.811,21.166,21.811,21.166l2.34,8.738,28.228-13.081" fill="#f9aa78"/>
      <path id="Path_50951" data-name="Path 50951" d="M2639.558,10155.2l37.15-17.622-9.711-17.914-32.072,16.908,4.633,18.628" fill="#f1511b"/>
      <path id="Path_50952" data-name="Path 50952" d="M2669.4,10074.868c-.743-1.644-2.854-1.432-2.854-1.432a46.26,46.26,0,0,1,3.524-5.077c.724-.8,1.165-.065,2.055.577.671.484-.512,1.653-1.081,2.85l-1.644,3.082" fill="#fabe94"/>
      <path id="Path_50953" data-name="Path 50953" d="M2627.418,10138.339s-4.615-10.891-4.34-13.353,3.546-16.756,3.226-21.126-2.717-12.18-2.413-13.941a25.4,25.4,0,0,1,1.78-5.838c.825-1.777-6.055-5.765-10.872-.884-4.21,4.267-2.6,12.547-2.531,14.646s-6.169,7.527-6.169,7.527-8.76-7.634-11.032-11.523c-2.75-4.711-11.144-21.979-12.1-23.93-2.615-5.347-10.385-3.03-9.424,2.021.367,1.918,5.088,14.234,9.3,22.818,3.4,6.929,11.97,17.887,11.97,17.887s-9.123-12.11-11.97-17.887c-3.85-7.808-8.34-20.28-10-24.783s-10.2-3.668-8.3,2.759c.982,3.333,8.44,21.906,10.189,26.7,2.241,6.149,9.314,16.046,9.314,16.046s-6.519-10.013-9.314-16.046-7.476-19.386-9.319-24.145c-.87-2.559-7.1.525-5.564,5.729,1.183,3.057,4.117,14.768,7.157,22.646a71.992,71.992,0,0,0,8.713,16.018s-6.546-10.9-8.713-16.018a142.14,142.14,0,0,1-6.047-19.015c-1.491-1.907-4.455,1.209-2.948,8.651,1.271,6.275,7.31,25.786,12.255,32.991s27.592,20.858,27.592,20.858l3.646,8.294,25.917-17.109" fill="#f9aa78"/>
      <path id="Path_50954" data-name="Path 50954" d="M2605.994,10173.528l34.049-22.918-12.327-16.274-29.137,21.459,7.415,17.733" fill="#f1511b"/>
      <path id="Path_50955" data-name="Path 50955" d="M2619.971,10144.356a2.178,2.178,0,1,0,2.108-2.217,2.163,2.163,0,0,0-2.108,2.217" fill="#fff"/>
      <path id="Path_50956" data-name="Path 50956" d="M2623.522,10150.025a2.179,2.179,0,1,0,2.109-2.216,2.165,2.165,0,0,0-2.109,2.216" fill="#fff"/>
      <path id="Path_50957" data-name="Path 50957" d="M2577.461,10076.784c.925-2.265,4.346-2.512,4.346-2.512a26.153,26.153,0,0,0-2.7-5.224c-1.049-1.3-5.087.023-3.646,3.516l2,4.22" fill="#fabe94"/>
      <path id="Path_50958" data-name="Path 50958" d="M2622.471,10090.463c-1.146-2.164-4.576-2.084-4.576-2.084a45.694,45.694,0,0,1,2.711-5.54c.593-.9,2.648.039,3.625.542.738.381.2,1.425-.185,2.692l-1.575,4.39" fill="#fabe94"/>
      <path id="Path_50959" data-name="Path 50959" d="M2567.811,10077.086c.925-2.262,4.346-2.511,4.346-2.511a26.132,26.132,0,0,0-2.7-5.225c-1.045-1.3-5.085.025-3.644,3.516l2,4.22" fill="#fabe94"/>
      <path id="Path_50960" data-name="Path 50960" d="M2562.386,10084.452a7.154,7.154,0,0,1,2.723-3.3,11.517,11.517,0,0,0-1.4-3.312c-1.014-1.647-4.408-.484-2.968,3l1.65,3.607" fill="#fabe94"/>
      <path id="Path_50961" data-name="Path 50961" d="M2558.611,10091.483a6.476,6.476,0,0,1,2.1-2.111,26.968,26.968,0,0,0-.864-2.731c-.432-1.046-1.659-.219-1.594,1.884l.359,2.959" fill="#fabe94"/>
      <path id="Path_50962" data-name="Path 50962" d="M2586.121,10051.988a.629.629,0,0,1-.328-.092l-8.853-5.553a.6.6,0,0,1-.188-.835.614.614,0,0,1,.845-.185l8.854,5.551a.6.6,0,0,1,.189.835.622.622,0,0,1-.519.278"/>
      <path id="Path_50963" data-name="Path 50963" d="M2571.6,10062.444a.6.6,0,0,1-.1-1.2l9.869-1.562a.649.649,0,0,1,.1-.008.6.6,0,0,1,.1,1.2l-9.87,1.561a.465.465,0,0,1-.1.009"/>
      <path id="Path_50964" data-name="Path 50964" d="M2626.407,10050.592a.617.617,0,0,1-.4-.141.6.6,0,0,1-.072-.853l6.46-7.521a.619.619,0,0,1,.863-.071.6.6,0,0,1,.071.853l-6.458,7.521a.62.62,0,0,1-.469.212"/>
      <path id="Path_50965" data-name="Path 50965" d="M2671.643,10067.453a7.78,7.78,0,0,0-5.023-1.855h-.079a6.806,6.806,0,0,1,2.119-.343h.008a7.285,7.285,0,0,1,3.976,1.215,5.291,5.291,0,0,1,1.027.882,4.359,4.359,0,0,0-.34-.288,1.3,1.3,0,0,0-.4-.212.78.78,0,0,0-.234-.033.8.8,0,0,0-.292.052,1.3,1.3,0,0,0-.406.251l-.291.271-.065.062m-21.613,20.376s-12.114-9.947-15.514-12.932c-8-7.026-19.551-19.551-22.606-22.675a5.128,5.128,0,0,0-3.249-1.616,3.937,3.937,0,0,1,1.647-.358h0a4.429,4.429,0,0,1,3.2,1.45c1.516,1.55,5.175,5.468,9.447,9.872s9.167,9.3,13.193,12.834c1.714,1.5,5.589,4.733,9.044,7.595,2.441,2.022,4.67,3.857,5.767,4.759-.549.65-.931,1.071-.931,1.071m15.709,18.859c-.272-.877-.585-1.715-.754-2.154,1.107-5.339,2.564-13.04,2.8-16.026a91.44,91.44,0,0,1,2.183-13.326c.189-.565.427-1.188.7-1.823.035.018.07.034.1.054a2.848,2.848,0,0,1,.335.221c.11.084.213.184.325.288l.11-.2c-.042.111-.08.222-.117.331a23.057,23.057,0,0,0-.551,2.252,108.322,108.322,0,0,0-1.66,11.216c-.084,1.056-.333,2.774-.669,4.772-.5,3-1.2,6.648-1.832,9.767-.317,1.559-.617,2.985-.867,4.134q-.056.259-.111.5m-.487,13.339c-.8-3.575-1.832-8.772-1.419-10.293.2-.736.615-2.609,1.106-4.979.072.517.174,1.333.233,2.151.022.335.035.669.053.981v.824c-.008.126-.016.241-.021.341a5.725,5.725,0,0,0-.037.705,25.066,25.066,0,0,0,.376,3.625c.311,1.942.766,4.112,1.163,5.877l-1.454.767" fill="#fff"/>
      <path id="Path_50966" data-name="Path 50966" d="M2639.917,10133.385l-1.758-6.563a.621.621,0,0,0-.15-.264s-3.772-3.893-8.388-8.486c-.759-.756-1.541-1.531-2.335-2.313.151-.8.3-1.613.448-2.429.333-1.861.644-3.731.87-5.416a34.614,34.614,0,0,0,.375-4.328c0-.255-.008-.493-.024-.713a59.64,59.64,0,0,0-1.344-7.545c-.286-1.295-.563-2.53-.765-3.577-.012-.058-.023-.116-.034-.173l11.114-9.019s-.442.1-1.207.28l-.633.155c-.225.081-.469.166-.729.255a15.541,15.541,0,0,0-1.734.678c-.309.139-.633.284-.966.436l-.075.032a.639.639,0,0,0-.082-.2,82.54,82.54,0,0,0-7.872-9.9c-3.8-4.185-7.221-8.268-10.114-11.771s-5.256-6.428-6.948-8.312a2.087,2.087,0,0,1-.6-1.4,1.935,1.935,0,0,1,.246-.918,3.022,3.022,0,0,1,1.207-1.162c.079-.045.161-.085.245-.125a5.128,5.128,0,0,1,3.249,1.616c3.055,3.124,14.6,15.648,22.606,22.675,3.4,2.984,15.514,12.932,15.514,12.932s.382-.421.931-1.071l.269.223-.3.385c-.138.176-.282.417-.444.653a9.049,9.049,0,0,0-.493.793c-.155.287-.344.577-.489.9s-.327.646-.46.992-.291.69-.4,1.052-.241.712-.333,1.07-.182.709-.258,1.049a16.846,16.846,0,0,0-.289,1.888,12.126,12.126,0,0,0-.053,1.85l3.694-9.095c.133-.164.249-.315.38-.45.154-.165.29-.311.4-.428.146-.153.251-.266.307-.323l.032-.033c.007-.007,1.135-1.249,2.307-2.766a26.9,26.9,0,0,0,1.657-2.372,10.631,10.631,0,0,0,.607-1.147,3.989,3.989,0,0,0,.322-1.069,17.291,17.291,0,0,1,.54-2.407,28.94,28.94,0,0,1,2.288-5.656,15.714,15.714,0,0,1,4.166-5.142,7.542,7.542,0,0,1,2.128-1.13h.079a7.78,7.78,0,0,1,5.023,1.855c-.163.156-.335.311-.488.475l-.15.165a.717.717,0,0,0-.322-.085.855.855,0,0,0-.618.352,46.26,46.26,0,0,0-3.524,5.077s.091-.01.24-.01a2.774,2.774,0,0,1,2.614,1.441l.888-1.667a2.614,2.614,0,0,1,.388.157c-.273.635-.511,1.258-.7,1.823a91.44,91.44,0,0,0-2.183,13.326c-.239,2.986-1.7,10.688-2.8,16.026-.076-.2-.124-.317-.124-.317s.034.206.078.539c-.491,2.369-.907,4.242-1.106,4.979-.413,1.521.617,6.718,1.419,10.293l-25.335,13.357" fill="#f9aa78"/>
      <path id="Path_50967" data-name="Path 50967" d="M2669.4,10074.868a2.774,2.774,0,0,0-2.614-1.441c-.149,0-.24.01-.24.01a46.26,46.26,0,0,1,3.524-5.077.855.855,0,0,1,.618-.352.717.717,0,0,1,.322.085l-.358.4c-.33.382-.646.775-.938,1.182a26.063,26.063,0,0,0-1.636,2.517l-.038.065a.545.545,0,0,0-.059.386.56.56,0,0,0,.55.442.614.614,0,0,0,.118-.012c.029-.007.1-.011.156-.017l.181-.011.162,0c.069,0,.137,0,.206,0a3.372,3.372,0,0,1,.727.1,1.638,1.638,0,0,1,.207.053l-.888,1.667" fill="#fabe94"/>
      <path id="Path_50968" data-name="Path 50968" d="M2611.965,10094.187c-3.769-2.721-9-6.543-11.592-8.665-5.214-4.259-7.666-5.793-10.693-8.415-.448-.905-.879-1.778-1.282-2.6a.429.429,0,0,1,.05,0,1.569,1.569,0,0,1,1.074.486,62.485,62.485,0,0,0,5.457,4.563c1.853,1.409,3.96,2.968,7.044,5.485,1.106.9,2.673,2.1,4.4,3.395,2.016,1.91,3.919,3.642,5.51,5.06.01.236.021.466.034.691" fill="#fff"/>
      <path id="Path_50969" data-name="Path 50969" d="M2611.931,10093.5c-1.591-1.418-3.494-3.149-5.51-5.06,1.69,1.265,3.533,2.615,5.244,3.858.081.06.163.12.244.178,0,.35.009.69.022,1.023m-1.245,7.25c-5.943-5.074-11.807-10.3-16.7-15.034-1.4-2.745-2.932-5.822-4.308-8.6,3.027,2.622,5.479,4.156,10.693,8.415,2.6,2.122,7.823,5.944,11.592,8.665.095,1.64.28,2.976.3,3.657a5.71,5.71,0,0,1-1.582,2.9" fill="#f9aa78"/>
      <path id="Path_50970" data-name="Path 50970" d="M2610.9,10100.931c-.073-.062-.145-.125-.218-.186a5.71,5.71,0,0,0,1.582-2.9c-.023-.682-.208-2.018-.3-3.657-.013-.226-.024-.455-.034-.691-.013-.333-.021-.674-.022-1.023l1.5,1.09c.029.431.062.839.1,1.216.086.954.175,1.723.188,2.136l0,.019a1.745,1.745,0,0,1-.206.674,10.385,10.385,0,0,1-1.341,1.936c-.386.462-.814.935-1.247,1.39" fill="#f9aa78"/>
      <path id="Path_50971" data-name="Path 50971" d="M2614.377,10083.661c-2.052-1.781-4.1-3.6-5.652-5.1-12.258-11.758-14.01-13.552-16.759-16.7a3.13,3.13,0,0,0-1.408-.967,2.673,2.673,0,0,1,.342-.211,2.114,2.114,0,0,1,.959-.245,1.922,1.922,0,0,1,.831.194,2.74,2.74,0,0,1,.853.679c1.379,1.577,2.522,2.83,4.842,5.146s5.824,5.707,11.953,11.588c1.365,1.309,3.092,2.859,4.873,4.414l.173.187c-.2.166-.393.347-.585.542-.148.149-.288.3-.422.464" fill="#fff"/>
      <path id="Path_50972" data-name="Path 50972" d="M2615.384,10082.655l-.173-.187c.063.058.129.114.192.17l-.019.017m-3.359,7.319c-2.356-2.151-5.074-4.72-7.727-7.414-3.884-3.941-6.91-6.985-9.274-9.606a38.852,38.852,0,0,1-5.317-7.069,4.186,4.186,0,0,1-.556-2.059,3.745,3.745,0,0,1,.872-2.425,3.088,3.088,0,0,1,.535-.5,3.13,3.13,0,0,1,1.408.967c2.749,3.144,4.5,4.938,16.759,16.7,1.556,1.493,3.6,3.314,5.652,5.1a11.579,11.579,0,0,0-2.352,6.313" fill="#f9aa78"/>
      <path id="Path_50973" data-name="Path 50973" d="M2613.339,10091.165q-.635-.568-1.314-1.19a11.579,11.579,0,0,1,2.352-6.313c.134-.16.274-.314.422-.464.192-.2.388-.376.585-.542l.019-.017c.061.051.12.1.179.154a10.834,10.834,0,0,0-1.663,3.608,19.187,19.187,0,0,0-.58,4.764" fill="#f9aa78"/>
      <path id="Path_50974" data-name="Path 50974" d="M2626,10080.16a7.71,7.71,0,0,0-.792-.337,8.59,8.59,0,0,0-1.425-.382c-1.282-1.309-2.639-2.727-3.935-4.15-5.88-6.462-15.152-17.393-19.959-22.013a4.379,4.379,0,0,0-2.718-1.252,4.25,4.25,0,0,1,1.677-.357h0a3.755,3.755,0,0,1,2.652,1.1c2.373,2.279,5.894,6.164,9.543,10.279,1.742,1.962,3.515,3.979,5.213,5.9,1.827,2.148,3.793,4.407,5.87,6.7,1.51,1.662,2.8,3.187,3.871,4.514m3.94,5.306s-.707-.657-1.827-1.737c.051-.116.1-.23.153-.341a1.529,1.529,0,0,0,.075-.205c1.066,1.447,1.6,2.283,1.6,2.283" fill="#fff"/>
      <path id="Path_50975" data-name="Path 50975" d="M2617.487,10080.886c-1.339-1.426-2.667-2.821-3.826-4.012-7.23-7.412-13.574-14.408-18.213-19.924a2.607,2.607,0,0,1-.371-3.051,4.137,4.137,0,0,1,1.536-1.588,4.677,4.677,0,0,1,.56-.285,4.379,4.379,0,0,1,2.718,1.252c4.807,4.62,14.079,15.551,19.959,22.013,1.3,1.424,2.653,2.842,3.935,4.15a8.536,8.536,0,0,0-1.5-.136h-.017a8.014,8.014,0,0,0-4.777,1.58m9.249,7.185a24.97,24.97,0,0,1,1.379-4.342c1.12,1.08,1.827,1.737,1.827,1.737s-.533-.836-1.6-2.283a1.35,1.35,0,0,0,.047-.361,1.676,1.676,0,0,0-.169-.715,3.26,3.26,0,0,0-.845-1.057,6.3,6.3,0,0,0-1.374-.89c-1.071-1.327-2.361-2.852-3.871-4.514-2.077-2.291-4.043-4.55-5.87-6.7,1.861,2.108,3.632,4.1,5.174,5.8,4.534,4.98,9.779,9.886,10.111,10.2l-.946.516c-.352.207-.7.435-1.058.662-.724.441-1.44.945-2.161,1.465-.217.157-.432.319-.645.483" fill="#f9aa78"/>
      <path id="Path_50976" data-name="Path 50976" d="M2638.806,10133.97l-1.791-6.689c-.108-.112-.294-.3-.551-.566-.424-.436-1.04-1.064-1.8-1.837-1.517-1.545-3.61-3.663-5.914-5.955-.569-.565-1.151-1.143-1.739-1.725.089-.471.182-.951.273-1.439.794.782,1.576,1.558,2.335,2.313,4.616,4.594,8.386,8.484,8.388,8.486a.621.621,0,0,1,.15.264l1.758,6.563-1.111.585"/>
      <path id="Path_50977" data-name="Path 50977" d="M2616.261,10068.948c-1.7-1.923-3.471-3.94-5.213-5.9-3.649-4.115-7.17-8-9.543-10.279a3.755,3.755,0,0,0-2.652-1.1h0a4.25,4.25,0,0,0-1.677.357q-.182-.015-.36-.015a4.98,4.98,0,0,0-2.368.621,5.227,5.227,0,0,1,.737-.774,5.692,5.692,0,0,1,3.671-1.4h.015a5,5,0,0,1,3.49,1.438c.593.568,1.248,1.229,1.956,1.964a2.7,2.7,0,0,0,.754,1.7c2.431,2.706,6.323,7.658,11.193,13.387m34.7,17.81c-1.1-.9-3.326-2.736-5.767-4.759-3.455-2.861-7.33-6.092-9.044-7.595-4.026-3.535-8.919-8.43-13.193-12.834s-7.931-8.322-9.447-9.872a4.429,4.429,0,0,0-3.2-1.45h0a3.937,3.937,0,0,0-1.647.358c-.132-.012-.263-.018-.392-.018a4.555,4.555,0,0,0-1.961.442,4.083,4.083,0,0,1,.832-.9,5.081,5.081,0,0,1,3.17-1.092h.013a5.678,5.678,0,0,1,4.068,1.82c1.54,1.572,5.183,5.479,9.449,9.875s9.147,9.275,13.124,12.766c1.475,1.3,4.632,3.936,7.709,6.489,2.917,2.42,5.766,4.767,7.062,5.833-.277.343-.54.66-.774.935m15.435,22.754v0s-.056-.336-.139-.839c-.059-.263-.129-.57-.2-.9s-.179-.646-.279-.977c-.011-.035-.022-.071-.034-.106q.055-.24.111-.5c.25-1.148.55-2.575.867-4.134.631-3.118,1.329-6.766,1.832-9.767.336-2,.585-3.717.669-4.772a108.322,108.322,0,0,1,1.66-11.216,23.057,23.057,0,0,1,.551-2.252c.037-.109.075-.22.117-.331l1.534-2.877a13.264,13.264,0,0,1,.816-1.241,6.3,6.3,0,0,0,.4-.637,1.071,1.071,0,0,0,.156-.8.528.528,0,0,0-.129-.211l-.073-.069-.077-.064c-.091-.078-.181-.162-.271-.245s-.154-.148-.234-.223a5.291,5.291,0,0,0-1.027-.882,7.285,7.285,0,0,0-3.976-1.215h-.008a6.806,6.806,0,0,0-2.119.343,7.557,7.557,0,0,0-4.288,1.413,12.751,12.751,0,0,1,1.42-1.245,8.23,8.23,0,0,1,4.978-1.719h.009a8.473,8.473,0,0,1,3.693.864,6.9,6.9,0,0,1,2.436,1.885,2.545,2.545,0,0,1,.6,1.5,1.371,1.371,0,0,1-.224.767,24.814,24.814,0,0,0-2.578,5.367c-.125.371-.313,1.141-.514,2.115s-.424,2.174-.637,3.456c-.429,2.559-.831,5.459-1,7.614-.136,1.688-.635,4.744-1.242,8.063s-1.32,6.878-1.881,9.524c-.377,1.769-.681,3.118-.85,3.744h0a2.6,2.6,0,0,0-.069.567m.31,9.749c-.4-1.765-.852-3.935-1.163-5.877a25.066,25.066,0,0,1-.376-3.625,5.725,5.725,0,0,1,.037-.705c-.021.313-.032.507-.032.507l0,.01a.724.724,0,0,0,.007.132.614.614,0,0,0,.607.511.7.7,0,0,0,.1-.008.616.616,0,0,0,.507-.484v.038a21.22,21.22,0,0,0,.282,2.933c.174,1.159.411,2.439.663,3.68.163.8.33,1.576.489,2.3l-1.12.592"/>
      <path id="Path_50978" data-name="Path 50978" d="M2616.558,10081.674c-1.325-1.411-2.637-2.791-3.78-3.962-7.249-7.432-13.607-14.446-18.272-19.991a3.927,3.927,0,0,1-.984-2.544,3.969,3.969,0,0,1,.464-1.829,4.835,4.835,0,0,1,.459-.715,4.98,4.98,0,0,1,2.368-.621q.178,0,.36.015a4.677,4.677,0,0,0-.56.285,4.137,4.137,0,0,0-1.536,1.588,2.607,2.607,0,0,0,.371,3.051c4.639,5.516,10.983,12.512,18.213,19.924,1.159,1.19,2.487,2.586,3.826,4.012a9.07,9.07,0,0,0-.929.788m14.988,3.271c-.332-.311-5.577-5.216-10.111-10.2-1.542-1.7-3.313-3.691-5.174-5.8-4.87-5.729-8.762-10.681-11.193-13.387a2.7,2.7,0,0,1-.754-1.7c2.2,2.28,4.888,5.267,7.655,8.386,3.656,4.121,7.444,8.469,10.378,11.692,1.4,1.542,2.879,3.08,4.255,4.476-.85-1.019-1.813-2.132-2.886-3.315-3.817-4.2-7.254-8.3-10.151-11.812s-5.262-6.434-6.914-8.272a3.285,3.285,0,0,1-.912-2.206,3.111,3.111,0,0,1,.391-1.486,3.171,3.171,0,0,1,.178-.294,4.555,4.555,0,0,1,1.961-.442c.129,0,.26.006.392.018-.084.04-.166.08-.245.125a3.022,3.022,0,0,0-1.207,1.162,1.935,1.935,0,0,0-.246.918,2.087,2.087,0,0,0,.6,1.4c1.692,1.884,4.053,4.806,6.948,8.312s6.318,7.586,10.114,11.771a82.54,82.54,0,0,1,7.872,9.9.639.639,0,0,1,.082.2c-.313.141-.609.326-.93.492l-.106.058m20.948,2.376c.029-.032.045-.047.045-.047l.04-.049a.6.6,0,0,0-.12-.846.607.607,0,0,0-.368-.122.615.615,0,0,0-.49.239l-.31.4-.061.08-.269-.223c.234-.274.5-.592.774-.935l.2.165c.024.019.046.038.067.055.194-.222.449-.517.738-.862.65-.778,1.473-1.812,2.155-2.811a12.218,12.218,0,0,0,1.078-1.847,2.817,2.817,0,0,0,.23-.733,18.338,18.338,0,0,1,.578-2.595,30.981,30.981,0,0,1,1.375-3.813,21.136,21.136,0,0,1,4.1-6.371,7.557,7.557,0,0,1,4.288-1.413,7.542,7.542,0,0,0-2.128,1.13,15.714,15.714,0,0,0-4.166,5.142,28.94,28.94,0,0,0-2.288,5.656,17.291,17.291,0,0,0-.54,2.407,3.989,3.989,0,0,1-.322,1.069,10.631,10.631,0,0,1-.607,1.147,26.9,26.9,0,0,1-1.657,2.372c-1.172,1.517-2.3,2.759-2.307,2.766l-.032.033m-42.6,14.343c-4.958-4.232-9.862-8.575-14.205-12.653-.3-.579-.62-1.191-.95-1.832-.244-.475-.494-.965-.749-1.467,4.891,4.73,10.755,9.96,16.7,15.034-.25.3-.518.613-.794.918"/>
      <path id="Path_50979" data-name="Path 50979" d="M2610.053,10101.8c-.054-.048-.107-.093-.161-.139.276-.3.544-.613.794-.918.073.061.145.124.218.186-.285.3-.572.593-.851.871"/>
      <path id="Path_50980" data-name="Path 50980" d="M2615.211,10082.469c-1.781-1.555-3.508-3.105-4.873-4.414-6.129-5.881-9.634-9.27-11.953-11.588s-3.463-3.569-4.842-5.146a2.74,2.74,0,0,0-.853-.679,1.922,1.922,0,0,0-.831-.194,2.114,2.114,0,0,0-.959.245,2.673,2.673,0,0,0-.342.211,2.448,2.448,0,0,0-.738-.113,2.658,2.658,0,0,0-1.022.21,4.253,4.253,0,0,1,1.534-1.377,3.325,3.325,0,0,1,1.527-.382h.005a3.114,3.114,0,0,1,1.366.317,3.978,3.978,0,0,1,1.241.972c1.369,1.567,2.477,2.783,4.784,5.088l.789.785c3.343,3.693,7.1,7.7,11.135,11.835,1.218,1.249,2.622,2.729,4.032,4.23m-8.79,5.967c-1.725-1.291-3.292-2.491-4.4-3.395-3.084-2.518-5.191-4.076-7.044-5.485a62.485,62.485,0,0,1-5.457-4.563,1.569,1.569,0,0,0-1.074-.486.429.429,0,0,0-.05,0c-.191-.39-.378-.769-.556-1.134a2.475,2.475,0,0,1,.6-.075h.009a2.8,2.8,0,0,1,1.912.82,61.6,61.6,0,0,0,5.36,4.48c1,.761,2.087,1.574,3.367,2.563l2.723,2.764c1.542,1.564,3.1,3.086,4.6,4.509"/>
      <path id="Path_50981" data-name="Path 50981" d="M2615.4,10082.639c-.063-.056-.129-.112-.192-.17-1.41-1.5-2.814-2.981-4.032-4.23-4.034-4.135-7.792-8.142-11.135-11.835,2.3,2.278,5.681,5.54,11.149,10.785,1.428,1.37,3.281,3.029,5.173,4.678-.062.063-.122.128-.183.194a8.209,8.209,0,0,0-.78.578m-3.494,9.833c-.081-.058-.163-.118-.244-.178-1.711-1.243-3.554-2.594-5.244-3.858-1.5-1.423-3.062-2.944-4.6-4.509l-2.723-2.764c1.078.833,2.293,1.791,3.71,2.948,1.465,1.2,3.8,2.96,6.234,4.756-1.8-1.687-3.726-3.542-5.619-5.465-3.88-3.94-6.914-6.989-9.31-9.645a40.1,40.1,0,0,1-5.477-7.291,5.424,5.424,0,0,1-.706-2.641,5.01,5.01,0,0,1,.679-2.525c.061-.1.126-.205.193-.3a2.658,2.658,0,0,1,1.022-.21,2.448,2.448,0,0,1,.738.113,3.088,3.088,0,0,0-.535.5,3.745,3.745,0,0,0-.872,2.425,4.186,4.186,0,0,0,.556,2.059,38.852,38.852,0,0,0,5.317,7.069c2.364,2.621,5.39,5.665,9.274,9.606,2.653,2.694,5.371,5.263,7.727,7.414a23.772,23.772,0,0,0-.116,2.5"/>
      <path id="Path_50982" data-name="Path 50982" d="M2615.582,10082.793c-.059-.05-.118-.1-.179-.154a8.209,8.209,0,0,1,.78-.578,8.946,8.946,0,0,0-.6.732m-2.17,10.769-1.5-1.09a23.772,23.772,0,0,1,.116-2.5q.68.621,1.314,1.19c0,.081,0,.159,0,.239,0,.76.032,1.487.075,2.157"/>
      <path id="Path_50983" data-name="Path 50983" d="M2647.711,10097.616a12,12,0,0,1,.243-1.823,16.574,16.574,0,0,1,.473-1.816c.11-.325.219-.661.356-.993s.274-.67.429-1,.328-.649.491-.966.363-.608.534-.9.378-.549.551-.806a8.355,8.355,0,0,1,.528-.684c.03-.036.061-.071.089-.106l-3.694,9.095" fill="#f9aa78"/>
      <path id="Path_50984" data-name="Path 50984" d="M2647.711,10097.616a12.126,12.126,0,0,1,.053-1.85,16.846,16.846,0,0,1,.289-1.888c.076-.34.151-.7.258-1.049s.209-.715.333-1.07.266-.705.4-1.052.311-.67.46-.992.334-.617.489-.9a9.049,9.049,0,0,1,.493-.793c.162-.236.306-.478.444-.653l.3-.385.061-.08.31-.4a.615.615,0,0,1,.49-.239.607.607,0,0,1,.368.122.6.6,0,0,1,.12.846l-.04.049s-.016.015-.045.047c-.056.058-.161.17-.307.323-.112.117-.248.263-.4.428-.131.135-.247.286-.38.45-.028.035-.059.07-.089.106a8.355,8.355,0,0,0-.528.684c-.173.257-.382.512-.551.806s-.375.582-.534.9-.348.631-.491.966-.3.663-.429,1-.246.668-.356.993a16.574,16.574,0,0,0-.473,1.816,12,12,0,0,0-.243,1.823"/>
      <path id="Path_50985" data-name="Path 50985" d="M2665.784,10110.213a.614.614,0,0,1-.607-.511.724.724,0,0,1-.007-.132l0-.01s.011-.193.032-.507c0-.1.013-.215.021-.341v-.824c-.018-.312-.031-.646-.053-.981-.059-.818-.161-1.635-.233-2.151.016-.074.032-.147.046-.222.169.439.482,1.277.754,2.154.012.035.023.071.034.106.1.33.19.664.279.977s.145.634.2.9c.083.5.139.839.139.839v0a.663.663,0,0,1,0,.209.616.616,0,0,1-.507.484.7.7,0,0,1-.1.008"/>
      <path id="Path_50986" data-name="Path 50986" d="M2664.939,10104.756c-.044-.333-.078-.539-.078-.539s.048.116.124.317c-.014.074-.03.147-.046.222"/>
      <path id="Path_50987" data-name="Path 50987" d="M2676.429,10137.061l-9.089-16.767,1.446-.761,9.121,16.826-1.478.7" fill="#fff"/>
      <path id="Path_50988" data-name="Path 50988" d="M2642.014,10153.387l-.627-2.521,1.041-.7a.611.611,0,0,0,.26-.4.6.6,0,0,0-.113-.459l-2.347-3.1-2.554-10.27,29.666-15.642,9.089,16.767-34.415,16.326" fill="#f2521b"/>
      <path id="Path_50989" data-name="Path 50989" d="M2636.379,10135.8l-.008-.035a.6.6,0,0,1,.306-.676l.675-.354.129.485-1.1.58m5.22,18.45.595-.143-.595.143m0,.6a.617.617,0,0,1-.56-.36l35.669-16.921-.279-.516,1.478-.7-9.121-16.826-1.446.761-.343-.632-1.634.86c-.036-.16-.073-.327-.111-.5l1.454-.767,1.12-.592.923-.486a.628.628,0,0,1,.287-.07.61.61,0,0,1,.541.318l9.712,17.914a.6.6,0,0,1-.276.83l-37.148,17.622a.633.633,0,0,1-.266.061"/>
      <path id="Path_50990" data-name="Path 50990" d="M2637.481,10135.223l-.129-.485,1.454-.768,1.111-.585,25.335-13.357c.038.168.075.335.111.5l-27.882,14.7"/>
      <path id="Path_50991" data-name="Path 50991" d="M2640.228,10146.205l-1.877-2.479-1.972-7.924,1.1-.58,27.882-14.7,1.634-.86.343.632-29.666,15.642,2.554,10.27m.811,8.292a.893.893,0,0,1-.035-.1l-.7-2.806,1.079-.726.627,2.521,34.415-16.326.279.516-35.669,16.921"/>
      <path id="Path_50992" data-name="Path 50992" d="M2671.436,10073.921a1.731,1.731,0,0,0-.306-.865,1.812,1.812,0,0,0-.209-.264,22.887,22.887,0,0,1,1.7-3.117c.284-.428.07-1.084-.5-1.744l.08-.127a1.131,1.131,0,0,1,.406-.458.3.3,0,0,1,.146-.039.7.7,0,0,1,.336.116c.194.113.39.271.6.414.1.073.207.146.316.217l.072.045.067.055a.325.325,0,0,1,.071.1.891.891,0,0,1-.095.624,7.03,7.03,0,0,1-.337.649,11.865,11.865,0,0,0-.7,1.314l-1.534,2.877-.11.2" fill="#fff"/>
      <path id="Path_50993" data-name="Path 50993" d="M2670.921,10072.792a2.237,2.237,0,0,0-.284-.254l.4-.752c.569-1.2,1.752-2.365,1.081-2.85-.153-.111-.292-.225-.423-.333l.113-.184c.1-.168.2-.327.308-.489.569.66.783,1.316.5,1.744a22.887,22.887,0,0,0-1.7,3.117" fill="#f9aa78"/>
      <path id="Path_50994" data-name="Path 50994" d="M2670.637,10072.538c-.068-.054-.142-.1-.214-.151a3.433,3.433,0,0,0-.841-.356l.3-.478c.265-.415.523-.833.78-1.25l.384-.627.376-.63.271-.442c.131.108.27.222.423.333.671.484-.512,1.653-1.081,2.85l-.4.752" fill="#fabe94"/>
      <path id="Path_50995" data-name="Path 50995" d="M2673.08,10070.84a11.865,11.865,0,0,1,.7-1.314,7.03,7.03,0,0,0,.337-.649.891.891,0,0,0,.095-.624.325.325,0,0,0-.071-.1l-.067-.055-.072-.045c-.109-.07-.214-.144-.316-.217-.206-.144-.4-.3-.6-.414a.7.7,0,0,0-.336-.116.3.3,0,0,0-.146.039,1.131,1.131,0,0,0-.406.458l-.08.127a4.856,4.856,0,0,0-.475-.478l.065-.062.291-.271a1.3,1.3,0,0,1,.406-.251.8.8,0,0,1,.292-.052.78.78,0,0,1,.234.033,1.3,1.3,0,0,1,.4.212,4.359,4.359,0,0,1,.34.288c.08.074.156.148.234.223s.18.167.271.245l.077.064.073.069a.528.528,0,0,1,.129.211,1.071,1.071,0,0,1-.156.8,6.3,6.3,0,0,1-.4.637,13.264,13.264,0,0,0-.816,1.241m-1.644,3.081c-.112-.1-.215-.2-.325-.288a2.848,2.848,0,0,0-.335-.221c-.035-.02-.07-.036-.1-.054q.122-.283.25-.566a1.812,1.812,0,0,1,.209.264,1.731,1.731,0,0,1,.306.865"/>
      <path id="Path_50996" data-name="Path 50996" d="M2671.7,10068.6a4.092,4.092,0,0,0-.692-.511l.15-.165c.153-.164.325-.318.488-.475a4.856,4.856,0,0,1,.475.478c-.1.162-.21.321-.308.489l-.113.184m-1.026,4.755a2.614,2.614,0,0,0-.388-.157l.354-.663a2.237,2.237,0,0,1,.284.254q-.129.284-.25.566"/>
      <path id="Path_50997" data-name="Path 50997" d="M2670.283,10073.2a1.638,1.638,0,0,0-.207-.053,3.372,3.372,0,0,0-.727-.1c-.069,0-.137,0-.206,0l-.162,0-.181.011c-.054.006-.127.01-.156.017a.614.614,0,0,1-.118.012.56.56,0,0,1-.55-.442.545.545,0,0,1,.059-.386l.038-.065a26.063,26.063,0,0,1,1.636-2.517c.292-.406.608-.8.938-1.182l.358-.4a4.092,4.092,0,0,1,.692.511l-.271.442-.376.63-.384.627c-.257.417-.515.835-.78,1.25l-.3.478a3.433,3.433,0,0,1,.841.356c.072.047.146.1.214.151l-.354.663"/>
      <path id="Path_50998" data-name="Path 50998" d="M2626.812,10091.577c-.137-.725-.236-1.356-.276-1.822.518-.423,1.035-.846,1.561-1.24.7-.513,1.36-1.06,2.049-1.518.338-.237.669-.473,1-.7l.977-.637c.63-.425,1.253-.778,1.824-1.118s1.109-.612,1.586-.863l.673-.352.594-.261c.723-.313,1.131-.506,1.131-.506l-11.114,9.019" fill="#f9aa78"/>
      <path id="Path_50999" data-name="Path 50999" d="M2626.536,10089.755c-.012-.154-.019-.289-.017-.4a1.409,1.409,0,0,1,.017-.273h0c.055-.318.121-.656.2-1.006.213-.164.428-.326.645-.483.721-.52,1.437-1.023,2.161-1.465.358-.228.706-.455,1.058-.662l.946-.516.106-.058c.321-.166.617-.352.93-.492l.075-.032c.333-.151.657-.3.966-.436a15.541,15.541,0,0,1,1.734-.678c.26-.089.5-.174.729-.255l.633-.155c.765-.184,1.207-.28,1.207-.28s-.408.192-1.131.506l-.594.261-.673.352c-.477.251-1.019.512-1.586.863s-1.194.693-1.824,1.118l-.977.637c-.326.229-.657.465-1,.7-.689.458-1.349,1-2.049,1.518-.526.395-1.043.817-1.561,1.24"/>
      <path id="Path_51000" data-name="Path 51000" d="M2573.487,10070.638c-.034-.062-.069-.125-.1-.187a13.144,13.144,0,0,0-.913-1.38,7.749,7.749,0,0,0-.549-.643l-.307-.312a2.312,2.312,0,0,0-.211-.162,1.744,1.744,0,0,0-.553-.221,5.156,5.156,0,0,0-2.106-.579,4.242,4.242,0,0,1,1.722-.353h.006a4.525,4.525,0,0,1,2.313.623,3.5,3.5,0,0,1,1.365,1.445,3.848,3.848,0,0,0-.663,1.768m12.008,4.445c-1.279-2.6-2.238-4.577-2.527-5.165a5.607,5.607,0,0,0-1.618-2.017l-.086-.086a1.671,1.671,0,0,0-.211-.164,1.633,1.633,0,0,0-.217-.112c-.035-.015-.07-.028-.1-.04a5.121,5.121,0,0,0-2.243-.628,4.759,4.759,0,0,1,1.789-.349h0a4.5,4.5,0,0,1,2.331.637,4.816,4.816,0,0,1,1.846,2.077c.313.637,1.417,2.906,2.862,5.842a1.972,1.972,0,0,0-.912-.231,1.916,1.916,0,0,0-.912.236m-19.559,1.588,0-.006c-.193-.513-.367-.974-.522-1.373a1.262,1.262,0,0,0-.8-.819c.091-.052.18-.1.27-.14.059-.028.116-.055.175-.079.239.675.54,1.492.886,2.417m61.23,6.138c-.453-.441-.947-.928-1.47-1.444.05.024.1.054.145.08a4.093,4.093,0,0,1,1.032.815,1.55,1.55,0,0,1,.236.35.579.579,0,0,1,.057.2m-66.095,2.272c-.032-.118-.062-.233-.093-.346.011-.022.024-.046.037-.068.037.128.075.257.115.389-.021.009-.04.016-.059.025m21.768,9.677c-.174-.351-.348-.712-.523-1.08q.263.549.523,1.08m-8.11,4.679c-2.039-4.4-5.083-12.7-7.3-18.716l.016-.009a.126.126,0,0,0,.023-.013c2.609,6.775,6.126,15.636,7.257,18.737m-7.726,4.231a114.065,114.065,0,0,1-4.77-14.248l.142-.091c1.331,4.563,2.964,10.026,4.628,14.339m39.1,1.7s-8.76-7.634-11.032-11.523c-.821-1.405-2.143-3.928-3.621-6.83q1.734,1.679,3.619,3.433c.593,1.12,1.11,2.063,1.512,2.755a23.566,23.566,0,0,0,2.756,3.54c2.763,3.057,6.463,6.412,7.849,7.644-.643.6-1.083.982-1.083.982m18.695,16.878c-.026-.054-.051-.109-.077-.162-.282-.584-.583-1.15-.826-1.59.216-1.1.453-2.317.694-3.591.349.343.7.686,1.039,1.024-.267,1.381-.515,2.639-.709,3.668-.043.229-.085.445-.121.65m1.379,13.027c-1.346-3.415-3.276-8.673-3.1-10.29.074-.651.354-2.126.724-4.027.112.4.231.863.337,1.326.073.328.137.657.2.964.047.3.091.576.126.815.013.128.023.243.032.348a8.362,8.362,0,0,0,.2,1.371,59.183,59.183,0,0,0,2.422,7.41c.141.373.282.733.417,1.08l-1.361,1" fill="#fff"/>
      <path id="Path_51001" data-name="Path 51001" d="M2595.065,10090.45q-1.879-1.75-3.619-3.433c-1.985-3.895-4.248-8.471-5.951-11.935a1.916,1.916,0,0,1,.912-.236,1.972,1.972,0,0,1,.912.231c.767,1.558,1.628,3.3,2.517,5.091,1.28,2.577,2.62,5.239,3.809,7.555.5.982.984,1.9,1.42,2.727m30.559,27.48c-.344-.339-.69-.682-1.039-1.024.926-4.895,1.9-10.567,1.719-13.046-.318-4.37-2.717-12.18-2.413-13.941.048-.268.1-.547.163-.835a4.585,4.585,0,0,1,.458.434l1.575-4.392c.185-.507.406-1,.566-1.525a1.527,1.527,0,0,0,.052-.855.738.738,0,0,0-.3-.387c-.126-.082-.241-.14-.364-.208a9.384,9.384,0,0,0-1.524-.682,4.07,4.07,0,0,0-.848-.189,2.351,2.351,0,0,0-.238-.013,1.544,1.544,0,0,0-.475.069,8.008,8.008,0,0,0-2.718-.479h-.11a6.858,6.858,0,0,1,2.149-.343h.008a7.285,7.285,0,0,1,3.407.851c.523.517,1.017,1,1.47,1.444v.013l-.013.063a26.035,26.035,0,0,0-1.824,5.988v0a2.788,2.788,0,0,0-.035.482,15.419,15.419,0,0,0,.35,2.627c.312,1.606.781,3.6,1.2,5.571a43.718,43.718,0,0,1,.892,5.41c.014.184.02.394.02.626a37.419,37.419,0,0,1-.464,4.891c-.424,2.935-1.066,6.358-1.629,9.267-.013.063-.024.126-.037.188" fill="#f9aa78"/>
      <path id="Path_51002" data-name="Path 51002" d="M2576.3,10069.042a3.331,3.331,0,0,1,.156-.369,3.707,3.707,0,0,1,1.539-1.563,4.109,4.109,0,0,1,.494-.238,5.121,5.121,0,0,1,2.243.628,2.163,2.163,0,0,0-.741-.125,3,3,0,0,0-.923.156,2.954,2.954,0,0,0-1.4.962c-.022.026-.041.054-.062.082a2.964,2.964,0,0,0-1.3.468m-9.272.093a2.906,2.906,0,0,1,1.484-1.868c.075-.041.153-.077.233-.112a5.156,5.156,0,0,1,2.106.579,2.228,2.228,0,0,0-.51-.058,3.056,3.056,0,0,0-.923.156,2.958,2.958,0,0,0-1.4.964.989.989,0,0,0-.062.081,2.94,2.94,0,0,0-.926.258m-4.461,7.983c-.035,0-.068-.008-.1-.01a4.665,4.665,0,0,1,1.156-1.88,4.726,4.726,0,0,1,.987-.756,1.262,1.262,0,0,1,.8.819c.155.4.329.86.522,1.373l-.053-.07a1.76,1.76,0,0,0-.591-.47,1.917,1.917,0,0,0-.707-.188l-.135,0a2.077,2.077,0,0,0-1.88,1.185m-1.867,8.266a4.952,4.952,0,0,1,.25-.592l.029-.057c.031.112.061.228.093.346a.868.868,0,0,0-.2.126,1.54,1.54,0,0,0-.174.177m21.617,8.294c.175.368.349.729.523,1.08q-.261-.53-.523-1.08m20.88,58.522-2.739-6.231a.6.6,0,0,0-.242-.274l-.252-.154c-1.247-.76-6.914-4.242-12.839-8.371-2.962-2.063-5.988-4.291-8.553-6.413a32.524,32.524,0,0,1-5.76-5.745,45.658,45.658,0,0,1-3.767-7.21c-1.91-4.382-3.776-9.61-5.279-14.327s-2.648-8.92-3.117-11.232a20.25,20.25,0,0,1-.362-2.58c.093-.068.172-.126.238-.17l.127,1.047c.222-.167.418-.321.621-.467s.4-.286.6-.416c.119-.081.24-.159.36-.235a114.065,114.065,0,0,0,4.77,14.248c-1.664-4.312-3.3-9.776-4.628-14.339.032-.02.064-.039.095-.061l.3-.179.285-.16a.567.567,0,0,0,.281-.6l-.01-.046a7.356,7.356,0,0,0-.2-.786,7.024,7.024,0,0,0-.287-.763,5.092,5.092,0,0,0-.394-.731c-.077-.118-.153-.236-.236-.347a.651.651,0,0,1-.066-.1l-.054-.094a1.015,1.015,0,0,0-.164-.215.761.761,0,0,0-.531-.241h-.008a.772.772,0,0,0-.253.049c-.04-.132-.078-.261-.115-.389a2.4,2.4,0,0,1,.545-.7.732.732,0,0,1,.454-.2.381.381,0,0,1,.059,0l.313.685c.035-.087.072-.171.108-.255a139.935,139.935,0,0,0,5.982,18.748,72.478,72.478,0,0,0,8.791,16.156.612.612,0,0,0,.489.243.626.626,0,0,0,.34-.1.6.6,0,0,0,.186-.81s-.1-.17-.283-.477c-.64-1.075-2.271-3.836-3.975-6.884s-3.483-6.381-4.411-8.574c-1.507-3.905-3-8.789-4.255-13.075-.632-2.146-1.2-4.142-1.693-5.8-.093-.315-.184-.615-.27-.9.147-.187.295-.356.44-.511l.592,1.292c.124-.141.234-.294.352-.432s.23-.275.352-.406a10.156,10.156,0,0,1,.735-.749,8.537,8.537,0,0,1,.78-.664c.134-.1.272-.2.406-.294l.208-.134c.059-.037.126-.08.173-.105,2.213,6.015,5.257,14.313,7.3,18.716-1.131-3.1-4.648-11.962-7.257-18.737a.558.558,0,0,0,.266-.574l-.006-.036a6.125,6.125,0,0,0-.166-.668c-.069-.209-.139-.42-.228-.621a5.346,5.346,0,0,0-.284-.6,4.291,4.291,0,0,0-.343-.566,4.515,4.515,0,0,0-.4-.529l-.219-.25c-.038-.048-.065-.067-.119-.136l-.039-.05c-.346-.925-.647-1.742-.886-2.417a2.661,2.661,0,0,1,.979-.221h0a1.3,1.3,0,0,1,.349.044l1.428,3.009.01-.025c.912,2.459,2.1,5.732,3.357,9.088,1.748,4.683,3.613,9.519,5.024,12.571a62.411,62.411,0,0,0,5.545,10.419c2.058,3.259,3.831,5.739,3.836,5.745a.619.619,0,0,0,.841.154.6.6,0,0,0,.173-.827s-.1-.155-.283-.439c-.641-1-2.284-3.572-4.07-6.556s-3.7-6.354-4.907-8.954c-.888-2.429-3.179-8.246-5.377-13.889-1.1-2.828-2.181-5.611-3.046-7.892-.076-.2-.149-.4-.223-.591a4.446,4.446,0,0,1,.788-.533l.373.783a4.364,4.364,0,0,1,.427-.493,4.565,4.565,0,0,1,.488-.395,4.942,4.942,0,0,1,1.095-.547,7.11,7.11,0,0,1,1.183-.329c.2-.041.4-.074.608-.1l.3-.034c.1-.011.208-.022.287-.025a.592.592,0,0,0,.17-.034.565.565,0,0,0,.351-.727l-.011-.033c-.188-.519-.394-1.016-.624-1.513-.2-.432-.411-.853-.642-1.27a3.848,3.848,0,0,1,.663-1.768,3.672,3.672,0,0,1,.16.364c.186.508.408,1.117.663,1.812,0,.021.006.039.011.06a12.373,12.373,0,0,0,.349,1.25c.614,1.908,1.935,5.442,3.57,9.455,1.476,3.628,3.206,7.637,4.892,11.162q.269.567.534,1.1a.189.189,0,0,0,.013.026,94.643,94.643,0,0,0,7.3,11.6c2.576,3.618,4.723,6.363,4.728,6.368a.615.615,0,0,0,.853.112.6.6,0,0,0,.123-.843s-.142-.187-.4-.528c-.892-1.194-3.159-4.267-5.51-7.664a90.059,90.059,0,0,1-6-9.591l0-.007c-.174-.354-.349-.717-.524-1.083-1.762-3.706-3.634-8.273-5.276-12.5-.553-1.422-1.081-2.808-1.57-4.107a4.137,4.137,0,0,1,1.068-.806l.371.785a4.53,4.53,0,0,1,.429-.494,4.689,4.689,0,0,1,.488-.395c.172-.113.351-.213.531-.309a5.233,5.233,0,0,1,.563-.238,7.331,7.331,0,0,1,1.183-.328c.2-.04.405-.073.607-.1l.3-.036c.1-.009.209-.02.287-.022a.616.616,0,0,0,.171-.033.568.568,0,0,0,.352-.728l-.013-.033c-.188-.521-.392-1.017-.622-1.513s-.475-.979-.746-1.457a13.1,13.1,0,0,0-.913-1.382,7.923,7.923,0,0,0-.549-.64l-.221-.226a5.607,5.607,0,0,1,1.618,2.017c.289.588,1.248,2.563,2.527,5.165,1.7,3.464,3.966,8.04,5.951,11.935,1.478,2.9,2.8,5.425,3.621,6.83,2.272,3.89,11.032,11.523,11.032,11.523s.44-.381,1.083-.982c.121.109.225.2.309.274a.616.616,0,0,0,.38.3l.009,0,.448.289c.171.115.416.242.651.377s.5.259.757.388.523.23.765.341.478.19.679.26c.4.146.67.223.67.223l-.337-.22c-.073-.049-.154-.106-.243-.17-.173-.118-.366-.269-.573-.423s-.421-.332-.625-.516c-.1-.092-.2-.18-.3-.268.223-.012.443-.017.647-.041s.405-.045.571-.078c.332-.052.547-.108.547-.108l-1.07-.188a.145.145,0,0,0-.022-.007c-.2-.044-.4-.114-.606-.173-.1-.037-.2-.075-.292-.113a2.118,2.118,0,0,1-.271-.115c-.049-.024-.1-.052-.142-.077.595-.541,1.563-1.445,2.537-2.462a24.8,24.8,0,0,0,2.174-2.54,8.537,8.537,0,0,0,.753-1.227,2.8,2.8,0,0,0,.325-1.192l0-.05v0c-.017-.511-.108-1.264-.192-2.211s-.166-2.067-.166-3.264a18.356,18.356,0,0,1,.54-4.694,8.931,8.931,0,0,1,2.176-4.038,7.176,7.176,0,0,1,2.854-1.815h.11a8.008,8.008,0,0,1,2.718.479,1.285,1.285,0,0,0-.247.111,1.036,1.036,0,0,0-.228.188l-.145.18-.257.329c-.092.114-.18.229-.263.347a2.48,2.48,0,0,0-.353-.026.959.959,0,0,0-.861.374,45.694,45.694,0,0,0-2.711,5.54h.047c.416,0,3.462.07,4.529,2.084l.685-1.912c.12.053.24.11.356.171a4.833,4.833,0,0,1,.524.347l.018.016c-.061.288-.115.567-.163.835-.3,1.762,2.095,9.571,2.413,13.941.181,2.479-.793,8.151-1.719,13.046-.241,1.273-.478,2.494-.694,3.591-.272-.5-.468-.827-.468-.827s.175.547.379,1.289c-.37,1.9-.65,3.376-.724,4.027-.181,1.617,1.749,6.875,3.1,10.29l-1.016.748-.006,0L2603.2,10152.2" fill="#f9aa78"/>
      <path id="Path_51003" data-name="Path 51003" d="M2578.061,10075.858c-.732-1.943-1.379-3.7-1.9-5.119a3.824,3.824,0,0,1-.046-.593,3.325,3.325,0,0,1,.183-1.1,2.964,2.964,0,0,1,1.3-.468,2.49,2.49,0,0,0-.484,1.478,3.64,3.64,0,0,0,.381,1.567l1.629,3.434a4.137,4.137,0,0,0-1.068.806" fill="#fabe94"/>
      <path id="Path_51004" data-name="Path 51004" d="M2622.471,10090.463c-1.067-2.014-4.113-2.084-4.529-2.084h-.047a45.694,45.694,0,0,1,2.711-5.54.959.959,0,0,1,.861-.374,2.48,2.48,0,0,1,.353.026c-.078.108-.153.22-.223.334-.15.23-.3.464-.443.7l-.4.717c-.261.479-.507.969-.73,1.466s-.426,1-.633,1.507a.607.607,0,0,0-.043.222.589.589,0,0,0,.592.582h.012l.287,0,.306,0c.206.008.412.022.616.047a7.739,7.739,0,0,1,1.208.217,4.547,4.547,0,0,1,.789.269l-.685,1.912" fill="#fabe94"/>
      <path id="Path_51005" data-name="Path 51005" d="M2560.361,10088.14c-.032-.1-.064-.21-.1-.316.005-.107.011-.212.021-.316,0,.023,0,.047.008.071l.068.562" fill="#f9aa78"/>
      <path id="Path_51006" data-name="Path 51006" d="M2568.691,10075.891c-.339-.9-.639-1.714-.886-2.4-.3-.83-.521-1.481-.638-1.874a5.562,5.562,0,0,1-.249-1.574,3.648,3.648,0,0,1,.109-.909,2.94,2.94,0,0,1,.926-.258,2.491,2.491,0,0,0-.486,1.477,3.622,3.622,0,0,0,.383,1.569l1.629,3.435a4.446,4.446,0,0,0-.788.533m-.88,1.2-1.428-3.009a.731.731,0,0,1,.2.088.659.659,0,0,1,.284.374l.008.021c.259.674.578,1.522.942,2.5l-.01.025" fill="#fabe94"/>
      <path id="Path_51007" data-name="Path 51007" d="M2563.4,10082.724c-.367-1.215-.677-2.187-.928-2.839a5.149,5.149,0,0,1-.212-1.43,4.431,4.431,0,0,1,.207-1.347c.036,0,.069,0,.1.01a1.931,1.931,0,0,0-.113.286,2.719,2.719,0,0,0-.073,1.292,4.212,4.212,0,0,0,.156.618,6.127,6.127,0,0,0,.241.586l1.058,2.313c-.145.154-.293.324-.44.511m-1.009,1.729-.313-.685a.466.466,0,0,1,.158.056.856.856,0,0,1,.209.168c.018.067.037.137.054.206-.036.084-.073.168-.108.255" fill="#fabe94"/>
      <path id="Path_51008" data-name="Path 51008" d="M2560.286,10089.661c-.028-.4-.041-.771-.041-1.127,0-.246.006-.483.019-.711.033.106.065.214.1.316l.163,1.352c-.066.044-.145.1-.238.17" fill="#fabe94"/>
      <path id="Path_51009" data-name="Path 51009" d="M2602.189,10152.943l-2.778-6.32c-.706-.429-3.595-2.2-7.281-4.611-4.252-2.788-9.562-6.436-13.819-9.9a35.629,35.629,0,0,1-6.516-6.425,39.192,39.192,0,0,1-2.906-5.267c-.973-2.065-1.943-4.39-2.873-6.808-1.862-4.836-3.563-10.048-4.8-14.3-.826-2.836-1.445-5.24-1.768-6.839-.126-.618-.22-1.209-.289-1.771a6.839,6.839,0,0,1,1.127-1.045,20.25,20.25,0,0,0,.362,2.58c.469,2.313,1.612,6.521,3.117,11.232s3.369,9.945,5.279,14.327a45.658,45.658,0,0,0,3.767,7.21,32.524,32.524,0,0,0,5.76,5.745c2.565,2.122,5.591,4.35,8.553,6.413,5.925,4.129,11.592,7.611,12.839,8.371l.252.154a.6.6,0,0,1,.242.274l2.739,6.231-1.007.743"/>
      <path id="Path_51010" data-name="Path 51010" d="M2574.15,10068.87a3.5,3.5,0,0,0-1.365-1.445,4.525,4.525,0,0,0-2.313-.623h-.006a4.242,4.242,0,0,0-1.722.353c-.107-.008-.212-.012-.317-.012a4.845,4.845,0,0,0-2.024.429,4.022,4.022,0,0,1,.8-.877,5.14,5.14,0,0,1,3.268-1.1,5.8,5.8,0,0,1,2.955.8,4.792,4.792,0,0,1,1.6,1.552,4.24,4.24,0,0,0-.877.927m15.53,8.236c-.566-.489-1.15-1.018-1.776-1.606a2.7,2.7,0,0,0-.585-.422c-1.445-2.936-2.549-5.205-2.862-5.842a4.816,4.816,0,0,0-1.846-2.077,4.5,4.5,0,0,0-2.331-.637h0a4.759,4.759,0,0,0-1.789.349c-.083,0-.166-.006-.249-.006a5.353,5.353,0,0,0-2.469.6,4.857,4.857,0,0,1,.81-.852,5.826,5.826,0,0,1,3.7-1.3h0a5.756,5.756,0,0,1,2.967.813,6.046,6.046,0,0,1,2.311,2.583c.27.548,1.127,2.312,2.282,4.663.178.365.365.744.556,1.134.4.82.834,1.693,1.282,2.6m38.435,6.622c-.291-.279-.608-.588-.949-.92a.579.579,0,0,0-.057-.2,1.55,1.55,0,0,0-.236-.35,4.093,4.093,0,0,0-1.032-.815c-.048-.026-.095-.056-.145-.08-.6-.6-1.248-1.247-1.911-1.923a8.59,8.59,0,0,1,1.425.382,7.71,7.71,0,0,1,.792.337c.954,1.177,1.733,2.2,2.341,3.022a1.529,1.529,0,0,1-.075.205c-.051.11-.1.225-.153.341m-20.933,20.66c-1.386-1.231-5.086-4.587-7.849-7.644a23.566,23.566,0,0,1-2.756-3.54c-.4-.691-.919-1.635-1.512-2.755q1.412,1.314,2.891,2.656a25.749,25.749,0,0,0,2.082,2.6c1.036,1.162,2.237,2.39,3.4,3.531,1.939,1.9,3.78,3.558,4.625,4.308l-.282.272a.622.622,0,0,0-.3.285c-.105.1-.206.194-.3.283m18.564,20.292,0,0s-.1-.325-.265-.811c-.1-.25-.215-.543-.338-.856-.113-.243-.228-.5-.347-.76.036-.205.078-.422.121-.65.194-1.029.442-2.287.709-3.668l1.046,1.036c-.3,1.527-.558,2.86-.733,3.832-.1.586-.18,1.044-.209,1.309v0a1.427,1.427,0,0,0-.008.167,3.18,3.18,0,0,0,.026.4"/>
      <path id="Path_51011" data-name="Path 51011" d="M2616.183,10082.061c.061-.066.121-.131.183-.194.012-.011.023-.024.035-.035.052-.053.1-.105.157-.157a9.07,9.07,0,0,1,.929-.788,8.014,8.014,0,0,1,4.777-1.58h.017a8.536,8.536,0,0,1,1.5.136c.663.676,1.307,1.32,1.911,1.923a7.285,7.285,0,0,0-3.407-.851h-.008a6.858,6.858,0,0,0-2.149.343,7.349,7.349,0,0,0-3.949,1.2m12.16,1.122c-.608-.823-1.387-1.846-2.341-3.022a6.3,6.3,0,0,1,1.374.89,3.26,3.26,0,0,1,.845,1.057,1.676,1.676,0,0,1,.169.715,1.35,1.35,0,0,1-.047.361m-30.387,9.924q-1.478-1.343-2.891-2.656c-.436-.825-.915-1.744-1.42-2.727-1.189-2.315-2.529-4.978-3.809-7.555-.889-1.787-1.75-3.533-2.517-5.091a2.7,2.7,0,0,1,.585.422c.626.589,1.21,1.117,1.776,1.606,1.376,2.782,2.909,5.859,4.308,8.6.255.5.5.992.749,1.467.33.641.647,1.253.95,1.832.786,1.5,1.464,2.756,1.951,3.591.093.16.2.329.318.506m28.714,25.86-1.046-1.036c.013-.062.024-.126.037-.188.563-2.908,1.205-6.332,1.629-9.267a37.419,37.419,0,0,0,.464-4.891c0-.232-.006-.442-.02-.626a43.718,43.718,0,0,0-.892-5.41c-.417-1.973-.886-3.965-1.2-5.571a15.419,15.419,0,0,1-.35-2.627,2.788,2.788,0,0,1,.035-.482v0a26.035,26.035,0,0,1,1.824-5.988l.013-.062v-.013c.341.332.658.641.949.92a24.97,24.97,0,0,0-1.379,4.342c-.079.35-.145.688-.2,1.006h0a1.409,1.409,0,0,0-.017.273c0,.115,0,.25.017.4.04.466.139,1.1.276,1.822.011.057.022.115.034.173.2,1.047.479,2.282.765,3.577a59.64,59.64,0,0,1,1.344,7.545c.016.22.024.458.024.713a34.614,34.614,0,0,1-.375,4.328c-.226,1.685-.537,3.555-.87,5.416-.147.815-.3,1.632-.448,2.429-.091.488-.184.969-.273,1.439-.118.611-.233,1.2-.343,1.77"/>
      <path id="Path_51012" data-name="Path 51012" d="M2565.708,10070.439c-.009-.135-.014-.267-.014-.4a4.563,4.563,0,0,1,.408-1.938,3.811,3.811,0,0,1,.3-.534,4.845,4.845,0,0,1,2.024-.429c.1,0,.21,0,.317.012-.08.035-.158.071-.233.112a2.906,2.906,0,0,0-1.484,1.868,2.62,2.62,0,0,0-1.319,1.3m43.425,33.913c-.027-.014-.054-.027-.079-.042-.071-.041-.13-.062-.2-.108-.12-.084-.222-.157-.3-.212l-.018-.02a.63.63,0,0,0-.129-.109.615.615,0,0,0-.336-.1.9.9,0,0,0-.295.059l.282-.272c.026.024.049.046.073.066l.032-.028c.275-.248.66-.6,1.1-1.022.245-.235.51-.491.781-.762s.566-.57.851-.871c.433-.455.861-.928,1.247-1.39a10.385,10.385,0,0,0,1.341-1.936,1.745,1.745,0,0,0,.206-.674l0-.019c-.013-.413-.1-1.182-.188-2.136-.034-.377-.067-.785-.1-1.216-.043-.67-.075-1.4-.075-2.157,0-.08,0-.158,0-.239a19.187,19.187,0,0,1,.58-4.764,10.834,10.834,0,0,1,1.663-3.608,8.946,8.946,0,0,1,.6-.732,7.349,7.349,0,0,1,3.949-1.2,7.176,7.176,0,0,0-2.854,1.815,8.931,8.931,0,0,0-2.176,4.038,18.356,18.356,0,0,0-.54,4.694c0,1.2.079,2.322.166,3.264s.175,1.7.192,2.211v0l0,.05a2.8,2.8,0,0,1-.325,1.192,8.537,8.537,0,0,1-.753,1.227,24.8,24.8,0,0,1-2.174,2.54c-.974,1.017-1.942,1.921-2.537,2.462m-1.642.311c-.084-.074-.188-.165-.309-.274.1-.089.2-.185.3-.283a.632.632,0,0,0-.042.106.6.6,0,0,0,.048.451m-10.64,7.643a.617.617,0,0,1-.485-.235s-2.152-2.75-4.728-6.368a94.643,94.643,0,0,1-7.3-11.6.189.189,0,0,1-.013-.026q-.264-.538-.534-1.1c-1.686-3.525-3.416-7.534-4.892-11.162-1.635-4.013-2.956-7.547-3.57-9.455a12.373,12.373,0,0,1-.349-1.25c0-.021-.008-.039-.011-.06-.255-.694-.477-1.3-.663-1.812a3.672,3.672,0,0,0-.16-.364,4.24,4.24,0,0,1,.877-.927c.083.131.159.268.23.408.031-.07.063-.141.1-.21a4.752,4.752,0,0,1,.415-.678,5.353,5.353,0,0,1,2.469-.6c.083,0,.166,0,.249.006a4.109,4.109,0,0,0-.494.238,3.707,3.707,0,0,0-1.539,1.563,3.331,3.331,0,0,0-.156.369,2.673,2.673,0,0,0-.84,3.522l2,4.22a2.983,2.983,0,0,1,.6-.926c.489,1.3,1.017,2.686,1.57,4.107,1.642,4.228,3.514,8.795,5.276,12.5.175.366.35.729.524,1.083l0,.007a90.059,90.059,0,0,0,6,9.591c2.351,3.4,4.618,6.47,5.51,7.664.253.342.393.528.4.528a.6.6,0,0,1-.123.843.619.619,0,0,1-.368.123"/>
      <path id="Path_51013" data-name="Path 51013" d="M2577.461,10076.784l-2-4.22a2.673,2.673,0,0,1,.84-3.522,3.325,3.325,0,0,0-.183,1.1,3.824,3.824,0,0,0,.046.593c.52,1.42,1.167,3.176,1.9,5.119a2.983,2.983,0,0,0-.6.926"/>
      <path id="Path_51014" data-name="Path 51014" d="M2586.083,10115.14a.609.609,0,0,1-.5-.256c-.005-.006-1.778-2.486-3.836-5.745a62.411,62.411,0,0,1-5.545-10.419c-1.411-3.053-3.276-7.889-5.024-12.571-1.253-3.355-2.445-6.629-3.357-9.088a3.152,3.152,0,0,1,.87-1.17c.074.192.147.389.223.591.865,2.28,1.942,5.063,3.046,7.892,2.2,5.643,4.489,11.46,5.377,13.889,1.205,2.6,3.128,5.981,4.907,8.954s3.429,5.561,4.07,6.556c.182.284.283.438.283.439a.6.6,0,0,1-.173.827.607.607,0,0,1-.341.1m-8.327,4.205a.612.612,0,0,1-.489-.243,72.478,72.478,0,0,1-8.791-16.156,139.935,139.935,0,0,1-5.982-18.748,7.225,7.225,0,0,1,.9-1.474c.086.288.177.588.27.9.489,1.654,1.061,3.65,1.693,5.8,1.258,4.286,2.748,9.17,4.255,13.075.928,2.193,2.708,5.533,4.411,8.574s3.335,5.809,3.975,6.884c.183.307.283.475.283.477a.6.6,0,0,1-.186.81.626.626,0,0,1-.34.1"/>
      <path id="Path_51015" data-name="Path 51015" d="M2560.978,10084.735c-.008-.028-.016-.056-.022-.082a1.25,1.25,0,0,0-.981-.548h-.044a3.778,3.778,0,0,1,.647-.888c.136.444.282.931.437,1.448-.013.022-.026.046-.037.068"/>
      <path id="Path_51016" data-name="Path 51016" d="M2561.015,10084.667c-.155-.518-.3-1-.437-1.448.064-.062.129-.122.2-.179a2.088,2.088,0,0,1,.775-.418l.524,1.146a.381.381,0,0,0-.059,0,.732.732,0,0,0-.454.2,2.4,2.4,0,0,0-.545.7m-.751,3.156c-.131-.411-.276-.835-.418-1.183-.127-.307-.322-.451-.532-.451a.477.477,0,0,0-.09.008,8.421,8.421,0,0,1,.283-1.1,6.052,6.052,0,0,1,.424-.986h.044a1.25,1.25,0,0,1,.981.548c.006.026.014.054.022.082l-.029.057a4.952,4.952,0,0,0-.25.592,1.926,1.926,0,0,0-.3.576,3.52,3.52,0,0,0-.116,1.547c-.01.1-.016.209-.021.316"/>
      <path id="Path_51017" data-name="Path 51017" d="M2562.308,10074.868a5.882,5.882,0,0,1,2.036-1.624c.1-.049.209-.095.312-.136.1.312.233.7.394,1.146-.059.024-.116.051-.175.079-.09.041-.179.088-.27.14a1.829,1.829,0,0,0-.612-.1,3.581,3.581,0,0,0-1.685.493"/>
      <path id="Path_51018" data-name="Path 51018" d="M2565.05,10074.254c-.161-.449-.293-.834-.394-1.146a4,4,0,0,1,1.14-.273c.005.011.008.022.013.031l.574,1.211a1.3,1.3,0,0,0-.349-.044h0a2.661,2.661,0,0,0-.979.221m-3.949,3.313a5.683,5.683,0,0,1,.966-2.379c.078-.11.158-.218.241-.32a3.581,3.581,0,0,1,1.685-.493,1.829,1.829,0,0,1,.612.1,4.726,4.726,0,0,0-.987.756,4.665,4.665,0,0,0-1.156,1.88c-.041,0-.081-.006-.122-.006a1.908,1.908,0,0,0-1.239.465"/>
      <path id="Path_51019" data-name="Path 51019" d="M2567.821,10077.061c-.364-.978-.683-1.826-.942-2.5l-.008-.021a.659.659,0,0,0-.284-.374.731.731,0,0,0-.2-.088l-.574-1.211c-.005-.009-.008-.021-.013-.031.08-.007.158-.008.238-.01h0c.082,0,.161,0,.243.011-.122-.352-.217-.646-.286-.88a7.14,7.14,0,0,1-.284-1.517,2.62,2.62,0,0,1,1.319-1.3,3.648,3.648,0,0,0-.109.909,5.562,5.562,0,0,0,.249,1.574c.117.393.338,1.044.638,1.874.247.685.547,1.5.886,2.4a3.152,3.152,0,0,0-.87,1.17"/>
      <path id="Path_51020" data-name="Path 51020" d="M2562.494,10084.2c-.017-.069-.036-.139-.054-.206a.856.856,0,0,0-.209-.168.466.466,0,0,0-.158-.056l-.524-1.146a1.686,1.686,0,0,1,.465-.066h.052c-.3-.979-.557-1.761-.751-2.264l-.016-.047a6.273,6.273,0,0,1-.268-1.79,5.568,5.568,0,0,1,.07-.888,1.908,1.908,0,0,1,1.239-.465c.041,0,.081,0,.122.006a4.431,4.431,0,0,0-.207,1.347,5.149,5.149,0,0,0,.212,1.43c.251.651.561,1.624.928,2.839a7.225,7.225,0,0,0-.9,1.474"/>
      <path id="Path_51021" data-name="Path 51021" d="M2559.159,10090.706a17.774,17.774,0,0,1-.139-2.172,12.587,12.587,0,0,1,.2-2.337.477.477,0,0,1,.09-.008c.21,0,.405.145.532.451.142.348.287.771.418,1.183-.013.228-.019.465-.019.711,0,.355.013.731.041,1.127a6.839,6.839,0,0,0-1.127,1.045"/>
      <path id="Path_51022" data-name="Path 51022" d="M2627.534,10134.273c-.135-.347-.276-.707-.417-1.08a59.183,59.183,0,0,1-2.422-7.41,8.362,8.362,0,0,1-.2-1.371l.046.5v.011a.621.621,0,0,0,.028.129.618.618,0,0,0,1.2-.161c.021.14.046.29.078.45.09.445.219.962.378,1.527.321,1.127.759,2.433,1.225,3.729.363,1.015.746,2.021,1.1,2.93l-1.019.75"/>
      <path id="Path_51023" data-name="Path 51023" d="M2607.88,10104.973l-.01,0h0l0,0,0,0"/>
      <path id="Path_51024" data-name="Path 51024" d="M2611.85,10106.85s-.131-.08-.337-.22l.337.22" fill="#f9aa78"/>
      <path id="Path_51025" data-name="Path 51025" d="M2608.561,10103.99l-.152-.105-.006-.006a.6.6,0,0,0-.191-.09.644.644,0,0,0-.171-.024.209.209,0,0,0-.035,0,.591.591,0,0,1,.072,0,.615.615,0,0,1,.336.1.63.63,0,0,1,.129.109l.018.02m3.289,2.859s-.271-.076-.67-.223c-.2-.069-.429-.164-.679-.26s-.508-.213-.765-.341-.518-.243-.757-.388-.48-.262-.651-.377l-.448-.289,0,0,.531.147c.083.023.2.04.306.059l.343.051a2.928,2.928,0,0,0,.344.02l.348.01a.1.1,0,0,0,.024,0c.1.088.2.176.3.268.2.184.424.35.625.516s.4.3.573.423c.089.063.17.121.243.17.206.14.337.22.337.22"/>
      <path id="Path_51026" data-name="Path 51026" d="M2625.157,10125.47a.614.614,0,0,1-.586-.421.621.621,0,0,1-.028-.129v-.011l-.046-.5c-.009-.1-.019-.22-.032-.348-.035-.239-.079-.518-.126-.815-.063-.307-.127-.636-.2-.964-.106-.463-.225-.923-.337-1.326.03-.151.059-.3.089-.462.243.439.544,1.006.826,1.59.026.053.051.108.077.162.119.257.234.517.347.76.123.313.239.606.338.856.16.485.265.811.265.811l0,0a.621.621,0,0,1,.028.207.61.61,0,0,1-.427.553.62.62,0,0,1-.19.029"/>
      <path id="Path_51027" data-name="Path 51027" d="M2623.8,10120.959c-.2-.742-.379-1.289-.379-1.289s.2.332.468.827c-.03.157-.059.311-.089.462"/>
      <path id="Path_51028" data-name="Path 51028" d="M2611.536,10105.026s-.222-.02-.545-.08c-.158-.023-.337-.066-.525-.108l1.07.188" fill="#f9aa78"/>
      <path id="Path_51029" data-name="Path 51029" d="M2607.485,10104.105a.622.622,0,0,1,.3-.285l-.3.285"/>
      <path id="Path_51030" data-name="Path 51030" d="M2609.747,10105.256l-.348-.01a2.928,2.928,0,0,1-.344-.02l-.343-.051c-.106-.019-.223-.035-.306-.059l-.531-.147,0,0h0a.616.616,0,0,1-.38-.3.6.6,0,0,1-.048-.451.632.632,0,0,1,.042-.106l.3-.285a.593.593,0,0,1,.223-.054.209.209,0,0,1,.035,0,.644.644,0,0,1,.171.024.6.6,0,0,1,.191.09l.006.006.152.105c.076.055.178.128.3.212.065.046.124.067.2.108.025.015.052.028.079.042.045.025.093.053.142.077a2.118,2.118,0,0,0,.271.115c.1.038.193.076.292.113.2.059.408.129.606.173a.145.145,0,0,1,.022.007c.188.042.367.085.525.108.323.061.545.08.545.08s-.215.057-.547.108c-.166.033-.36.052-.571.078s-.424.029-.647.041a.1.1,0,0,1-.024,0"/>
      <path id="Path_51031" data-name="Path 51031" d="M2637.623,10147.414l-9.269-12.237,1.28-.943,7.013,9.263.976,3.918" fill="#fff"/>
      <path id="Path_51032" data-name="Path 51032" d="M2639.892,10150.409l-2.269-3-.976-3.918,4.564,6.024-1.32.889" fill="#f2521b"/>
      <path id="Path_51033" data-name="Path 51033" d="M2621.651,10142.2a2.145,2.145,0,0,0,.5,4.239c.024,0,.047,0,.07,0a2.181,2.181,0,0,0,1.246-.434,2.806,2.806,0,0,0,.723.095l.086,0h.005a2.77,2.77,0,0,0,2.7-2.75l0-.085v0a2.772,2.772,0,0,0-2.786-2.665h-.018c-.021,0-.046,0-.078,0a2.79,2.79,0,0,0-2.443,1.6m3.551,5.667a2.147,2.147,0,0,0,.5,4.242c.024,0,.048,0,.071,0a2.188,2.188,0,0,0,1.246-.434,2.8,2.8,0,0,0,.722.093h.092a2.771,2.771,0,0,0,2.7-2.752l0-.08v-.006a2.772,2.772,0,0,0-2.788-2.665h-.1a2.793,2.793,0,0,0-2.439,1.6m-16.89,23.8-6.944-16.609,23.981-17.664,6.4,10.392a.616.616,0,0,0,.525.29.633.633,0,0,0,.317-.087.6.6,0,0,0,.2-.831l-6.461-10.49,2.02-1.487,9.269,12.237,2.269,3-31.58,21.255" fill="#f2521b"/>
      <path id="Path_51034" data-name="Path 51034" d="M2622.147,10146.436a2.145,2.145,0,0,1-.5-4.239,2.7,2.7,0,0,0-.253,1.144c0,.025,0,.058,0,.094a2.761,2.761,0,0,0,2.063,2.566,2.181,2.181,0,0,1-1.246.434c-.023,0-.046,0-.07,0" fill="#fff"/>
      <path id="Path_51035" data-name="Path 51035" d="M2625.7,10152.105a2.147,2.147,0,0,1-.5-4.242,2.712,2.712,0,0,0-.252,1.147c0,.027,0,.059,0,.095a2.756,2.756,0,0,0,2.063,2.564,2.188,2.188,0,0,1-1.246.434c-.023,0-.047,0-.071,0" fill="#fff"/>
      <path id="Path_51036" data-name="Path 51036" d="M2636.647,10143.5l-7.013-9.262-1.28.942-.638-.841-1.483,1.093c-.02-.051-.039-.1-.06-.152l1.361-1,1.019-.75.839-.618a.619.619,0,0,1,.856.123l5.653,7.463.746,3m-28.612,29.086.564-.229-.564.229m0,.6a.616.616,0,0,1-.174-.024.6.6,0,0,1-.39-.348l-.091-.218,31.272-21.049.248.992-30.519,20.543a.621.621,0,0,1-.346.1"/>
      <path id="Path_51037" data-name="Path 51037" d="M2638.9,10152.539l-.248-.992,1.393-.937-.151-.2,1.32-.888-4.565-6.025-.746-3,2.45,3.235,1.877,2.479,2.347,3.1a.6.6,0,0,1,.113.459.611.611,0,0,1-.26.4l-1.041.7-1.079.726-1.41.948"/>
      <path id="Path_51038" data-name="Path 51038" d="M2625.157,10136.024l1.016-.748c.021.05.04.1.06.152l-.652.479-.06,0a.607.607,0,0,0-.318.088.45.45,0,0,0-.046.031"/>
      <path id="Path_51039" data-name="Path 51039" d="M2600.02,10154.736a.6.6,0,0,1,.233-.368l.584-.429.065.146-.882.65"/>
      <path id="Path_51040" data-name="Path 51040" d="M2600.9,10154.086l-.065-.146,1.352-1,1.007-.743,21.955-16.172a.6.6,0,0,0-.231.365l-24.018,17.692"/>
      <path id="Path_51041" data-name="Path 51041" d="M2626.334,10136.664l-.289-.468a.614.614,0,0,0-.464-.288l.652-.479,1.483-1.093.638.841-2.02,1.487m-18.956,35.932-7.324-17.514a.593.593,0,0,1-.034-.346l.882-.65,24.018-17.692a.608.608,0,0,0,.078.43l.351.567-23.981,17.664,6.944,16.609,31.58-21.255.151.2-1.393.937-31.272,21.049"/>
      <path id="Path_51042" data-name="Path 51042" d="M2624.92,10136.394a.6.6,0,0,1,.231-.365l.006,0a.45.45,0,0,1,.046-.031.607.607,0,0,1,.318-.088l.06,0-.661.485"/>
      <path id="Path_51043" data-name="Path 51043" d="M2632.273,10148.072a.616.616,0,0,1-.525-.29l-6.4-10.392-.351-.567a.608.608,0,0,1-.078-.43l.661-.485a.614.614,0,0,1,.464.288l.289.468,6.461,10.49a.6.6,0,0,1-.2.831.633.633,0,0,1-.317.087"/>
      <path id="Path_51044" data-name="Path 51044" d="M2624.241,10144.886h0a2.221,2.221,0,0,0,.084-.667,2.149,2.149,0,0,0-1.309-1.9,1.568,1.568,0,0,1,1.123-.52h.017l.034,0h0a1.559,1.559,0,0,1,1.563,1.5v.05a1.554,1.554,0,0,1-1.513,1.543" fill="#f2521b"/>
      <path id="Path_51045" data-name="Path 51045" d="M2624.237,10144.886h0m-.051,0a1.554,1.554,0,0,1-1.562-1.5v-.011l-.612.03.612-.03,0-.041a1.526,1.526,0,0,1,.394-1.022,2.149,2.149,0,0,1,1.309,1.9,2.221,2.221,0,0,1-.084.667h-.055" fill="#fff"/>
      <path id="Path_51046" data-name="Path 51046" d="M2624.241,10144.886h0m-.055,1.209a2.806,2.806,0,0,1-.723-.095,2.163,2.163,0,0,0,.778-1.114,1.554,1.554,0,0,0,1.513-1.543v-.05a1.559,1.559,0,0,0-1.563-1.5h0l-.034,0h-.017a1.568,1.568,0,0,0-1.123.52,2.176,2.176,0,0,0-.867-.179h-.07a2.063,2.063,0,0,0-.428.057,2.79,2.79,0,0,1,2.443-1.6c.032,0,.057,0,.078,0h.018a2.772,2.772,0,0,1,2.786,2.665v0l0,.085a2.77,2.77,0,0,1-2.7,2.75h-.005l-.086,0"/>
      <path id="Path_51047" data-name="Path 51047" d="M2623.463,10146a2.761,2.761,0,0,1-2.063-2.566c0-.036,0-.068,0-.094a2.7,2.7,0,0,1,.253-1.144,2.063,2.063,0,0,1,.428-.057h.07a2.176,2.176,0,0,1,.867.179,1.526,1.526,0,0,0-.394,1.022l0,.041-.612.03.612-.03v.011a1.554,1.554,0,0,0,1.562,1.5h.055a2.163,2.163,0,0,1-.778,1.114"/>
      <path id="Path_51048" data-name="Path 51048" d="M2627.793,10150.555a2.217,2.217,0,0,0,.084-.667,2.151,2.151,0,0,0-1.309-1.9,1.572,1.572,0,0,1,1.123-.52h.051a1.56,1.56,0,0,1,1.564,1.492v.053a1.554,1.554,0,0,1-1.512,1.544h0" fill="#f2521b"/>
      <path id="Path_51049" data-name="Path 51049" d="M2627.737,10150.557a1.556,1.556,0,0,1-1.563-1.5v-.006l-.612.025.612-.025v-.044a1.533,1.533,0,0,1,.394-1.024,2.151,2.151,0,0,1,1.309,1.9,2.217,2.217,0,0,1-.084.667l-.056,0" fill="#fff"/>
      <path id="Path_51050" data-name="Path 51050" d="M2627.737,10151.763a2.8,2.8,0,0,1-.722-.093,2.17,2.17,0,0,0,.778-1.115h0a1.554,1.554,0,0,0,1.512-1.544v-.053a1.56,1.56,0,0,0-1.564-1.492h-.051a1.572,1.572,0,0,0-1.123.52,2.185,2.185,0,0,0-.869-.179c-.022,0-.046,0-.068,0a2.222,2.222,0,0,0-.429.054,2.793,2.793,0,0,1,2.439-1.6h.1a2.772,2.772,0,0,1,2.788,2.665v.006l0,.08a2.771,2.771,0,0,1-2.7,2.752h-.092"/>
      <path id="Path_51051" data-name="Path 51051" d="M2627.015,10151.67a2.756,2.756,0,0,1-2.063-2.564c0-.036,0-.067,0-.095a2.712,2.712,0,0,1,.252-1.147,2.222,2.222,0,0,1,.429-.054c.022,0,.046,0,.068,0a2.185,2.185,0,0,1,.869.179,1.533,1.533,0,0,0-.394,1.024v.044l-.612.025.612-.025v.006a1.556,1.556,0,0,0,1.563,1.5l.056,0a2.17,2.17,0,0,1-.778,1.115"/>
      <path id="Path_51052" data-name="Path 51052" d="M2581.476,10073.465a21.849,21.849,0,0,0-2.371-4.416,1.471,1.471,0,0,0-1.086-.484,2.733,2.733,0,0,1,1.172-.629,2.556,2.556,0,0,1,.636-.084,1.683,1.683,0,0,1,.775.17.963.963,0,0,1,.137.082c.042.034.062.051.1.092l.067.074.012.016,0,0,0,0,.006.011.021.042.1.17c.124.226.236.461.347.7s.223.472.329.711l.315.721.978,2.249a6.256,6.256,0,0,0-.6.177,6.174,6.174,0,0,0-.934.4m-1.976,2.373-.371-.785a6.615,6.615,0,0,1,.877-.384,2.946,2.946,0,0,0-.308.52,2.544,2.544,0,0,0-.2.649" fill="#f9aa78"/>
      <path id="Path_51053" data-name="Path 51053" d="M2579.129,10075.053l-1.629-3.434a3.672,3.672,0,0,1-.219-1.559,2.33,2.33,0,0,1,.616-1.374c.04-.044.079-.083.122-.122a1.471,1.471,0,0,1,1.086.484,21.849,21.849,0,0,1,2.371,4.416c-.117.062-.233.126-.346.194a4.222,4.222,0,0,0-1.065.933l-.059.077a6.615,6.615,0,0,0-.877.384" fill="#fabe94"/>
      <path id="Path_51054" data-name="Path 51054" d="M2581.35,10067.9a4.841,4.841,0,0,0-.619-.4c.035.012.07.025.1.04a1.633,1.633,0,0,1,.217.112,1.671,1.671,0,0,1,.211.164l.086.086"/>
      <path id="Path_51055" data-name="Path 51055" d="M2579.5,10075.838a2.544,2.544,0,0,1,.2-.649,2.946,2.946,0,0,1,.308-.52,7.786,7.786,0,0,1,1.8-.4s-.124-.318-.331-.808a6.174,6.174,0,0,1,.934-.4,6.256,6.256,0,0,1,.6-.177l-.978-2.249-.315-.721c-.106-.239-.212-.48-.329-.711s-.223-.473-.347-.7l-.1-.17-.021-.042-.006-.011,0,0,0,0-.012-.016-.067-.074c-.043-.041-.063-.058-.1-.092a.963.963,0,0,0-.137-.082,1.683,1.683,0,0,0-.775-.17,2.556,2.556,0,0,0-.636.084,2.733,2.733,0,0,0-1.172.629,1.459,1.459,0,0,0-.148,0,2.506,2.506,0,0,0-.268.015c.021-.028.04-.056.062-.082a2.954,2.954,0,0,1,1.4-.962,3,3,0,0,1,.923-.156,2.163,2.163,0,0,1,.741.125,4.841,4.841,0,0,1,.619.4l.221.226a7.923,7.923,0,0,1,.549.64,13.1,13.1,0,0,1,.913,1.382c.271.478.522.962.746,1.457s.434.991.622,1.513l.013.033a.568.568,0,0,1-.352.728.616.616,0,0,1-.171.033c-.078,0-.19.014-.287.022l-.3.036c-.2.03-.405.063-.607.1a7.331,7.331,0,0,0-1.183.328,5.233,5.233,0,0,0-.563.238c-.18.1-.359.2-.531.309a4.689,4.689,0,0,0-.488.395,4.53,4.53,0,0,0-.429.494"/>
      <path id="Path_51056" data-name="Path 51056" d="M2577.5,10071.619a3.64,3.64,0,0,1-.381-1.567.9.9,0,0,1,.752-1.492,1.459,1.459,0,0,1,.148,0c-.043.039-.082.078-.122.122a2.33,2.33,0,0,0-.616,1.374,3.672,3.672,0,0,0,.219,1.559m2.506,3.05.059-.077a4.222,4.222,0,0,1,1.065-.933c.113-.068.229-.133.346-.194.207.489.331.808.331.808a7.786,7.786,0,0,0-1.8.4"/>
      <path id="Path_51057" data-name="Path 51057" d="M2624.512,10089.518a2.544,2.544,0,0,0-.262-.629c-.035-.06-.073-.12-.113-.178a24.683,24.683,0,0,1,1.534-4.63c.3-.643-.413-1.579-1.673-2.275.133.021.266.05.4.082a10.473,10.473,0,0,1,1.51.539c.119.056.253.11.36.167a.483.483,0,0,1,.209.232,1.4,1.4,0,0,1,.012.738c-.1.52-.279,1.036-.4,1.562l-1.575,4.392" fill="#f9aa78"/>
      <path id="Path_51058" data-name="Path 51058" d="M2624.137,10088.711a3.427,3.427,0,0,0-.759-.775l.668-1.862c.383-1.268.923-2.312.185-2.692a11.726,11.726,0,0,0-1.62-.7c.027-.061.053-.122.082-.181l.161-.364.028-.077.056-.078a.619.619,0,0,1,.081-.075.972.972,0,0,1,.558-.138h.062a3.289,3.289,0,0,1,.359.036c1.26.7,1.972,1.633,1.673,2.275a24.683,24.683,0,0,0-1.534,4.63" fill="#f9aa78"/>
      <path id="Path_51059" data-name="Path 51059" d="M2623.378,10087.936a5.371,5.371,0,0,0-.7-.432,6.32,6.32,0,0,0-1.334-.469c-.177-.039-.356-.074-.534-.1.113-.247.224-.493.33-.743.215-.49.427-.981.626-1.479l.314-.737c.094-.252.2-.493.305-.738.078-.185.151-.369.229-.553a11.726,11.726,0,0,1,1.62.7c.738.381.2,1.425-.185,2.692l-.668,1.862" fill="#fabe94"/>
      <path id="Path_51060" data-name="Path 51060" d="M2624.512,10089.518a4.585,4.585,0,0,0-.458-.434c.027-.123.054-.247.083-.373.04.058.078.118.113.178a2.544,2.544,0,0,1,.262.629"/>
      <path id="Path_51061" data-name="Path 51061" d="M2624.054,10089.084l-.018-.016a4.833,4.833,0,0,0-.524-.347c-.116-.061-.236-.118-.356-.171l.222-.615a3.427,3.427,0,0,1,.759.775c-.029.126-.056.25-.083.373"/>
      <path id="Path_51062" data-name="Path 51062" d="M2626.087,10085.126c.122-.525.3-1.042.4-1.562a1.4,1.4,0,0,0-.012-.738.483.483,0,0,0-.209-.232c-.107-.057-.241-.111-.36-.167a10.473,10.473,0,0,0-1.51-.539c-.133-.032-.266-.062-.4-.082a7.236,7.236,0,0,0-1.038-.47,1.544,1.544,0,0,1,.475-.069,2.351,2.351,0,0,1,.238.013,4.07,4.07,0,0,1,.848.189,9.384,9.384,0,0,1,1.524.682c.123.068.238.126.364.208a.738.738,0,0,1,.3.387,1.527,1.527,0,0,1-.052.855c-.16.529-.381,1.019-.566,1.525"/>
      <path id="Path_51063" data-name="Path 51063" d="M2622.611,10082.683a4.68,4.68,0,0,0-.791-.191c.083-.118.171-.232.263-.347l.257-.329.145-.18a1.036,1.036,0,0,1,.228-.188,1.285,1.285,0,0,1,.247-.111,7.236,7.236,0,0,1,1.038.47,3.289,3.289,0,0,0-.359-.036h-.062a.972.972,0,0,0-.558.138.619.619,0,0,0-.081.075l-.056.078-.028.077-.161.364c-.029.059-.055.12-.082.181"/>
      <path id="Path_51064" data-name="Path 51064" d="M2623.156,10088.551a4.547,4.547,0,0,0-.789-.269,7.739,7.739,0,0,0-1.208-.217c-.2-.024-.41-.039-.616-.047l-.306,0-.287,0h-.012a.589.589,0,0,1-.592-.582.607.607,0,0,1,.043-.222c.207-.507.4-1.014.633-1.507s.469-.986.73-1.466l.4-.717c.139-.235.293-.469.443-.7.07-.114.145-.226.223-.334a4.68,4.68,0,0,1,.791.191c-.078.184-.151.368-.229.553-.106.245-.211.486-.305.738l-.314.737c-.2.5-.411.988-.626,1.479-.106.25-.217.5-.33.743.178.028.357.063.534.1a6.32,6.32,0,0,1,1.334.469,5.371,5.371,0,0,1,.7.432l-.222.615"/>
      <path id="Path_51065" data-name="Path 51065" d="M2571.826,10073.767a21.843,21.843,0,0,0-2.373-4.416,1.468,1.468,0,0,0-1.084-.482,2.746,2.746,0,0,1,1.172-.629,2.558,2.558,0,0,1,.638-.083,1.69,1.69,0,0,1,.773.168,1.19,1.19,0,0,1,.137.083,1.274,1.274,0,0,1,.1.091l.067.076.011.014,0,0v0l.007.011.022.043.094.169c.126.226.238.462.349.7s.223.474.329.712l.317.723.976,2.248c-.2.049-.4.108-.6.176a6.391,6.391,0,0,0-.935.4m-1.974,2.374-.373-.783a6.013,6.013,0,0,1,.878-.385,2.839,2.839,0,0,0-.309.52,2.412,2.412,0,0,0-.2.648" fill="#f9aa78"/>
      <path id="Path_51066" data-name="Path 51066" d="M2569.479,10075.357l-1.629-3.435a3.671,3.671,0,0,1-.219-1.56,2.323,2.323,0,0,1,.615-1.374c.04-.042.08-.083.123-.121a1.468,1.468,0,0,1,1.084.482,21.843,21.843,0,0,1,2.373,4.416c-.117.063-.233.127-.346.2a4.235,4.235,0,0,0-1.064.932l-.059.079a6.013,6.013,0,0,0-.878.385" fill="#fabe94"/>
      <path id="Path_51067" data-name="Path 51067" d="M2573.527,10071.838c-.263-.716-.491-1.343-.684-1.863a4.135,4.135,0,0,0-1.993-2.241,1.744,1.744,0,0,1,.553.221,2.312,2.312,0,0,1,.211.162l.307.313a7.749,7.749,0,0,1,.549.643,13.144,13.144,0,0,1,.913,1.38c.035.062.07.124.1.187a4.29,4.29,0,0,0,.04,1.2"/>
      <path id="Path_51068" data-name="Path 51068" d="M2569.852,10076.141a2.412,2.412,0,0,1,.2-.648,2.839,2.839,0,0,1,.309-.52,7.809,7.809,0,0,1,1.8-.4s-.123-.317-.331-.809a6.391,6.391,0,0,1,.935-.4c.2-.067.4-.127.6-.176l-.976-2.248-.317-.723c-.106-.238-.212-.479-.329-.712s-.223-.472-.349-.7l-.094-.169-.022-.043-.007-.011v0l0,0-.011-.014-.067-.076a1.274,1.274,0,0,0-.1-.091,1.19,1.19,0,0,0-.137-.083,1.69,1.69,0,0,0-.773-.168,2.558,2.558,0,0,0-.638.083,2.746,2.746,0,0,0-1.172.629c-.049,0-.1-.006-.146-.006-.09,0-.179.006-.27.015a.989.989,0,0,1,.062-.081,2.958,2.958,0,0,1,1.4-.964,3.056,3.056,0,0,1,.923-.156,2.228,2.228,0,0,1,.51.058,4.135,4.135,0,0,1,1.993,2.241c.193.521.421,1.147.684,1.863a4.29,4.29,0,0,1-.04-1.2c.231.417.446.838.642,1.27.23.5.436.994.624,1.513l.011.033a.565.565,0,0,1-.351.727.592.592,0,0,1-.17.034c-.079,0-.19.015-.287.025l-.3.034c-.2.029-.407.063-.608.1a7.11,7.11,0,0,0-1.183.329,4.942,4.942,0,0,0-1.095.547,4.565,4.565,0,0,0-.488.395,4.364,4.364,0,0,0-.427.493"/>
      <path id="Path_51069" data-name="Path 51069" d="M2567.85,10071.923a3.622,3.622,0,0,1-.383-1.569,2.491,2.491,0,0,1,.486-1.477c.091-.009.18-.015.27-.015.049,0,.1,0,.146.006-.043.038-.083.079-.123.121a2.323,2.323,0,0,0-.615,1.374,3.671,3.671,0,0,0,.219,1.56m2.507,3.05.059-.079a4.235,4.235,0,0,1,1.064-.932c.113-.068.229-.132.346-.2.208.491.331.809.331.809a7.809,7.809,0,0,0-1.8.4"/>
      <path id="Path_51070" data-name="Path 51070" d="M2564.427,10083.5l-.592-1.292a6.292,6.292,0,0,1,1.274-1.061,11.517,11.517,0,0,0-1.4-3.312,1.514,1.514,0,0,0-.841-.657,1.818,1.818,0,0,1,.585-.56,1.738,1.738,0,0,1,.867-.239,1.349,1.349,0,0,1,.218.016,1.381,1.381,0,0,1,.507.175,1.272,1.272,0,0,1,.373.336l.085.134a1.073,1.073,0,0,0,.04.137l.095.3c.064.2.139.385.195.583l.383,1.147.189.566.064.206c-.038.03-.075.061-.112.092-.149.129-.291.265-.425.4a6.479,6.479,0,0,0-.718.911c-.1.161-.194.331-.283.5a5.656,5.656,0,0,0-.4,1.064,4.127,4.127,0,0,0-.1.55" fill="#f9aa78"/>
      <path id="Path_51071" data-name="Path 51071" d="M2563.835,10082.213l-1.058-2.312c-.066-.2-.123-.4-.169-.605a4.06,4.06,0,0,1-.09-.615,2.691,2.691,0,0,1,.18-1.187,1.761,1.761,0,0,1,.165-.309,1.514,1.514,0,0,1,.841.657,11.517,11.517,0,0,1,1.4,3.312,6.292,6.292,0,0,0-1.274,1.061" fill="#fabe94"/>
      <path id="Path_51072" data-name="Path 51072" d="M2567.433,10080.721c-.566-1.536-1.076-2.923-1.5-4.056l0,.006c.447,1.192.97,2.562,1.536,4.028a.126.126,0,0,1-.023.013l-.016.009"/>
      <path id="Path_51073" data-name="Path 51073" d="M2567.472,10080.7c-.566-1.467-1.089-2.836-1.536-4.028l.039.05c.054.068.081.088.119.136l.219.25a4.515,4.515,0,0,1,.4.529,4.291,4.291,0,0,1,.343.566,5.346,5.346,0,0,1,.284.6c.089.2.159.412.228.621a6.125,6.125,0,0,1,.166.668l.006.036a.558.558,0,0,1-.266.574m-3.045,2.806a4.127,4.127,0,0,1,.1-.55,5.656,5.656,0,0,1,.4-1.064c.089-.168.178-.338.283-.5a6.479,6.479,0,0,1,.718-.911c.134-.14.276-.275.425-.4.037-.031.074-.062.112-.092l-.064-.206-.189-.566-.383-1.147c-.056-.2-.131-.388-.195-.583l-.095-.3a1.073,1.073,0,0,1-.04-.137l-.085-.134a1.272,1.272,0,0,0-.373-.336,1.381,1.381,0,0,0-.507-.175,1.349,1.349,0,0,0-.218-.016,1.738,1.738,0,0,0-.867.239,1.818,1.818,0,0,0-.585.56,1.737,1.737,0,0,0-.3-.065,2.077,2.077,0,0,1,1.88-1.185l.135,0a1.917,1.917,0,0,1,.707.188,1.76,1.76,0,0,1,.591.47l.053.07c.425,1.133.935,2.52,1.5,4.056-.047.025-.114.068-.173.105l-.208.134c-.134.1-.272.192-.406.294a8.537,8.537,0,0,0-.78.664,10.156,10.156,0,0,0-.735.749c-.122.131-.229.269-.352.406s-.228.291-.352.432"/>
      <path id="Path_51074" data-name="Path 51074" d="M2562.777,10079.9a6.127,6.127,0,0,1-.241-.586,4.212,4.212,0,0,1-.156-.618,2.719,2.719,0,0,1,.073-1.292,1.931,1.931,0,0,1,.113-.286,1.737,1.737,0,0,1,.3.065,1.761,1.761,0,0,0-.165.309,2.691,2.691,0,0,0-.18,1.188,4.06,4.06,0,0,0,.09.615c.046.2.1.4.169.605"/>
      <path id="Path_51075" data-name="Path 51075" d="M2561.936,10088.326c-.274-1.021-.523-1.965-.749-2.814a.411.411,0,0,1,.069-.024c.248.845.515,1.765.8,2.734-.04.035-.078.068-.117.1" fill="#fff"/>
      <path id="Path_51076" data-name="Path 51076" d="M2562.053,10088.222c-.282-.97-.549-1.89-.8-2.734a.27.27,0,0,1,.07-.011.2.2,0,0,1,.036,0,.255.255,0,0,1,.158.116l.061.111.035.085.005.09c.008.136.02.27.035.4.035.261.079.515.121.775a11.651,11.651,0,0,0,.287,1.154l-.011.008m-1.4,2.316-.127-1.047c.116-.079.186-.119.186-.119s-.145-.561-.349-1.232l-.068-.562a3.986,3.986,0,0,1,.384-1.5,1.431,1.431,0,0,1,.451-.531.426.426,0,0,1,.059-.031c.226.85.475,1.794.749,2.814-.046.041-.091.083-.134.127a4.581,4.581,0,0,0-.527.612,3.622,3.622,0,0,0-.4.7,2.547,2.547,0,0,0-.14.382,2.165,2.165,0,0,0-.082.391" fill="#f9aa78"/>
      <path id="Path_51077" data-name="Path 51077" d="M2560.524,10089.491l-.163-1.352c.2.672.349,1.232.349,1.232s-.07.04-.186.119" fill="#fabe94"/>
      <path id="Path_51078" data-name="Path 51078" d="M2561.187,10085.512c-.04-.147-.078-.291-.116-.431.019-.01.038-.017.059-.025.041.142.083.284.126.432a.411.411,0,0,0-.069.024m1.046,3.908q-.153-.561-.3-1.094c.039-.036.077-.069.117-.1.1.363.212.733.322,1.107l-.142.091"/>
      <path id="Path_51079" data-name="Path 51079" d="M2560.293,10087.578c0-.024,0-.048-.008-.071a3.52,3.52,0,0,1,.116-1.547,1.926,1.926,0,0,1,.3-.576,1.54,1.54,0,0,1,.174-.177.868.868,0,0,1,.2-.126c.038.14.076.283.116.431a.426.426,0,0,0-.059.031,1.431,1.431,0,0,0-.451.531,3.986,3.986,0,0,0-.384,1.5m2.082,1.751c-.11-.374-.217-.744-.322-1.107l.011-.008a11.651,11.651,0,0,1-.287-1.154c-.042-.261-.086-.515-.121-.775-.015-.132-.027-.266-.035-.4l-.005-.09-.035-.085-.061-.111a.255.255,0,0,0-.158-.116.2.2,0,0,0-.036,0,.27.27,0,0,0-.07.011c-.043-.147-.085-.29-.126-.432a.772.772,0,0,1,.253-.049h.008a.761.761,0,0,1,.531.241,1.015,1.015,0,0,1,.164.215l.054.094a.651.651,0,0,0,.066.1c.083.11.159.229.236.347a5.092,5.092,0,0,1,.394.731,7.024,7.024,0,0,1,.287.763,7.356,7.356,0,0,1,.2.786l.01.046a.567.567,0,0,1-.281.6l-.285.16-.3.179c-.031.021-.063.041-.095.061m-1.724,1.209a2.165,2.165,0,0,1,.082-.391,2.547,2.547,0,0,1,.14-.382,3.622,3.622,0,0,1,.4-.7,4.581,4.581,0,0,1,.527-.612c.043-.044.088-.086.134-.127q.144.532.3,1.094c-.12.076-.241.154-.36.235-.2.13-.4.274-.6.416s-.4.3-.621.467"/>
    </g>
  </g>
</svg>
