<svg xmlns="http://www.w3.org/2000/svg" width="56" height="56" viewBox="0 0 56 56">
  <g id="Group_1518" data-name="Group 1518" transform="translate(-9069.971 -7317.159)">
    <path id="Path_68401" data-name="Path 68401" d="M9117.577,7325.2a27.275,27.275,0,0,0-15.145-7.685c-.931-.155-1.874-.24-2.811-.358h-3.282c-1.062.143-2.13.249-3.184.436a28.088,28.088,0,0,0-23.051,24.744c-.045.394-.091.787-.135,1.181v3.281c.144,1.06.24,2.129.437,3.179a27.586,27.586,0,0,0,13.3,19.242,26.637,26.637,0,0,0,15.449,3.9,27.429,27.429,0,0,0,19.839-9.5,26.713,26.713,0,0,0,6.838-15.649A27.342,27.342,0,0,0,9117.577,7325.2Zm-19.642,43.61a23.652,23.652,0,1,1,23.705-23.647A23.683,23.683,0,0,1,9097.936,7368.812Z" fill="#7c7c7c"/>
    <path id="Path_68402" data-name="Path 68402" d="M9100.159,7338.134c0,1.841.012,3.682-.008,5.522a1.02,1.02,0,0,0,.459.95c2.4,1.775,4.784,3.582,7.18,5.37a2.17,2.17,0,1,1-2.46,3.57c-1.5-1.092-2.979-2.226-4.465-3.341-1.342-1-2.679-2.017-4.027-3.013a2.326,2.326,0,0,1-1.031-1.949q-.01-6.425,0-12.849a2.173,2.173,0,0,1,1.763-2.2,2.128,2.128,0,0,1,2.393,1.3,3.3,3.3,0,0,1,.188,1.119C9100.169,7334.452,9100.159,7336.293,9100.159,7338.134Z" fill="#ff3096"/>
  </g>
</svg>
