<svg xmlns="http://www.w3.org/2000/svg" width="98.667" height="62.447" viewBox="0 0 98.667 62.447">
  <g id="Group_4179" data-name="Group 4179" transform="translate(0.552 1.892)">
    <rect id="Rectangle_1488" data-name="Rectangle 1488" width="13.686" height="32.921" rx="4" transform="translate(96.224 31.294) rotate(161.913)" fill="#ff3096" stroke="#000" stroke-linecap="round" stroke-linejoin="round" stroke-width="3"/>
    <path id="Path_170407" data-name="Path 170407" d="M324.1,496.35l-5.909,1.93a.891.891,0,0,1-1.127-.572l-1.209-3.7" transform="translate(-232.613 -465.99)" fill="none" stroke="#000" stroke-linecap="round" stroke-linejoin="round" stroke-width="7.701" opacity="0.15"/>
    <line id="Line_843" data-name="Line 843" y1="0.357" x2="1.094" transform="translate(78.033 5.225)" fill="none" stroke="#fff" stroke-linecap="round" stroke-linejoin="round" stroke-width="3.851" opacity="0.4"/>
    <path id="Path_170408" data-name="Path 170408" d="M310.792,428.648l2.412-.788a.418.418,0,0,1,.531.27l.778,2.382" transform="translate(-229.414 -424.157)" fill="none" stroke="#fff" stroke-linecap="round" stroke-linejoin="round" stroke-width="3.851" opacity="0.4"/>
    <g id="Group_4177" data-name="Group 4177" transform="translate(13.827 9.686)">
      <path id="Path_170409" data-name="Path 170409" d="M169.938,488.589a4.033,4.033,0,0,0-2.27-5.214l-.723-.279h0l5.624,2.216a4.106,4.106,0,0,0,5.166-1.858,4.031,4.031,0,0,0-2.1-5.579l-7.274-2.828,9.4,3.656a4.106,4.106,0,0,0,5.166-1.858,4.031,4.031,0,0,0-2.1-5.579l-10.146-3.946,12.943,5.107a4.021,4.021,0,0,0,2.945-7.483L173.277,459.7l-9.023-3.55,11.014,4.334a5.914,5.914,0,0,0,7.669-3.338,3.306,3.306,0,0,0-1.866-4.286l-8.365-3.291c-2.082-.819-4.135-1.626-6.143-2.569-2.541-1.193-5.453-1.257-8.208-1.269-5.838-.024-11.676.072-17.513.1l-4.252-1.667-9.467,24.148,2.311.906a10.392,10.392,0,0,1,4.2,2.662l7.719,6.986a49.788,49.788,0,0,0,5.663,4.633,31.294,31.294,0,0,0,6.22,2.861l8.171,3.215,3.319,1.282A4.033,4.033,0,0,0,169.938,488.589Z" transform="translate(-127.121 -444.166)" fill="#fab18d" stroke="#000" stroke-linecap="round" stroke-linejoin="round" stroke-width="3"/>
    </g>
    <rect id="Rectangle_1489" data-name="Rectangle 1489" width="13.686" height="32.921" rx="6.843" transform="translate(12.017 0.955) rotate(21.408)" fill="#5ce1e6"/>
    <line id="Line_844" data-name="Line 844" x1="0.766" y1="0.3" transform="translate(20.963 4.463)" fill="none" stroke="#000" stroke-linecap="round" stroke-linejoin="round" stroke-width="5.134"/>
    <path id="Path_170410" data-name="Path 170410" d="M108.925,424.327l-2.7-1.058a3.254,3.254,0,0,0-4.217,1.842L92.367,449.7a3.254,3.254,0,0,0,1.842,4.217l6.683,2.62a3.253,3.253,0,0,0,4.217-1.841l9.641-24.591a3.235,3.235,0,0,0,.184-1.7" transform="translate(-91.179 -421.126)" fill="none" stroke="#000" stroke-linecap="round" stroke-linejoin="round" stroke-width="3"/>
    <path id="Path_170411" data-name="Path 170411" d="M114.3,494.006l-1.84,4.694a.892.892,0,0,1-.833.568h0a.894.894,0,0,1-.325-.062l-4.055-1.59" transform="translate(-100.732 -465.99)" fill="none" stroke="#000" stroke-linecap="round" stroke-linejoin="round" stroke-width="7.701" opacity="0.15"/>
    <path id="Path_170412" data-name="Path 170412" d="M136.551,434.326l3.4,1.333a.422.422,0,0,1,.238.547l-.682,1.739" transform="translate(-119.256 -428.259)" fill="none" stroke="#fff" stroke-linecap="round" stroke-linejoin="round" stroke-width="3.851" opacity="0.4"/>
    <g id="Group_4178" data-name="Group 4178" transform="translate(31.692 8.062)">
      <path id="Path_170413" data-name="Path 170413" d="M192.9,452.788l-7.127,4.467a7.174,7.174,0,0,1-8.973-1.1l-.324-.336a2.782,2.782,0,0,1,.356-4.174l12.284-9.017a10.5,10.5,0,0,1,6.85-2.027c4,.245,8,.528,12,.787a8.782,8.782,0,0,0,3.3-.417l6.981-1.22,8.053,24.656a7.1,7.1,0,0,1-2.83.77,7.706,7.706,0,0,1-2.172.182l-1.452,0h0a4.749,4.749,0,0,0-2.9-3.292Z" transform="translate(-175.695 -439.752)" fill="#faceb4"/>
      <path id="Path_170414" data-name="Path 170414" d="M260.442,444.009l1.1.072" transform="translate(-229.274 -442.443)" fill="none" stroke="#000" stroke-linecap="round" stroke-linejoin="round" stroke-width="5.134"/>
      <path id="Path_170415" data-name="Path 170415" d="M211.26,440.972l6.981-1.22,8.053,24.656a7.1,7.1,0,0,1-2.83.77,7.706,7.706,0,0,1-2.172.182l-1.452,0h0a4.749,4.749,0,0,0-2.9-3.292l-24.04-9.278-7.127,4.467a7.174,7.174,0,0,1-8.973-1.1l-.324-.336a2.782,2.782,0,0,1,.356-4.174l12.284-9.017a10.5,10.5,0,0,1,6.85-2.027c2.489.153,4.978.32,7.466.487" transform="translate(-175.695 -439.752)" fill="none" stroke="#000" stroke-linecap="round" stroke-linejoin="round" stroke-width="3"/>
      <path id="Path_170416" data-name="Path 170416" d="M216.741,451.211a7.73,7.73,0,0,1,4.539-1.5q.231,0,.461.014l1.1.068" transform="translate(-201.645 -446.05)" fill="none" stroke="#fff" stroke-linecap="round" stroke-linejoin="round" stroke-width="3.851" opacity="0.4"/>
      <path id="Path_170417" data-name="Path 170417" d="M239.951,450.363l.566.038.458.03" transform="translate(-216.319 -446.461)" fill="none" stroke="#fff" stroke-linecap="round" stroke-linejoin="round" stroke-width="3.851" opacity="0.4"/>
      <path id="Path_170418" data-name="Path 170418" d="M301.7,500.379" transform="translate(-255.357 -478.082)" fill="#faceb4" stroke="#000" stroke-linecap="round" stroke-linejoin="round" stroke-width="5.134" opacity="0.1"/>
      <path id="Path_170419" data-name="Path 170419" d="M301.7,500.379" transform="translate(-255.357 -478.082)" fill="none" stroke="#fff" stroke-linecap="round" stroke-linejoin="round" stroke-width="3.851" opacity="0.4"/>
    </g>
    <path id="Path_170420" data-name="Path 170420" d="M149.169,515.4l-3.7,3.122a3.875,3.875,0,0,1-5.445-.461h0a3.875,3.875,0,0,1,.461-5.444l3.7-3.122a3.875,3.875,0,0,1,5.444.461h0A3.875,3.875,0,0,1,149.169,515.4Z" transform="translate(-120.879 -475.207)" fill="#faceb4" stroke="#000" stroke-linecap="round" stroke-linejoin="round" stroke-width="3"/>
    <path id="Path_170421" data-name="Path 170421" d="M166.26,525.7l-5.925,5a3.875,3.875,0,0,1-5.445-.461h0a3.875,3.875,0,0,1,.461-5.445l5.926-5a3.875,3.875,0,0,1,5.445.461h0A3.875,3.875,0,0,1,166.26,525.7Z" transform="translate(-130.277 -481.724)" fill="#faceb4" stroke="#000" stroke-linecap="round" stroke-linejoin="round" stroke-width="3"/>
    <path id="Path_170422" data-name="Path 170422" d="M184.521,541.288l-3.7,3.122a3.875,3.875,0,0,1-5.445-.461h0a3.875,3.875,0,0,1,.461-5.445l3.7-3.122a3.875,3.875,0,0,1,5.445.461h0A3.875,3.875,0,0,1,184.521,541.288Z" transform="translate(-143.229 -491.576)" fill="#faceb4" stroke="#000" stroke-linecap="round" stroke-linejoin="round" stroke-width="3"/>
    <path id="Rectangle_1490" data-name="Rectangle 1490" d="M3.864,0H6.8a3.864,3.864,0,0,1,3.864,3.864v0A3.864,3.864,0,0,1,6.8,7.727H3.864A3.864,3.864,0,0,1,0,3.864v0A3.864,3.864,0,0,1,3.864,0Z" transform="translate(38.244 52.536) rotate(-40.161)" fill="#faceb4" stroke="#000" stroke-linecap="round" stroke-linejoin="round" stroke-width="3"/>
  </g>
</svg>
