<svg xmlns="http://www.w3.org/2000/svg" width="88.337" height="106.528" viewBox="0 0 88.337 106.528">
  <g id="Group_2630" data-name="Group 2630" transform="translate(-9402.286 -3801.656)">
    <path id="Path_95696" data-name="Path 95696" d="M9440.846,3908.184c-1.224-.609-2.593-.5-3.887-.764-13.57-2.827-23.749-10.33-29.982-22.645a42.538,42.538,0,0,1,22.991-59.253,41.783,41.783,0,0,1,30.065-.069c.822.3,1.425.776,1.37,1.717a1.53,1.53,0,0,1-1.277,1.45,2.344,2.344,0,0,1-1.4-.277,39.11,39.11,0,0,0-15.289-2.379,39.77,39.77,0,0,0-37.714,34.947,39.588,39.588,0,0,0,30.606,43.134,38.973,38.973,0,0,0,25.522-2.821,2.125,2.125,0,0,1,1.882-.238,1.463,1.463,0,0,1,.884,1.412,1.6,1.6,0,0,1-1.054,1.523,42.086,42.086,0,0,1-9.175,3.222,34.531,34.531,0,0,1-5.538.841c-.146.008-.269.035-.307.2h-.832c-.129-.14-.3-.1-.459-.107-.2.021-.412-.062-.582.107h-3.537c-.132-.143-.308-.1-.471-.107h-.381c-.2.025-.429-.07-.6.107Z"/>
    <path id="Path_95697" data-name="Path 95697" d="M9467.425,3862.661a26.833,26.833,0,0,0,5.3-.518,11.813,11.813,0,0,1,13.362,15.037,42.834,42.834,0,0,1-16.485,23.157c-1.1.8-2.037.752-2.627-.11-.567-.832-.316-1.664.763-2.438a41.3,41.3,0,0,0,15.1-20.576c2.447-7-3.293-13.4-10.576-11.874a27.007,27.007,0,0,1-18.272-2.531,15.291,15.291,0,0,1-7.081-6.781c-2.182-4.431-.99-9.513,3.037-13.153a21.354,21.354,0,0,1,7.621-4.314,1.618,1.618,0,0,1,2.174.844,1.577,1.577,0,0,1-1.108,2.131,17.993,17.993,0,0,0-6.613,3.781c-4.142,3.91-4.02,8.881.319,12.59a20.828,20.828,0,0,0,10.767,4.5A28.014,28.014,0,0,0,9467.425,3862.661Z"/>
    <path id="Path_95698" data-name="Path 95698" d="M9430.375,3835.478a7.534,7.534,0,1,1-7.405,7.669A7.55,7.55,0,0,1,9430.375,3835.478Z"/>
    <path id="Path_95699" data-name="Path 95699" d="M9411.868,3861.263a7.525,7.525,0,1,1,7.5,7.577A7.553,7.553,0,0,1,9411.868,3861.263Z"/>
    <path id="Path_95700" data-name="Path 95700" d="M9464.709,3889.081a7.523,7.523,0,1,1,7.538-7.532A7.542,7.542,0,0,1,9464.709,3889.081Z"/>
    <path id="Path_95701" data-name="Path 95701" d="M9452.545,3891.683a7.523,7.523,0,1,1-7.533-7.516A7.518,7.518,0,0,1,9452.545,3891.683Z"/>
    <path id="Path_95702" data-name="Path 95702" d="M9426.6,3889.082a7.523,7.523,0,1,1,7.479-7.577A7.53,7.53,0,0,1,9426.6,3889.082Z"/>
    <path id="Path_95703" data-name="Path 95703" d="M9490.077,3815.5a1.4,1.4,0,0,0-1.707-1.168,1.427,1.427,0,0,0-1.352,1.554,11.162,11.162,0,0,0,.138,1.342,27.035,27.035,0,0,1-.118,8.9c-.782,3.724-2.672,6.571-6.365,7.969a1.358,1.358,0,0,1-1.188.088c-.769-.375-1.578-.662-2.438-1.014,1.432-2.232,2.83-4.416,4.234-6.6a1.965,1.965,0,0,0,.468-1.441,1.537,1.537,0,0,0-1.289-1.326,1.612,1.612,0,0,0-1.73.88c-1.385,2.154-2.781,4.3-4.146,6.468-.325.517-.55.841-1.281.521-.676-.3-.611-.625-.489-1.2.561-2.569,1.095-5.145,1.585-7.728a1.559,1.559,0,0,0-1.96-1.9,1.884,1.884,0,0,0-1.206,1.669c-.474,2.34-.97,4.675-1.452,7.014-.062.3-.01.63-.538.453a4.465,4.465,0,0,1-3.079-2.512,8.439,8.439,0,0,1-.436-5.386,11.863,11.863,0,0,1,7.316-8.325c4.157-1.8,8.36-3.51,11.719-6.906.371,1.278.69,2.477,1.07,3.656a1.577,1.577,0,0,0,1.967,1.094,1.559,1.559,0,0,0,1.079-1.885,56.71,56.71,0,0,0-2.3-7.1,1.48,1.48,0,0,0-1.367-.968,1.449,1.449,0,0,0-1.5.905,10.631,10.631,0,0,1-4.793,4.873,66.027,66.027,0,0,1-7.475,3.584,14.775,14.775,0,0,0-6.158,4.8c-2.812,3.83-4.159,8.114-2.039,12.553a6.327,6.327,0,0,1,.065,6.01,9.074,9.074,0,0,0-.319.876q-3.71,10.509-7.414,21.019c-.4,1.136-.073,2.025.818,2.339.926.327,1.719-.137,2.136-1.263.252-.681.528-1.356.716-2.055.165-.616.43-.628.959-.4,1.969.844,3.958,1.639,5.938,2.455,1.59.654,1.589.655.92,2.272a2.718,2.718,0,0,0-.122.287,1.49,1.49,0,0,0,.8,1.92,1.469,1.469,0,0,0,2-.543,5.811,5.811,0,0,0,.465-.924q5.161-11.035,10.3-22.078a2.179,2.179,0,0,1,1.346-1.271,11.857,11.857,0,0,0,6.909-6.234C9491.105,3825.86,9490.85,3820.691,9490.077,3815.5Zm-12.717,22.067q-3.92,8.406-7.83,16.817c-.258.558-.454.782-1.122.492-2.375-1.032-4.776-2-7.186-2.956-.546-.216-.632-.415-.433-.972q3.161-8.828,6.257-17.679c.16-.455.254-.686.841-.438,3.055,1.291,6.132,2.523,9.2,3.782.2.083.469.1.542.367C9477.533,3837.191,9477.448,3837.379,9477.36,3837.567Z"/>
    <path id="Path_95704" data-name="Path 95704" d="M9434.876,3843.053a4.39,4.39,0,0,1-4.381,4.344,4.454,4.454,0,0,1-4.369-4.386,4.379,4.379,0,0,1,4.462-4.361A4.313,4.313,0,0,1,9434.876,3843.053Z" fill="#ff3096"/>
    <path id="Path_95705" data-name="Path 95705" d="M9419.442,3856.929a4.378,4.378,0,0,1,4.332,4.388,4.438,4.438,0,0,1-4.385,4.365,4.388,4.388,0,0,1-4.361-4.469A4.324,4.324,0,0,1,9419.442,3856.929Z" fill="#ff3096"/>
    <path id="Path_95706" data-name="Path 95706" d="M9464.673,3885.928a4.374,4.374,0,0,1,0-8.747,4.374,4.374,0,1,1,0,8.747Z" fill="#ff3096"/>
    <path id="Path_95707" data-name="Path 95707" d="M9449.39,3891.65a4.373,4.373,0,1,1-4.388-4.311A4.332,4.332,0,0,1,9449.39,3891.65Z" fill="#ff3096"/>
    <path id="Path_95708" data-name="Path 95708" d="M9430.9,3881.576a4.335,4.335,0,0,1-4.35,4.352,4.374,4.374,0,1,1,4.35-4.352Z" fill="#ff3096"/>
  </g>
</svg>
