<svg xmlns="http://www.w3.org/2000/svg" width="45.154" height="45.151" viewBox="0 0 45.154 45.151">
  <g id="Group_2847" data-name="Group 2847" transform="translate(-1301.317 -2981.203)">
    <path id="Path_95797" data-name="Path 95797" d="M1323.894,3026.354h-18.389a3.906,3.906,0,0,1-4.187-4.19q0-9.146,0-18.291a2.332,2.332,0,1,1,4.661-.189c.025.81.007,1.622.007,2.432q0,7.541-.01,15.081c0,.407.1.5.5.5q17.416-.018,34.832,0c.4,0,.5-.086.5-.5q-.024-8.658-.009-17.318a2.334,2.334,0,1,1,4.666-.057c.01,2.4,0,4.8,0,7.2q0,5.57,0,11.14a3.907,3.907,0,0,1-4.187,4.191Z" fill="#fff"/>
    <path id="Path_95798" data-name="Path 95798" d="M1326.229,3009.043c1.641-1.642,3.2-3.2,4.756-4.758a2.276,2.276,0,0,1,2.586-.576,2.313,2.313,0,0,1,.866,3.705c-.585.651-1.227,1.25-1.846,1.869q-3.4,3.408-6.811,6.812a2.379,2.379,0,0,1-3.768,0q-4.233-4.23-8.462-8.464a2.352,2.352,0,0,1-.386-3.086,2.324,2.324,0,0,1,3.6-.3c1.47,1.442,2.917,2.907,4.372,4.365a1.194,1.194,0,0,0,.425.333v-.5q0-12.381,0-24.763a2.337,2.337,0,0,1,4.664-.293c.011.194.006.39.006.584v25.067Z" fill="#fff"/>
  </g>
</svg>
