<svg xmlns="http://www.w3.org/2000/svg" width="86.338" height="83.021" viewBox="0 0 86.338 83.021">
  <g id="Group_3454" data-name="Group 3454" transform="translate(-973.662 -68)">
    <g id="Group_322" data-name="Group 322" transform="translate(-0.412 -11025)">
      <g id="Group_320" data-name="Group 320">
        <path id="Path_6991" data-name="Path 6991" d="M1012.765,11110.9l.075.075a6.709,6.709,0,0,0,6.526,1.749l.1-.027a6.712,6.712,0,0,1,8.252,4.764l.028.105a6.71,6.71,0,0,0,4.777,4.776l.1.027a6.715,6.715,0,0,1,4.764,8.253l-.028.1a6.708,6.708,0,0,0,1.748,6.524l.077.076a6.714,6.714,0,0,1,0,9.529l-.077.074a6.712,6.712,0,0,0-1.748,6.526l.028.105a6.714,6.714,0,0,1-4.764,8.252l-.1.025a6.719,6.719,0,0,0-4.777,4.779l-.028.1a6.712,6.712,0,0,1-8.252,4.764l-.1-.028a6.714,6.714,0,0,0-6.526,1.749l-.075.076a6.716,6.716,0,0,1-9.53,0l-.075-.076a6.715,6.715,0,0,0-6.526-1.749l-.1.028a6.714,6.714,0,0,1-8.253-4.764l-.027-.1a6.717,6.717,0,0,0-4.777-4.779l-.1-.025a6.712,6.712,0,0,1-4.764-8.252l.028-.105a6.717,6.717,0,0,0-1.749-6.526l-.076-.074a6.712,6.712,0,0,1,0-9.529l.076-.076a6.713,6.713,0,0,0,1.749-6.524l-.028-.1a6.713,6.713,0,0,1,4.764-8.253l.1-.027a6.708,6.708,0,0,0,4.777-4.776l.027-.105a6.714,6.714,0,0,1,8.253-4.764l.1.027a6.71,6.71,0,0,0,6.526-1.749l.075-.075A6.714,6.714,0,0,1,1012.765,11110.9Z" fill="none" stroke="#5ce1e6" stroke-miterlimit="10" stroke-width="1.5"/>
        <path id="Path_6992" data-name="Path 6992" d="M1012.107,11115.21l.065.066a5.784,5.784,0,0,0,5.625,1.507l.089-.024a5.788,5.788,0,0,1,7.113,4.106l.023.091a5.785,5.785,0,0,0,4.118,4.117l.09.023a5.788,5.788,0,0,1,4.107,7.113l-.025.089a5.785,5.785,0,0,0,1.507,5.625l.066.065a5.786,5.786,0,0,1,0,8.213l-.066.064a5.786,5.786,0,0,0-1.507,5.625l.025.091a5.785,5.785,0,0,1-4.107,7.111l-.09.023a5.789,5.789,0,0,0-4.118,4.119l-.023.09a5.787,5.787,0,0,1-7.113,4.105l-.089-.023a5.784,5.784,0,0,0-5.625,1.507l-.065.066a5.79,5.79,0,0,1-8.214,0l-.065-.066a5.783,5.783,0,0,0-5.624-1.507l-.09.023a5.787,5.787,0,0,1-7.113-4.105l-.024-.09a5.786,5.786,0,0,0-4.117-4.119l-.09-.023a5.784,5.784,0,0,1-4.106-7.111l.025-.091a5.791,5.791,0,0,0-1.508-5.625l-.066-.064a5.786,5.786,0,0,1,0-8.213l.066-.065a5.791,5.791,0,0,0,1.508-5.625l-.025-.089a5.786,5.786,0,0,1,4.106-7.113l.09-.023a5.782,5.782,0,0,0,4.117-4.117l.024-.091a5.788,5.788,0,0,1,7.113-4.106l.09.024a5.783,5.783,0,0,0,5.624-1.507l.065-.066A5.788,5.788,0,0,1,1012.107,11115.21Z" fill="none" stroke="#ff3096" stroke-miterlimit="10" stroke-width="2"/>
      </g>
      <g id="Group_321" data-name="Group 321">
        <path id="Path_6993" data-name="Path 6993" d="M1008.971,11123c.484.179,1.006.172,1.5.317a9.735,9.735,0,0,1,7.132,7.2,9.9,9.9,0,1,1-14.345-6.3,9.748,9.748,0,0,1,3.517-1.141c.066-.009.156.023.182-.08h.3c.041.046.1.037.149.038s.108.008.149-.038h1.045a.1.1,0,0,0,.149,0Z" fill="#ff3096"/>
        <path id="Path_6994" data-name="Path 6994" d="M1008.061,11161.191a19.764,19.764,0,0,1-16.962-9.494.986.986,0,0,1-.091-.989,12.218,12.218,0,0,1,8.433-6.931c.3-.075.609-.117.913-.182a1.972,1.972,0,0,1,1.6.4,10.3,10.3,0,0,0,6.562,1.893,9.011,9.011,0,0,0,5.038-1.6,3.534,3.534,0,0,1,3.333-.441,12.487,12.487,0,0,1,7.593,5.833c.2.34.357.708.528,1.065a.761.761,0,0,1-.079.775,19.742,19.742,0,0,1-11.863,8.993A19.98,19.98,0,0,1,1008.061,11161.191Z" fill="#ff3096"/>
      </g>
    </g>
    <g id="Group_3453" data-name="Group 3453" transform="translate(-58 -10963)">
      <circle id="Ellipse_860" data-name="Ellipse 860" cx="16" cy="16" r="16" transform="translate(1086 11031)" fill="#ff3096"/>
      <g id="Group_3452" data-name="Group 3452" transform="translate(-86.915 22.585)">
        <path id="Path_144777" data-name="Path 144777" d="M0,0V19.287" transform="translate(1188.652 11014.771)" fill="none" stroke="#5ce1e6" stroke-linecap="round" stroke-width="4"/>
        <line id="Line_700" data-name="Line 700" x1="19.287" transform="translate(1179.271 11024.415)" fill="none" stroke="#5ce1e6" stroke-linecap="round" stroke-width="4"/>
      </g>
    </g>
  </g>
</svg>
