<svg xmlns="http://www.w3.org/2000/svg" width="112" height="112" viewBox="0 0 112 112">
  <g id="Group_2284" data-name="Group 2284" transform="translate(-3740.353 -6082.874)">
    <circle id="Ellipse_550" data-name="Ellipse 550" cx="56" cy="56" r="56" transform="translate(3740.353 6082.874)" opacity="0.3"/>
    <g id="Group_2283" data-name="Group 2283">
      <path id="Path_84936" data-name="Path 84936" d="M3784.6,6115.452a15.251,15.251,0,0,0,7.835-7.825,18.465,18.465,0,0,0,3.211,4.663,17.727,17.727,0,0,0,4.656,3.173,7.851,7.851,0,1,1-15.7-.011Z" fill="#fff"/>
      <path id="Path_84937" data-name="Path 84937" d="M3817.789,6107.677c2.44,3.9,2.4,3.685,5.856,5.852a13.247,13.247,0,0,0-3.408,2.333,13.014,13.014,0,0,0-2.39,3.5,13.858,13.858,0,0,0-2.364-3.454,13.289,13.289,0,0,0-3.521-2.411A11.355,11.355,0,0,0,3817.789,6107.677Z" fill="#fff"/>
      <path id="Path_84938" data-name="Path 84938" d="M3827.585,6138.849c-2.377,1.515-2.377,1.515-3.912,3.889a3.895,3.895,0,1,1,.02-7.79A7.693,7.693,0,0,0,3827.585,6138.849Z" fill="#fff"/>
      <path id="Path_84939" data-name="Path 84939" d="M3815.074,6127.5q-3.6-3.6-7.2-7.2c-1.271-1.272-2.219-1.275-3.479-.015q-19.086,19.084-38.173,38.166a5.129,5.129,0,0,0-1.1,1.421v.977a2.1,2.1,0,0,0,.658,1.18q3.732,3.7,7.435,7.435a2.1,2.1,0,0,0,1.181.659h.976a5.518,5.518,0,0,0,1.123-.792q19.291-19.31,38.595-38.607A2,2,0,0,0,3815.074,6127.5Zm-14,11.735q-12.93,12.907-25.842,25.834a1.445,1.445,0,0,0-.192.275.455.455,0,0,1-.415-.2c-1.511-1.508-3.017-3.022-4.535-4.523-.212-.21-.208-.328,0-.529.531-.5,1.04-1.03,1.557-1.548q12.122-12.12,24.232-24.252c.4-.4.594-.38.971.009,1.385,1.432,2.8,2.836,4.225,4.229C3801.367,6138.813,3801.351,6138.957,3801.072,6139.235Zm9.832-9.845q-3.233,3.234-6.463,6.471c-.2.2-.314.227-.528.011q-2.25-2.279-4.528-4.526c-.25-.246-.18-.367.027-.572q3.22-3.2,6.423-6.425c.218-.22.338-.248.572-.011,1.483,1.506,2.984,3,4.478,4.49.084.084.164.173.273.288C3811.063,6129.219,3810.986,6129.307,3810.9,6129.39Z" fill="#fff"/>
    </g>
  </g>
</svg>
