<svg xmlns="http://www.w3.org/2000/svg" width="224.001" height="221.363" viewBox="0 0 224.001 221.363">
  <g id="Group_3225" data-name="Group 3225" transform="translate(-5347.764 -365.671)">
    <path id="Path_105192" data-name="Path 105192" d="M5548.068,587.034H5372.511V452.322l87.765-50.556,87.792,50.556Z" fill="#ff3096"/>
    <g id="Group_3214" data-name="Group 3214">
      <g id="Group_3213" data-name="Group 3213">
        <rect id="Rectangle_1157" data-name="Rectangle 1157" width="155.756" height="181.368" transform="translate(5382.412 395.358)" fill="#f5f6fa"/>
        <path id="Path_105193" data-name="Path 105193" d="M5450.8,503.872l-35.661-32.744,11.98-10.736,20.832,19.125,43.278-61.545,14.2,8.214Z" fill="#5ce1e6"/>
      </g>
    </g>
    <path id="Path_105194" data-name="Path 105194" d="M5548.068,486.042V587.034H5372.511V486.042c7.54,3.874,14.948,7.94,22.409,11.91,7.435,4.041,14.869,8.083,22.252,12.2q12.338,6.816,24.65,13.823c.079-.048.184-.1.263-.143-.079.047-.132.119-.21.167q9.213,5.2,18.428,10.451c6.116-3.492,12.259-7.007,18.4-10.451-.079-.048-.132-.12-.211-.167a1.324,1.324,0,0,0,.264.119q12.3-6.959,24.65-13.823,11.073-6.133,22.225-12.172C5533.12,493.982,5540.528,489.916,5548.068,486.042Z" fill="#ff3096"/>
    <g id="Group_3215" data-name="Group 3215" opacity="0.2">
      <path id="Path_105195" data-name="Path 105195" d="M5548.068,486.042c-7.092,4.52-14.315,8.848-21.46,13.3q-10.8,6.528-21.671,13.009-11.35,6.745-22.752,13.369c-.238.143-.448.287-.686.43q-10.083,5.847-20.221,11.7l-1,.55-.975-.55q-10.124-5.847-20.195-11.719c-.237-.119-.475-.263-.711-.406q-11.43-6.637-22.779-13.392c-7.224-4.281-14.447-8.634-21.645-12.986-7.145-4.449-14.368-8.777-21.46-13.3,7.54,3.874,14.948,7.94,22.409,11.91,7.435,4.041,14.869,8.083,22.252,12.2q12.338,6.816,24.65,13.823c.026,0,.026,0,.053.024q9.213,5.2,18.428,10.451c6.116-3.492,12.259-7.007,18.4-10.451.026-.048.026-.048.053-.048q12.3-6.959,24.65-13.823,11.073-6.133,22.225-12.172C5533.12,493.982,5540.528,489.916,5548.068,486.042Z"/>
      <path id="Path_105196" data-name="Path 105196" d="M5442.085,523.828c-.079.047-.132.119-.21.167-.923.717-1.846,1.435-2.769,2.128-4.4,3.372-8.911,6.6-13.5,9.734-5.589,3.874-11.31,7.581-17.057,11.264-5.774,3.611-11.574,7.2-17.506,10.642s-11.917,6.815-18.112,9.9c5.325-4.233,10.862-8.178,16.451-12.029,5.615-3.874,11.336-7.581,17.057-11.264,5.8-3.635,11.6-7.222,17.532-10.666,4.719-2.75,9.518-5.452,14.422-7.987,1.133-.6,2.267-1.172,3.427-1.746C5441.9,523.923,5442.006,523.875,5442.085,523.828Z"/>
      <path id="Path_105197" data-name="Path 105197" d="M5547.646,567.663c-6.195-3.085-12.206-6.457-18.112-9.9-5.932-3.444-11.732-7.031-17.532-10.642-5.747-3.683-11.468-7.39-17.057-11.264-4.561-3.133-9.069-6.338-13.446-9.71-.949-.717-1.872-1.435-2.794-2.152-.079-.048-.132-.12-.211-.167a1.324,1.324,0,0,0,.264.119c1.16.6,2.293,1.172,3.427,1.77,4.9,2.535,9.675,5.237,14.421,7.987,5.932,3.444,11.732,7.031,17.5,10.666,5.748,3.683,11.469,7.39,17.058,11.264C5536.785,559.485,5542.321,563.43,5547.646,567.663Z"/>
    </g>
    <g id="Group_3224" data-name="Group 3224">
      <g id="Group_3216" data-name="Group 3216">
        <line id="Line_656" data-name="Line 656" x1="0.024" y1="21.039" transform="translate(5385.155 365.672)" fill="none" stroke="#1a2e35" stroke-miterlimit="10" stroke-width="1"/>
      </g>
      <g id="Group_3217" data-name="Group 3217">
        <line id="Line_657" data-name="Line 657" x1="16.417" y1="14.862" transform="translate(5358.907 375.188)" fill="none" stroke="#1a2e35" stroke-miterlimit="10" stroke-width="1"/>
      </g>
      <g id="Group_3218" data-name="Group 3218">
        <line id="Line_658" data-name="Line 658" x1="23.194" y2="0.021" transform="translate(5347.765 398.732)" fill="none" stroke="#1a2e35" stroke-miterlimit="10" stroke-width="1"/>
      </g>
      <g id="Group_3219" data-name="Group 3219">
        <line id="Line_659" data-name="Line 659" x1="16.384" y2="14.892" transform="translate(5358.256 407.672)" fill="none" stroke="#1a2e35" stroke-miterlimit="10" stroke-width="1"/>
      </g>
      <g id="Group_3220" data-name="Group 3220">
        <line id="Line_660" data-name="Line 660" y1="21.039" x2="0.024" transform="translate(5534.351 365.672)" fill="none" stroke="#1a2e35" stroke-miterlimit="10" stroke-width="1"/>
      </g>
      <g id="Group_3221" data-name="Group 3221">
        <line id="Line_661" data-name="Line 661" y1="14.862" x2="16.417" transform="translate(5544.206 375.188)" fill="none" stroke="#1a2e35" stroke-miterlimit="10" stroke-width="1"/>
      </g>
      <g id="Group_3222" data-name="Group 3222">
        <line id="Line_662" data-name="Line 662" x2="23.194" y2="0.021" transform="translate(5548.571 398.732)" fill="none" stroke="#1a2e35" stroke-miterlimit="10" stroke-width="1"/>
      </g>
      <g id="Group_3223" data-name="Group 3223">
        <line id="Line_663" data-name="Line 663" x2="16.384" y2="14.892" transform="translate(5544.89 407.672)" fill="none" stroke="#1a2e35" stroke-miterlimit="10" stroke-width="1"/>
      </g>
    </g>
  </g>
</svg>
