<svg xmlns="http://www.w3.org/2000/svg" width="89.713" height="56" viewBox="0 0 89.713 56">
  <g id="Group_2364" data-name="Group 2364" transform="translate(-13600.222 -3830.274)">
    <path id="Path_89684" data-name="Path 89684" d="M13645.029,3886.274a41.078,41.078,0,0,1-19.6-5.4c-8.484-4.589-15.575-10.891-21.9-18.111-1.011-1.155-1.936-2.385-2.916-3.566a1.268,1.268,0,0,1-.057-1.782c7.9-9.938,17.053-18.354,28.758-23.625a37.778,37.778,0,0,1,16.281-3.514,40.772,40.772,0,0,1,18.792,5.223c10.019,5.382,18.147,12.969,25.154,21.845a1.285,1.285,0,0,1,.053,1.784c-7.98,10.037-17.228,18.531-29.1,23.776A37.663,37.663,0,0,1,13645.029,3886.274Z" fill="#ff3096"/>
    <path id="Path_89685" data-name="Path 89685" d="M13645.036,3874.908a16.635,16.635,0,1,1,16.641-16.661A16.588,16.588,0,0,1,13645.036,3874.908Z" fill="#fff"/>
    <path id="Path_89686" data-name="Path 89686" d="M13652.924,3858.238a7.846,7.846,0,1,1-7.8-7.831A7.845,7.845,0,0,1,13652.924,3858.238Z"/>
  </g>
</svg>
