<svg xmlns="http://www.w3.org/2000/svg" width="60" height="60" viewBox="0 0 60 60">
  <g id="Group_499" data-name="Group 499" transform="translate(-11134.771 -9761)">
    <circle id="Ellipse_156" data-name="Ellipse 156" cx="30" cy="30" r="30" transform="translate(11134.771 9761)" fill="#3b5999"/>
    <path id="Path_16914" data-name="Path 16914" d="M11171.748,9772a4.556,4.556,0,0,0,1.149.139c.366.052.737.072,1.107.092.2.01.271.087.271.295q-.012,2.763,0,5.526c0,.223-.082.26-.279.259-1.113-.007-2.226-.009-3.338,0a5.468,5.468,0,0,0-1,.092,2.4,2.4,0,0,0-2.076,2.429c-.111,1.163.013,2.323,0,3.484,0,.53.014,1.063-.022,1.594-.021.3.085.341.347.339,1.818-.01,3.635,0,5.453-.009.218,0,.336.016.3.293-.268,2.045-.528,4.091-.771,6.139-.033.276-.127.332-.387.33-1.5-.013-2.992.006-4.487-.015-.361,0-.472.066-.471.455.016,5.365,0,10.731.021,16.1,0,.386-.106.46-.469.457-1.967-.019-3.933-.016-5.9,0-.327,0-.432-.066-.431-.418.013-5.378,0-10.756.019-16.134,0-.386-.1-.461-.468-.456-1.57.021-3.141,0-4.711.016-.272,0-.352-.06-.35-.343q.022-3.042,0-6.083c0-.288.084-.342.353-.34,1.606.013,3.215,0,4.822.014.313,0,.41-.095.4-.4-.041-1.161-.076-2.323-.1-3.484a16.594,16.594,0,0,1,.518-4.772,7.076,7.076,0,0,1,6.478-5.523c.078-.01.18.034.224-.078h.3a.1.1,0,0,0,.149,0h1.113a2.833,2.833,0,0,0,.728.038h.364c.154-.02.315.043.466-.038Z" fill="#fff"/>
  </g>
</svg>
