<svg xmlns="http://www.w3.org/2000/svg" width="68.719" height="62.25" viewBox="0 0 68.719 62.25">
  <g id="Group_2256" data-name="Group 2256" transform="translate(-6204.22 -5203.618)">
    <g id="Group_2253" data-name="Group 2253">
      <path id="Path_84920" data-name="Path 84920" d="M6223.206,5265.868a18.983,18.983,0,0,1-1.35-37.919l.749-.052.265.7a17.048,17.048,0,0,0,14.362,10.9l1.325.117-.472,1.244a16.985,16.985,0,0,0,1.356,14.819l.318.524-.318.524A18.865,18.865,0,0,1,6223.206,5265.868Zm-1.934-35.841a16.968,16.968,0,1,0,16.128,26.16,21.423,21.423,0,0,0-16.128-26.16Z" fill="#fff"/>
    </g>
    <g id="Group_2254" data-name="Group 2254">
      <path id="Path_84921" data-name="Path 84921" d="M6253.953,5265.868a18.987,18.987,0,0,1-17.753-25.719l.271-.714.761.068c.54.047,1.035.071,1.515.071a17.063,17.063,0,0,0,15.868-10.952l.271-.714.76.068a18.984,18.984,0,0,1-1.693,37.892Zm-16.117-24.3a16.971,16.971,0,1,0,18.37-11.5,19.1,19.1,0,0,1-17.459,11.525C6238.45,5241.59,6238.148,5241.582,6237.836,5241.566Z" fill="#fff"/>
    </g>
    <g id="Group_2255" data-name="Group 2255">
      <path id="Path_84922" data-name="Path 84922" d="M6238.747,5241.59c-.54,0-1.093-.026-1.693-.079h0a18.942,18.942,0,1,1,1.693.079Zm0-35.956a16.968,16.968,0,0,0-1.515,33.869h0c.54.047,1.035.071,1.515.071a16.97,16.97,0,0,0,0-33.94Z" fill="#fff"/>
    </g>
  </g>
</svg>
