<svg xmlns="http://www.w3.org/2000/svg" width="65.507" height="42.726" viewBox="0 0 65.507 42.726">
  <g id="Group_4788" data-name="Group 4788" transform="translate(-129.094 -475.876)">
    <path id="Path_337949" data-name="Path 337949" d="M194.6,517.58c-.045.066-.1.128-.136.2a1.446,1.446,0,0,1-1.592.789,1.418,1.418,0,0,1-1.108-1.45,10.023,10.023,0,0,0-13.348-9.333c-.452.146-.458.3-.242.7a18.347,18.347,0,0,1,2.185,8.379c.025,1.029-.511,1.7-1.373,1.737s-1.432-.6-1.49-1.635c-.006-.106-.009-.213-.011-.319a15.116,15.116,0,0,0-1.171-5.459,15.659,15.659,0,0,0-29.854,3.043c-.195,1.033-.2,2.076-.314,3.111a1.383,1.383,0,0,1-1.375,1.261,1.439,1.439,0,0,1-1.43-1.287,3.446,3.446,0,0,1-.009-.575,18.325,18.325,0,0,1,2.177-8.252c.208-.386.224-.534-.233-.7a10,10,0,0,0-13.262,8.245c-.039.382-.065.765-.091,1.147a1.416,1.416,0,1,1-2.83-.076,12.493,12.493,0,0,1,2.3-7.244,12.778,12.778,0,0,1,15.476-4.481.635.635,0,0,0,.9-.185,18.436,18.436,0,0,1,28.165.016.6.6,0,0,0,.843.189,12.784,12.784,0,0,1,17.709,10.2c.011.086.017.167.114.2Z"/>
    <path id="Path_337950" data-name="Path 337950" d="M161.867,475.876a9.972,9.972,0,1,0,9.951,9.974A9.993,9.993,0,0,0,161.867,475.876Zm-.161,17.088a7.121,7.121,0,1,1,7.261-6.981A7.152,7.152,0,0,1,161.706,492.964Z"/>
    <path id="Path_337951" data-name="Path 337951" d="M181.754,487.266a7.115,7.115,0,1,0,7.142,7.093A7.17,7.17,0,0,0,181.754,487.266Zm.009,11.387a4.271,4.271,0,1,1,4.28-4.245A4.28,4.28,0,0,1,181.763,498.653Z"/>
    <path id="Path_337952" data-name="Path 337952" d="M142.069,487.266a7.115,7.115,0,1,0,7.147,7.13A7.16,7.16,0,0,0,142.069,487.266Zm.014,11.387a4.271,4.271,0,1,1,4.288-4.24A4.287,4.287,0,0,1,142.083,498.653Z"/>
  </g>
</svg>
