<svg xmlns="http://www.w3.org/2000/svg" width="58.195" height="58.248" viewBox="0 0 58.195 58.248">
  <g id="Group_2382" data-name="Group 2382" transform="translate(-12355.542 -3020.824)">
    <path id="Path_91268" data-name="Path 91268" d="M12411.35,3020.824c-6.946.032-13.894.016-20.842.016-1.552,0-2.224.662-2.224,2.194v21.088c0,1.532.672,2.194,2.224,2.194,6.948,0,13.9-.016,20.842.016a2.254,2.254,0,0,0,2.388-1.381v-22.746A2.254,2.254,0,0,0,12411.35,3020.824Zm-1.237,21.34c0,.423-.1.525-.522.523q-8.578-.024-17.157,0c-.423,0-.524-.1-.522-.522q.023-8.586,0-17.173c0-.423.1-.527.521-.524,2.859.022,5.72.011,8.578.011s5.719.01,8.579-.011c.423,0,.524.1.523.523Q12410.087,3033.577,12410.112,3042.164Z" fill="#5ce1e6"/>
    <path id="Path_91269" data-name="Path 91269" d="M12381.012,3055.822c0-1.554-.662-2.226-2.191-2.227h-21.069c-1.531,0-2.192.673-2.192,2.227,0,6.953.016,13.907-.017,20.86a2.26,2.26,0,0,0,1.38,2.39h22.727a2.26,2.26,0,0,0,1.38-2.39C12381,3069.729,12381.012,3062.775,12381.012,3055.822Zm-3.626,19.134c0,.412-.118.486-.5.485q-8.607-.019-17.213,0c-.411,0-.485-.118-.484-.5q.021-8.614,0-17.229c0-.411.118-.487.5-.485,2.879.017,5.758.01,8.636.01,2.841,0,5.681.006,8.521-.008.381,0,.547.03.545.5Q12377.358,3066.341,12377.386,3074.956Z"/>
    <path id="Path_91270" data-name="Path 91270" d="M12411.352,3053.579c-6.943.032-13.888.016-20.832.016-1.58,0-2.235.656-2.235,2.238,0,6.95.016,13.9-.017,20.851a2.259,2.259,0,0,0,1.381,2.388h22.726a1.5,1.5,0,0,0,1.363-1.365V3054.96A2.255,2.255,0,0,0,12411.352,3053.579Zm-1.239,21.34c0,.424-.1.525-.522.524q-8.578-.024-17.157,0c-.424,0-.526-.1-.523-.523.021-2.862.011-5.724.011-8.586s.01-5.724-.011-8.586c0-.425.1-.525.522-.524q8.58.024,17.157,0c.423,0,.524.1.523.523Q12410.087,3066.333,12410.112,3074.919Z"/>
    <path id="Path_91271" data-name="Path 91271" d="M12378.881,3020.84h-21.191a1.87,1.87,0,0,0-2.131,2.119q0,10.605,0,21.21a1.878,1.878,0,0,0,2.159,2.147h10.567q5.313,0,10.624,0a1.858,1.858,0,0,0,2.1-2.089q0-10.634,0-21.268A1.869,1.869,0,0,0,12378.881,3020.84Zm-1.506,12.762c0,2.862-.008,5.724.01,8.586,0,.391-.083.5-.487.5q-8.607-.022-17.215,0c-.391,0-.5-.082-.5-.489q.023-8.614,0-17.229c0-.391.083-.5.489-.5q8.606.022,17.213,0c.392,0,.5.083.5.489C12377.366,3027.839,12377.375,3030.721,12377.375,3033.6Z"/>
  </g>
</svg>
