<svg xmlns="http://www.w3.org/2000/svg" width="110.849" height="97.442" viewBox="0 0 110.849 97.442">
  <g id="Group_4014" data-name="Group 4014" transform="translate(-585.221 -2712.631)">
    <path id="Path_168794" data-name="Path 168794" d="M585.221,2763.294a11.209,11.209,0,0,0,.576-3.315,55.419,55.419,0,0,1,110.269,7.99q0,12.663,0,25.327c-.009,6.078-4.185,10.25-10.262,10.257-.887,0-2.065.4-2.579-.178-.435-.491-.143-1.643-.143-2.5,0-9.6.007-19.194-.02-28.791,0-.771.125-1.046.976-1.02a17.782,17.782,0,0,1,5.554.629c.548-18.9-6.348-34.2-22.255-44.471-16.83-10.871-34.5-11.089-51.81-1.04-15.967,9.267-24.867,26.391-23.747,45.481a17.163,17.163,0,0,1,5.644-.586c.566,0,.807.079.806.74q-.034,15.532-.021,31.064c0,.282.164.685-.4.686-2.557,0-5.121.13-7.47-1.216a9.546,9.546,0,0,1-4.959-7.065,1.767,1.767,0,0,0-.159-.382v-29.227c.142-.129.1-.3.112-.463v-.373c-.008-.161.03-.333-.112-.462Z"/>
    <path id="Path_168795" data-name="Path 168795" d="M670.023,2926.984q0,9.412,0,18.824c0,2.6-1.232,3.841-3.837,3.833-1.724-.005-3.471.178-5.131-.488a6.591,6.591,0,0,1-4.018-6.461q-.011-13.631,0-27.263c0-1.515-.019-3.03,0-4.544a6.51,6.51,0,0,1,6.692-6.7c.793-.014,1.587,0,2.38,0,2.692,0,3.911,1.206,3.912,3.87Q670.026,2917.518,670.023,2926.984Z" transform="translate(-52.327 -139.589)" fill="#ff3096"/>
    <path id="Path_168796" data-name="Path 168796" d="M887.133,2926.99q0,7.79,0,15.579c-.005,4.388-2.69,7.073-7.068,7.087q-1.028,0-2.056,0c-2.659-.006-3.863-1.224-3.864-3.919q0-12.442,0-24.883,0-6.438,0-12.874c0-2.534,1.249-3.778,3.778-3.788q1.028,0,2.056,0c4.466.008,7.148,2.67,7.153,7.111Q887.141,2919.146,887.133,2926.99Z" transform="translate(-210.551 -139.599)" fill="#ff3096"/>
  </g>
</svg>
