<svg xmlns="http://www.w3.org/2000/svg" width="272.156" height="43" viewBox="0 0 272.156 43">
  <g id="Group_3179" data-name="Group 3179" transform="translate(-6916.602 -1669.927)">
    <rect id="Rectangle_1142" data-name="Rectangle 1142" width="18.156" height="43" rx="9.078" transform="translate(6916.602 1669.927)" fill="#ff3096"/>
    <rect id="Rectangle_1143" data-name="Rectangle 1143" width="18.156" height="43" rx="9.078" transform="translate(6940.602 1669.927)" fill="#ff3096"/>
    <rect id="Rectangle_1144" data-name="Rectangle 1144" width="18.156" height="43" rx="9.078" transform="translate(6963.602 1669.927)" fill="#ff3096"/>
    <rect id="Rectangle_1145" data-name="Rectangle 1145" width="18.156" height="43" rx="9.078" transform="translate(6986.602 1669.927)" fill="#ff3096"/>
    <rect id="Rectangle_1146" data-name="Rectangle 1146" width="18.156" height="43" rx="9.078" transform="translate(7009.602 1669.927)" fill="#ff3096"/>
    <rect id="Rectangle_1147" data-name="Rectangle 1147" width="18.156" height="43" rx="9.078" transform="translate(7032.602 1669.927)" fill="#ff3096"/>
    <rect id="Rectangle_1148" data-name="Rectangle 1148" width="18.156" height="43" rx="9.078" transform="translate(7055.602 1669.927)" fill="#ff3096"/>
    <rect id="Rectangle_1149" data-name="Rectangle 1149" width="18.156" height="43" rx="9.078" transform="translate(7078.602 1669.927)" fill="#ff3096"/>
    <rect id="Rectangle_1150" data-name="Rectangle 1150" width="18.156" height="43" rx="9.078" transform="translate(7101.602 1669.927)" fill="#ff3096"/>
    <rect id="Rectangle_1151" data-name="Rectangle 1151" width="18.156" height="43" rx="9.078" transform="translate(7124.602 1669.927)" fill="#ff3096"/>
    <rect id="Rectangle_1152" data-name="Rectangle 1152" width="18.156" height="43" rx="9.078" transform="translate(7147.602 1669.927)" fill="#ff3096"/>
    <rect id="Rectangle_1153" data-name="Rectangle 1153" width="18.156" height="43" rx="9.078" transform="translate(7170.602 1669.927)" fill="#ff3096"/>
  </g>
</svg>
