<svg xmlns="http://www.w3.org/2000/svg" width="158.196" height="183.176" viewBox="0 0 158.196 183.176">
  <g id="Group_3228" data-name="Group 3228" transform="translate(-4150.843 -384.236)">
    <g id="Group_3227" data-name="Group 3227">
      <path id="Path_105199" data-name="Path 105199" d="M4283.354,447.113c0,3.576-.059,7.153.031,10.726.032,1.29-.392,1.572-1.609,1.555-4.767-.068-9.536-.089-14.3.01-1.411.029-1.653-.449-1.644-1.721.046-6.018.147-12.041-.047-18.054a39.046,39.046,0,0,0-78.069.541c-.08,5.9-.046,11.8,0,17.7.009,1.114-.216,1.547-1.449,1.528-4.945-.072-9.892-.045-14.838-.015-.853.006-1.293-.108-1.268-1.136.191-7.74-.531-15.515.375-23.22,2.337-19.878,12.366-34.879,30-44.189,33.71-17.8,74.519,2.072,81.874,39.537C4283.493,435.911,4283.368,441.515,4283.354,447.113Z" fill="#ff3096"/>
      <path id="Path_105200" data-name="Path 105200" d="M4308.99,478.422c0-5.558-2.762-8.31-8.348-8.31q-70.7,0-141.4,0c-5.587,0-8.345,2.75-8.346,8.31,0,26.694.049,53.388-.049,80.082-.016,4.427,1.512,7.448,5.769,8.908H4303.27c4.251-1.464,5.786-4.48,5.769-8.908C4308.941,531.811,4308.991,505.116,4308.99,478.422ZM4230,553.685a5.644,5.644,0,1,1,5.32-5.56A5.459,5.459,0,0,1,4230,553.685Zm6.974-31.665a2.159,2.159,0,0,0-1.677,2.49,30.326,30.326,0,0,1,.009,3.751,5.366,5.366,0,0,1-10.727,0c-.037-.952-.005-1.906-.005-3.279a12.064,12.064,0,0,1,3.543-10.034,15.68,15.68,0,0,1,5.192-3.036,8.475,8.475,0,0,0,5.519-7.865,8.37,8.37,0,0,0-4.855-8.278,8.479,8.479,0,0,0-9.554.936,8.636,8.636,0,0,0-3.393,6.617c-.225,3.517-2.435,5.833-5.509,5.757-3.165-.078-5.324-2.619-5.246-6.175.208-9.547,8.305-18.148,17.721-18.824,10.4-.747,19.521,6.049,21.268,15.854A19.514,19.514,0,0,1,4236.971,522.02Z" fill="#ff3096"/>
    </g>
  </g>
</svg>
