<svg xmlns="http://www.w3.org/2000/svg" width="64.813" height="31.552" viewBox="0 0 64.813 31.552">
  <path id="Path_95796" data-name="Path 95796" d="M1358.468,2859.216c-.171.79-.321,1.585-.518,2.368a16.974,16.974,0,0,1-3.678,7.249,12.633,12.633,0,0,1-10.114,4.324,18.379,18.379,0,0,1-14.035-6.706c-.335-.379-.657-.771-.983-1.158a3.138,3.138,0,0,1,4.564-4.3c.586.575,1.094,1.229,1.66,1.826a11.908,11.908,0,0,0,10.087,3.983,6.089,6.089,0,0,0,4.891-3.18,11.885,11.885,0,0,0,.828-11.087,6.509,6.509,0,0,0-5.264-3.951c-4.281-.77-7.746.874-10.835,3.648a80.832,80.832,0,0,0-8.108,9.119,58.587,58.587,0,0,1-7.142,7.686,17.449,17.449,0,0,1-9.083,4.383,13.378,13.378,0,0,1-9.421-2.069,16.355,16.355,0,0,1-7.644-13.346,14.384,14.384,0,0,1,3.314-9.659,15.283,15.283,0,0,1,8.244-5.654,15.844,15.844,0,0,1,13.908,2.6,16.794,16.794,0,0,1,4.219,4.328,3.134,3.134,0,0,1-1.316,4.723,3.057,3.057,0,0,1-3.728-.993,11.679,11.679,0,0,0-5.747-4.452c-6.114-2.08-12.869,2.824-12.585,9.189.151,3.379,2.594,7.616,6.545,8.819a8.429,8.429,0,0,0,7.178-1.193,29.029,29.029,0,0,0,6.4-5.984c2.354-2.733,4.524-5.621,6.931-8.309a30.493,30.493,0,0,1,8.559-7.223c5.512-2.828,11.1-3.058,16.525.132,3.492,2.055,5.226,5.432,5.97,9.348a6.829,6.829,0,0,0,.379,1.87v.506c-.085.079-.059.184-.065.281v.452c.005.1-.02.2.065.28Z" transform="translate(-1293.655 -2842.003)" fill="#fff"/>
</svg>
