<svg xmlns="http://www.w3.org/2000/svg" width="82.566" height="77.528" viewBox="0 0 82.566 77.528">
  <g id="Group_3123" data-name="Group 3123" transform="translate(-8230.755 -1549.805)">
    <g id="Group_3121" data-name="Group 3121">
      <path id="Path_101865" data-name="Path 101865" d="M8281.849,1612.863a31.529,31.529,0,1,1,31.473-31.5A31.425,31.425,0,0,1,8281.849,1612.863Z"/>
      <path id="Path_101866" data-name="Path 101866" d="M8270.363,1581.286c0-3.732.028-7.465-.012-11.2a5.547,5.547,0,0,1,8.87-4.782c5.672,3.771,11.374,7.5,17.021,11.306,3.731,2.518,3.729,7-.008,9.523-5.645,3.813-11.337,7.552-17.016,11.316a5.489,5.489,0,0,1-5.977.427,5.408,5.408,0,0,1-2.89-5.234C8270.387,1588.859,8270.363,1585.072,8270.363,1581.286Z" fill="#fefefe"/>
    </g>
    <g id="Group_3122" data-name="Group 3122">
      <path id="Path_101867" data-name="Path 101867" d="M8288.255,1584.874v39.138a3.873,3.873,0,0,1-3.961,3.309c-.281.008-.561.01-.841.01q-23.912,0-47.823,0a10.475,10.475,0,0,1-1.562-.106,3.735,3.735,0,0,1-3.277-3.777q-.01-5.271,0-10.541c0-9.064.055-18.129-.033-27.193a4,4,0,0,1,4.032-4.261c.262-.009.522-.012.785-.012h47.934a8.61,8.61,0,0,1,1.231.062A3.712,3.712,0,0,1,8288.255,1584.874Z" fill="#000002"/>
      <path id="Path_101868" data-name="Path 101868" d="M8234.091,1613.837v-.651q0-13.65,0-27.3c0-.869.1-.973.953-.973h48.992c.869,0,.968.1.968.959q0,12.054,0,24.106v.684l-2.792-3.577c-1.963-2.519-3.916-5.045-5.892-7.553a3.346,3.346,0,0,0-3.8-1.175,3.981,3.981,0,0,0-1.624,1.153q-5.41,5.991-10.825,11.974c-.642.708-1.021.76-1.844.242q-4.305-2.715-8.613-5.428a4.94,4.94,0,0,0-5.984.283Z" fill="#fefefe"/>
      <path id="Path_101869" data-name="Path 101869" d="M8259.529,1623.863h-24.441c-.9,0-1-.1-1-.987,0-1.476.009-2.953-.008-4.429a.907.907,0,0,1,.393-.836q5.607-4.236,11.194-8.5a1.694,1.694,0,0,1,2.169-.09q4.381,2.754,8.758,5.516a4.3,4.3,0,0,0,5.8-.791q5.358-5.921,10.717-11.845c.5-.558.507-.56.981.048q5.338,6.849,10.677,13.695a1.068,1.068,0,0,1,.235.714c-.008,2.205,0,4.41,0,6.615,0,.769-.127.892-.924.892Z" fill="#ff3096"/>
      <path id="Path_101870" data-name="Path 101870" d="M8254.827,1603.639a5.741,5.741,0,1,1,5.745-5.719A5.727,5.727,0,0,1,8254.827,1603.639Z" fill="#000002"/>
      <path id="Path_101871" data-name="Path 101871" d="M8254.87,1595.407a2.494,2.494,0,1,1-2.527,2.441A2.468,2.468,0,0,1,8254.87,1595.407Z" fill="#ff3096"/>
    </g>
  </g>
</svg>
