<svg xmlns="http://www.w3.org/2000/svg" width="49.068" height="51.918" viewBox="0 0 49.068 51.918">
  <path id="Path_95795" data-name="Path 95795" d="M1323.212,2743.829a5.9,5.9,0,0,0-1.6-.271,25.959,25.959,0,0,1-3.983-50.485,29.173,29.173,0,0,1,11.474-1l1.616.149a21.041,21.041,0,0,0-10.237,13.129,19.506,19.506,0,0,0,2.665,16.311,20.636,20.636,0,0,0,25.245,7.588c.106.128-.025.217-.068.3A25.085,25.085,0,0,1,1336,2741.57a24.248,24.248,0,0,1-8.427,2.166c-.1.008-.243-.062-.307.093h-.2a.773.773,0,0,0-.608,0h-1.927c-.066-.072-.155-.046-.236-.052h-.442c-.081,0-.168-.019-.234.052Z" transform="translate(-1299.36 -2691.911)" fill="#fff"/>
</svg>
