<svg xmlns="http://www.w3.org/2000/svg" width="86.825" height="107.383" viewBox="0 0 86.825 107.383">
  <g id="Group_2629" data-name="Group 2629" transform="translate(-9561.704 -3807.801)">
    <g id="Group_2628" data-name="Group 2628">
      <path id="Path_95691" data-name="Path 95691" d="M9648.524,3861.816a4.407,4.407,0,0,0-.068-.937,3.122,3.122,0,0,0-3.794-2.424c-1.473.326-2.935.7-4.5,1.085a37.91,37.91,0,0,0,.589-20.56c-4.332-16.233-14.625-26.5-31.085-30.368-1.5-.353-3.037-.545-4.557-.811h-.421c-.125.137-.292.1-.447.108h-.361c-.157-.008-.324.03-.45-.108h-3.775c-.116.129-.271.1-.419.108s-.3.021-.42-.108h-.84c-.112.33-.406.2-.622.227a40.226,40.226,0,0,0-35.263,45.511c1.667,12.151,7.812,21.6,18.077,28.249a39.148,39.148,0,0,0,27.84,5.859c.338-.05.678-.255.673.369-.017,2.61-.007,5.221-.007,7.885-.388-.1-.685-.191-.986-.267a9.433,9.433,0,0,0-10.029,3.1,9.293,9.293,0,0,0-1.517,10.468,9.418,9.418,0,0,0,8.741,5.98,9.952,9.952,0,0,0,10.079-10.211q.04-9.019-.01-18.038c0-.671.161-.944.852-1.115,3.959-.979,7.9-2.026,11.85-3.047,4.556-1.179,9.109-2.363,13.672-3.518.308-.078.919-.617.916.343-.008,3.179,0,6.358,0,9.626a10.768,10.768,0,0,0-2.7-.625,10.13,10.13,0,0,0-2.711.147,9.857,9.857,0,1,0,11.691,9.778Q9648.546,3880.167,9648.524,3861.816Zm-36.994,4.916c-2.036.507-2.848,1.509-2.854,3.641-.01,3.32-.015,6.641.006,9.961,0,.574-.095.813-.753.935a33.862,33.862,0,1,1-11.046-66.8,32.123,32.123,0,0,1,4.907-.368,33.88,33.88,0,0,1,33.364,29.078,34.246,34.246,0,0,1-1.962,17.282,1.747,1.747,0,0,1-1.357,1.218C9625.063,3863.34,9618.3,3865.047,9611.53,3866.732Zm29.984,5.944q-8.405,2.157-16.8,4.35c-3.2.83-6.408,1.656-9.747,2.519,0-2.313,0-4.563,0-6.812,0-.526.4-.473.728-.554q7.912-1.982,15.825-3.963c3.548-.888,7.1-1.771,10.719-2.676,0,2.175-.021,4.27.014,6.364C9642.26,3872.485,9641.963,3872.561,9641.515,3872.676Z"/>
      <path id="Path_95692" data-name="Path 95692" d="M9601.543,3905.174a3.563,3.563,0,0,1,7.126-.1,3.57,3.57,0,1,1-7.126.1Z" fill="#ff3096"/>
      <path id="Path_95693" data-name="Path 95693" d="M9613.284,3848.121a11.535,11.535,0,1,1-11.464-11.579A11.569,11.569,0,0,1,9613.284,3848.121Z"/>
      <path id="Path_95694" data-name="Path 95694" d="M9601.727,3853.319a5.242,5.242,0,1,1,5.265-5.248A5.253,5.253,0,0,1,9601.727,3853.319Z" fill="#ff3096"/>
    </g>
    <path id="Path_95695" data-name="Path 95695" d="M9638.92,3894.86a3.563,3.563,0,1,1-3.533,3.538A3.576,3.576,0,0,1,9638.92,3894.86Z" fill="#ff3096"/>
  </g>
</svg>
