<svg xmlns="http://www.w3.org/2000/svg" width="98.684" height="90.401" viewBox="0 0 98.684 90.401">
  <g id="Group_3127" data-name="Group 3127" transform="translate(-7871.801 -1542.889)">
    <path id="Path_101875" data-name="Path 101875" d="M7931.906,1590.783c-1.284-2.028-1.566-4.343-1.891-6.644q-.153-1.085-.309-2.169a2.744,2.744,0,0,1,3.018-1.012,4.456,4.456,0,0,1,.646,2.623c.058.517.142,1.024.243,1.531a4.391,4.391,0,0,0,.613,2.758,7.578,7.578,0,0,0,2.694,3.505,8.2,8.2,0,0,0,8.935,1.125,8.468,8.468,0,0,0,4.794-6.176,15.227,15.227,0,0,0-.3-5.458c-.424-2.97-.883-5.935-1.31-8.9-.153-1.064-.175-1.094-1.089-.565a8.184,8.184,0,0,1-7.772.126c-1.691-.747-3.263-.953-4.821.139a11.871,11.871,0,0,0-2.132,2.106,3.8,3.8,0,0,1-.658.748.993.993,0,0,0-.4,1.226c.305,1.064.334,2.175.559,3.252a1.81,1.81,0,0,1-.176,1.36,4.03,4.03,0,0,1-3.063.777,2.066,2.066,0,0,1-.571-1.634c-.127-1.371-.68-2.7-.432-4.106.025-.571.446-.867.839-1.168.5-.381,1.014-.738,1.495-1.145a5.289,5.289,0,0,0,2.18-4.156,4.065,4.065,0,0,1,.527-.608,7.341,7.341,0,0,1,7.493-.6,7.028,7.028,0,0,0,3.139.867,4.949,4.949,0,0,0,3.722-2.236c.362-.447.174-1.043.093-1.557-.485-3.092-.907-6.194-1.384-9.287-.223-1.439-.47-1.333-1.428-1.176-2.527.413-5.07.733-7.6,1.143a4.6,4.6,0,0,1-.993.079c-.973-.358-1.036-.507-.492-1.384a25.459,25.459,0,0,0,1.324-2.185l9.205-1.333c.2-.029.394-.073.592-.1,1.676-.2,2.166.172,2.412,1.843q.6,4.061,1.2,8.12,1.671,11.391,3.337,22.781c.765,5.26-2.775,11.031-7.69,12.568.05-.61.256-1.189.26-1.82a1.3,1.3,0,0,1,.927-1.2,1.449,1.449,0,0,0-.964,1.305c-.054.561.09,1.165-.472,1.54a3.762,3.762,0,0,1-2.049.691c-.334.005-.668-.012-1,.019-.273.015-.473.222-.73.282a10.555,10.555,0,0,1-3.013-.324c-.34-.075-.657-.231-1-.284a11.734,11.734,0,0,1-6.021-4.58C7932.388,1591.145,7931.981,1591.079,7931.906,1590.783Z" fill="#fe2f94"/>
    <path id="Path_101876" data-name="Path 101876" d="M7924.357,1558c1.886.345,1.885.345,1.592-1.547-.062-.395-.146-.79-.168-1.187a1.458,1.458,0,0,1,1.381-1.733c3.225-.492,6.454-.958,9.682-1.433.579.345.123.672-.05.954a7.424,7.424,0,0,0-1.278,2.512,16.278,16.278,0,0,1-4.088.772c-2.048.352-2,.3-1.711,2.342.289,2.068.639,4.127.842,6.213.143,1.463.532,2.922.734,4.4.054.4.26.606.686.334a.786.786,0,0,1,.577-.107c.594.4.289.937.087,1.332a9.51,9.51,0,0,1-3.712,3.624.43.43,0,0,1-.469-.062c-.707-.866-.559-1.957-.732-2.952a33.842,33.842,0,0,1-.634-4.479c-.219,2.346-.99,5.472-1.546,8.634-.04.229-.238.4-.266.641-.1.492-.515.659-.885.861-.145-.009-.008.146-.021.013,0-.021.032-.014.1-.023a.484.484,0,0,1,.451.149,1.09,1.09,0,0,1-.025,1.126,3.55,3.55,0,0,0-.18,1.257,6.272,6.272,0,0,1-.771,3.177.6.6,0,0,1-.858-.211,15.313,15.313,0,0,1-1.977-2.681c-.015-.064-.012-.132-.026-.2-.115-.514.283-1.2-.1-1.505s-1.006.137-1.542.09a1.157,1.157,0,0,1-.919-.85,10.566,10.566,0,0,1,.656-2.537,7.309,7.309,0,0,1,2.092-1.139,1.736,1.736,0,0,0,.937-1.2c.42-1.72.547-3.491.953-5.212a3.673,3.673,0,0,1,.284-.954,19.5,19.5,0,0,1,2.017-1.763c-.495.185-.765,1.216-1.654.6a5.854,5.854,0,0,1,.229-2.644c.171-1.133.2-1.139-.93-1.375-1.589-.331-3.208-.509-4.78-.931a1.405,1.405,0,0,0-1.373-.343,11.288,11.288,0,0,1-3.176-.523,2.61,2.61,0,0,0-.925-.171,8.016,8.016,0,0,1-3.336-.759.727.727,0,0,1-.258-.621,3.076,3.076,0,0,0-.8-2.282.428.428,0,0,1-.111-.453,60.437,60.437,0,0,1,6.591,1.1c2.826.474,5.642,1.01,8.462,1.52C7923.784,1557.6,7923.914,1558.473,7924.357,1558Z" fill="#fe2f94"/>
    <path id="Path_101877" data-name="Path 101877" d="M7922.839,1598.809l-8.874,4.11a1.78,1.78,0,0,1-1.154-.19,20.247,20.247,0,0,1-9.624-12.231,1.044,1.044,0,0,1,.156-.561,1.231,1.231,0,0,0-.393-1.864,1.2,1.2,0,0,1-.492-.6,9.115,9.115,0,0,1-.2-3.607,2.512,2.512,0,0,1,.851-1.426c1.448-1.46,2.741-3.063,4.218-4.494a1.067,1.067,0,0,1,.847-.441c.568.29.162.719.159,1.092a13.619,13.619,0,0,0,.719,7.272,22.806,22.806,0,0,0,7.185,9.919,13.156,13.156,0,0,0,6,2.588C7922.506,1598.419,7922.766,1598.484,7922.839,1598.809Z" fill="#f4ae28"/>
    <path id="Path_101878" data-name="Path 101878" d="M7903.427,1590.416a32.524,32.524,0,0,0,3.1,6.138,20.229,20.229,0,0,0,7.437,6.365l-5.024,2.431a1.82,1.82,0,0,1-1.834.97,17.254,17.254,0,0,1-8.481-9.2,24.141,24.141,0,0,1-1.714-6.051,2.185,2.185,0,0,1,.189-1.453c.33-.72,1.056-1.116,1.453-1.782a13.352,13.352,0,0,1,3.76-4.3.309.309,0,0,1,.226.157l.238,3.927c-.08.323-.358.455-.6.616a1.051,1.051,0,0,0-.542,1.075c.08.534.482.747.956.863C7902.874,1590.236,7903.186,1590.207,7903.427,1590.416Z" fill="#eb5429"/>
    <path id="Path_101879" data-name="Path 101879" d="M7907.16,1606.089l1.782-.739q-2.052,11.172-4.106,22.342c-.271,1.466-.29,1.457,1.142,1.719,1.77.324,3.536.671,5.31.977.5.086.634.24.548.785-.372,2.338-.344,2.322-2.615,1.9-4.849-.906-9.7-1.806-14.556-2.668-.739-.132-1-.289-.809-1.13.452-2.027.4-2.039,2.471-1.647,1.539.291,3.08.574,4.617.875.4.077.691.134.79-.419q1.909-10.587,3.849-21.168C7905.821,1606.087,7906.457,1606.025,7907.16,1606.089Z" fill="#fe2f94"/>
    <path id="Path_101880" data-name="Path 101880" d="M7946.863,1605.887c.862,5.814,1.741,11.625,2.569,17.444.128.9.239,1.359,1.368,1.1,1.717-.4,3.493-.534,5.238-.822.69-.114,1.072-.052,1.189.791.293,2.1.333,2.066-1.778,2.369q-7.232,1.041-14.457,2.133c-1.287.192-1.283.216-1.5-1.048-.286-1.7-.289-1.712,1.42-1.984,1.614-.258,3.231-.51,4.854-.7.737-.085.9-.317.784-1.075-.949-6.24-1.843-12.488-2.754-18.734.642-.339.886.147,1.119.574a1.649,1.649,0,0,1,.2,1.359,4.039,4.039,0,0,1,.89-1.31C7946.247,1605.788,7946.522,1605.4,7946.863,1605.887Z" fill="#fe2f94"/>
    <path id="Path_101881" data-name="Path 101881" d="M7888.333,1599.056c1.706-2,3.483-3.935,5.353-5.784.469.255.445.714.443,1.142a14.813,14.813,0,0,0,4,10.189,2.356,2.356,0,0,1,.6.913,1.766,1.766,0,0,1-.071.88,1.008,1.008,0,0,0,.4,1.222.965.965,0,0,0,1.2-.1,1.736,1.736,0,0,1,.7-.367,1.759,1.759,0,0,1,1.742,1c-2.194,1.163-4.454,2.185-6.743,3.145a2.9,2.9,0,0,1-1.46-.576,15.376,15.376,0,0,1-6.314-10.49A3.1,3.1,0,0,1,7888.333,1599.056Z" fill="#eb5429"/>
    <path id="Path_101882" data-name="Path 101882" d="M7902.3,1583.677a37.817,37.817,0,0,1-3.745,4.155c.222-2.388.807-4.714,1.211-7.07.569-3.309,1.206-6.607,1.818-9.908a3.218,3.218,0,0,1,.162-.47c.337-.309.331-.785.577-1.149a1.9,1.9,0,0,1,2.652-.8c.483.512.312,1.1.227,1.7a3.554,3.554,0,0,0-.137,1.362,14.144,14.144,0,0,1,3.123-.991,7.452,7.452,0,0,1,6.641,2.2,6.017,6.017,0,0,0,3.019,1.864,1.436,1.436,0,0,1,.884.419,1.625,1.625,0,0,1-.586,2.121,1.182,1.182,0,0,1-.948-.2,12.388,12.388,0,0,0-4.8-1.6,7.972,7.972,0,0,0-2.122-.98c-.5-.235-1.051-.437-.99-.938.01.407-.435.695-.918.957a27.017,27.017,0,0,0-3.732,1.9,1.42,1.42,0,0,0-.718,1.011c-.35,1.558-.578,3.138-.9,4.7A4.334,4.334,0,0,1,7902.3,1583.677Z" fill="#fe2f94"/>
    <path id="Path_101883" data-name="Path 101883" d="M7898.573,1605.653a15.579,15.579,0,0,1-4.887-12.381l3.416-3.658a23.632,23.632,0,0,0,4.456,11.723,21.014,21.014,0,0,0,5.6,4.752l-1.576.824-2.887,1.238-1.719-.834a.392.392,0,0,1-.253-.276,1.423,1.423,0,0,0-1.9-1.265A.321.321,0,0,1,7898.573,1605.653Z" fill="#f4ae28"/>
    <path id="Path_101884" data-name="Path 101884" d="M7884.924,1616.441c-3.047,1.422-6.092,2.851-9.144,4.264-1.284.594-2.344.251-3.246-1.067-.779-1.137-1.128-2.444-.069-3.517,2.53-2.56,4.942-5.238,7.4-7.868.745.824.622,1.909.866,2.883a1.48,1.48,0,0,1-.123.682c-.449,1.319-.189,1.723,1.22,1.906a1.349,1.349,0,0,1,.291.075,24.665,24.665,0,0,0,2.3,1.85A.834.834,0,0,1,7884.924,1616.441Z" fill="#f4ae28"/>
    <path id="Path_101885" data-name="Path 101885" d="M7880.5,1611.365a8.87,8.87,0,0,1-.63-3.112c1.554-1.943,3.3-3.715,5.025-5.5.39.256.376.665.422,1.063a11.978,11.978,0,0,0,4.822,8.287c.483.378,1.161.56,1.338,1.265-2.129,1.14-4.336,2.116-6.55,3.071-1-.776-2.255-1.249-2.87-2.469C7882.308,1612.054,7882.308,1612.054,7880.5,1611.365Z" fill="#eb5429"/>
    <path id="Path_101886" data-name="Path 101886" d="M7891.474,1613.37c-4.167-2.313-6.481-5.777-6.582-10.615l3.441-3.7a38.475,38.475,0,0,0,1.366,5.075,14.838,14.838,0,0,0,5.549,6.621c.243.168.469.362.7.544Z" fill="#f4ae28"/>
    <path id="Path_101887" data-name="Path 101887" d="M7927.016,1594.68a.522.522,0,0,1-.032.2c-.166.254-.009.641-.34.827-.631,1.819-2.116,2.59-3.806,3.106l-.665-.16a1.176,1.176,0,0,1-.181-1.133c.438-2.742-.391-5.246-1.428-7.708a14.3,14.3,0,0,1-1.037-2.468c.215-1.665,2.672-3.649,4.3-3.472.844.092,1.052.523.534,1.183a6.549,6.549,0,0,0-.705,1.079,1.945,1.945,0,0,0,1.88,2.922c.346-.014.714-.258,1.034.082a12.862,12.862,0,0,1,.587,4.507C7927.033,1593.977,7927.226,1594.356,7927.016,1594.68Z" fill="#eb5429"/>
    <path id="Path_101888" data-name="Path 101888" d="M7926.569,1589.134c-1.373.53-2.361.337-3.1-.715-1.181-1.683.082-2.842.979-4.065-1.674-.441-3.481.668-4.715,2.866a4.135,4.135,0,0,1-.5,1.712,18.832,18.832,0,0,0-1.207,3.391,2.982,2.982,0,0,1-.422,1.011.643.643,0,0,1-.692.293.694.694,0,0,1-.537-.534,1.434,1.434,0,0,1,.018-.793,18.574,18.574,0,0,1,2.5-5.969,8.177,8.177,0,0,1,2.408-2.463,4.13,4.13,0,0,1,2.619-.765,5.045,5.045,0,0,0,3-1.007c.817-.482,1.586-1.231,2.688-.983l2.838-.9c.968-1.006,2.2-.64,3.308-.508a4.231,4.231,0,0,0,2.3-.3,7.386,7.386,0,0,1,5.53-.495c.871.509.888.774.09,1.368a11.632,11.632,0,0,0-4.238.31c-.845.318-.9.4-.416,1.19a5.785,5.785,0,0,1,.924,4.277,3.226,3.226,0,0,1-.623,2,4.1,4.1,0,0,1-2.03,1.532,3.106,3.106,0,0,1-3.454-1.6,4.8,4.8,0,0,1-.6-2.724c-.124-1.617.874-2.708,1.886-3.87-.857-.408-1.771.111-2.531-.352a8.172,8.172,0,0,0-2.894.927,12.944,12.944,0,0,0-2.987,1.546c-.326.2-.433.4-.018.631C7928.561,1585.186,7928.457,1587.773,7926.569,1589.134Z" fill="#40b8ab"/>
    <path id="Path_101889" data-name="Path 101889" d="M7893.787,1580.111c-1.067.344-1.318-.318-1.485-1.378a7.37,7.37,0,0,0-6.55-6.068c-.647-.085-.9-.272-.8-.9a1.241,1.241,0,0,0,0-.2c-.008-2.183-.008-2.183,2.174-1.74a10.618,10.618,0,0,1,8.333,9.555c.038.5-.054.774-.613.734C7894.547,1580.093,7894.246,1580.111,7893.787,1580.111Z" fill="#fe2f94"/>
    <path id="Path_101890" data-name="Path 101890" d="M7920.98,1613.169c0,.3-.015.6,0,.9.023.394-.1.563-.535.644-3.287.609-4.828,2.125-5.439,5.371-.088.473-.232.642-.68.6-.165-.016-.333,0-.5,0-2.1,0-2.161-.012-1.608-2.078a8.892,8.892,0,0,1,7.21-6.811C7920.96,1611.465,7920.98,1611.509,7920.98,1613.169Z" fill="#fe2f94"/>
    <path id="Path_101891" data-name="Path 101891" d="M7902.683,1565.131c.559-3.094,1.111-6.189,1.689-9.28a3.768,3.768,0,0,1,.426-.885,3.175,3.175,0,0,1,3.46.526,2.3,2.3,0,0,1,.823,2.7c-.571.577-1.2-.039-1.791.085-.518.082-1.2-.6-1.53.111a2.1,2.1,0,0,0,.327,2.166,2.247,2.247,0,0,1,.6.9,35.773,35.773,0,0,1-1.017,5.918.776.776,0,0,1-.29.392,1.255,1.255,0,0,1-1.463-1.36c-.013-.4.174-.771.154-1.182C7903.609,1565.056,7903.1,1565.63,7902.683,1565.131Z" fill="#fe2f94"/>
    <path id="Path_101892" data-name="Path 101892" d="M7961.48,1596.822c.195.833-.062,1.3-1.219,1.545a3.993,3.993,0,0,0-3.167,3.472c-.117.7-.375.912-1.021.831a6.423,6.423,0,0,0-.8-.006c-1.381,0-1.428-.057-1.168-1.387a7.6,7.6,0,0,1,6.467-6.081c.688-.1,1.018-.008.911.756A7.542,7.542,0,0,0,7961.48,1596.822Z" fill="#fe2f94"/>
    <path id="Path_101893" data-name="Path 101893" d="M7908.725,1551.551c-.863.168-1.23-.087-1.434-1.056a4.1,4.1,0,0,0-3.576-3.32c-.687-.114-.822-.383-.757-.958a3.541,3.541,0,0,0,0-.4c0-1.951,0-1.951,1.9-1.494a7.657,7.657,0,0,1,5.551,6.3c.1.761-.061,1.071-.836.961a.347.347,0,0,1-.43-.117C7908.911,1551.1,7908.847,1551.439,7908.725,1551.551Z" fill="#fe2f94"/>
    <path id="Path_101894" data-name="Path 101894" d="M7938.207,1544.127l.057-1.238a2.127,2.127,0,0,1,.4.215c.888.826,1.826,1.271,3,.512.26-.17.764-.161.531.283-.755,1.44-.132,2.505.983,3.588a6.4,6.4,0,0,0-2.318.263c-.572.331-.878,1.121-1.3,1.714-.736-.618-.214-2.009-1.455-2.27a1.565,1.565,0,0,1-.3.024c-.518-.011-1.167.162-1.379-.486-.191-.584.384-.881.768-1.15C7937.726,1545.209,7937.786,1544.551,7938.207,1544.127Z" fill="#f4ae28"/>
    <path id="Path_101895" data-name="Path 101895" d="M7946.863,1605.887c-.595-.1-.655.453-.9.762s-.445.635-.682.978c-.735-.68-.3-1.994-1.479-2.265l-1.531-.463c.309-.6,1.019-.718,1.256-1.293.41-.514.157-1.073.1-1.614-.041-.371-.106-.753.266-.979.321-.195.63,0,.933.133.541.247.929.728,1.481.955l1.815-.519c-.79,1.538-.814,2.906.847,4.06Z" fill="#eb5429"/>
    <path id="Path_101896" data-name="Path 101896" d="M7902.683,1565.131l2.106-.73c-.27,1.243-1.124,2.527.345,3.473.321.083.521.289.439.618-.07.282-.31.263-.535.148a2.106,2.106,0,0,0-2.657,1.292c-.093.234-.2.622-.635.452-.111-1.694-1.094-2.508-2.958-2.591.758-.613,1.54-.962,1.819-1.551a5.759,5.759,0,0,0,.062-2.219C7901.528,1564.173,7901.939,1564.964,7902.683,1565.131Z" fill="#40b8ab"/>
    <path id="Path_101897" data-name="Path 101897" d="M7938.207,1544.127c.438,1.435-.952,1.69-1.636,2.5.462.358,1.05.334,1.53.564a3.016,3.016,0,0,0-2.059,2.374c-.072.433-.254.554-.652.537a8.839,8.839,0,0,0-1.5.007c-.934.121-.978-.351-.816-1.062A5.992,5.992,0,0,1,7938.207,1544.127Z" fill="#fd2f94"/>
    <path id="Path_101898" data-name="Path 101898" d="M7946.3,1602.1c-.483.414-.788-.041-1.132-.245-.314-.186-.6-.41-.91-.611a.957.957,0,0,0-.246-.064c0,.549,0,1.086,0,1.622,0,.366.059.77-.489.8q-.546-3.463-1.092-6.929c-.011-.435.208-.621.632-.588.243.424.617.222.967.236.477.018.95-.312,1.423-.012l.19,1.41c-.494.4.282.5.184.8Z" fill="#fd2f94"/>
    <path id="Path_101899" data-name="Path 101899" d="M7906.4,1561.334a2.765,2.765,0,0,1-1.065-2.055c-.013-1.453.416-1.789,1.811-1.333.608.054,1.108.987,1.816.225.155-1.942-.847-3.007-3.066-3.229a8.539,8.539,0,0,0-1.1.025c-.147-.169-.531-.168-.489-.421.058-.352.42-.223.661-.23a5.877,5.877,0,0,1,3.389.84,3.26,3.26,0,0,1,1.219,3.164c.055.083.171.177.155.249-.315,1.427.743,2.231,1.435,3.2a5.472,5.472,0,0,1,.657,1c.122.285.21.6-.059.833-.31.27-.633.137-.9-.1a10.359,10.359,0,0,1-1.346-1.6c-.483-.633-.935-1.108-1.8-.554A1.109,1.109,0,0,1,7906.4,1561.334Z" fill="#6a4931"/>
    <path id="Path_101900" data-name="Path 101900" d="M7963.077,1584.505c0,1.539,0,1.539-1.694,1.539-1.313,0-1.313,0-1.312-1.822,0-1.189,0-1.189,1.845-1.188C7963.077,1583.035,7963.077,1583.035,7963.077,1584.505Z" fill="#fe2f94"/>
    <path id="Path_101901" data-name="Path 101901" d="M7931.407,1626.7c0,1.482,0,1.482-1.753,1.481-1.254,0-1.254,0-1.254-1.779,0-1.231,0-1.231,1.8-1.231C7931.407,1625.17,7931.407,1625.17,7931.407,1626.7Z" fill="#fe2f94"/>
    <path id="Path_101902" data-name="Path 101902" d="M7886.507,1622.218c0,1.547,0,1.547-1.686,1.547-1.322,0-1.322,0-1.321-1.813,0-1.2,0-1.2,1.836-1.2C7886.507,1620.756,7886.507,1620.756,7886.507,1622.218Z" fill="#fe2f94"/>
    <path id="Path_101903" data-name="Path 101903" d="M7945.453,1596.313c-.751.116-1.5.242-2.254.34-.175.023-.451.059-.452-.223,0-.113.2-.227.315-.341a7.51,7.51,0,0,0,1.789-.113c1-.209,1.682-.557,1.642-1.827a1.555,1.555,0,0,1,2.354-1.4c-.123.306-.387.172-.6.2-.86.093-1.367.551-1.305,1.439a2.061,2.061,0,0,1-.483,1.47Z" fill="#ec5032"/>
    <path id="Path_101904" data-name="Path 101904" d="M7935.63,1555.314c-.336-.339-.258-.642-.025-1.038.423-.719,1.114-1.291,1.238-2.179a.525.525,0,0,1,.563-.124c.3.744-.333,1.15-.619,1.674a11.385,11.385,0,0,1-.711,1.086c-.31.442.074.386.3.444C7936.218,1555.7,7935.933,1555.555,7935.63,1555.314Z" fill="#734837"/>
    <path id="Path_101905" data-name="Path 101905" d="M7924.357,1558c.047.189.085.38.141.565.064.213.048.4-.185.473-.263.083-.32-.151-.408-.314-.169-.313-.33-.63-.494-.945-.16-.436-.318-.873-.482-1.307-.071-.188-.183-.382.089-.5.244-.1.357.048.459.242A9.9,9.9,0,0,0,7924.357,1558Z" fill="#e3502a"/>
    <path id="Path_101906" data-name="Path 101906" d="M7935.735,1596.414c-.883-.267-1.768-.528-2.648-.806a.267.267,0,0,1-.18-.391.3.3,0,0,1,.4-.18c.852.254,1.7.508,2.553.772.158.049.3.139.221.359C7936.022,1596.336,7935.947,1596.467,7935.735,1596.414Z" fill="#dd4f27"/>
    <path id="Path_101907" data-name="Path 101907" d="M7931.906,1590.783c.262.21.7-.244.87.2.1.275-.193.381-.383.507-.664.184-1.324.383-1.994.544-.253.061-.627.305-.738-.147-.09-.367.3-.345.523-.443C7930.75,1591.2,7931.425,1591.244,7931.906,1590.783Z" fill="#e14f2a"/>
    <path id="Path_101908" data-name="Path 101908" d="M7908.725,1551.551c0-.4-.746-.811-.25-1.083.56-.307.555.533.861.807a2.131,2.131,0,0,1,.24.307c.182.348.378.689.542,1.045.1.21.416.447.067.672s-.445-.122-.578-.33C7909.307,1552.5,7909.018,1552.024,7908.725,1551.551Z" fill="#eea72a"/>
    <path id="Path_101909" data-name="Path 101909" d="M7945.827,1598.526a1.326,1.326,0,0,1-.277-.1c-.359-.228-1.171-.056-1.06-.606.126-.619.757.029,1.153-.1.535.174,1.069.351,1.606.52.189.06.417.085.369.364-.057.335-.3.293-.54.235C7946.66,1598.74,7946.244,1598.632,7945.827,1598.526Z" fill="#efa72a"/>
    <path id="Path_101910" data-name="Path 101910" d="M7918.448,1555.147c-.1.227-.019.625-.432.534-.215-.047-.61-.035-.528-.438.045-.226.022-.6.436-.537C7918.178,1554.743,7918.483,1554.757,7918.448,1555.147Z" fill="#db9c24"/>
    <path id="Path_101911" data-name="Path 101911" d="M7938.414,1596.069c.149-.186.227-.456.581-.323.3.113.5.254.423.607C7938.894,1596.927,7938.558,1596.84,7938.414,1596.069Z" fill="#47ada6"/>
    <path id="Path_101912" data-name="Path 101912" d="M7926.644,1595.7c.137-.266.058-.621.34-.827a2.776,2.776,0,0,1-.146,1.45Q7926.74,1596.014,7926.644,1595.7Z" fill="#4f211c"/>
    <path id="Path_101913" data-name="Path 101913" d="M7927.016,1594.68a1.54,1.54,0,0,1,.141-1.039c.082.144.164.289.247.433Z" fill="#461624"/>
    <path id="Path_101914" data-name="Path 101914" d="M7928.716,1575.155l-3.927,2.1c-.511.006-1.053.922-1.4.268-.22-.411.758-.474,1.132-.792a4.6,4.6,0,0,1,.49-.327,5.868,5.868,0,0,1,3.6-2.045,12.682,12.682,0,0,0,2.974-2.426,3.032,3.032,0,0,0,1-2.383,28.472,28.472,0,0,1,2.146-8.469,10.034,10.034,0,0,1,.7-1.2c.117-.181.257-.46.539-.282s.079.375-.048.574a19.97,19.97,0,0,0-2.549,8.007c-.13.243.063.537-.12.773.135,2.2-1.219,3.545-2.742,4.79C7929.919,1574.222,7929.314,1574.684,7928.716,1575.155Z" fill="#e95329"/>
    <path id="Path_101915" data-name="Path 101915" d="M7937.864,1567.846a17.411,17.411,0,0,1,2.666,1.5.417.417,0,0,1-.036.275.292.292,0,0,1-.428.1c-.784-.432-1.565-.869-2.346-1.3a.257.257,0,0,1-.128-.334C7937.634,1567.947,7937.7,1567.839,7937.864,1567.846Z" fill="#714836"/>
    <path id="Path_101916" data-name="Path 101916" d="M7935.034,1592.22c-.229-.129-.594-.1-.505-.5.059-.265.143-.529.511-.466.243.042.467.115.422.43C7935.424,1591.944,7935.388,1592.222,7935.034,1592.22Z" fill="#f5a331"/>
    <path id="Path_101917" data-name="Path 101917" d="M7933.25,1568.95a.934.934,0,0,1,.12-.773l.261.445Z" fill="#74232d"/>
    <path id="Path_101918" data-name="Path 101918" d="M7923.763,1582.831l.229.568c-2.176.1-3.53,1.482-4.764,3.052-.133-.005-.29-.006-.369-.109a42.31,42.31,0,0,1-3.233-3.945c.73-1.525.932-3.32,2.3-4.521.236-.208.4-.563.817-.436a1.619,1.619,0,0,0,.79.582,2.5,2.5,0,0,1,1.8,1.761Z" fill="#eb5429"/>
    <path id="Path_101919" data-name="Path 101919" d="M7918.739,1577.44c-1.609,1.282-1.81,3.394-2.924,4.968a.954.954,0,0,1-.152.859,16.128,16.128,0,0,1-2.311,2.625c-.34.287-.766.562-1.167.2-.46-.413-.181-.889.14-1.236.886-.958,1.677-1.992,2.5-3a1.92,1.92,0,0,0,.573-1.065c-.579.095-1.09.134-1.6.234a1.807,1.807,0,0,1-1.919-1.244,2.628,2.628,0,0,1,1.492-2.888,2.6,2.6,0,0,1,3.247.163c.534.466.916.086,1.364-.046a2.5,2.5,0,0,0,.578-1.988,3.4,3.4,0,0,0-.6-2.17,10.547,10.547,0,0,1-1.417-3.708c-.34-2.564.8-4.2,3.333-4.687a11.477,11.477,0,0,1,1.792-.118c.219-.007.5-.022.473.344-.023.32-.249.335-.5.35-.5.032-1,.06-1.492.129a3.146,3.146,0,0,0-2.868,4.139,9.586,9.586,0,0,0,1.179,2.956,6.753,6.753,0,0,1,.938,2.716A7.774,7.774,0,0,1,7918.739,1577.44Z" fill="#f3ae28"/>
    <path id="Path_101920" data-name="Path 101920" d="M7918.041,1559.854c-.721.563-.783,1.5-1.238,2.208-.126.2-.127.594-.514.428s-.145-.446-.051-.668c.3-.7.611-1.386.918-2.078C7917.528,1559.166,7917.8,1559.392,7918.041,1559.854Z" fill="#e15028"/>
    <path id="Path_101921" data-name="Path 101921" d="M7923.818,1566.338c-.385-.409-.087-.685.189-.965.5-.382.982-.785,1.5-1.135.21-.141.436-.572.737-.237s-.112.528-.315.694C7925.24,1565.259,7924.524,1565.793,7923.818,1566.338Z" fill="#eb512e"/>
    <path id="Path_101922" data-name="Path 101922" d="M7929.206,1569.754c-.045.248-.067.55-.452.494-.221-.031-.525-.06-.5-.371.02-.237.037-.593.4-.584C7928.9,1569.3,7929.205,1569.364,7929.206,1569.754Z" fill="#f5a034"/>
    <path id="Path_101923" data-name="Path 101923" d="M7924.614,1578.354c.293.126.737.067.62.64s-.451.417-.8.331C7924.118,1578.933,7924.381,1578.646,7924.614,1578.354Z" fill="#e19d27"/>
    <path id="Path_101924" data-name="Path 101924" d="M7915.231,1581.95a23.935,23.935,0,0,1-2.7,3.192c-.213.216-.634.446-.233.8.334.294.528-.106.723-.29a20.717,20.717,0,0,0,2.8-3.241,16.557,16.557,0,0,1,3.413,4.042,22.533,22.533,0,0,0-2.454,6.087c-.067.282-.371.689.151.83.542.147.448-.381.527-.647a18.22,18.22,0,0,1,2.281-5.5,19.928,19.928,0,0,1,2.751,7.771,9.726,9.726,0,0,1-.311,3.658,10.172,10.172,0,0,1-6.09-2.484,21.746,21.746,0,0,1-8.207-13.094,9.777,9.777,0,0,1,.124-4.657,3.522,3.522,0,0,1,4.164,1.172,1.58,1.58,0,0,0,1.776,1.108C7914.59,1580.886,7915.386,1580.928,7915.231,1581.95Z" fill="#6a4a31"/>
    <path id="Path_101925" data-name="Path 101925" d="M7908.2,1577.586a4.862,4.862,0,0,1,4.1-2.61,9.642,9.642,0,0,1,5.683,2.036,1.525,1.525,0,0,1-.518.831c-.236.27-.449.382-.694-.009a2.067,2.067,0,0,0-2.692-.866,2.633,2.633,0,0,0-1.916,2.618,8.278,8.278,0,0,0-4.165-1.172C7908.048,1578.133,7908.3,1577.9,7908.2,1577.586Z" fill="#eb5429"/>
    <path id="Path_101926" data-name="Path 101926" d="M7903.427,1590.416a1.516,1.516,0,0,1-2.244-1c-.2-.908.428-1.615,1.595-1.806Q7905.042,1588.546,7903.427,1590.416Z" fill="#fefcfb"/>
    <path id="Path_101927" data-name="Path 101927" d="M7907.661,1592.157a1.536,1.536,0,0,1,1.475,1.483,1.47,1.47,0,1,1-2.939.016A1.55,1.55,0,0,1,7907.661,1592.157Z" fill="#fefdfc"/>
    <path id="Path_101928" data-name="Path 101928" d="M7913.574,1601.49a1.5,1.5,0,1,1,1.456-1.47A1.465,1.465,0,0,1,7913.574,1601.49Z" fill="#fefdfd"/>
    <path id="Path_101929" data-name="Path 101929" d="M7937.3,1602.661a7.523,7.523,0,0,1-7.307-7.337c-.107-1.557-1.186-2.078-2.587-1.25a.974.974,0,0,0-.667.6.8.8,0,0,0-.035.308c-.052.459.35.871.136,1.346-.476,3.5-3.338,6.02-7.191,6.335-1.044.086-1.664.639-1.665,1.487a1.522,1.522,0,0,0,1.656,1.51,7.579,7.579,0,0,1,7.355,7.393,1.51,1.51,0,0,0,1.444,1.609,1.534,1.534,0,0,0,1.543-1.624,7.531,7.531,0,0,1,7.352-7.369,1.592,1.592,0,0,0,1.376-.69C7939.426,1603.938,7938.716,1602.777,7937.3,1602.661Zm-8.8,5.055a11.657,11.657,0,0,0-3.6-3.55,12.053,12.053,0,0,0,3.585-3.592,11.8,11.8,0,0,0,3.555,3.568A11.858,11.858,0,0,0,7928.5,1607.716Z" fill="#fe2f94"/>
    <path id="Path_101930" data-name="Path 101930" d="M7928.9,1596.089c.059.03.149.044.171.09.429.9.858,1.8,1.265,2.715.059.132-.095.228-.222.281-.219.092-.3-.065-.375-.216-.369-.786-.739-1.571-1.094-2.363C7928.54,1596.351,7928.572,1596.134,7928.9,1596.089Z" fill="#714836"/>
    <path id="Path_101931" data-name="Path 101931" d="M7907.428,1600.75a1.447,1.447,0,1,1-2.892-.079,1.447,1.447,0,1,1,2.892.079Z" fill="#fefdfd"/>
    <path id="Path_101932" data-name="Path 101932" d="M7898.573,1605.653a1.5,1.5,0,0,1,1.835-.095,1.574,1.574,0,0,1,.569,1.759c-.754,1.008-1.444,1.22-2.215.679C7898.015,1607.474,7897.954,1606.709,7898.573,1605.653Z" fill="#fefdfc"/>
    <path id="Path_101933" data-name="Path 101933" d="M7969,1550.1c-2.847-.351-4.182-1.693-4.523-4.548a1.5,1.5,0,0,0-3-.018c-.385,2.938-1.652,4.233-4.5,4.56a1.493,1.493,0,0,0-1.49,1.458,1.526,1.526,0,0,0,1.422,1.539c3.13.508,4.128,1.508,4.573,4.577a1.52,1.52,0,0,0,1.539,1.417,1.491,1.491,0,0,0,1.45-1.4c.439-3.06,1.485-4.112,4.564-4.593a1.5,1.5,0,0,0-.037-2.992Zm-4.96,1.784c-.876,1.241-1.011,1.145-2.5-.321.3-.29.541-.517.776-.746.212-.208.42-.419.746-.745C7963.129,1550.9,7964.745,1550.891,7964.043,1551.887Z" fill="#fe2f94"/>
    <path id="Path_101934" data-name="Path 101934" d="M7910.339,1573.967c-.575-.038-.841.221-.8.8.011.16-.039.342-.244.366-.279.032-.325-.183-.318-.38.017-.44-.063-.785-.6-.794.752-.177.594-.825.712-1.342.064-.279-.144-.815.377-.749.459.059.272.558.227.843C7909.6,1573.321,7909.585,1573.826,7910.339,1573.967Z" fill="#714636"/>
    <path id="Path_101935" data-name="Path 101935" d="M7893.859,1554.581a4.593,4.593,0,0,1-2.351-.746,4.508,4.508,0,0,1-2.035-3.708,1.505,1.505,0,0,0-1.523-1.538,1.471,1.471,0,0,0-1.459,1.381c-.441,3.067-1.532,4.165-4.553,4.611a1.5,1.5,0,0,0,0,2.992c2.861.357,4.227,1.709,4.548,4.528a1.459,1.459,0,0,0,1.462,1.473,1.5,1.5,0,0,0,1.533-1.414c.482-3.1,1.562-4.178,4.575-4.59a1.534,1.534,0,0,0,1.424-1.527A1.583,1.583,0,0,0,7893.859,1554.581Zm-4.784,1.84c-.362.344-.723.689-1.142,1.088a4.781,4.781,0,0,0-.649-.669c-.771-.529-.729-1.018.021-1.507.266-.173.432-.731.724-.55a6,6,0,0,1,1.274,1.252C7889.413,1556.162,7889.192,1556.31,7889.075,1556.421Z" fill="#fe2f94"/>
    <path id="Path_101936" data-name="Path 101936" d="M7898.07,1597.766a1.549,1.549,0,0,1-1.435,1.508,1.5,1.5,0,0,1-.022-2.993A1.553,1.553,0,0,1,7898.07,1597.766Z" fill="#fefdfb"/>
    <path id="Path_101937" data-name="Path 101937" d="M7880.5,1611.365a1.456,1.456,0,0,1,2.085.513,1.487,1.487,0,0,1-.528,2.094,1.43,1.43,0,0,1-1.912-.542A1.569,1.569,0,0,1,7880.5,1611.365Z" fill="#fefdfc"/>
    <path id="Path_101938" data-name="Path 101938" d="M7876,1616.494a1.267,1.267,0,0,1,1.261,1.268,1.25,1.25,0,0,1-1.294,1.233,1.189,1.189,0,0,1-1.2-1.215A1.23,1.23,0,0,1,7876,1616.494Z" fill="#fefdfa"/>
    <path id="Path_101939" data-name="Path 101939" d="M7890.729,1608.412a1.466,1.466,0,0,1-1.4,1.52,1.438,1.438,0,0,1-1.476-1.441,1.441,1.441,0,1,1,2.879-.079Z" fill="#fefdfc"/>
    <path id="Path_101940" data-name="Path 101940" d="M7962.967,1608.676a4.511,4.511,0,0,0-4.487,4.454,4.5,4.5,0,1,0,9,.064A4.492,4.492,0,0,0,7962.967,1608.676Zm1.509,4.591a1.5,1.5,0,1,1-2.989-.208,1.5,1.5,0,0,1,2.989.208Z" fill="#fe2f94"/>
    <path id="Path_101941" data-name="Path 101941" d="M7919.485,1544.092a4.514,4.514,0,0,0-4.51,4.511,4.5,4.5,0,1,0,4.51-4.511Zm-.034,6a1.554,1.554,0,0,1-1.469-1.581,1.5,1.5,0,0,1,2.993.051A1.556,1.556,0,0,1,7919.451,1550.092Z" fill="#fe2f94"/>
    <path id="Path_101942" data-name="Path 101942" d="M7918.774,1550.535c.236.029.479.079.454.384-.02.248-.036.573-.4.55-.247-.015-.561-.081-.534-.431C7918.314,1550.778,7918.428,1550.524,7918.774,1550.535Z" fill="#ed5032"/>
    <path id="Path_101943" data-name="Path 101943" d="M7939.026,1585.456a10.43,10.43,0,0,1-.225,1.107c-.44,1.478-1.621,2.269-2.8,1.9a2.775,2.775,0,0,1-1.9-3.368,7.463,7.463,0,0,1,2.45-3.457c.467-.411.79-.166,1.091.186A5.73,5.73,0,0,1,7939.026,1585.456Z"/>
    <path id="Path_101944" data-name="Path 101944" d="M7943.424,1579.163c.026-.249-.059-.554.375-.545a6.891,6.891,0,0,1,2.179.05c1.018.392.275,1.416.442,2.141.073.319.214.863-.484.822-.3-.017-.6,0-.9,0-1.617,0-1.617,0-1.6-1.621.229-.038.538.094.6-.3C7944.112,1579.212,7943.694,1579.273,7943.424,1579.163Z" fill="#fe2f94"/>
    <path id="Path_101945" data-name="Path 101945" d="M7939.689,1586.037l.2.005c2.177.014,2.151.014,2.157,2.19,0,.645-.16.918-.826.829a3.329,3.329,0,0,0-1,0c-.915.159-1.374-.139-1.232-1.121A7.227,7.227,0,0,0,7939.689,1586.037Z" fill="#fe2f94"/>
    <path id="Path_101946" data-name="Path 101946" d="M7926.4,1588.232a1.37,1.37,0,0,1-2.033.075,1.478,1.478,0,0,1-.385-2.041,2.943,2.943,0,0,1,.983-1.221A3.263,3.263,0,0,1,7926.4,1588.232Z" fill="#e95429"/>
    <path id="Path_101947" data-name="Path 101947" d="M7906.931,1558.719q-.2.916-.4,1.832c-.608-.318-.613-.9-.61-1.463,0-.284-.08-.657.283-.772C7906.537,1558.212,7906.764,1558.45,7906.931,1558.719Z" fill="#f62f8f"/>
    <path id="Path_101948" data-name="Path 101948" d="M7932.869,1543.618c-.4-.178-.422.3-.552.528-.384.664-.739,1.345-1.1,2.02-.385.711-.715,1.49-1.771.818-.22-.141-.587-.068-.886-.067a.988.988,0,0,0-1.025.649,1.085,1.085,0,0,0,.3,1.1c.589.712,1.323.718,2.568-.01a4.263,4.263,0,0,1-.638,1.909c-.356.6-.757,1.179-1.142,1.764-.111.17-.25.334-.013.506a.273.273,0,0,0,.423-.09c.928-1.269,1.947-2.53,1.915-4.2a2.534,2.534,0,0,1,.391-1.467c.53-.887,1.018-1.8,1.5-2.714C7932.96,1544.138,7933.3,1543.807,7932.869,1543.618Zm-3.9,5.027c-.461-.022-.9-.285-.868-.778.032-.517.547-.321.886-.375.362.089.945.019.946.481C7929.934,1548.407,7929.431,1548.667,7928.97,1548.645Z" fill="#e75228"/>
    <path id="Path_101949" data-name="Path 101949" d="M7935.017,1575.577l1.408.053c.313.87.533-.332.819-.036.394.891.084,1.824.162,2.734a.23.23,0,0,1-.226.27c-.835.009-1.67.023-2.5,0-.355-.011-.255-.336-.258-.547-.015-.8-.012-1.605-.015-2.407A.418.418,0,0,1,7935.017,1575.577Z" fill="#fe2f94"/>
    <path id="Path_101950" data-name="Path 101950" d="M7943.165,1592.854c-.214.025-.409.005-.465-.251-.062-.286.155-.322.351-.369.809-.19,1.617-.383,2.427-.566.213-.048.411,0,.466.247.062.281-.155.319-.352.366Z" fill="#3dada0"/>
    <path id="Path_101951" data-name="Path 101951" d="M7933.98,1575.589c-.491-.174-1.367.436-1.438-.277-.055-.545.881-.235,1.358-.377a3.98,3.98,0,0,1,1.091-.122c.267,0,.7-.211.757.212.077.55-.465.3-.724.421C7934.691,1575.606,7934.309,1575.406,7933.98,1575.589Z" fill="#3eb0a3"/>
    <path id="Path_101952" data-name="Path 101952" d="M7945.612,1582.858c.213.095.457.195.243.488-.548.749-1.109,1.489-1.673,2.227-.1.134-.236.22-.416.079-.122-.1-.192-.244-.122-.341.586-.8,1.189-1.593,1.793-2.382C7945.468,1582.887,7945.547,1582.882,7945.612,1582.858Z" fill="#e9a626"/>
    <path id="Path_101953" data-name="Path 101953" d="M7944.745,1573.163c-.069.331-.205.429-.507.333-.793-.254-1.6-.476-2.392-.72-.192-.059-.391-.146-.305-.417.044-.136.149-.256.29-.214q1.389.405,2.768.844C7944.669,1573.01,7944.71,1573.12,7944.745,1573.163Z" fill="#df5027"/>
    <path id="Path_101954" data-name="Path 101954" d="M7937.244,1575.594c-.2.381-.391.764-.592,1.143-.09.168-.164.41-.417.311-.3-.117-.209-.364-.124-.588q.157-.414.314-.83c.234-.437.471-.873.7-1.312.115-.22.24-.435.525-.257.235.147.093.344.016.524C7937.524,1574.92,7937.385,1575.257,7937.244,1575.594Z" fill="#e8512b"/>
    <path id="Path_101955" data-name="Path 101955" d="M7933.98,1575.589a1.785,1.785,0,0,1,1.044-.143c0,.043,0,.087-.007.131l-.613.066Z" fill="#1e2f28"/>
    <path id="Path_101956" data-name="Path 101956" d="M7939.974,1562.071a1.5,1.5,0,0,1-.2.234q-1.02.795-2.047,1.579c-.169.129-.344.2-.518,0-.195-.228-.024-.364.131-.485q1.018-.8,2.049-1.576c.135-.1.294-.174.434,0A1.717,1.717,0,0,1,7939.974,1562.071Z" fill="#3dafa2"/>
    <path id="Path_101957" data-name="Path 101957" d="M7932.114,1562.447c-.261.892-.518,1.785-.788,2.674a.272.272,0,0,1-.384.2.311.311,0,0,1-.162-.416c.24-.863.485-1.725.741-2.583.044-.148.118-.328.346-.239C7932.031,1562.145,7932.164,1562.233,7932.114,1562.447Z" fill="#3eb0a3"/>
    <path id="Path_101958" data-name="Path 101958" d="M7943.767,1561.189c-.132.2-.04.6-.438.539-.235-.035-.566-.063-.529-.439.025-.256.056-.564.431-.531C7943.487,1560.781,7943.765,1560.825,7943.767,1561.189Z" fill="#d64d26"/>
    <path id="Path_101959" data-name="Path 101959" d="M7912.244,1569.686a1.394,1.394,0,0,1-.184.229c-.166.133-.307.052-.421-.087-.568-.69-1.131-1.385-1.7-2.073-.155-.187-.177-.346.037-.492a.287.287,0,0,1,.427.08c.565.693,1.133,1.383,1.7,2.077A1.733,1.733,0,0,1,7912.244,1569.686Z" fill="#e8a526"/>
    <path id="Path_101960" data-name="Path 101960" d="M7915.664,1572.519c.043.22-.093.315-.258.368-.217.07-.3-.1-.349-.256-.26-.861-.507-1.727-.758-2.591a.3.3,0,0,1,.177-.4.267.267,0,0,1,.381.2C7915.132,1570.731,7915.4,1571.626,7915.664,1572.519Z" fill="#3dafa2"/>
    <path id="Path_101961" data-name="Path 101961" d="M7921.758,1570.563c.262.047.535.1.46.476-.05.247-.056.589-.448.47-.208-.062-.6-.041-.481-.455C7921.354,1570.829,7921.343,1570.481,7921.758,1570.563Z" fill="#e2a125"/>
    <path id="Path_101962" data-name="Path 101962" d="M7912.994,1559.17l.762.179c-.01.369.123.875-.515.777C7912.506,1560.013,7912.9,1559.536,7912.994,1559.17Z" fill="#e7a526"/>
    <path id="Path_101963" data-name="Path 101963" d="M7913.874,1579.992c-.514-.03-.915-.159-.914-.731a1.637,1.637,0,0,1,1.313-1.558,1.42,1.42,0,0,1,1.858.47c.207.333.322.642-.1.941A6.555,6.555,0,0,1,7913.874,1579.992Z" fill="#eb5529"/>
    <path id="Path_101964" data-name="Path 101964" d="M7915.231,1581.95c-.249-.606-.857-.842-1.292-1.257a11.19,11.19,0,0,0,2.189-.653A4.834,4.834,0,0,1,7915.231,1581.95Z" fill="#ea5629"/>
    <path id="Path_101965" data-name="Path 101965" d="M7935.977,1587.048c.211.092.577.061.528.425-.029.217,0,.6-.4.564-.242-.023-.58-.048-.545-.415C7935.584,1587.388,7935.568,1587.053,7935.977,1587.048Z" fill="#e4a225"/>
  </g>
</svg>
