<svg xmlns="http://www.w3.org/2000/svg" width="221.651" height="56.753" viewBox="0 0 221.651 56.753">
  <g id="Group_3989" data-name="Group 3989" transform="translate(-1626.764 -2364.057)">
    <path id="Path_168770" data-name="Path 168770" d="M1994.91,2392.3c-1.259,4.874-1.694,9.892-2.562,14.834-.809,4.607-1.5,9.236-2.2,13.861a2.488,2.488,0,0,1-2.758,2.406c-6.366.009-5.353.392-4.562-4.887,1.333-8.9,2.817-17.772,4.144-26.67.23-1.542.731-2.1,2.332-1.909,1.85.216,3.734.146,5.6.2Z" transform="translate(-146.495 -10.651)" fill="#1399d5"/>
    <path id="Path_168771" data-name="Path 168771" d="M1638.775,2414.161c-3.243-.012-6.487-.062-9.728-.022-1.825.023-2.493-.822-2.228-2.55q3.421-22.3,6.846-44.6c.227-1.474.924-2.761,2.549-2.74,7.771.1,15.59-.74,23.3.471s10.925,5.63,10.46,13.474a1.641,1.641,0,0,1-1.648.176c-5.384-1.893-10.968-1.143-16.484-1.275-1.151-.028-2.3-.03-3.456.007-2.283.071-2.86.471-3.206,2.65-.9,5.684-1.845,11.363-2.592,17.071-1.37,4.712-1.762,9.609-2.706,14.4C1639.683,2412.26,1639.724,2413.4,1638.775,2414.161Z" transform="translate(0 0)" fill="#263b80"/>
    <path id="Path_168772" data-name="Path 168772" d="M1646.668,2424.426c.876-5.181,1.783-10.358,2.6-15.549a3.836,3.836,0,0,1,.876-1.848c.376-1.83,1.882-1.749,3.213-1.813,2.944-.142,5.891.075,8.837-.427,7.688-1.313,12.574-5.642,14.67-13.156.261-.937.217-2.044,1.2-2.667,4.286,3.573,4.145,8.27,3.179,13.076-1.684,8.381-7.057,12.745-16.015,13.185-.791.039-1.584.051-2.376.035-1.661-.032-2.421.717-2.636,2.419-.458,3.637-1.193,7.24-1.642,10.878a2.181,2.181,0,0,1-2.422,2.163c-2.808.066-5.619.039-8.427.025-1.535-.008-2-.863-1.738-2.282C1646.235,2427.122,1646.442,2425.772,1646.668,2424.426Z" transform="translate(-7.893 -10.265)" fill="#1399d5"/>
    <path id="Path_168773" data-name="Path 168773" d="M1680.927,2387.33c-2.043,11.073-8.792,16.708-20.123,16.795-1.586.012-3.174.053-4.757-.006a3.349,3.349,0,0,0-3.043,1.274c-.463-2.218.382-4.321.626-6.469.4-3.542,1.1-7.051,1.606-10.583.39-2.721.943-3.252,3.737-3.254,3.023,0,6.055.147,9.067-.036a34.839,34.839,0,0,1,12.7,1.772Z" transform="translate(-10.758 -8.629)" fill="#232c65"/>
    <path id="Path_168774" data-name="Path 168774" d="M1851.233,2421.141c2.474-3.821,4.76-7.226,6.9-10.72a3.335,3.335,0,0,1,3.507-1.894c1.069.114,2.163-.021,3.242.036.747.039,1.689-.367,2.169.51s-.312,1.468-.743,2.092q-4.675,6.754-9.379,13.489c-2.883,4.139-5.83,8.235-8.62,12.436a3.783,3.783,0,0,1-3.922,2c-.783-.093-1.589.033-2.377-.029-.815-.065-1.851.406-2.363-.563-.557-1.056.418-1.729.916-2.463,1.254-1.848,2.505-3.706,3.886-5.458a3.255,3.255,0,0,0,.571-3.52c-1.83-5.074-3.519-10.2-5.242-15.312-.851-2.525-.6-2.886,2.122-2.854,6.573.079,5.083-.872,7.105,5.229C1849.727,2416.3,1850.394,2418.49,1851.233,2421.141Z" transform="translate(-87.606 -18.315)" fill="#263b80"/>
    <path id="Path_168775" data-name="Path 168775" d="M1763.044,2389.873c-2.993-.765-6.033-.326-8.588-.472-2.482,0-4.51.118-6.52-.032-2.208-.164-3.089.826-3.407,2.9-1.43,9.331-2.956,18.646-4.42,27.97-.374,2.382-.184,2.55,2.3,2.56,1.154,0,2.309-.011,3.463,0a2.266,2.266,0,0,0,2.545-2.094c.371-2.2.9-4.389,1.1-6.6.188-2.071,1.174-2.7,3.118-2.586a26.119,26.119,0,0,0,7.107-.443c5.488-1.206,8.381-4.864,9.453-11.958C1769.954,2394.082,1767.969,2391.131,1763.044,2389.873Zm-7.8,15.211c-.5.037-1,.005-1.5.005-2.6.089-2.593.09-2.131-2.437.3-1.62.607-3.239.832-4.869a1.393,1.393,0,0,1,1.736-1.392c.356.034.717.009,1.075.015,3.338.053,4.675.909,4.777,3.053C1760.188,2402.856,1758.506,2404.841,1755.243,2405.083Z" transform="translate(-46.649 -10.424)" fill="#263b80"/>
    <path id="Path_168776" data-name="Path 168776" d="M1909.844,2389.952c-3.053-.821-6.164-.4-8.815-.527-2.525,0-4.617.065-6.7-.02-1.833-.075-2.778.6-3.039,2.506-.529,3.848-1.228,7.673-1.845,11.51-.915,5.684-1.791,11.375-2.748,17.052-.308,1.828.3,2.4,2.151,2.387,6.087-.024,6.088.039,6.914-6.031.029-.214.032-.433.077-.644.981-4.547-.374-4.714,5.466-4.625a21.119,21.119,0,0,0,2.161-.046c3.858-.337,7.362-1.434,9.76-4.757a16.772,16.772,0,0,0,2.616-7.458C1916.635,2394.283,1914.72,2391.263,1909.844,2389.952Zm-5.8,14.682a9.757,9.757,0,0,1-3.812.527c-2.727.025-2.731.025-2.312-2.7a16.62,16.62,0,0,1,.457-2.538c.372-1.162-.222-3.044,1.264-3.356,1.985-.418,4.2-.525,5.965.975C1907.6,2399.245,1906.643,2403.465,1904.043,2404.634Z" transform="translate(-107.086 -10.443)" fill="#1399d5"/>
    <path id="Path_168777" data-name="Path 168777" d="M1810.593,2408.05c-1.539-.024-3.191-.329-3.616,1.858-1.916-1.655-2.461-1.936-4.468-2.356-8.169-1.711-16.447,5.394-15.6,14.7.536,5.885,4.873,9,10.749,8.24a13.367,13.367,0,0,0,7.012-3.08c-.811,2.546.214,2.921,1.828,2.8a20.963,20.963,0,0,1,3.023,0c1.893.136,2.773-.815,3.045-2.582.752-4.905,1.385-9.834,2.332-14.7C1816.031,2407.1,1814.944,2408.119,1810.593,2408.05Zm-11.092,16.862c-3.2.093-5.019-1.722-5.06-5.06a6.239,6.239,0,0,1,6.188-6.16,4.984,4.984,0,0,1,5.376,5.154C1805.978,2421.847,1802.794,2424.816,1799.5,2424.912Z" transform="translate(-65.972 -17.819)" fill="#263b80"/>
    <path id="Path_168778" data-name="Path 168778" d="M1959.831,2408.082c-1.44-.067-2.888.029-4.328-.036-1.351-.061-2.3.262-2.2,2.235a8.48,8.48,0,0,0-4.2-2.628c-8.138-1.953-16.071,4.514-16.206,13.244-.09,5.855,3.407,9.511,9.265,9.661a13.943,13.943,0,0,0,8.192-2.708c-.456,2.46.973,2.4,2.434,2.356,1.081-.036,2.164-.007,3.246-.01a2.315,2.315,0,0,0,2.487-2.192c.969-5.973,1.913-11.951,2.9-17.922C1961.633,2408.769,1961.05,2408.139,1959.831,2408.082Zm-14.411,16.841c-3.118.019-5.024-1.978-4.99-5.227a6.344,6.344,0,0,1,6.432-6c2.991.03,5.278,2.026,5.26,4.593A6.913,6.913,0,0,1,1945.42,2424.923Z" transform="translate(-126.159 -17.822)" fill="#1399d5"/>
  </g>
</svg>
