<svg xmlns="http://www.w3.org/2000/svg" width="37.619" height="31.897" viewBox="0 0 37.619 31.897">
  <g id="Group_1600" data-name="Group 1600" transform="translate(-8245.66 -6929.804)">
    <path id="Path_68573" data-name="Path 68573" d="M8245.66,6951.7c.105-.355.2-.716.321-1.064a5.444,5.444,0,0,1,5.182-3.618c.844-.014,1.688,0,2.532-.006.223,0,.309.02.22.279a8.259,8.259,0,0,0-.385,2.709q0,5.065,0,10.13a4.645,4.645,0,0,0,.138,1.344c.053.176.017.227-.175.226-1.554-.009-3.108.022-4.661-.018a3.188,3.188,0,0,1-3.121-2.767.316.316,0,0,0-.051-.091Z" fill="#ff3096"/>
    <path id="Path_68574" data-name="Path 68574" d="M8264.425,6961.693h-7.417c-.9,0-1.292-.392-1.292-1.295,0-3.562-.008-7.124,0-10.686a5.4,5.4,0,0,1,4.258-5.388,5.039,5.039,0,0,1,1.2-.126c2.191,0,4.382-.013,6.573,0a5.4,5.4,0,0,1,5.338,4.273,5.576,5.576,0,0,1,.123,1.311q0,5.307,0,10.613c0,.9-.392,1.294-1.293,1.294Z" fill="#ff3096"/>
    <path id="Path_68575" data-name="Path 68575" d="M8264.5,6929.8a6.522,6.522,0,1,1-6.563,6.46A6.536,6.536,0,0,1,8264.5,6929.8Z" fill="#ff3096"/>
    <path id="Path_68576" data-name="Path 68576" d="M8275.21,6961.664a6.49,6.49,0,0,0,.183-2.038q0-4.752,0-9.5a8.97,8.97,0,0,0-.386-2.856c-.034-.1-.139-.257.095-.251a23.719,23.719,0,0,1,3.771.116,5.379,5.379,0,0,1,4.377,5.132c.039,2.054.033,4.11,0,6.164a3.209,3.209,0,0,1-3.188,3.254c-1.577.038-3.156.01-4.734.009A.688.688,0,0,1,8275.21,6961.664Z" fill="#ff3096"/>
    <path id="Path_68577" data-name="Path 68577" d="M8248.116,6940.764a4.879,4.879,0,1,1,4.871,4.885A4.885,4.885,0,0,1,8248.116,6940.764Z" fill="#ff3096"/>
    <path id="Path_68578" data-name="Path 68578" d="M8280.808,6940.748a4.878,4.878,0,1,1-4.926-4.856A4.9,4.9,0,0,1,8280.808,6940.748Z" fill="#ff3096"/>
  </g>
</svg>
