<svg xmlns="http://www.w3.org/2000/svg" width="81.069" height="81.086" viewBox="0 0 81.069 81.086">
  <g id="Group_3959" data-name="Group 3959" transform="translate(-176.053 -1318.858)">
    <path id="Path_168715" data-name="Path 168715" d="M257.122,1325.671v67.464a2.182,2.182,0,0,0-.125.368,7.474,7.474,0,0,1-2.644,4.674,8.772,8.772,0,0,1-4.04,1.767H182.865a9.065,9.065,0,0,1-3.692-1.489,7.672,7.672,0,0,1-3.114-6.435q-.011-7.876,0-15.752,0-24.618,0-49.235a8.091,8.091,0,0,1,1.549-5.118,7.75,7.75,0,0,1,6.541-3.057q26.749.008,53.5,0,5.778,0,11.554,0a7.677,7.677,0,0,1,6.436,3.112A9.079,9.079,0,0,1,257.122,1325.671Zm-76,33.651v32.462c0,2.163.922,3.092,3.07,3.092h64.75c2.2,0,3.112-.913,3.112-3.129v-64.686c0-2.218-.907-3.132-3.109-3.132H184.2c-2.15,0-3.071.928-3.072,3.09Z"/>
    <path id="Path_168716" data-name="Path 168716" d="M221.68,1368.489c1-1,1.958-1.969,2.923-2.936.913-.916,1.819-1.84,2.745-2.742a2.541,2.541,0,0,1,3.851.005l.112.112c4.049,4.05,8.109,8.089,12.132,12.164a3.7,3.7,0,0,1,.961,1.668,2.455,2.455,0,0,1-2.227,2.894,5.824,5.824,0,0,1-.633.019q-24.936,0-49.871,0a2.566,2.566,0,0,1-2.005-4.491q1.961-1.958,3.918-3.919l13.211-13.213c1.551-1.55,2.86-1.549,4.412,0l9.8,9.8C221.207,1368.05,221.418,1368.241,221.68,1368.489Z"/>
    <path id="Path_168717" data-name="Path 168717" d="M224.16,1339.138a7.6,7.6,0,1,1-7.565,7.644A7.659,7.659,0,0,1,224.16,1339.138Z" fill="#ff3096"/>
  </g>
</svg>
