<svg xmlns="http://www.w3.org/2000/svg" width="98.087" height="78.281" viewBox="0 0 98.087 78.281">
  <g id="Group_2031" data-name="Group 2031" transform="translate(-13662.474 -6062.853)">
    <path id="Path_84739" data-name="Path 84739" d="M13760.561,6068.706v66.763c-.335,3.645-3.685,5.554-6.757,5.644-.479.014-.957.018-1.435.018q-40.789,0-81.578,0a17.936,17.936,0,0,1-2.667-.18,6.374,6.374,0,0,1-5.59-6.444q-.016-8.989,0-17.981c0-15.462.094-30.926-.058-46.387a6.827,6.827,0,0,1,6.879-7.269c.446-.016.893-.02,1.339-.02h81.769a14.7,14.7,0,0,1,2.1.1C13758.078,6063.463,13759.96,6065.26,13760.561,6068.706Z" fill="#000002"/>
    <path id="Path_84740" data-name="Path 84740" d="M13668.166,6118.113V6070.43c0-1.481.174-1.66,1.626-1.66h83.575c1.48,0,1.65.169,1.65,1.637v42.286c-1.689-2.165-3.227-4.133-4.762-6.1-3.348-4.3-6.68-8.6-10.05-12.884a5.708,5.708,0,0,0-6.488-2,6.775,6.775,0,0,0-2.771,1.967q-9.229,10.219-18.469,20.426c-1.093,1.208-1.738,1.3-3.142.412l-14.7-9.259a8.43,8.43,0,0,0-10.209.482C13679.065,6109.82,13673.694,6113.9,13668.166,6118.113Z" fill="#fefefe"/>
    <path id="Path_84741" data-name="Path 84741" d="M13711.558,6135.215h-41.69c-1.539,0-1.7-.16-1.7-1.683,0-2.518.017-5.037-.012-7.555a1.544,1.544,0,0,1,.669-1.426q9.567-7.227,19.1-14.5a2.888,2.888,0,0,1,3.7-.153q7.474,4.7,14.938,9.409a7.327,7.327,0,0,0,9.9-1.349q9.142-10.1,18.282-20.206c.859-.952.864-.956,1.674.083q9.1,11.682,18.213,23.36a1.833,1.833,0,0,1,.4,1.219c-.015,3.761-.008,7.523-.01,11.284,0,1.312-.216,1.522-1.574,1.522Z" fill="#ff3096"/>
    <path id="Path_84742" data-name="Path 84742" d="M13703.537,6100.715a9.793,9.793,0,1,1,9.8-9.756A9.767,9.767,0,0,1,13703.537,6100.715Z" fill="#000002"/>
    <path id="Path_84743" data-name="Path 84743" d="M13703.611,6086.672a4.255,4.255,0,1,1-4.312,4.166A4.213,4.213,0,0,1,13703.611,6086.672Z" fill="#ff3096"/>
  </g>
</svg>
