<svg xmlns="http://www.w3.org/2000/svg" width="135.44" height="162.425" viewBox="0 0 135.44 162.425">
  <path id="Path_103572" data-name="Path 103572" d="M6644.249,957.333c0-17.621.139-35.243-.05-52.862-.117-10.963,4.056-19.466,13.694-24.692,9.672-5.245,19.147-3.887,28.182,2.119,26.78,17.8,53.7,35.4,80.358,53.376,17.62,11.884,17.6,33.037-.038,44.956-26.645,18-53.525,35.656-80.329,53.422-9,5.965-18.519,7.237-28.22,2.016-9.723-5.233-13.735-13.794-13.64-24.706C6644.364,993.087,6644.249,975.209,6644.249,957.333Z" transform="translate(-6644.197 -876.52)" fill="#fff"/>
</svg>
