<svg xmlns="http://www.w3.org/2000/svg" width="93.904" height="74.817" viewBox="0 0 93.904 74.817">
  <g id="Group_3177" data-name="Group 3177" transform="translate(-7096.685 -1182.926)">
    <g id="Group_3175" data-name="Group 3175">
      <path id="Path_103577" data-name="Path 103577" d="M7143.653,1248.511l-31.492,0a6.153,6.153,0,0,1-6.574-6.551q-.012-21.61,0-43.221c0-4.056,2.535-6.576,6.612-6.577h39.331q11.826,0,23.653,0c3.157,0,5.441,1.592,6.268,4.365a7.162,7.162,0,0,1,.238,2.135v.068q0,21.61,0,43.22c0,4.046-2.509,6.559-6.544,6.56Zm-17.183-52.134H7112.2c-1.79,0-2.4.6-2.4,2.36q-.011,21.609,0,43.217c0,1.681.661,2.336,2.356,2.336q31.492.006,62.983,0c1.695,0,2.326-.636,2.327-2.343q.007-21.609,0-43.218v-.071a3.811,3.811,0,0,0-.062-.927c-.209-.7-.624-1.353-2.227-1.353q-11.826,0-23.652,0H7126.47Z" fill="#5ce1e6"/>
    </g>
    <g id="Group_3176" data-name="Group 3176">
      <path id="Path_103578" data-name="Path 103578" d="M7143.657,1257.743q-19.644,0-39.286,0c-4.734,0-7.677-3.167-7.679-8.265q-.016-29.124,0-58.248c0-5.2,2.891-8.3,7.727-8.3q13.077,0,26.153,0h22.912q14.754,0,29.507,0a7.133,7.133,0,0,1,7.32,5.48,9.887,9.887,0,0,1,.275,2.709v.1q.006,29.126,0,58.248c0,5.1-2.931,8.276-7.643,8.276Q7163.3,1257.743,7143.657,1257.743Zm-21.406-70.259h-17.833c-2.492,0-3.509,1.085-3.51,3.744q-.012,29.121,0,58.244c0,2.566,1.069,3.71,3.462,3.711q39.285,0,78.571,0c2.4,0,3.424-1.113,3.425-3.722q.009-29.121,0-58.244v-.1a5.819,5.819,0,0,0-.1-1.407c-.286-1.035-.917-2.224-3.279-2.225q-14.754-.006-29.5,0h-31.232Z" fill="#ff3096"/>
    </g>
    <path id="Path_103579" data-name="Path 103579" d="M7132.1,1220.267c0-3.005.024-6.011-.008-9.016a4.466,4.466,0,0,1,7.142-3.85c4.567,3.036,9.158,6.037,13.705,9.1,3,2.026,3,5.634-.006,7.667-4.545,3.071-9.129,6.081-13.7,9.112a4.418,4.418,0,0,1-4.813.343,4.354,4.354,0,0,1-2.326-4.213C7132.115,1226.365,7132.1,1223.316,7132.1,1220.267Z" fill="#fe3095"/>
  </g>
</svg>
