<svg xmlns="http://www.w3.org/2000/svg" width="123.364" height="77.821" viewBox="0 0 123.364 77.821">
  <g id="Group_4015" data-name="Group 4015" transform="translate(-598.473 -732.305)">
    <path id="Path_167134" data-name="Path 167134" d="M-584.552,499.715q0-12.884,0-25.77c0-2.613-1.916-3.747-4.233-2.545-.249.13-.5.264-.742.4l-25.863,14.114c-.371.2-.75.39-1.263.656-.026-.572-.059-.961-.059-1.35-.005-2.528.033-5.058-.011-7.586-.136-7.737-5.616-13.308-13.345-13.329q-32.207-.085-64.413-.014a13.05,13.05,0,0,0-10.651,5.153,15.528,15.528,0,0,0-2.729,6.33V530.7c.05.06.137.115.146.181.832,6.259,6.722,11.29,14.2,11.213,20.345-.21,40.695-.072,61.041-.073,1.124,0,2.249.022,3.371-.024a13.005,13.005,0,0,0,12.307-12.1c.141-2.843.059-5.7.085-8.547,0-.422.036-.844.062-1.433.6.311,1.02.525,1.435.751,8.655,4.724,17.353,9.375,25.94,14.221,2.5,1.411,4.814.3,4.778-2.777C-584.63,521.311-584.552,510.513-584.552,499.715Zm-37.369,28.548c0,4.3-2.228,7.342-6.1,8.283a11.775,11.775,0,0,1-2.745.219q-15.774.022-31.548.009-15.953,0-31.909,0c-4.259,0-7.228-2.2-8.168-6.042a10.738,10.738,0,0,1-.226-2.506q-.019-25.049-.006-50.1c0-5.4,3.221-8.6,8.624-8.6q31.727-.005,63.455,0c5.3,0,8.614,3.264,8.617,8.522Q-621.9,503.154-621.921,528.263Zm32.055.288c-5.347-2.916-10.514-5.735-15.681-8.555-3.412-1.863-6.81-3.753-10.243-5.576a1.536,1.536,0,0,1-.947-1.584q.047-9.632.005-19.264a1.382,1.382,0,0,1,.8-1.428q12.682-6.88,25.338-13.809c.2-.11.418-.193.728-.335Z" transform="translate(1306.338 268.034)"/>
    <path id="Path_167135" data-name="Path 167135" d="M-675.026,504.91c0-4.849.038-9.7-.014-14.547a7.045,7.045,0,0,1,3.769-6.794,7.082,7.082,0,0,1,7.754.582c7.369,4.9,14.777,9.74,22.113,14.688,4.848,3.27,4.843,9.091-.011,12.371-7.331,4.953-14.728,9.811-22.1,14.7a7.131,7.131,0,0,1-7.766.554c-2.675-1.44-3.78-3.8-3.753-6.8C-674.994,514.748-675.026,509.829-675.026,504.91Z" transform="translate(1303.059 266.196)" fill="#ff3096"/>
  </g>
</svg>
