<svg xmlns="http://www.w3.org/2000/svg" width="112" height="112" viewBox="0 0 112 112">
  <g id="Group_2296" data-name="Group 2296" transform="translate(-4614.354 -6082.874)">
    <circle id="Ellipse_557" data-name="Ellipse 557" cx="56" cy="56" r="56" transform="translate(4614.354 6082.874)" opacity="0.3"/>
    <g id="Group_2295" data-name="Group 2295">
      <g id="Group_2294" data-name="Group 2294">
        <path id="Path_84943" data-name="Path 84943" d="M4645.593,6138.847c.928,0,1.856-.014,2.783.008.322.008.406-.08.413-.4a21.7,21.7,0,0,1,4.921-13.546,21.382,21.382,0,0,1,14.573-8.127c8.311-.944,15.079,2.008,20.362,8.453a.493.493,0,0,1,.02.754c-.591.731-1.136,1.5-1.726,2.285a19.035,19.035,0,0,0-4.063-4.4,18.525,18.525,0,0,0-13.352-4.037,19.017,19.017,0,0,0-17.215,15.386,20.269,20.269,0,0,0-.355,3.255c-.012.321.086.383.384.377.9-.02,1.808-.008,2.8-.008l-2.454,3.275c-.675.9-1.368,1.79-2.018,2.709-.259.367-.376.294-.606-.017-1.379-1.863-2.775-3.714-4.17-5.565-.084-.111-.124-.275-.3-.3Z" fill="#fff"/>
        <path id="Path_84944" data-name="Path 84944" d="M4653.837,6149.425a19.438,19.438,0,0,0,5.144,5.2,19.106,19.106,0,0,0,29.348-11.513,21.235,21.235,0,0,0,.489-3.884c.012-.306-.061-.393-.374-.385-.9.023-1.811.008-2.8.008.31-.417.571-.77.834-1.122,1.232-1.642,2.469-3.28,3.689-4.93.2-.264.283-.273.484,0,1.479,1.994,2.973,3.976,4.464,5.964-.089.166-.239.085-.353.086-.779.008-1.558.024-2.336,0-.345-.013-.435.078-.441.429a20.634,20.634,0,0,1-1.369,7.275,22.251,22.251,0,0,1-38.518,5.874.451.451,0,0,1-.009-.673C4652.68,6150.994,4653.241,6150.22,4653.837,6149.425Z" fill="#fff"/>
      </g>
      <circle id="Ellipse_558" data-name="Ellipse 558" cx="40.986" cy="40.986" r="40.986" transform="translate(4629.368 6097.888)" fill="none" stroke="#fff" stroke-miterlimit="10" stroke-width="2"/>
    </g>
  </g>
</svg>
