<svg xmlns="http://www.w3.org/2000/svg" width="92.277" height="82.599" viewBox="0 0 92.277 82.599">
  <path id="Path_103580" data-name="Path 103580" d="M7098.588,1364.319a13.783,13.783,0,0,0,.514-3.4c.776-5.61,2.476-10.842,6.074-15.328a30.917,30.917,0,0,1,13.046-9.264,64.8,64.8,0,0,1,20.255-4.071c5.75-.356,11.508-.149,17.262-.174.706,0,.857-.2.852-.871-.033-3.876,0-7.753-.024-11.629a3.336,3.336,0,0,1,2.03-3.385,3.2,3.2,0,0,1,3.734.958q12.585,12.58,25.167,25.165c1.782,1.783,1.775,3.466-.014,5.255q-12.55,12.553-25.1,25.1c-1.23,1.229-2.514,1.584-3.8,1a3.348,3.348,0,0,1-2.012-3.4c.027-3.906-.007-7.812.025-11.717.005-.634-.178-.766-.783-.76-5.637.061-11.276-.1-16.911.18a51.8,51.8,0,0,0-14.277,2.338,20.539,20.539,0,0,0-14.234,15.911,54.949,54.949,0,0,0-.621,17.431,7.252,7.252,0,0,1,.076,1.313,1.552,1.552,0,0,1-2.762.927,5.563,5.563,0,0,1-.766-1.172c-2.837-6.146-5.475-12.368-6.924-19.018-.255-1.172-.412-2.367-.616-3.55-.027-.16.048-.365-.185-.439v-4.053a1.347,1.347,0,0,0,0-1.057v-.529c.153-.155.068-.351.091-.529-.023-.177.062-.373-.091-.528Z" transform="translate(-7097.588 -1314.904)" fill="#fff" stroke="#fe3095" stroke-miterlimit="10" stroke-width="2"/>
</svg>
