<svg xmlns="http://www.w3.org/2000/svg" width="71.233" height="57.085" viewBox="0 0 71.233 57.085">
  <g id="Group_2249" data-name="Group 2249" transform="translate(-6199.962 -5502.432)">
    <path id="Path_84907" data-name="Path 84907" d="M6271.2,5534.735a.627.627,0,0,1,0-.835Z" fill="#fffdfd"/>
    <path id="Path_84908" data-name="Path 84908" d="M6271.2,5532.23c-.15-.093-.184-.185,0-.278Z" fill="#fffdfd"/>
    <path id="Path_84909" data-name="Path 84909" d="M6245.256,5559.517a25.9,25.9,0,0,1-25.472-20.867,25.339,25.339,0,0,1,4.688-20.693,1.193,1.193,0,0,1,1.215-.628,1.031,1.031,0,0,1,.578,1.726,28.06,28.06,0,0,0-2.386,3.821,23.924,23.924,0,0,0,15.4,33.8,23.558,23.558,0,0,0,18.322-2.7,2.511,2.511,0,0,1,.683-.323.946.946,0,0,1,1.187.6,1.023,1.023,0,0,1-.459,1.324,26.255,26.255,0,0,1-4.457,2.232A25.825,25.825,0,0,1,6245.256,5559.517Z" fill="#fffdfd"/>
    <path id="Path_84910" data-name="Path 84910" d="M6207.73,5532.761q3.195,0,6.389,0c.877,0,1.325.374,1.307,1.066-.017.65-.478,1.025-1.3,1.026q-6.423.006-12.847,0c-.85,0-1.335-.413-1.317-1.086.018-.644.478-1,1.309-1.006Q6204.5,5532.757,6207.73,5532.761Z" fill="#fffdfd"/>
    <path id="Path_84911" data-name="Path 84911" d="M6210.511,5526.647q2.5,0,5,0c.878,0,1.328.368,1.317,1.057-.011.672-.478,1.034-1.356,1.034q-5,0-9.994,0c-.845,0-1.343-.41-1.331-1.072.011-.631.493-1.017,1.3-1.019C6207.133,5526.644,6208.822,5526.647,6210.511,5526.647Z" fill="#fffdfd"/>
    <path id="Path_84912" data-name="Path 84912" d="M6210.452,5540.474c-1.665,0-3.331,0-5,0-.817,0-1.293-.379-1.312-1.009-.019-.662.48-1.083,1.321-1.084q5.031-.006,10.062,0c.822,0,1.282.375,1.3,1.024.017.692-.431,1.066-1.307,1.069C6213.829,5540.478,6212.141,5540.474,6210.452,5540.474Z" fill="#fffdfd"/>
    <path id="Path_84913" data-name="Path 84913" d="M6212.819,5546.586c-1.365,0-2.73.006-4.095,0-.815,0-1.267-.39-1.261-1.049s.465-1.046,1.278-1.048q4.095-.009,8.189,0c.814,0,1.28.386,1.294,1.031.016.686-.44,1.063-1.31,1.067C6215.549,5546.591,6214.184,5546.586,6212.819,5546.586Z" fill="#fffdfd"/>
    <path id="Path_84914" data-name="Path 84914" d="M6212.827,5520.532c1.388,0,2.776-.005,4.164,0,.8,0,1.252.407,1.232,1.075-.018.63-.467,1.012-1.231,1.014q-4.165.007-8.328,0c-.748,0-1.2-.412-1.2-1.046s.446-1.036,1.2-1.041C6210.05,5520.526,6211.439,5520.532,6212.827,5520.532Z" fill="#fffdfd"/>
    <path id="Path_84915" data-name="Path 84915" d="M6271.2,5531.256c-.218-.079-.125-.273-.14-.416a24.142,24.142,0,0,0-1.45-6.2,25.742,25.742,0,0,0-17.512-16.1c-.4-.117-.552-.263-.539-.693.033-1.112.027-2.226.006-3.339a1.945,1.945,0,0,0-2.045-2.063q-4.28-.022-8.557,0a1.932,1.932,0,0,0-2.048,2.049c-.014,1.09-.034,2.181.011,3.269.02.492-.142.675-.606.792a23.424,23.424,0,0,0-5.275,2.08,25.079,25.079,0,0,0-5.315,3.76,1.055,1.055,0,0,0-.158,1.541,1.083,1.083,0,0,0,1.553.012c.126-.1.244-.214.368-.319a23.423,23.423,0,0,1,19.979-5.53,23.857,23.857,0,0,1,11.9,41.048c-.592.554-.673,1.175-.252,1.641.439.486,1.092.436,1.7-.134a25.987,25.987,0,0,0,7.879-14.057,12.929,12.929,0,0,1,.5-2.608v-1.252a1.064,1.064,0,0,1,0-.835v-1.67a.179.179,0,0,1,0-.278Zm-21.717-23.845c.013.391-.082.535-.5.47a24.684,24.684,0,0,0-7.541,0c-.3.046-.46.017-.447-.364.03-.856.025-1.714,0-2.571-.009-.339.1-.427.43-.423,1.274.018,2.548.008,3.822.008,1.228,0,2.456.015,3.683-.009.406-.008.576.072.553.526C6249.442,5505.835,6249.452,5506.624,6249.479,5507.411Z" fill="#fffdfd"/>
    <path id="Path_84916" data-name="Path 84916" d="M6245.2,5513.986a19.574,19.574,0,1,0,19.608,19.546A19.574,19.574,0,0,0,6245.2,5513.986Zm17.463,21.083a17.7,17.7,0,0,1-3.986,9.67c-.29.355-.448.389-.763.036-.492-.553-1.031-1.066-1.57-1.576a1.045,1.045,0,1,0-1.466,1.478q.794.83,1.624,1.621c.252.238.3.388,0,.637a17.7,17.7,0,0,1-9.782,4.063c-.324.032-.454-.026-.44-.389.028-.764.017-1.53,0-2.295s-.414-1.2-1.049-1.205-1.031.444-1.04,1.2c-.009.741-.016,1.484,0,2.225.009.336-.036.5-.444.464a17.69,17.69,0,0,1-10.152-4.392c.656-.634,1.3-1.234,1.915-1.856.572-.575.6-1.187.114-1.643-.468-.437-1.031-.385-1.592.165-.53.519-1.063,1.036-1.565,1.582-.259.282-.4.23-.623-.039a17.338,17.338,0,0,1-3.92-8.75c-.206-1.458-.176-1.462,1.311-1.462.441,0,.881.011,1.321,0a1.048,1.048,0,1,0-.028-2.089c-.742-.016-1.485-.029-2.225,0-.422.02-.56-.076-.513-.527a17.792,17.792,0,0,1,4.023-9.657c.305-.371.46-.282.728.008.5.544,1.032,1.066,1.57,1.577a1.047,1.047,0,1,0,1.47-1.48c-.526-.556-1.06-1.106-1.625-1.62-.307-.28-.26-.415.039-.662a17.688,17.688,0,0,1,9.721-4.034c.364-.036.49.047.477.428-.027.765-.017,1.53-.006,2.3.011.728.384,1.146,1.009,1.16.647.016,1.066-.424,1.08-1.17.014-.765.024-1.531,0-2.295-.015-.391.128-.451.479-.416a17.687,17.687,0,0,1,9.558,3.91c.4.324.531.53.067.922a19.325,19.325,0,0,0-1.532,1.515,1.043,1.043,0,1,0,1.476,1.469c.556-.524,1.1-1.064,1.622-1.622.258-.277.4-.333.68,0a17.7,17.7,0,0,1,4.045,9.789c.038.391-.128.406-.42.4-.765-.011-1.53-.013-2.295,0-.746.012-1.187.428-1.172,1.075a1.031,1.031,0,0,0,1.157,1.016c.765.013,1.53.019,2.295,0C6262.6,5534.588,6262.7,5534.692,6262.663,5535.069Z" fill="#fffdfd"/>
    <path id="Path_84917" data-name="Path 84917" d="M6246.284,5530.664c.693-.7,1.266-1.29,1.853-1.865s1.182-.6,1.641-.118a1.076,1.076,0,0,1-.153,1.6q-1.8,1.838-3.616,3.657a.984.984,0,0,1-1.134.286.97.97,0,0,1-.679-.95c-.006-2.573-.012-5.146,0-7.718a1.013,1.013,0,0,1,1.054-1.053,1.05,1.05,0,0,1,1.025,1.1c.019,1.413.007,2.827.007,4.241Z" fill="#fffdfd"/>
  </g>
</svg>
