<svg xmlns="http://www.w3.org/2000/svg" width="99.999" height="100" viewBox="0 0 99.999 100">
  <g id="Group_2624" data-name="Group 2624" transform="translate(-9237.794 -3808.184)">
    <path id="Path_95678" data-name="Path 95678" d="M9337.793,3862.281a11.528,11.528,0,0,0-.539,3.189c-2.39,14.89-9.938,26.438-22.446,34.788a1.68,1.68,0,0,1-1.449.4,1.459,1.459,0,0,1-1.118-1.108,1.492,1.492,0,0,1,.791-1.64,45.053,45.053,0,0,0,5.617-4.2,46.55,46.55,0,0,0,15.856-29.963c.14-1.128.2-2.267.32-3.4.054-.5-.022-.786-.636-.781a29.169,29.169,0,0,1-4.854-.426c-.728-.118-.854.154-.887.806a40.708,40.708,0,0,1-45.1,38.664,40.134,40.134,0,0,1-35.394-32.463c-2.878-14.93,1.58-27.727,12.6-38.211.83-.789,1.682-.81,2.308-.129.607.662.5,1.519-.34,2.293a37.806,37.806,0,1,0,63.045,29.1c.015-.577-.155-.765-.71-.894a47.953,47.953,0,0,1-12.836-4.972c-.395-.223-.669-.37-.768.285a5.373,5.373,0,0,1-1.755,3.071c-1.8,1.742-3.564,3.524-5.4,5.23a3.194,3.194,0,0,0-1.032,3.16c.441,2.429.856,4.863,1.279,7.3a5.5,5.5,0,0,1-2.183,5.859,5.4,5.4,0,0,1-6.065.245c-2.262-1.2-4.546-2.368-6.8-3.585a2.886,2.886,0,0,0-2.955-.009c-2.342,1.26-4.687,2.519-7.063,3.712a5.514,5.514,0,0,1-8-3.587c-.382-1.706.168-3.358.425-5.02s.565-3.332.868-4.994a3.132,3.132,0,0,0-1.035-3.067c-1.83-1.71-3.6-3.489-5.395-5.233a5.546,5.546,0,0,1,3.174-9.689c2.542-.348,5.075-.766,7.618-1.116a2.821,2.821,0,0,0,2.338-1.662c1.132-2.335,2.306-4.65,3.444-6.982a5.554,5.554,0,0,1,10.205.02c1.105,2.275,2.251,4.532,3.348,6.812a2.948,2.948,0,0,0,2.543,1.829c1.159.113,2.309.332,3.647.532a63.855,63.855,0,0,1-4.581-4.856,48.64,48.64,0,0,1-10.063-20c-.216-.908-.514-1.231-1.513-1.184a37.769,37.769,0,0,0-18.49,5.715c-.61.379-1.212.8-1.982.4-1.13-.592-1.129-1.9.044-2.648a39.865,39.865,0,0,1,7.549-3.791,38.943,38.943,0,0,1,12.64-2.556c.676-.019.9-.192.788-.9a30.187,30.187,0,0,1-.426-4.856c0-.525-.194-.645-.7-.619a46.283,46.283,0,0,0-28.076,10.94,45.08,45.08,0,0,0-15.947,26.964c-2.99,16.448,1.4,30.789,13.193,42.678a45.077,45.077,0,0,0,26.426,13.052,46.379,46.379,0,0,0,25.8-3.677c1.457-.651,2.28-.561,2.71.319.458.936-.026,1.7-1.5,2.351a50.02,50.02,0,1,1-25.09-95.4c.174-.016.406.074.478-.2h.977c.125.135.291.09.444.1h.477c.153-.011.319.034.444-.1h2.344a4.546,4.546,0,0,1,1.5,1.05q9.924,9.951,19.866,19.885a5.307,5.307,0,0,1,.94,1.115,1.641,1.641,0,0,1-.234,2.135,1.808,1.808,0,0,1-2.175.15,5.056,5.056,0,0,1-.877-.773q-8.826-8.831-17.657-17.667a46.845,46.845,0,0,0,42.256,42.21,10.129,10.129,0,0,1-.853-.786q-9-9.009-18.008-18.016a6.651,6.651,0,0,1-1.074-1.259,1.566,1.566,0,0,1,.068-1.913,1.656,1.656,0,0,1,1.94-.513,3.1,3.1,0,0,1,1.187.833q10.835,10.836,21.671,21.669a4.292,4.292,0,0,1,.843,1.29v.976a1.5,1.5,0,0,0,0,1.172v.781c-.158.159-.08.362-.1.547.008.149-.031.309.1.43Z"/>
    <path id="Path_95679" data-name="Path 95679" d="M9337.793,3859.742a.884.884,0,0,1,0-1.172Z" fill="#151515"/>
    <path id="Path_95680" data-name="Path 95680" d="M9285.657,3808.349l-.584,0c-.056-.041-.072-.08-.051-.116s.042-.053.062-.053h.586c.066.042.086.08.061.115A.1.1,0,0,1,9285.657,3808.349Z" fill="#4d4d4d"/>
    <path id="Path_95681" data-name="Path 95681" d="M9337.626,3861.118c-.025-.221-.093-.454.167-.595v.586C9337.742,3861.194,9337.686,3861.2,9337.626,3861.118Z" fill="#646464"/>
    <path id="Path_95682" data-name="Path 95682" d="M9285.084,3808.184a.976.976,0,0,1-.011.169c-.16.018-.327.054-.379-.169Z" fill="#707070"/>
    <path id="Path_95683" data-name="Path 95683" d="M9285.657,3808.349c.006-.055.01-.11.013-.165h.39A.328.328,0,0,1,9285.657,3808.349Z" fill="#353535"/>
    <path id="Path_95684" data-name="Path 95684" d="M9337.626,3861.118l.167-.009v.391C9337.554,3861.453,9337.605,3861.279,9337.626,3861.118Z" fill="#838383"/>
    <path id="Path_95685" data-name="Path 95685" d="M9274.1,3873.418c.406-2.4.806-5.033,1.31-7.648a5.992,5.992,0,0,0-1.83-5.93c-1.8-1.689-3.541-3.45-5.323-5.163a2.668,2.668,0,0,1-.943-2.959,2.631,2.631,0,0,1,2.415-1.8c2.512-.335,5.011-.763,7.521-1.094a5.734,5.734,0,0,0,4.691-3.347c1.111-2.272,2.248-4.531,3.345-6.81a2.666,2.666,0,0,1,5.081.041c.935,1.961,2.031,3.852,2.854,5.857a6.745,6.745,0,0,0,6.169,4.439c2.229.2,4.437.635,6.656.94a2.588,2.588,0,0,1,2.285,1.835,2.488,2.488,0,0,1-.794,2.733c-1.814,1.774-3.605,3.573-5.459,5.3a5.97,5.97,0,0,0-1.86,5.919c.459,2.359.826,4.736,1.237,7.1a2.663,2.663,0,0,1-4.119,2.983c-2.194-1.192-4.426-2.315-6.625-3.5a5.769,5.769,0,0,0-5.846.029c-2.309,1.253-4.632,2.48-6.979,3.658A2.574,2.574,0,0,1,9274.1,3873.418Z" fill="#ff3096"/>
  </g>
</svg>
