<svg xmlns="http://www.w3.org/2000/svg" width="124.187" height="85.754" viewBox="0 0 124.187 85.754">
  <g id="Group_4020" data-name="Group 4020" transform="translate(-367.075 -993.032)">
    <path id="Path_168798" data-name="Path 168798" d="M429.168,1078.759q-25.842,0-51.684.011c-4.113.006-7.381-1.388-9.383-5.156a9.236,9.236,0,0,1-1.017-4.406q-.007-33.189.011-66.377a9.474,9.474,0,0,1,9.834-9.781q52.238-.037,104.476,0a9.495,9.495,0,0,1,9.841,9.919q.035,33.05,0,66.1c-.005,5.549-3.743,9.485-9.288,9.637-5.169.142-10.345.051-15.517.052Q447.8,1078.763,429.168,1078.759Z" transform="translate(0)" fill="#03a8f3"/>
    <path id="Path_168799" data-name="Path 168799" d="M629.945,1111.519a8.026,8.026,0,0,1,5.681-2.6,6.485,6.485,0,0,1,6.42,4.367,19.634,19.634,0,0,1-.425,14.834c-1.557,3.551-5.784,5.452-9.9,4.518-1.189-.27-1.415.02-1.388,1.129.048,1.983-.047,3.968-.052,5.952,0,.593-.166.953-.807,1.05-1.913.29-3.829.571-5.729.935-.791.151-.807-.2-.807-.791q.015-15.3-.008-30.6c0-.786.232-1.051,1.017-1.02a33.74,33.74,0,0,0,4.012-.01c1.17-.093,1.747.264,1.715,1.479A2.662,2.662,0,0,0,629.945,1111.519Z" transform="translate(-184.908 -83.75)" fill="#fefefe"/>
    <path id="Path_168800" data-name="Path 168800" d="M715.037,1124.525c-1.661,0-3.323.024-4.984-.01-.736-.015-.965.153-.778.95a3.534,3.534,0,0,0,3.268,3.065,11.417,11.417,0,0,0,6.208-.947c.743-.329,1.169-.44,1.195.617a8.127,8.127,0,0,0,.36,2.316c.422,1.283-.02,1.944-1.237,2.386a16.483,16.483,0,0,1-10.576.5,7.719,7.719,0,0,1-5.36-4.817c-1.756-4.862-1.887-9.706,1.012-14.2,2.339-3.624,6.005-4.425,9.976-3.739,3.68.636,5.685,3.223,6.567,6.694a21.149,21.149,0,0,1,.553,6.182c-.035.778-.312,1.034-1.081,1.013C718.453,1124.493,716.745,1124.525,715.037,1124.525Z" transform="translate(-241.963 -84.842)" fill="#fefefe"/>
    <path id="Path_168801" data-name="Path 168801" d="M411.147,1126.678a18.442,18.442,0,0,0,5.935,1.935,8.591,8.591,0,0,0,1.244.04c.808-.03,1.632-.14,1.908-1.053.3-.979-.315-1.562-1.093-1.993-.4-.223-.824-.414-1.246-.6-.974-.419-1.96-.809-2.931-1.237-3.307-1.457-4.77-3.9-4.344-7.213a6.823,6.823,0,0,1,6.056-5.935,16.786,16.786,0,0,1,8.434.922c.689.25,1.079.526.846,1.4a26.324,26.324,0,0,0-.571,3.409c-.1.772-.318.993-1.114.619a11.236,11.236,0,0,0-4.944-1.156c-.791.009-1.673-.024-1.893.984-.21.963.522,1.426,1.244,1.762,1.337.621,2.709,1.166,4.06,1.758,3.13,1.373,4.642,3.732,4.383,6.818-.3,3.519-2.144,5.745-5.555,6.525a16.783,16.783,0,0,1-10.537-1.208c-.442-.189-.774-.382-.651-1.015C410.678,1129.908,410.884,1128.353,411.147,1126.678Z" transform="translate(-31.278 -84.849)" fill="#fefefe"/>
    <path id="Path_168802" data-name="Path 168802" d="M476.388,1105.218c0-1.661-.061-3.325.022-4.982.053-1.056-.211-1.465-1.352-1.4-1.683.1-1.688.015-1.439-1.618a15.682,15.682,0,0,0,.271-1.775c.042-1.154.353-1.978,1.736-1.9.549.03.775-.3.852-.859.183-1.323.46-2.632.657-3.953.091-.608.258-.96.983-1.045,1.462-.171,2.91-.465,4.358-.744.807-.156,1.185,0,1.139.948-.074,1.519.012,3.045-.032,4.567-.022.732.24.975.955.94.967-.047,1.938.01,2.906-.017.689-.019.873.215.721.911a32.813,32.813,0,0,0-.607,3.68c-.074.735-.384.879-1.053.9-2.909.092-2.909.113-2.908,3.085,0,2.169-.023,4.338.013,6.506.034,2,.852,2.746,2.767,2.377,1.216-.234,1.541.111,1.424,1.281a12.456,12.456,0,0,0,.007,2.9c.17,1.242-.422,1.64-1.5,1.748a17.521,17.521,0,0,1-4.554.022c-3.379-.547-5.172-2.579-5.31-6.035-.074-1.842-.013-3.69-.013-5.536Z" transform="translate(-76.915 -67.83)" fill="#fefefe"/>
    <path id="Path_168803" data-name="Path 168803" d="M540.8,1112.376a4.7,4.7,0,0,1,4.81-2.915c.659.033,1.09.227,1.052,1.07-.072,1.611-.046,3.228-.01,4.841.016.711-.2,1-.949.94a5.9,5.9,0,0,0-1.783.121c-2.3.544-2.736,1.143-2.683,3.242.1,4.148.007,8.3.049,12.451.009.926-.2,1.322-1.216,1.276-1.7-.078-3.412-.057-5.117-.005-.8.024-1.009-.259-1.006-1.03q.037-10.792,0-21.583c0-.835.217-1.145,1.08-1.1a25.976,25.976,0,0,0,3.732-.007c1.278-.117,1.9.3,1.869,1.616A8.344,8.344,0,0,0,540.8,1112.376Z" transform="translate(-120.598 -84.137)" fill="#fefefe"/>
    <path id="Path_168804" data-name="Path 168804" d="M593.218,1122.094c0,3.461-.064,6.925.033,10.384.036,1.277-.383,1.57-1.563,1.495-1.563-.1-3.138-.054-4.706-.011-.734.02-1.063-.14-1.059-.977q.045-10.869,0-21.739c0-.813.277-1.021,1.038-1,1.706.046,3.417.063,5.122-.005.939-.038,1.164.307,1.152,1.193C593.192,1114.985,593.218,1118.54,593.218,1122.094Z" transform="translate(-158.163 -84.704)" fill="#fefefe"/>
    <path id="Path_168805" data-name="Path 168805" d="M592.942,1078.031a3.8,3.8,0,0,1-3.893,3.812,3.88,3.88,0,1,1,3.893-3.812Z" transform="translate(-157.651 -58.577)" fill="#fefefe"/>
    <path id="Path_168806" data-name="Path 168806" d="M649.7,1135.948c0-1.478.044-2.957-.012-4.433-.059-1.541,1.057-1.881,2.156-2.263a1.847,1.847,0,0,1,2.513,1.112,12.414,12.414,0,0,1-.242,10.066,2.972,2.972,0,0,1-3.71,1.378c-.628-.19-.72-.59-.712-1.149C649.712,1139.089,649.7,1137.518,649.7,1135.948Z" transform="translate(-204.243 -98.345)" fill="#03a8f3"/>
    <path id="Path_168807" data-name="Path 168807" d="M730.677,1132.819a1.981,1.981,0,0,1-.552-.008c-.687-.208-1.733.548-2.053-.425-.456-1.389.983-3.97,2.16-4.253a2.17,2.17,0,0,1,2.524,1.62C733.817,1132.51,733.607,1132.819,730.677,1132.819Z" transform="translate(-260.832 -97.597)" fill="#04a9f3"/>
  </g>
</svg>
