<svg xmlns="http://www.w3.org/2000/svg" width="41.279" height="76.005" viewBox="0 0 41.279 76.005">
  <g id="Group_1520" data-name="Group 1520" transform="translate(-9392.291 -7300.355)">
    <path id="Path_68403" data-name="Path 68403" d="M9431.937,7325.819q-4.994-6.305-9.977-12.623a11.407,11.407,0,0,0-6.935-4.34c-.423-.083-.5-.244-.494-.622.016-1.88-.021-3.76.018-5.639a2.174,2.174,0,0,0-1.174-2.24h-.742a1.917,1.917,0,0,0-1.3,2.068c.021,1.9-.014,3.809.02,5.713.009.5-.147.649-.628.746a10.479,10.479,0,0,0-6.3,3.747q-5.38,6.71-10.7,13.471a6.706,6.706,0,0,0-1.435,4.27q0,19.625.006,39.249a6.481,6.481,0,0,0,6.668,6.721q13.948.041,27.9,0a6.493,6.493,0,0,0,6.7-6.768q.012-19.551.007-39.1A7.268,7.268,0,0,0,9431.937,7325.819Zm-19.014-1.568a4.608,4.608,0,1,1-4.6,4.629A4.614,4.614,0,0,1,9412.923,7324.251Zm17.5,25.809q0,9.609,0,19.219c0,2.575-1.3,3.9-3.862,3.9q-13.614.007-27.232,0c-2.562,0-3.869-1.325-3.869-3.894q0-19.255-.01-38.512a4.78,4.78,0,0,1,1.089-3.136c3.3-4.13,6.573-8.289,9.855-12.438a8.335,8.335,0,0,1,4.35-3.049c.418-.116.611-.144.606.407-.023,2.72-.03,5.442.007,8.162.008.545-.306.578-.652.683a7.791,7.791,0,0,0,4.439,14.937,7.9,7.9,0,0,0,5.606-7.466,7.77,7.77,0,0,0-5.6-7.449c-.51-.145-.627-.368-.622-.865q.038-3.933,0-7.866c-.007-.575.1-.721.686-.54a8.272,8.272,0,0,1,4.125,2.875q5.093,6.42,10.189,12.836a4.219,4.219,0,0,1,.9,2.753Q9430.409,7340.34,9430.419,7350.06Z" fill="#7c7c7c"/>
    <path id="Path_68404" data-name="Path 68404" d="M9410.83,7352.418a2.077,2.077,0,0,0,2.1,2.126,5.275,5.275,0,0,1,4.962,3.474,5.215,5.215,0,0,1-2.742,6.629.853.853,0,0,0-.63.911,1.587,1.587,0,1,1-3.159.007.875.875,0,0,0-.63-.91,5.16,5.16,0,0,1-3.083-4.61,1.617,1.617,0,0,1,1.446-1.75,1.57,1.57,0,0,1,1.664,1.345c.043.191.062.389.095.583a2.114,2.114,0,0,0,4.2-.285,2,2,0,0,0-1.818-2.148,5.827,5.827,0,0,1-4.467-2.106,5.285,5.285,0,0,1,1.98-8.05.821.821,0,0,0,.616-.84,1.587,1.587,0,1,1,3.166-.007.774.774,0,0,0,.536.808,5.183,5.183,0,0,1,3.166,4.557,1.582,1.582,0,0,1-1.348,1.812,1.513,1.513,0,0,1-1.766-1.368c-.34-1.614-1.015-2.3-2.23-2.273A2.073,2.073,0,0,0,9410.83,7352.418Z" fill="#ff3096"/>
  </g>
</svg>
