<svg xmlns="http://www.w3.org/2000/svg" width="100" height="100" viewBox="0 0 100 100">
  <g id="Group_2622" data-name="Group 2622" transform="translate(-9079.132 -3808.184)">
    <path id="Path_95666" data-name="Path 95666" d="M9176.954,3808.184c1.676.775,2.206,2.095,2.177,3.909-.083,5.106-.029,10.214-.03,15.321a2.868,2.868,0,0,1-1.564,2.719,2.767,2.767,0,0,1-2.962-.139,2.949,2.949,0,0,1-1.334-2.661c.011-4.1-.019-8.2.023-12.3.009-.779-.133-1.031-.979-1.019-3.9.053-7.808.024-11.711.024-2.117,0-3.269-.682-3.678-2.177-.4-1.465.3-2.7,2.095-3.681Z" fill="#ff3096"/>
    <path id="Path_95667" data-name="Path 95667" d="M9079.132,3888.043a3.371,3.371,0,0,1,2.326-2.13,2.935,2.935,0,0,1,3.526,3.03c.016,4.131.032,8.263-.019,12.393-.011.844.237.988,1.019.98,4.032-.042,8.066-.022,12.1-.019,2.011,0,3.313,1.133,3.331,2.886.019,1.806-1.286,2.969-3.347,2.97-5.01,0-10.021-.054-15.028.03-1.815.03-3.132-.5-3.909-2.177Z" fill="#ff3096"/>
    <path id="Path_95668" data-name="Path 95668" d="M9099.243,3808.184a3.306,3.306,0,0,1,2.141,2.419,2.924,2.924,0,0,1-3.036,3.434c-4.159.015-8.319.025-12.479-.015-.73-.007-.905.171-.9.9.041,3.932.02,7.865.02,11.8,0,2.12-.68,3.265-2.179,3.67-1.467.4-2.688-.3-3.679-2.094v-17.963a2.54,2.54,0,0,1,2.147-2.148Z" fill="#ff3096"/>
    <path id="Path_95669" data-name="Path 95669" d="M9179.1,3896.993c0,2.633.006,5.267,0,7.9a2.969,2.969,0,0,1-3.265,3.258q-7.9.009-15.8,0a2.931,2.931,0,0,1-3.216-2.9c-.013-1.764,1.29-2.95,3.262-2.952,4.1-.005,8.193-.023,12.29.018.737.007.9-.181.894-.9-.038-4.161-.031-8.323-.013-12.485a2.914,2.914,0,0,1,4.091-2.822,2.848,2.848,0,0,1,1.758,2.791C9179.106,3891.595,9179.1,3894.294,9179.1,3896.993Z" fill="#ff3096"/>
    <path id="Path_95670" data-name="Path 95670" d="M9159.368,3823.8h-30.257q-15.177,0-30.355,0c-2.162,0-3.365,1.154-3.368,3.271q-.015,10.2,0,20.4a2.983,2.983,0,0,0,3.235,3.221q5.563.022,11.127,0a2.947,2.947,0,0,0,3.2-3.228c.013-1.789.019-3.579-.007-5.368-.007-.514.085-.747.677-.737,2.017.036,4.034.027,6.051,0,.477,0,.669.078.668.626q-.023,20.057,0,40.115c0,.587-.2.687-.721.673-1.235-.034-2.472-.019-3.709-.009a2.96,2.96,0,0,0-3.176,3.162q-.022,5.613,0,11.225a2.959,2.959,0,0,0,3.158,3.18q13.225.012,26.45,0a2.946,2.946,0,0,0,3.146-3.093q.031-5.711,0-11.42a2.937,2.937,0,0,0-3.085-3.053c-1.27-.015-2.539-.028-3.808.009-.534.016-.709-.117-.709-.685q.026-20.008,0-40.018c0-.523.1-.728.677-.717q2.975.055,5.954,0c.584-.01.784.125.769.747-.045,1.756-.022,3.514-.014,5.271a2.975,2.975,0,0,0,3.312,3.316q5.418.014,10.834,0c2.255,0,3.422-1.169,3.424-3.43q.007-10,0-20.009C9162.847,3824.927,9161.712,3823.8,9159.368,3823.8Zm-2.359,20.135c.006.731-.179.953-.918.921-1.4-.061-2.8-.046-4.2-.005-.591.017-.787-.145-.773-.756.038-1.756.022-3.514.011-5.271a3,3,0,0,0-3.333-3.308q-6.249-.007-12.5,0a2.965,2.965,0,0,0-3.256,3.27q0,23.283,0,46.566a2.971,2.971,0,0,0,3.257,3.27c1.205.006,2.41.04,3.612-.014.629-.029.756.186.74.769-.042,1.464-.035,2.929,0,4.393.011.524-.1.726-.682.724q-9.86-.03-19.72,0c-.483,0-.687-.089-.673-.633.037-1.528.034-3.059,0-4.587-.011-.511.136-.671.65-.657,1.268.033,2.537.019,3.807.008a2.933,2.933,0,0,0,3.146-3.084q.013-23.48,0-46.957a2.912,2.912,0,0,0-3.068-3.061q-6.442-.021-12.887,0a2.95,2.95,0,0,0-3.122,3.122q-.04,2.684,0,5.369c.011.592-.082.876-.783.847-1.429-.06-2.863-.038-4.294-.008-.551.012-.811-.076-.807-.729.028-4.588.038-9.176-.007-13.764-.008-.817.424-.7.909-.7h27.042c8.949,0,17.9.013,26.846-.021.833,0,1,.229,1,1.023Q9156.949,3837.3,9157.009,3843.94Z" fill="none" stroke="#000" stroke-miterlimit="10" stroke-width="2"/>
  </g>
</svg>
