<svg xmlns="http://www.w3.org/2000/svg" width="63.034" height="76.878" viewBox="0 0 63.034 76.878">
  <g id="Group_2894" data-name="Group 2894" transform="translate(-15568.522 -409.012)">
    <path id="Path_95917" data-name="Path 95917" d="M15587.562,409.012c.863.179,1.736.322,2.589.544a17.352,17.352,0,1,1-6.342-.4c.117-.015.257.016.3-.147h.75a.2.2,0,0,0,.3,0Z"/>
    <path id="Path_95918" data-name="Path 95918" d="M15631.551,453.567q0,12.311,0,24.62a7.325,7.325,0,0,1-4.162,6.921,6.472,6.472,0,0,1-3.02.77c-11.384.006-22.769.029-34.152-.009a7.294,7.294,0,0,1-7.152-7.071c-.072-5.854-.028-11.709-.031-17.564,0-4.8.012-9.607-.016-14.411,0-.628.123-.836.771-.7a13.86,13.86,0,0,0,4.036.1c.649-.06.771.142.77.759q-.031,15.537-.021,31.075a2.117,2.117,0,0,0,.723,1.868,1.959,1.959,0,0,0,1.25.418q16.739-.006,33.477-.007a1.9,1.9,0,0,0,1.981-2.123q0-12.534,0-25.07,0-12.047,0-24.094c0-1.617-.7-2.316-2.319-2.316-5.705,0-11.408-.011-17.113.015-.6,0-.731-.172-.747-.734a16.441,16.441,0,0,0-.651-4.286c-.123-.407-.059-.558.42-.557,6.255.018,12.51-.028,18.764.032a7.383,7.383,0,0,1,7.191,7.448C15631.567,436.954,15631.551,445.261,15631.551,453.567Z" fill="#fff"/>
    <path id="Path_95919" data-name="Path 95919" d="M15607.694,446.994q-4.915,0-9.826,0a1.912,1.912,0,0,1-1.851-1.16,1.661,1.661,0,0,1,.312-1.883,1.919,1.919,0,0,1,1.526-.673q9.861,0,19.727.005a1.862,1.862,0,0,1,1.988,1.885,1.891,1.891,0,0,1-2.051,1.821C15614.244,447,15610.969,446.994,15607.694,446.994Z" fill="#fff"/>
    <path id="Path_95920" data-name="Path 95920" d="M15607.751,454.507c3.3,0,6.6,0,9.9,0a1.908,1.908,0,0,1,1.9,1.388,1.854,1.854,0,0,1-1.017,2.119,2.211,2.211,0,0,1-1.019.2q-9.75,0-19.5,0a1.964,1.964,0,0,1-2.054-1.4,1.867,1.867,0,0,1,1.016-2.121,2.361,2.361,0,0,1,1.1-.182Q15602.913,454.509,15607.751,454.507Z" fill="#fff"/>
    <path id="Path_95921" data-name="Path 95921" d="M15607.678,469.866c-3.2,0-6.4-.007-9.6.007a2.088,2.088,0,0,1-1.693-.624,1.7,1.7,0,0,1-.347-1.883,1.766,1.766,0,0,1,1.679-1.166c1.725-.007,3.449-.006,5.174-.007,4.85,0,9.7.006,14.549-.007a2.1,2.1,0,0,1,1.69.626,1.7,1.7,0,0,1,.354,1.881,1.852,1.852,0,0,1-1.833,1.176C15614.327,469.861,15611,469.866,15607.678,469.866Z" fill="#fff"/>
    <path id="Path_95922" data-name="Path 95922" d="M15585.968,440.2a13.739,13.739,0,1,1,13.728-13.775A13.777,13.777,0,0,1,15585.968,440.2Z" fill="#fefefe"/>
    <path id="Path_95923" data-name="Path 95923" d="M15591.2,428.3c-1.627,0-3.253.006-4.88,0a1.932,1.932,0,0,1-2.215-2.187q-.006-4.242,0-8.483a1.863,1.863,0,1,1,3.69-.027c.017,2.077.04,4.155-.015,6.23-.02.7.208.808.837.8,2.576-.035,5.153-.022,7.73-.009a1.83,1.83,0,0,1,.827,3.5,2.456,2.456,0,0,1-1.172.18C15594.4,428.3,15592.8,428.3,15591.2,428.3Z"/>
  </g>
</svg>
