<svg xmlns="http://www.w3.org/2000/svg" width="63.034" height="76.878" viewBox="0 0 63.034 76.878">
  <g id="Group_2867" data-name="Group 2867" transform="translate(-807.552 -2454.953)">
    <path id="Path_95817" data-name="Path 95817" d="M826.591,2454.953c.864.18,1.736.323,2.589.545a17.347,17.347,0,1,1-6.342-.4c.117-.015.256.016.3-.147h.751a.2.2,0,0,0,.3,0Z"/>
    <path id="Path_95818" data-name="Path 95818" d="M870.58,2499.509q0,12.309,0,24.619a7.326,7.326,0,0,1-4.163,6.921,6.471,6.471,0,0,1-3.02.77c-11.384.006-22.768.029-34.152-.009a7.292,7.292,0,0,1-7.151-7.071c-.073-5.854-.029-11.709-.032-17.563,0-4.8.012-9.608-.016-14.412,0-.628.123-.836.771-.7a13.86,13.86,0,0,0,4.035.1c.65-.06.771.142.77.759q-.03,15.537-.02,31.075a2.114,2.114,0,0,0,.723,1.868,1.961,1.961,0,0,0,1.249.419q16.738-.007,33.477-.008a1.9,1.9,0,0,0,1.981-2.123q0-12.534,0-25.069,0-12.048,0-24.094c0-1.618-.7-2.317-2.319-2.317-5.7,0-11.409-.011-17.113.015-.6,0-.732-.172-.747-.733a16.393,16.393,0,0,0-.652-4.287c-.123-.407-.058-.558.42-.556,6.255.017,12.51-.028,18.765.032a7.382,7.382,0,0,1,7.19,7.447C870.6,2482.9,870.58,2491.2,870.58,2499.509Z"/>
    <path id="Path_95819" data-name="Path 95819" d="M846.723,2492.936q-4.913,0-9.826,0a1.913,1.913,0,0,1-1.85-1.16,1.661,1.661,0,0,1,.312-1.883,1.918,1.918,0,0,1,1.525-.673q9.864,0,19.727.005a1.861,1.861,0,0,1,1.988,1.885,1.89,1.89,0,0,1-2.05,1.821Q851.636,2492.943,846.723,2492.936Z" fill="#fe3996"/>
    <path id="Path_95820" data-name="Path 95820" d="M846.78,2500.448c3.3,0,6.6,0,9.9,0a1.91,1.91,0,0,1,1.9,1.388,1.858,1.858,0,0,1-1.018,2.12,2.2,2.2,0,0,1-1.018.2q-9.749,0-19.5,0a1.963,1.963,0,0,1-2.054-1.405,1.867,1.867,0,0,1,1.015-2.12,2.358,2.358,0,0,1,1.1-.183Q841.942,2500.45,846.78,2500.448Z" fill="#fe3996"/>
    <path id="Path_95821" data-name="Path 95821" d="M846.707,2515.808c-3.2,0-6.4-.007-9.6.006a2.088,2.088,0,0,1-1.693-.624,1.7,1.7,0,0,1-.347-1.882,1.767,1.767,0,0,1,1.679-1.167c1.725-.007,3.45-.006,5.174-.007,4.85,0,9.7.007,14.549-.007a2.094,2.094,0,0,1,1.69.626,1.7,1.7,0,0,1,.353,1.882,1.853,1.853,0,0,1-1.832,1.176C853.356,2515.8,850.032,2515.807,846.707,2515.808Z" fill="#fe3996"/>
    <path id="Path_95822" data-name="Path 95822" d="M825,2486.145a13.739,13.739,0,1,1,13.727-13.775A13.778,13.778,0,0,1,825,2486.145Z" fill="#fefefe"/>
    <path id="Path_95823" data-name="Path 95823" d="M830.225,2474.238c-1.627,0-3.253.007-4.88,0a1.931,1.931,0,0,1-2.214-2.187q0-4.242,0-8.483a1.862,1.862,0,1,1,3.689-.027c.018,2.077.041,4.155-.015,6.231-.018.7.209.808.837.8,2.577-.035,5.155-.021,7.732-.009a1.831,1.831,0,0,1,.827,3.5,2.459,2.459,0,0,1-1.173.179C833.428,2474.241,831.826,2474.238,830.225,2474.238Z"/>
  </g>
</svg>
