<svg xmlns="http://www.w3.org/2000/svg" width="57.839" height="69.323" viewBox="0 0 57.839 69.323">
  <g id="Group_2251" data-name="Group 2251" transform="translate(-6209.66 -5347.618)">
    <path id="Path_84918" data-name="Path 84918" d="M6260.023,5368.707c-.306-.344-.4-.516-.014-.883,1.149-1.084,2.237-2.232,3.374-3.329.309-.3.352-.465.018-.786q-1.709-1.641-3.354-3.348c-.293-.3-.442-.295-.732,0-1.212,1.245-2.466,2.449-3.673,3.7-.321.332-.517.32-.885.071a28.022,28.022,0,0,0-12.791-4.75c-.412-.046-.513-.206-.509-.6.02-1.624.024-3.247,0-4.87-.007-.43.132-.529.538-.523,1.559.021,3.118-.01,4.677.02.466.008.612-.1.6-.588-.031-1.736-.012-3.473-.012-5.209h-17.355c0,1.736.019,3.473-.012,5.209-.009.484.137.6.6.588,1.558-.03,3.117,0,4.676-.02.406-.006.545.093.539.522-.026,1.623-.022,3.247,0,4.871,0,.39-.1.55-.509.6a28.134,28.134,0,0,0-12.846,4.79c-.333.226-.5.219-.779-.066-1.245-1.275-2.523-2.519-3.773-3.791-.246-.251-.384-.256-.632,0-1.135,1.162-2.281,2.316-3.449,3.445-.3.287-.24.432.019.685,1.146,1.12,2.262,2.27,3.415,3.383.318.307.357.467.037.831-6.362,7.239-8.767,15.621-6.942,25.078a28.91,28.91,0,0,0,57.166-3.538A28.268,28.268,0,0,0,6260.023,5368.707Zm-21.492,42.41a23.089,23.089,0,1,1,23.2-23.156A23.127,23.127,0,0,1,6238.531,5411.117Z" fill="#fff"/>
    <path id="Path_84919" data-name="Path 84919" d="M6229.9,5388.045c2.689,0,5.378-.015,8.067.014.516,0,.629-.133.627-.635-.02-5.344,0-10.689-.028-16.034,0-.591.167-.681.71-.664a17.327,17.327,0,1,1-17.941,19.151c-.06-.581-.343-1.321-.023-1.7s1.1-.121,1.674-.124C6225.294,5388.037,6227.6,5388.045,6229.9,5388.045Z" fill="#fff"/>
  </g>
</svg>
