<svg xmlns="http://www.w3.org/2000/svg" xmlns:xlink="http://www.w3.org/1999/xlink" width="209.452" height="202.608" viewBox="0 0 209.452 202.608">
  <defs>
    <linearGradient id="linear-gradient" x1="0.5" y1="1" x2="0.5" gradientUnits="objectBoundingBox">
      <stop offset="0" stop-color="#ff3096"/>
      <stop offset="1" stop-color="#ff748b"/>
    </linearGradient>
  </defs>
  <g id="Group_3846" data-name="Group 3846" transform="translate(-436.169 -932)">
    <path id="Path_163934" data-name="Path 163934" d="M613.157,972.44a2.669,2.669,0,0,1-2.033-2.131c-6.04-19.656-18.949-32.508-39.03-36.922-19.737-4.338-36.726,1.582-50.344,16.619a5.038,5.038,0,0,1-4.89,2.034A42.676,42.676,0,0,0,471.687,981.8a2.237,2.237,0,0,1-2.043,1.757c-16.805,3.238-27.742,12.969-32.427,29.549-.4,1.409-.28,2.94-1.048,4.254v1.227a3.124,3.124,0,0,1,0,2.455v5.727c.616,2.328,1.121,4.692,1.864,6.979,5.358,16.491,20.41,27.157,38.419,27.2,17.318.04,34.636.009,51.954.009h2.2a3.207,3.207,0,0,1-.685,2.04q-5.865,11.778-11.749,23.546c-2.4,4.806-4.848,9.588-7.17,14.431-2.112,4.4.468,8.722,5.336,9.041a32.6,32.6,0,0,0,4.5.008c1.318-.1,1.716.295,1.694,1.657-.083,5.317-.041,10.636-.032,15.954.008,4.489,2.417,6.933,6.948,6.953q11.454.049,22.909,0c4.536-.019,6.949-2.458,6.958-6.943.011-5.386.037-10.773-.024-16.159-.013-1.162.3-1.512,1.472-1.465a34.136,34.136,0,0,0,5.511-.118,5.986,5.986,0,0,0,4.887-8.187,22.942,22.942,0,0,0-1.047-2.209q-9.1-18.24-18.207-36.48a3.5,3.5,0,0,1-.714-2.069h2.179q22.5,0,45-.006a63.2,63.2,0,0,0,8.965-.608c20.914-3.007,37.835-22.064,38.28-43.158A45.509,45.509,0,0,0,613.157,972.44Zm-58.523,123.487c.717,1.413.807,1.894-1.081,1.894-4.142,0-6.5,2.52-6.511,6.687-.017,5.379-.049,10.758.027,16.136.019,1.324-.309,1.755-1.675,1.708-3.061-.1-6.128-.085-9.19-.005-1.183.03-1.477-.355-1.465-1.5.057-5.378.033-10.757.023-16.136-.009-4.448-2.271-6.768-6.718-6.944-.789-.031-1.984.4-1.129-1.289,4.592-9.082,9.113-18.2,13.667-27.3.048-.095.2-.138.447-.3.5.953,1,1.883,1.472,2.828C546.54,1079.785,550.548,1087.876,554.634,1095.927Zm51.676-47.863a46.026,46.026,0,0,1-7.936.613q-30.171.009-60.342,0c-20.523,0-41.046.032-61.569-.012-11.615-.025-20.429-5.04-25.494-15.564-7.81-16.23,3.175-35.512,21.111-37.482,1.15-.127,2.306-.241,3.462-.273,4.01-.109,6.138-1.9,6.822-5.869a28.319,28.319,0,0,1,6.112-13.616c8.251-9.869,18.7-13.641,31.358-10.93,4.092.877,5.934.22,8.349-3.268a39.629,39.629,0,0,1,40.5-16.6,40.161,40.161,0,0,1,31.476,32.159c.72,3.871,2.216,5.387,6.05,6.13a33.7,33.7,0,0,1,26.658,26.637C636.115,1027.441,623.854,1045,606.31,1048.064Z" fill="url(#linear-gradient)"/>
    <path id="Path_163935" data-name="Path 163935" d="M561.332,999.833c-11.854-5.9-23.683-11.839-35.542-17.723-4.979-2.47-9.418.369-9.432,5.976-.015,5.858,0,11.716,0,17.574s-.01,11.716,0,17.573c.012,5.835,4.461,8.572,9.721,5.951,11.726-5.842,23.43-11.73,35.163-17.56,2.522-1.253,4.2-3.043,4.18-5.968C565.4,1002.824,563.779,1001.049,561.332,999.833Zm-32.608,14.309V997.289l16.862,8.414Z" fill="url(#linear-gradient)"/>
  </g>
</svg>
