<svg xmlns="http://www.w3.org/2000/svg" width="122.724" height="78.056" viewBox="0 0 122.724 78.056">
  <g id="Group_182" data-name="Group 182" transform="translate(-2665.217 -12241.825)">
    <path id="Path_388" data-name="Path 388" d="M2665.217,12250.032c.329-.121.252-.44.326-.683a10.077,10.077,0,0,1,10.032-7.506c6.22-.035,12.44-.009,18.66-.009q20.551,0,41.1,0c5.182,0,9.092,2.912,10.324,7.633a12.648,12.648,0,0,1,.347,3.222q0,28.113,0,56.228c0,6.644-4.282,10.953-10.88,10.955q-29.476.01-58.952,0c-5.587,0-9.134-2.67-10.721-8.034-.033-.112-.156-.2-.237-.3Z"/>
    <path id="Path_389" data-name="Path 389" d="M2772.65,12259.175c-4.054,0-8.107.023-12.161-.01-2.136-.017-3.515-2.656-2.968-5.576.349-1.866,1.41-3.062,2.82-3.077,2.593-.027,5.186-.009,7.779-.009,5.6,0,11.207-.019,16.811.01,2.175.013,3.565,3.007,2.8,5.913-.464,1.754-1.526,2.742-3.006,2.745C2780.7,12259.181,2776.673,12259.175,2772.65,12259.175Z" fill="#ff3096"/>
    <path id="Path_390" data-name="Path 390" d="M2772.7,12267.848c4.113,0,8.226-.016,12.339.013,1.4.009,2.468,1.311,2.809,3.287a5.457,5.457,0,0,1-1.346,4.754,2.35,2.35,0,0,1-1.626.614q-12.2,0-24.41-.007c-1.642,0-2.783-1.461-3.034-3.736-.22-1.994.579-3.976,1.875-4.7a2.723,2.723,0,0,1,1.411-.229Q2766.711,12267.841,2772.7,12267.848Z" fill="#ff3096"/>
    <path id="Path_391" data-name="Path 391" d="M2772.671,12285.2c4.143,0,8.286-.021,12.429.011,1.354.011,2.389,1.3,2.739,3.24a5.453,5.453,0,0,1-1.31,4.771,2.4,2.4,0,0,1-1.709.644q-12.161,0-24.321-.008c-1.793,0-3.115-1.907-3.11-4.363.006-2.5,1.288-4.288,3.122-4.295,4.053-.016,8.107,0,12.16,0Z" fill="#ff3096"/>
    <path id="Path_392" data-name="Path 392" d="M2772.7,12302.534c4.113,0,8.226-.017,12.339.011,1.406.01,2.468,1.3,2.813,3.277a5.459,5.459,0,0,1-1.336,4.759,2.24,2.24,0,0,1-1.536.616c-8.2.007-16.393.02-24.589-.006-1.579-.006-2.7-1.5-2.95-3.723-.223-2,.57-3.974,1.866-4.7a2.7,2.7,0,0,1,1.411-.232Q2766.7,12302.528,2772.7,12302.534Z" fill="#ff3096"/>
    <path id="Path_393" data-name="Path 393" d="M2705.531,12302.535c-4.1,0-8.2.01-12.3,0-3.174-.01-4.932-1.778-4.957-4.945-.057-7.413,4.561-12.225,11.987-12.372,3.874-.076,7.755-.088,11.626.046a11.479,11.479,0,0,1,10.777,8.689,14.27,14.27,0,0,1,.121,5.122c-.287,2.038-2.194,3.44-4.542,3.455C2714,12302.554,2709.767,12302.535,2705.531,12302.535Z" fill="#ff3096"/>
    <path id="Path_394" data-name="Path 394" d="M2705.542,12279.359a8.666,8.666,0,1,1,8.684-8.619A8.654,8.654,0,0,1,2705.542,12279.359Z" fill="#ff3096"/>
  </g>
</svg>
