<svg xmlns="http://www.w3.org/2000/svg" width="88.799" height="97.563" viewBox="0 0 88.799 97.563">
  <g id="Group_3031" data-name="Group 3031" transform="translate(-11276.575 -479.531)">
    <path id="Path_100125" data-name="Path 100125" d="M11339.229,522.331c-14.859,1.09-24.4,9.074-27.971,23.354a1.875,1.875,0,0,1-2.067,1.692,74.138,74.138,0,0,1-31.437-6c-1.086-.454-1.187-1.206-1.177-2.2.037-3.436,0-6.873.017-10.309.035-7.271,2.728-10.644,9.937-12.178,3.628-.772,7-.865,10.659,1.12,8.279,4.495,16.739,3.96,24.9-.847C11326.717,514.237,11336.687,517.265,11339.229,522.331Z" fill="#ff3096"/>
    <path id="Path_100126" data-name="Path 100126" d="M11292.22,497.49c.037-9.781,7.269-17.838,16.118-17.958,10.4-.142,18.588,10.268,16.662,21.173-1.523,8.625-7.861,14.843-15.417,15.126C11299.784,516.2,11292.18,508.165,11292.22,497.49Z" fill="#ff3096"/>
    <path id="Path_100127" data-name="Path 100127" d="M11339.377,525.281a25.907,25.907,0,1,0,26,25.708A25.989,25.989,0,0,0,11339.377,525.281Zm12.674,31.812c-8.866,8.326-17.394,7.855-26.491-1.314-5.008-5.049-5.008-3.957.021-9.181,3.79-3.937,8.222-6.941,14.131-7.171,4.88.189,8.947,2.582,12.38,5.94C11358.635,551.767,11358.8,550.758,11352.051,557.093Z"/>
    <path id="Path_100128" data-name="Path 100128" d="M11339.512,558.19a7.048,7.048,0,0,1-7.051-7.057,6.972,6.972,0,0,1,7.126-6.947,6.889,6.889,0,0,1,6.876,6.875A6.989,6.989,0,0,1,11339.512,558.19Z" fill="#ff3096"/>
  </g>
</svg>
