<svg xmlns="http://www.w3.org/2000/svg" width="60" height="60" viewBox="0 0 60 60">
  <g id="Group_468" data-name="Group 468" transform="translate(-11136.271 -10263.198)">
    <path id="Path_16759" data-name="Path 16759" d="M11136.376,10291.839c0,.165.071.345-.1.471v-.468C11136.3,10291.789,11136.34,10291.791,11136.376,10291.839Z" fill="#454545"/>
    <path id="Path_16760" data-name="Path 16760" d="M11136.367,10294.774c-.017.156.12.346-.1.461v-.469C11136.307,10294.713,11136.339,10294.715,11136.367,10294.774Z" fill="#656565"/>
    <path id="Path_16761" data-name="Path 16761" d="M11167.518,10323.1h.469c.033.024.044.047.03.067s-.023.03-.036.03h-.469c-.039-.024-.051-.046-.036-.067S11167.5,10323.1,11167.518,10323.1Z" fill="#5c5c5c"/>
    <path id="Path_16762" data-name="Path 16762" d="M11167.98,10323.2c0-.032,0-.065.006-.1.156.021.349-.127.462.1Z" fill="#7a7a7a"/>
    <path id="Path_16763" data-name="Path 16763" d="M11136.271,10291.257c.185.073.095.224.1.347-.03.059-.063.058-.1,0Z" fill="#6d6d6d"/>
    <path id="Path_16764" data-name="Path 16764" d="M11136.367,10294.774a.774.774,0,0,1-.1-.008v-.351C11136.424,10294.5,11136.387,10294.641,11136.367,10294.774Z" fill="#4b4b4b"/>
    <path id="Path_16765" data-name="Path 16765" d="M11136.271,10291.608c.032,0,.065,0,.1,0l.007.235c-.036,0-.071,0-.105,0Z" fill="#5a5a5a"/>
    <path id="Path_16766" data-name="Path 16766" d="M11164.47,10323.2c.028-.148.134-.112.231-.1.04.021.054.041.042.063s-.026.034-.039.034Z" fill="#a4a4a4"/>
    <path id="Path_16767" data-name="Path 16767" d="M11164.7,10323.2c0-.032,0-.065,0-.1h.232c.041.021.056.042.043.064s-.025.034-.038.034Z" fill="#8d8d8d"/>
    <path id="Path_16768" data-name="Path 16768" d="M11164.938,10323.2c0-.032,0-.065,0-.1h.233c.042.021.056.041.044.064s-.026.034-.039.034Z" fill="#767676"/>
    <path id="Path_16769" data-name="Path 16769" d="M11165.172,10323.2c0-.032,0-.065,0-.1.1-.02.194-.017.239.1Z" fill="#5e5e5e"/>
    <path id="Path_16770" data-name="Path 16770" d="M11167.518,10323.1l-.006.1h-.233C11167.327,10323.089,11167.417,10323.081,11167.518,10323.1Z" fill="#474747"/>
    <path id="Path_16771" data-name="Path 16771" d="M11196.157,10290.237a28.914,28.914,0,0,0-3.094-10.663,30.893,30.893,0,0,0-4.552-6.705,29.011,29.011,0,0,0-7.946-6.261,30.152,30.152,0,0,0-17.149-3.287,29.244,29.244,0,0,0-10.194,2.864,30.253,30.253,0,0,0-9.775,7.188,28.254,28.254,0,0,0-6.767,13.719c-.23,1.188-.254,2.39-.408,3.58v.585c.1.109.044.245.061.368v.234c-.023.149.054.313-.061.45v2.106c.1.11.044.246.061.37-.023.149.053.312-.061.449v.585c.107.552.069,1.116.135,1.671a28.238,28.238,0,0,0,2.72,9.261,27.938,27.938,0,0,0,6.584,8.627,31.555,31.555,0,0,0,13.129,6.984,28.961,28.961,0,0,0,5.046.835h.585c.073-.079.169-.056.259-.061h.419c.09,0,.186-.019.259.061h1.872c.086-.089.2-.051.3-.061h.4c.154.023.323-.055.468.061h.233c.709-.119,1.431-.063,2.14-.153a29.272,29.272,0,0,0,7.668-2,26.85,26.85,0,0,0,9.8-7.027,32.7,32.7,0,0,0,6.564-11.829A30.347,30.347,0,0,0,11196.157,10290.237Zm-49.434-17.062a27.628,27.628,0,0,1,11.569-6.767c.179-.053.387-.2.532-.013.105.135-.093.227-.184.313a25.135,25.135,0,0,0-5.731,9.051c-.373.934-.687,1.889-1.04,2.868a26.724,26.724,0,0,1-5.142-3.939C11145.95,10273.93,11145.947,10273.927,11146.724,10273.176Zm18.555,18.668c0,.365-.1.457-.461.455-2.1-.017-4.207-.008-6.311-.008s-4.207-.007-6.31.006c-.341,0-.472-.055-.454-.444a55.191,55.191,0,0,1,1.228-9.89c.1-.419.192-.453.551-.283a29.048,29.048,0,0,0,11.295,2.8c.346.016.465.107.462.473Q11165.252,10288.4,11165.278,10291.844Zm-27.023-.091a27.843,27.843,0,0,1,5.78-15.557c.632-.823.633-.826,1.368-.108a27.957,27.957,0,0,0,5.507,4.207.591.591,0,0,1,.346.774,48.836,48.836,0,0,0-1.4,10.8c-.009.4-.179.426-.494.424-1.773-.011-3.548,0-5.32,0-1.753,0-3.508-.017-5.261.011C11138.329,10292.309,11138.227,10292.2,11138.255,10291.753Zm6.81,19c-.312.316-.445.317-.73-.042a28.118,28.118,0,0,1-5.558-11.876,29.524,29.524,0,0,1-.525-4.168c-.027-.415.12-.475.481-.471,1.772.016,3.547.007,5.319.007,1.754,0,3.508.011,5.262-.009.389,0,.53.073.542.5a47.583,47.583,0,0,0,1.386,10.629.692.692,0,0,1-.393.916A27.9,27.9,0,0,0,11145.064,10310.752Zm1.188,2.117c-.168-.168-.337-.271-.067-.539a29.015,29.015,0,0,1,5.532-4.372,1,1,0,0,1,.181-.063c1.5,4.66,3.556,9,7.349,12.486A28.515,28.515,0,0,1,11146.253,10312.869Zm18.994,8.237c0,.016-.015.031-.033.067a9.553,9.553,0,0,1-5.42-2.843,23.489,23.489,0,0,1-5.368-8.849c-.272-.727-.477-1.479-.742-2.208-.1-.272-.075-.4.205-.533a28.744,28.744,0,0,1,10.991-2.835c.241-.015.4-.013.4.314Q11165.251,10312.663,11165.247,10321.106Zm-.49-19.088a28.879,28.879,0,0,0-11.13,2.744c-.463.218-.573.153-.684-.347a55.823,55.823,0,0,1-1.2-9.776c-.017-.39.114-.446.454-.444,2.123.013,4.246.007,6.369.007,2.063,0,4.129.011,6.192-.01.407,0,.524.1.521.516q-.031,3.388,0,6.777C11165.283,10301.9,11165.153,10302,11164.757,10302.019Zm-.021-19.432a28.477,28.477,0,0,1-10.762-2.807c-.186-.091-.437-.1-.32-.479a27.073,27.073,0,0,1,5.426-10.408,10.363,10.363,0,0,1,5.711-3.514c.466-.094.489.056.487.44-.015,2.727-.008,5.455-.008,8.182,0,2.688-.011,5.376.011,8.064C11165.284,10282.508,11165.182,10282.616,11164.735,10282.587Zm10.325-15.915a28.255,28.255,0,0,1,11.138,6.952c.168.169.335.27.065.539a29,29,0,0,1-5.533,4.373.878.878,0,0,1-.178.06c-1.5-4.628-3.529-8.936-7.12-12.414C11173.976,10266.344,11174.525,10266.49,11175.061,10266.672Zm-7.348-1.283a9.933,9.933,0,0,1,4.962,2.79,23.525,23.525,0,0,1,5.357,8.857c.266.708.468,1.439.727,2.15.1.286.083.434-.219.579a29.045,29.045,0,0,1-10.937,2.826c-.409.025-.429-.143-.427-.463.009-2.727,0-5.454,0-8.181,0-2.707.014-5.415-.012-8.122C11167.165,10265.354,11167.283,10265.3,11167.713,10265.389Zm-.541,19.6c0-.385.11-.494.486-.511a28.97,28.97,0,0,0,11.239-2.778c.365-.172.485-.167.588.289a55.645,55.645,0,0,1,1.225,9.89c.018.425-.175.421-.479.419-2.1-.007-4.207,0-6.311,0-2.084,0-4.168-.009-6.252.008-.371,0-.5-.081-.5-.479Q11167.2,10288.4,11167.172,10284.985Zm0,9.658c0-.372.117-.451.466-.449,2.123.015,4.246.008,6.369.008,2.084,0,4.169.007,6.253-.007.351,0,.463.07.447.449a55.181,55.181,0,0,1-1.229,9.891c-.1.438-.212.436-.555.272a28.7,28.7,0,0,0-11.293-2.794c-.351-.013-.46-.116-.458-.475Q11167.2,10298.092,11167.172,10294.644Zm1.234,26.285a5.722,5.722,0,0,1-.565.146c-.206.041-.415.063-.66.1v-.492q0-8.123-.009-16.246c0-.422.068-.562.534-.531a28.594,28.594,0,0,1,10.763,2.8c.223.108.437.141.316.531a28.7,28.7,0,0,1-4.616,9.417A11.622,11.622,0,0,1,11168.406,10320.929Zm17.819-8.085a28.131,28.131,0,0,1-12.128,7.267.809.809,0,0,1-.628.011,27,27,0,0,0,6.9-11.714c.152-.466.242-.563.7-.272a30.4,30.4,0,0,1,5.135,4.124C11186.415,10312.475,11186.481,10312.588,11186.226,10312.844Zm7.972-18.194a28.009,28.009,0,0,1-6.189,16.192c-.187.236-.293.229-.49.029a29.2,29.2,0,0,0-6.11-4.763.427.427,0,0,1-.218-.568,47.485,47.485,0,0,0,1.232-7.541c.084-1.088.155-2.179.176-3.269.01-.448.149-.545.574-.538,1.754.023,3.509.01,5.264.01,1.775,0,3.55.01,5.323-.009C11194.124,10294.189,11194.219,10294.284,11194.2,10294.649Zm-.408-2.352c-1.794-.016-3.587-.007-5.381-.007-1.755,0-3.51-.012-5.266.009-.395,0-.53-.088-.54-.508a47.994,47.994,0,0,0-1.392-10.694.6.6,0,0,1,.317-.793,27.959,27.959,0,0,0,5.883-4.584c.29-.294.426-.291.689.041a27.98,27.98,0,0,1,6.1,16.11C11194.217,10292.209,11194.125,10292.3,11193.789,10292.3Z"/>
  </g>
</svg>
