<svg xmlns="http://www.w3.org/2000/svg" width="106.819" height="87.023" viewBox="0 0 106.819 87.023">
  <g id="Group_3197" data-name="Group 3197" transform="translate(-6413.179 -1814.941)">
    <path id="Path_103607" data-name="Path 103607" d="M6519.8,1873.572a22.439,22.439,0,0,0-1.543-6.134q-6.936-16.869-13.913-33.719a14.919,14.919,0,0,0-5.48-7.064,11.224,11.224,0,0,1-4.371-5.471,10.581,10.581,0,0,0-10.734-6.2,10.986,10.986,0,0,0-9.5,7.873,22.048,22.048,0,0,0-.406,5.8,1.964,1.964,0,0,1-.325,1.266,17.368,17.368,0,0,0-3.636,11.261c.016.6-.18.775-.767.762-1.6-.034-3.2-.054-4.8.006-.8.03-1.073-.171-1.046-1.02a14.321,14.321,0,0,0-2.232-8.742,11.152,11.152,0,0,1-1.771-6.706,10.733,10.733,0,0,0-8.567-10.3,10.859,10.859,0,0,0-12.132,6.118c-.406.88-.8,1.77-1.13,2.68a2.141,2.141,0,0,1-1.047,1.2,17.062,17.062,0,0,0-7.285,7.916c-1.345,2.964-2.519,6.005-3.76,9.015a1.6,1.6,0,1,0,2.955,1.144c1.127-2.683,2.2-5.389,3.34-8.065a14.778,14.778,0,0,1,28.481,5.8q.02,11.108,0,22.214c0,.282.107.6-.118.879a1.637,1.637,0,0,1-.153-.178,25.037,25.037,0,0,0-36.11-7.742c-.275.2-.545.461-.868.261,1.074-2.6,2.171-5.184,3.2-7.792a1.569,1.569,0,0,0-2.909-1.176c-.127.245-.23.5-.336.76-2.023,4.9-4.065,9.79-6.058,14.7a48.223,48.223,0,0,0-3.085,8.595,6.864,6.864,0,0,1-.51,2.271v.626c.4.417.258.834,0,1.251v3.756c.259.9.131,1.852.352,2.762a24.914,24.914,0,0,0,7.9,13.306c6.02,5.246,13,7.417,20.864,6.063,9.937-1.711,16.553-7.556,19.98-17a20.275,20.275,0,0,0,1.257-7.465c-.015-.577-.029-1.148.814-1.142,1.494.01,2.989,0,4.483,0,.571,0,.814.268.82.827a20.866,20.866,0,0,0,.046,2.292,25.293,25.293,0,0,0,11,18.477,25.114,25.114,0,0,0,26.768,1.077,25.235,25.235,0,0,0,10.547-11.6,22,22,0,0,0,1.987-7.593v-5.425C6519.775,1873.927,6519.818,1873.735,6519.8,1873.572Zm-63.681-47.219a18.255,18.255,0,0,0-14.822-3.131,7.52,7.52,0,0,1,8.194-5.012A7.653,7.653,0,0,1,6456.119,1826.353Zm-17.861,72.119a21.881,21.881,0,1,1,21.875-21.866A21.932,21.932,0,0,1,6438.258,1898.472Zm45-80.194a7.561,7.561,0,0,1,8.645,4.941,18.25,18.25,0,0,0-14.83,3.145A7.661,7.661,0,0,1,6483.253,1818.278ZM6469.878,1868c0,1.214-.018,2.428.009,3.641.01.5-.064.763-.663.752-1.768-.035-3.538-.029-5.306,0-.526.008-.631-.209-.628-.68.018-2.5.025-4.994,0-7.491-.006-.567.195-.7.719-.689,1.733.026,3.468.032,5.2,0,.573-.011.695.2.681.727C6469.856,1865.5,6469.878,1866.748,6469.878,1868Zm-.882-7.614c-1.664-.06-3.332-.037-5-.008-.548.009-.712-.172-.71-.715q.027-6.926,0-13.851c0-.47.1-.691.629-.684,1.77.025,3.541.032,5.31,0,.61-.012.659.279.655.764-.016,2.291-.007,4.582-.007,6.873,0,2.222-.024,4.444.014,6.665C6469.9,1860.113,6469.77,1860.41,6469,1860.383Zm4.048-19.333a14.774,14.774,0,0,1,12.791-14.972,14.565,14.565,0,0,1,15.383,8.5c3.085,7.116,5.965,14.322,8.929,21.491a3.1,3.1,0,0,1,.056.58c-6.2-4.4-12.9-6.1-20.232-4.6-7.364,1.5-12.883,5.662-16.929,12.262v-1.157Q6473.042,1852.1,6473.044,1841.05Zm21.833,57.423a21.882,21.882,0,1,1,21.962-21.907A21.881,21.881,0,0,1,6494.877,1898.473Z" fill="#ff3096"/>
    <g id="Group_3195" data-name="Group 3195">
      <path id="Path_103608" data-name="Path 103608" d="M6438.212,1895.5A18.786,18.786,0,1,1,6457,1876.715,18.808,18.808,0,0,1,6438.212,1895.5Zm0-34.651a15.865,15.865,0,1,0,15.864,15.865A15.883,15.883,0,0,0,6438.212,1860.85Z" fill="#ff3096"/>
    </g>
    <g id="Group_3196" data-name="Group 3196">
      <path id="Path_103609" data-name="Path 103609" d="M6495.069,1895.6a18.786,18.786,0,1,1,18.787-18.786A18.807,18.807,0,0,1,6495.069,1895.6Zm0-34.651a15.865,15.865,0,1,0,15.865,15.865A15.883,15.883,0,0,0,6495.069,1860.949Z" fill="#ff3096"/>
    </g>
  </g>
</svg>
