<svg xmlns="http://www.w3.org/2000/svg" width="92.282" height="93.754" viewBox="0 0 92.282 93.754">
  <g id="Group_3194" data-name="Group 3194" transform="translate(-6865.241 -1810.21)">
    <g id="Group_3191" data-name="Group 3191">
      <path id="Path_103605" data-name="Path 103605" d="M6900.521,1871.931h-.361a1.657,1.657,0,0,1-1.23-2.379c.428-1.211.982-2.372,1.492-3.55.852-1.97,1.69-3.946,2.555-5.911a1.163,1.163,0,0,0-.156-1.324,30.269,30.269,0,0,1-.077-36.336,29.84,29.84,0,0,1,20.32-12.017,35.907,35.907,0,0,1,6.18-.14,27.446,27.446,0,0,1,10.342,2.493,30.39,30.39,0,0,1,15.216,15.088,28.84,28.84,0,0,1,2.6,9.779,30.819,30.819,0,0,1-.992,11.141,30.625,30.625,0,0,1-21.64,21.221,29.676,29.676,0,0,1-5.872.913,30.977,30.977,0,0,1-8.769-.752c-.844-.188-1.664-.456-2.483-.723a2.588,2.588,0,0,0-1.3-.087c-4.6.807-9.2,1.642-13.81,2.415a7.784,7.784,0,0,1-1.374.107C6900.947,1871.9,6900.723,1871.805,6900.521,1871.931Z" fill="#ff3096"/>
      <g id="Group_3190" data-name="Group 3190">
        <circle id="Ellipse_820" data-name="Ellipse 820" cx="3.104" cy="3.104" r="3.104" transform="translate(6938.505 1837.967)" fill="#fcfcfc"/>
        <circle id="Ellipse_821" data-name="Ellipse 821" cx="3.104" cy="3.104" r="3.104" transform="translate(6924.536 1837.967)" fill="#fcfcfc"/>
        <circle id="Ellipse_822" data-name="Ellipse 822" cx="3.104" cy="3.104" r="3.104" transform="translate(6910.567 1837.967)" fill="#fcfcfc"/>
      </g>
    </g>
    <g id="Group_3193" data-name="Group 3193">
      <path id="Path_103606" data-name="Path 103606" d="M6922.244,1903.964h.361a1.657,1.657,0,0,0,1.23-2.379c-.428-1.211-.983-2.372-1.492-3.55-.852-1.97-1.69-3.946-2.555-5.911a1.165,1.165,0,0,1,.155-1.324,30.266,30.266,0,0,0,.078-36.336,29.841,29.841,0,0,0-20.32-12.017,35.9,35.9,0,0,0-6.18-.14,27.447,27.447,0,0,0-10.343,2.493,30.388,30.388,0,0,0-15.216,15.088,28.84,28.84,0,0,0-2.595,9.779,30.83,30.83,0,0,0,.993,11.141A30.629,30.629,0,0,0,6888,1902.029a29.7,29.7,0,0,0,5.873.913,30.982,30.982,0,0,0,8.769-.752c.844-.188,1.663-.456,2.483-.723a2.583,2.583,0,0,1,1.3-.087c4.6.807,9.2,1.642,13.81,2.415a7.814,7.814,0,0,0,1.375.107C6921.818,1903.931,6922.042,1903.838,6922.244,1903.964Z" fill="#5ce1e6"/>
      <g id="Group_3192" data-name="Group 3192">
        <circle id="Ellipse_823" data-name="Ellipse 823" cx="3.104" cy="3.104" r="3.104" transform="translate(6878.051 1870)" fill="#fcfcfc"/>
        <circle id="Ellipse_824" data-name="Ellipse 824" cx="3.104" cy="3.104" r="3.104" transform="translate(6892.021 1870)" fill="#fcfcfc"/>
        <circle id="Ellipse_825" data-name="Ellipse 825" cx="3.104" cy="3.104" r="3.104" transform="translate(6905.989 1870)" fill="#fcfcfc"/>
      </g>
    </g>
  </g>
</svg>
