<svg xmlns="http://www.w3.org/2000/svg" width="105.55" height="101.292" viewBox="0 0 105.55 101.292">
  <g id="Group_3189" data-name="Group 3189" transform="translate(-6637.217 -1804.941)">
    <g id="Group_3185" data-name="Group 3185">
      <line id="Line_643" data-name="Line 643" y2="22.63" transform="translate(6689.445 1846.428)" fill="none" stroke="#ff30a2" stroke-linecap="round" stroke-linejoin="round" stroke-width="6"/>
      <line id="Line_644" data-name="Line 644" x1="22.63" transform="translate(6678.13 1857.744)" fill="none" stroke="#ff30a2" stroke-linecap="round" stroke-linejoin="round" stroke-width="6"/>
    </g>
    <g id="Group_3187" data-name="Group 3187">
      <g id="Group_3186" data-name="Group 3186">
        <path id="Path_103603" data-name="Path 103603" d="M6690.394,1886.909c3.709,0,7.417.017,11.126-.017.656-.006.839.172.809.817-.05,1.079-.029,2.164.012,3.244.019.5-.148.635-.629.616-.9-.035-1.793-.029-2.688,0a1.307,1.307,0,0,0-1.393,1.3,1.351,1.351,0,0,0,1.347,1.46,22.734,22.734,0,0,0,2.687,0c.629-.041.714.206.645.742a4.517,4.517,0,0,1-4.309,3.9q-7.649.087-15.3,0a4.5,4.5,0,0,1-4.262-3.619c-.151-.673-.129-1.037.776-1.026,4.233.05,8.468.023,12.7.019a3.283,3.283,0,0,0,.917-.072,1.291,1.291,0,0,0,1.017-1.455,1.266,1.266,0,0,0-1.258-1.242c-.277-.024-.556-.011-.834-.011-4.173,0-8.345-.022-12.517.019-.757.008-.932-.224-.892-.926a27.538,27.538,0,0,0,0-3.058c-.033-.6.187-.7.731-.7C6682.853,1886.92,6686.623,1886.909,6690.394,1886.909Z" fill="#b2b0b1"/>
        <path id="Path_103604" data-name="Path 103604" d="M6690.35,1901.553c2.628,0,5.257.027,7.884-.02.573-.011.576.211.571.629a4.146,4.146,0,0,1-3.957,4.027q-4.5.089-9,0a4.141,4.141,0,0,1-3.956-4.026c0-.417,0-.641.57-.63C6685.094,1901.58,6687.722,1901.553,6690.35,1901.553Z" fill="#b2b0b1"/>
      </g>
    </g>
    <g id="Group_3188" data-name="Group 3188">
      <line id="Line_645" data-name="Line 645" y2="13.839" transform="translate(6689.693 1807.941)" fill="none" stroke="#ff30a2" stroke-linecap="round" stroke-linejoin="round" stroke-width="6"/>
      <line id="Line_646" data-name="Line 646" x1="5.537" y2="12.683" transform="translate(6704.135 1812.08)" fill="none" stroke="#ff30a2" stroke-linecap="round" stroke-linejoin="round" stroke-width="6"/>
      <line id="Line_647" data-name="Line 647" x1="10.149" y2="9.408" transform="translate(6716.176 1823.866)" fill="none" stroke="#ff30a2" stroke-linecap="round" stroke-linejoin="round" stroke-width="6"/>
      <line id="Line_648" data-name="Line 648" x1="13.066" y2="4.561" transform="translate(6723.806 1841.332)" fill="none" stroke="#ff30a2" stroke-linecap="round" stroke-linejoin="round" stroke-width="6"/>
      <line id="Line_649" data-name="Line 649" x1="13.799" y1="1.048" transform="translate(6725.75 1860.51)" fill="none" stroke="#ff30a2" stroke-linecap="round" stroke-linejoin="round" stroke-width="6"/>
      <line id="Line_650" data-name="Line 650" x1="12.227" y1="6.482" transform="translate(6720.782 1877.383)" fill="none" stroke="#ff30a2" stroke-linecap="round" stroke-linejoin="round" stroke-width="6"/>
      <line id="Line_651" data-name="Line 651" y1="7.767" x2="11.454" transform="translate(6648.503 1878.167)" fill="none" stroke="#ff30a2" stroke-linecap="round" stroke-linejoin="round" stroke-width="6"/>
      <line id="Line_652" data-name="Line 652" y1="2.535" x2="13.605" transform="translate(6640.716 1864.541)" fill="none" stroke="#ff30a2" stroke-linecap="round" stroke-linejoin="round" stroke-width="6"/>
      <line id="Line_653" data-name="Line 653" x2="13.482" y2="3.12" transform="translate(6641.125 1846.677)" fill="none" stroke="#ff30a2" stroke-linecap="round" stroke-linejoin="round" stroke-width="6"/>
      <line id="Line_654" data-name="Line 654" x2="11.107" y2="8.254" transform="translate(6649.662 1828.146)" fill="none" stroke="#ff30a2" stroke-linecap="round" stroke-linejoin="round" stroke-width="6"/>
      <line id="Line_655" data-name="Line 655" x2="6.877" y2="12.009" transform="translate(6665.8 1813.679)" fill="none" stroke="#ff30a2" stroke-linecap="round" stroke-linejoin="round" stroke-width="6"/>
    </g>
  </g>
</svg>
