<svg xmlns="http://www.w3.org/2000/svg" width="104.056" height="104.055" viewBox="0 0 104.056 104.055">
  <g id="Group_3205" data-name="Group 3205" transform="translate(-7080.66 -1805)">
    <g id="Group_3203" data-name="Group 3203">
      <path id="Path_105186" data-name="Path 105186" d="M7140.016,1809.051l.117.118a10.321,10.321,0,0,0,10.037,2.689l.16-.043a10.325,10.325,0,0,1,12.692,7.327l.043.162a10.322,10.322,0,0,0,7.347,7.347l.161.042a10.327,10.327,0,0,1,7.328,12.693l-.043.16a10.319,10.319,0,0,0,2.689,10.036l.118.117a10.326,10.326,0,0,1,0,14.656l-.118.117a10.322,10.322,0,0,0-2.689,10.037l.043.161a10.326,10.326,0,0,1-7.328,12.692l-.161.041a10.328,10.328,0,0,0-7.347,7.349l-.043.161a10.324,10.324,0,0,1-12.692,7.327l-.16-.043a10.321,10.321,0,0,0-10.037,2.69l-.117.117a10.326,10.326,0,0,1-14.656,0l-.116-.117a10.323,10.323,0,0,0-10.037-2.69l-.161.043a10.325,10.325,0,0,1-12.692-7.327l-.043-.161a10.328,10.328,0,0,0-7.347-7.349l-.161-.041a10.325,10.325,0,0,1-7.327-12.692l.044-.161a10.328,10.328,0,0,0-2.691-10.037l-.117-.117a10.324,10.324,0,0,1,0-14.656l.117-.117a10.325,10.325,0,0,0,2.691-10.036l-.044-.16a10.326,10.326,0,0,1,7.327-12.693l.161-.042a10.322,10.322,0,0,0,7.347-7.347l.043-.162a10.326,10.326,0,0,1,12.692-7.327l.161.043a10.323,10.323,0,0,0,10.037-2.689l.116-.118A10.326,10.326,0,0,1,7140.016,1809.051Z" fill="none" stroke="#5ce1e6" stroke-miterlimit="10" stroke-width="2"/>
      <path id="Path_105187" data-name="Path 105187" d="M7139.155,1814.692l.1.1a9.107,9.107,0,0,0,8.857,2.373l.14-.038a9.112,9.112,0,0,1,11.2,6.466l.038.143a9.111,9.111,0,0,0,6.484,6.483l.142.037a9.113,9.113,0,0,1,6.466,11.2l-.039.141a9.111,9.111,0,0,0,2.373,8.856l.1.1a9.111,9.111,0,0,1,0,12.932l-.1.1a9.115,9.115,0,0,0-2.373,8.858l.039.142a9.111,9.111,0,0,1-6.466,11.2l-.142.036a9.116,9.116,0,0,0-6.484,6.485l-.038.142a9.11,9.11,0,0,1-11.2,6.466l-.14-.038a9.108,9.108,0,0,0-8.857,2.373l-.1.1a9.113,9.113,0,0,1-12.933,0l-.1-.1a9.109,9.109,0,0,0-8.857-2.373l-.142.038a9.111,9.111,0,0,1-11.2-6.466l-.037-.142a9.115,9.115,0,0,0-6.483-6.485l-.142-.036a9.11,9.11,0,0,1-6.466-11.2l.039-.142a9.117,9.117,0,0,0-2.374-8.858l-.1-.1a9.111,9.111,0,0,1,0-12.932l.1-.1a9.114,9.114,0,0,0,2.374-8.856l-.039-.141a9.112,9.112,0,0,1,6.466-11.2l.142-.037a9.109,9.109,0,0,0,6.483-6.483l.037-.143a9.113,9.113,0,0,1,11.2-6.466l.142.038a9.109,9.109,0,0,0,8.857-2.373l.1-.1A9.113,9.113,0,0,1,7139.155,1814.692Z" fill="none" stroke="#ff3096" stroke-miterlimit="10" stroke-width="3"/>
    </g>
  </g>
</svg>
